<?xml version="1.0" encoding="UTF-8" standalone="no"?>
<svg
   xmlns:dc="http://purl.org/dc/elements/1.1/"
   xmlns:cc="http://creativecommons.org/ns#"
   xmlns:rdf="http://www.w3.org/1999/02/22-rdf-syntax-ns#"
   xmlns:svg="http://www.w3.org/2000/svg"
   xmlns="http://www.w3.org/2000/svg"
   xmlns:xlink="http://www.w3.org/1999/xlink"
   xmlns:sodipodi="http://sodipodi.sourceforge.net/DTD/sodipodi-0.dtd"
   xmlns:inkscape="http://www.inkscape.org/namespaces/inkscape"
   width="1000"
   height="750"
   viewBox="0 0 1000 750"
   id="svg2335"
   sodipodi:version="0.32"
   inkscape:version="0.48.1 r9760"
   sodipodi:docname="fig_simple_sine_wave.svg"
   version="1.1">
  <metadata
     id="metadata2494">
    <rdf:RDF>
      <cc:Work
         rdf:about="">
        <dc:format>image/svg+xml</dc:format>
        <dc:type
           rdf:resource="http://purl.org/dc/dcmitype/StillImage" />
        <dc:title></dc:title>
      </cc:Work>
    </rdf:RDF>
  </metadata>
  <sodipodi:namedview
     inkscape:window-height="588"
     inkscape:window-width="909"
     inkscape:pageshadow="2"
     inkscape:pageopacity="0.0"
     guidetolerance="10.0"
     gridtolerance="10.0"
     objecttolerance="10.0"
     borderopacity="1.0"
     bordercolor="#666666"
     pagecolor="#ffffff"
     id="base"
     inkscape:zoom="1.9946667"
     inkscape:cx="546.48926"
     inkscape:cy="452.88921"
     inkscape:window-x="664"
     inkscape:window-y="190"
     inkscape:current-layer="svg2335"
     showgrid="false" />
  <desc
     id="desc2337">Produced by GNUPLOT 4.0 patchlevel 0 </desc>
  <defs
     id="defs2339">
    <marker
       inkscape:stockid="Arrow1Sstart"
       orient="auto"
       refY="0.0"
       refX="0.0"
       id="Arrow1Sstart"
       style="overflow:visible">
      <path
         id="path3852"
         d="M 0.0,0.0 L 5.0,-5.0 L -12.5,0.0 L 5.0,5.0 L 0.0,0.0 z "
         style="fill-rule:evenodd;stroke:#000000;stroke-width:1.0pt;marker-start:none"
         transform="scale(0.2) translate(6,0)" />
    </marker>
    <marker
       inkscape:stockid="Arrow1Mend"
       orient="auto"
       refY="0.0"
       refX="0.0"
       id="Arrow1Mend"
       style="overflow:visible;">
      <path
         id="path3849"
         d="M 0.0,0.0 L 5.0,-5.0 L -12.5,0.0 L 5.0,5.0 L 0.0,0.0 z "
         style="fill-rule:evenodd;stroke:#000000;stroke-width:1.0pt;marker-start:none;"
         transform="scale(0.4) rotate(180) translate(10,0)" />
    </marker>
    <marker
       inkscape:stockid="Arrow1Mstart"
       orient="auto"
       refY="0.0"
       refX="0.0"
       id="Arrow1Mstart"
       style="overflow:visible">
      <path
         id="path3846"
         d="M 0.0,0.0 L 5.0,-5.0 L -12.5,0.0 L 5.0,5.0 L 0.0,0.0 z "
         style="fill-rule:evenodd;stroke:#000000;stroke-width:1.0pt;marker-start:none"
         transform="scale(0.4) translate(10,0)" />
    </marker>
    <circle
       id="gpDot"
       r="1" />
    <path
       id="gpPt0"
       style="stroke-width:0.133"
       d="M-1,0 h2 M0,-1 v2" />
    <path
       id="gpPt1"
       style="stroke-width:0.133"
       d="M-1,-1 L1,1 M1,-1 L-1,1" />
    <path
       id="gpPt2"
       style="stroke-width:0.133"
       d="M-1,0 L1,0 M0,-1 L0,1 M-1,-1 L1,1 M-1,1 L1,-1" />
    <rect
       id="gpPt3"
       style="stroke-width:0.133"
       x="-1"
       y="-1"
       width="2"
       height="2" />
    <use
       xlink:href="#gpPt3"
       id="gpPt4"
       style="fill:currentColor; stroke:none" />
    <circle
       id="gpPt5"
       style="stroke-width:0.133"
       cx="0"
       cy="0"
       r="1" />
    <use
       xlink:href="#gpPt5"
       id="gpPt6"
       style="fill:currentColor; stroke:none" />
    <path
       id="gpPt7"
       style="stroke-width:0.133"
       d="M0,-1.33 L-1.33,0.67 L1.33,0.67 z" />
    <use
       xlink:href="#gpPt7"
       id="gpPt8"
       style="fill:currentColor; stroke:none" />
    <use
       xlink:href="#gpPt7"
       id="gpPt9"
       transform="rotate(180)" />
    <use
       xlink:href="#gpPt9"
       id="gpPt10"
       style="fill:currentColor; stroke:none" />
    <use
       xlink:href="#gpPt3"
       id="gpPt11"
       transform="rotate(45)" />
    <use
       xlink:href="#gpPt11"
       id="gpPt12"
       style="fill:currentColor; stroke:none" />
  </defs>
  <g
     style="fill:none; color:black; stroke:currentColor; stroke-width:1.00"
     id="g2355" />
  <g
     style="color:#ff0000;fill:none;stroke:#0003ff;stroke-width:6.66666651;stroke-linecap:round;stroke-linejoin:round;stroke-miterlimit:4;stroke-opacity:1;stroke-dasharray:none"
     id="g2485"
     transform="matrix(0.15,0,0,0.15,314.45336,280.95457)">
    <path
       d="m 69.359897,373 9,-22 10,-22 9,-21 9.000003,-21 9,-20 10,-19 9,-18 9,-17 9,-15 10,-13 9,-12 9,-10 10,-9 9,-6 9,-4 9,-2 10,0 9,2 9,4 9,6 10,9 9,10 9,12 10,13 9,15 9,17 9,18 10,19 9,20 9,21 9,21 10,22 9,22 9,22 10,22 9,21 9,21 9,20 10,19 9,18 9,17 9,15 10,13 9,12 9,10 10,9 9,6 9,4 9,2 10,0 9,-2 9,-4 9,-6 10,-9 9,-10 9,-12 10,-13 9,-15 9,-17 9,-18 10,-19 9,-20 9,-21 9,-21 10,-22 9,-22 9,-22 10,-22 9,-21 9,-21 9,-20 10,-19 9,-18 9,-17 9,-15 10,-13 9,-12 9,-10 10,-9 9,-6 9,-4 9,-2 10,0 9,2 9,4 9,6 10,9 9,10 9,12 10,13 9,15 9,17 9,18 10,19 9,20 9,21 9,21 10,22 9,22"
       id="path2487"
       style="stroke:#0003ff;stroke-width:6.66666651;stroke-linecap:round;stroke-linejoin:round;stroke-miterlimit:4;stroke-opacity:1;stroke-dasharray:none"
       inkscape:connector-curvature="0" />
  </g>
  <g
     transform="matrix(0.15,0,0.02209959,-0.0607184,448.14569,359.29352)"
     id="g3831"
     style="color:#ff0000;fill:none;stroke:#0003ff;stroke-width:10.47838161;stroke-linecap:round;stroke-linejoin:round;stroke-miterlimit:4;stroke-opacity:1;stroke-dasharray:none">
    <path
       inkscape:connector-curvature="0"
       style="stroke:#0003ff;stroke-width:10.47838161;stroke-linecap:round;stroke-linejoin:round;stroke-miterlimit:4;stroke-opacity:1;stroke-dasharray:none"
       id="path3833"
       d="m 41,373 9,-22 10,-22 9,-21 9,-21 9,-20 10,-19 9,-18 9,-17 9,-15 10,-13 9,-12 9,-10 10,-9 9,-6 9,-4 9,-2 10,0 9,2 9,4 9,6 10,9 9,10 9,12 10,13 9,15 9,17 9,18 10,19 9,20 9,21 9,21 10,22 9,22 9,22 10,22 9,21 9,21 9,20 10,19 9,18 9,17 9,15 10,13 9,12 9,10 10,9 9,6 9,4 9,2 10,0 9,-2 9,-4 9,-6 10,-9 9,-10 9,-12 10,-13 9,-15 9,-17 9,-18 10,-19 9,-20 9,-21 9,-21 10,-22 9,-22 9,-22 10,-22 9,-21 9,-21 9,-20 10,-19 9,-18 9,-17 9,-15 10,-13 9,-12 9,-10 10,-9 9,-6 9,-4 9,-2 10,0 9,2 9,4 9,6 10,9 9,10 9,12 10,13 9,15 9,17 9,18 10,19 9,20 9,21 9,21 10,22 9,22" />
  </g>
  <path
     style="fill:#ffffff;fill-opacity:1;fill-rule:nonzero;stroke:#000000;stroke-width:1;stroke-miterlimit:4;stroke-opacity:1;stroke-dasharray:none;stroke-dashoffset:0;marker-start:url(#Arrow1Mstart);marker-end:url(#Arrow1Mend)"
     d="m 536.11222,325.13295 -15.7921,26.69619"
     id="path3835"
     inkscape:connector-curvature="0" />
  <path
     style="fill:#ffffff;fill-opacity:1;fill-rule:nonzero;stroke:#000000;stroke-width:1;stroke-miterlimit:4;stroke-opacity:1;stroke-dasharray:none;stroke-dashoffset:0;marker-start:url(#Arrow1Mstart);marker-end:url(#Arrow1Mend)"
     d="m 347.91734,304.82879 0,67.68049"
     id="path4845"
     inkscape:connector-curvature="0" />
  <g
     id="g5623">
    <path
       transform="matrix(1.5,0,0,1.5,-226.24916,-168.38654)"
       d="m 463.23528,336.77307 a 3.7600267,24.941511 0 1 1 -7.52006,0 3.7600267,24.941511 0 1 1 7.52006,0 z"
       sodipodi:ry="24.941511"
       sodipodi:rx="3.7600267"
       sodipodi:cy="336.77307"
       sodipodi:cx="459.47525"
       id="path3829"
       style="fill:none;fill-opacity:1;fill-rule:nonzero;stroke:#000000;stroke-width:0.66666667;stroke-miterlimit:4;stroke-opacity:1;stroke-dasharray:none;stroke-dashoffset:0"
       sodipodi:type="arc" />
    <path
       sodipodi:nodetypes="cc"
       style="fill:#ffffff;fill-opacity:1;fill-rule:nonzero;stroke:#000000;stroke-width:1;stroke-miterlimit:4;stroke-opacity:1;stroke-dasharray:none;stroke-dashoffset:0;marker-start:url(#Arrow1Mstart);marker-end:url(#Arrow1Mend)"
       d="m 468.00229,327.36378 -9.97328,23.14077"
       id="path4841"
       inkscape:connector-curvature="0" />
    <text
       sodipodi:linespacing="125%"
       id="text5219"
       y="294.78607"
       x="455.71521"
       style="font-size:12px;font-style:normal;font-variant:normal;font-weight:normal;font-stretch:normal;text-indent:0;text-align:start;text-decoration:none;line-height:125%;letter-spacing:0px;word-spacing:0px;text-transform:none;direction:ltr;block-progression:tb;writing-mode:lr-tb;text-anchor:start;color:#000000;fill:#000000;fill-opacity:1;fill-rule:nonzero;stroke:none;stroke-width:1px;marker:none;visibility:visible;display:inline;overflow:visible;enable-background:accumulate;font-family:Arial;-inkscape-font-specification:Arial"
       xml:space="preserve"><tspan
         y="294.78607"
         x="455.71521"
         id="tspan5221"
         sodipodi:role="line">M1</tspan></text>
  </g>
  <text
     xml:space="preserve"
     style="font-size:12px;font-style:normal;font-variant:normal;font-weight:normal;font-stretch:normal;text-indent:0;text-align:start;text-decoration:none;line-height:125%;letter-spacing:0px;word-spacing:0px;text-transform:none;direction:ltr;block-progression:tb;writing-mode:lr-tb;text-anchor:start;color:#000000;fill:#000000;fill-opacity:1;fill-rule:nonzero;stroke:none;stroke-width:1px;marker:none;visibility:visible;display:inline;overflow:visible;enable-background:accumulate;font-family:Arial;-inkscape-font-specification:Arial"
     x="322.19623"
     y="383.52274"
     id="text5223"
     sodipodi:linespacing="125%"><tspan
       sodipodi:role="line"
       x="322.19623"
       y="383.52274"
       id="tspan5227">Unknown</tspan><tspan
       sodipodi:role="line"
       x="322.19623"
       y="398.52274"
       id="tspan5231">initial state</tspan></text>
  <path
     transform="matrix(1.5593536,0,0,1.499889,-115.40146,-168.35289)"
     d="m 463.23528,336.77307 a 3.7600267,24.941511 0 1 1 -7.52006,0 3.7600267,24.941511 0 1 1 7.52006,0 z"
     sodipodi:ry="24.941511"
     sodipodi:rx="3.7600267"
     sodipodi:cy="336.77307"
     sodipodi:cx="459.47525"
     id="path5631"
     style="fill:none;stroke:#000000;stroke-width:0.66666669;stroke-miterlimit:4;stroke-opacity:1;stroke-dasharray:none;stroke-dashoffset:0"
     sodipodi:type="arc" />
  <path
     sodipodi:nodetypes="cc"
     style="fill:#ffffff;fill-opacity:1;fill-rule:nonzero;stroke:#000000;stroke-width:1.01955485;stroke-miterlimit:4;stroke-opacity:1;stroke-dasharray:none;stroke-dashoffset:0;marker-start:url(#Arrow1Mstart);marker-end:url(#Arrow1Mend)"
     d="m 604.31555,357.94221 -5.87572,-44.54097"
     id="path5633"
     inkscape:connector-curvature="0" />
  <text
     sodipodi:linespacing="125%"
     id="text5635"
     y="300.57217"
     x="582.12042"
     style="font-size:12.23465824px;font-style:normal;font-variant:normal;font-weight:normal;font-stretch:normal;text-indent:0;text-align:start;text-decoration:none;line-height:125%;letter-spacing:0px;word-spacing:0px;text-transform:none;direction:ltr;block-progression:tb;writing-mode:lr-tb;text-anchor:start;color:#000000;fill:#000000;fill-opacity:1;fill-rule:nonzero;stroke:none;stroke-width:1px;marker:none;visibility:visible;display:inline;overflow:visible;enable-background:accumulate;font-family:Arial;-inkscape-font-specification:Arial"
     xml:space="preserve"
     transform="scale(1.0196304,0.98074758)"><tspan
       y="300.57217"
       x="582.12042"
       id="tspan5637"
       sodipodi:role="line">M2</tspan></text>
  <text
     xml:space="preserve"
     style="font-size:12px;font-style:normal;font-variant:normal;font-weight:normal;font-stretch:normal;text-indent:0;text-align:start;text-decoration:none;line-height:125%;letter-spacing:0px;word-spacing:0px;text-transform:none;direction:ltr;block-progression:tb;writing-mode:lr-tb;text-anchor:start;color:#000000;fill:#000000;fill-opacity:1;fill-rule:nonzero;stroke:none;stroke-width:1px;marker:none;visibility:visible;display:inline;overflow:visible;enable-background:accumulate;font-family:Arial;-inkscape-font-specification:Arial"
     x="484.79276"
     y="383.52274"
     id="text5639"
     sodipodi:linespacing="125%"><tspan
       sodipodi:role="line"
       x="484.79276"
       y="383.52274"
       id="tspan5647">Rotation from</tspan><tspan
       sodipodi:role="line"
       x="484.79276"
       y="398.52274"
       id="tspan5651">measurement</tspan></text>
  <g
     style="color:#ff0000;fill:none;stroke:#0003ff;stroke-width:10.47838116;stroke-linecap:round;stroke-linejoin:round;stroke-miterlimit:4;stroke-opacity:1;stroke-dasharray:none"
     id="g5657"
     transform="matrix(0.15,0,0.0220996,0.10626192,587.51735,296.60031)">
    <path
       d="m 41,373 9,-22 10,-22 9,-21 9,-21 9,-20 10,-19 9,-18 9,-17 9,-15 10,-13 9,-12 9,-10 10,-9 9,-6 9,-4 9,-2 10,0 9,2 9,4 9,6 10,9 9,10 9,12 10,13 9,15 9,17 9,18 10,19 9,20 9,21 9,21 10,22 9,22 9,22 10,22 9,21 9,21 9,20 10,19 9,18 9,17 9,15 10,13 9,12 9,10 10,9 9,6 9,4 9,2 10,0 9,-2 9,-4 9,-6 10,-9 9,-10 9,-12 10,-13 9,-15 9,-17 9,-18 10,-19 9,-20 9,-21 9,-21 10,-22 9,-22 9,-22 10,-22 9,-21 9,-21 9,-20 10,-19 9,-18 9,-17 9,-15 10,-13 9,-12 9,-10 10,-9 9,-6 9,-4 9,-2 10,0 9,2 9,4 9,6 10,9 9,10 9,12 10,13 9,15 9,17 9,18 10,19 9,20 9,21 9,21 10,22 9,22"
       id="path5659"
       style="stroke:#0003ff;stroke-width:10.47838116;stroke-linecap:round;stroke-linejoin:round;stroke-miterlimit:4;stroke-opacity:1;stroke-dasharray:none"
       inkscape:connector-curvature="0" />
  </g>
  <path
     inkscape:connector-curvature="0"
     id="path5661"
     d="m 710.00135,313.89712 13.43498,48.66652"
     style="fill:#ffffff;fill-opacity:1;fill-rule:nonzero;stroke:#000000;stroke-width:1;stroke-miterlimit:4;stroke-opacity:1;stroke-dasharray:none;stroke-dashoffset:0;marker-start:url(#Arrow1Mstart);marker-end:url(#Arrow1Mend)"
     sodipodi:nodetypes="cc" />
  <path
     sodipodi:type="arc"
     style="fill:none;stroke:#000000;stroke-width:1;stroke-miterlimit:4;stroke-opacity:1;stroke-dasharray:none;stroke-dashoffset:0;marker-start:none;marker-end:url(#Arrow1Mend)"
     id="path5663"
     sodipodi:cx="476.52072"
     sodipodi:cy="339.40509"
     sodipodi:rx="4.7627006"
     sodipodi:ry="22.56016"
     d="m 480.41569,352.38831 a 4.7627006,22.56016 0 1 1 -7.53381,-27.5386"
     sodipodi:start="0.61320736"
     sodipodi:end="3.8428526"
     sodipodi:open="true"
     transform="translate(1.5040107,4.0106952)" />
  <path
     transform="matrix(-1,0,0,1,1095.9133,-4.5120316)"
     sodipodi:open="true"
     sodipodi:end="3.8428526"
     sodipodi:start="0.61320736"
     d="m 480.41569,352.38831 a 4.7627006,22.56016 0 1 1 -7.53381,-27.5386"
     sodipodi:ry="22.56016"
     sodipodi:rx="4.7627006"
     sodipodi:cy="339.40509"
     sodipodi:cx="476.52072"
     id="path7343"
     style="fill:none;stroke:#000000;stroke-width:1;stroke-miterlimit:4;stroke-opacity:1;stroke-dasharray:none;stroke-dashoffset:0;marker-start:none;marker-end:url(#Arrow1Mend)"
     sodipodi:type="arc" />
  <text
     sodipodi:linespacing="125%"
     id="text7345"
     y="383.52274"
     x="684.32483"
     style="font-size:12px;font-style:normal;font-variant:normal;font-weight:normal;font-stretch:normal;text-indent:0;text-align:start;text-decoration:none;line-height:125%;letter-spacing:0px;word-spacing:0px;text-transform:none;direction:ltr;block-progression:tb;writing-mode:lr-tb;text-anchor:start;color:#000000;fill:#000000;fill-opacity:1;fill-rule:nonzero;stroke:none;stroke-width:1px;marker:none;visibility:visible;display:inline;overflow:visible;enable-background:accumulate;font-family:Arial;-inkscape-font-specification:Arial"
     xml:space="preserve"><tspan
       id="tspan7349"
       y="383.52274"
       x="684.32483"
       sodipodi:role="line">Depends on</tspan><tspan
       y="398.52274"
       x="684.32483"
       sodipodi:role="line"
       id="tspan7355">M1 and M2</tspan></text>
</svg>
