<?xml version="1.0" encoding="UTF-8" standalone="no"?>
<!-- Created with Inkscape (http://www.inkscape.org/) -->

<svg
   xmlns:dc="http://purl.org/dc/elements/1.1/"
   xmlns:cc="http://creativecommons.org/ns#"
   xmlns:rdf="http://www.w3.org/1999/02/22-rdf-syntax-ns#"
   xmlns:svg="http://www.w3.org/2000/svg"
   xmlns="http://www.w3.org/2000/svg"
   xmlns:xlink="http://www.w3.org/1999/xlink"
   xmlns:sodipodi="http://sodipodi.sourceforge.net/DTD/sodipodi-0.dtd"
   xmlns:inkscape="http://www.inkscape.org/namespaces/inkscape"
   width="744.09448819"
   height="1052.3622047"
   id="svg2"
   version="1.1"
   inkscape:version="0.48.1 r9760"
   sodipodi:docname="fig_fourier_transform.svg"
   inkscape:export-filename="/Users/oreilly/svn_docs/physics/fig_fourier_transform.png"
   inkscape:export-xdpi="150"
   inkscape:export-ydpi="150">
  <defs
     id="defs4">
    <marker
       inkscape:stockid="Arrow1Send"
       orient="auto"
       refY="0.0"
       refX="0.0"
       id="Arrow1Send"
       style="overflow:visible;">
      <path
         id="path4416"
         d="M 0.0,0.0 L 5.0,-5.0 L -12.5,0.0 L 5.0,5.0 L 0.0,0.0 z "
         style="fill-rule:evenodd;stroke:#000000;stroke-width:1.0pt;marker-start:none;"
         transform="scale(0.2) rotate(180) translate(6,0)" />
    </marker>
    <marker
       inkscape:stockid="Arrow1Mend"
       orient="auto"
       refY="0.0"
       refX="0.0"
       id="Arrow1Mend"
       style="overflow:visible;">
      <path
         id="path4410"
         d="M 0.0,0.0 L 5.0,-5.0 L -12.5,0.0 L 5.0,5.0 L 0.0,0.0 z "
         style="fill-rule:evenodd;stroke:#000000;stroke-width:1.0pt;marker-start:none;"
         transform="scale(0.4) rotate(180) translate(10,0)" />
    </marker>
    <marker
       inkscape:stockid="Arrow1Lend"
       orient="auto"
       refY="0.0"
       refX="0.0"
       id="Arrow1Lend"
       style="overflow:visible;">
      <path
         id="path4404"
         d="M 0.0,0.0 L 5.0,-5.0 L -12.5,0.0 L 5.0,5.0 L 0.0,0.0 z "
         style="fill-rule:evenodd;stroke:#000000;stroke-width:1.0pt;marker-start:none;"
         transform="scale(0.8) rotate(180) translate(12.5,0)" />
    </marker>
    <use
       style="fill:currentColor; stroke:none"
       id="gpPt12"
       xlink:href="#gpPt11" />
    <use
       transform="rotate(45)"
       id="gpPt11"
       xlink:href="#gpPt3" />
    <use
       style="fill:currentColor; stroke:none"
       id="gpPt10"
       xlink:href="#gpPt9" />
    <use
       transform="rotate(180)"
       id="gpPt9"
       xlink:href="#gpPt7" />
    <use
       style="fill:currentColor; stroke:none"
       id="gpPt8"
       xlink:href="#gpPt7" />
    <path
       d="M0,-1.33 L-1.33,0.67 L1.33,0.67 z"
       style="stroke-width:0.133"
       id="gpPt7" />
    <use
       style="fill:currentColor; stroke:none"
       id="gpPt6"
       xlink:href="#gpPt5" />
    <circle
       r="1"
       cy="0"
       cx="0"
       style="stroke-width:0.133"
       id="gpPt5" />
    <use
       style="fill:currentColor; stroke:none"
       id="gpPt4"
       xlink:href="#gpPt3" />
    <rect
       height="2"
       width="2"
       y="-1"
       x="-1"
       style="stroke-width:0.133"
       id="gpPt3" />
    <path
       d="M-1,0 L1,0 M0,-1 L0,1 M-1,-1 L1,1 M-1,1 L1,-1"
       style="stroke-width:0.133"
       id="gpPt2" />
    <path
       d="M-1,-1 L1,1 M1,-1 L-1,1"
       style="stroke-width:0.133"
       id="gpPt1" />
    <path
       d="M-1,0 h2 M0,-1 v2"
       style="stroke-width:0.133"
       id="gpPt0" />
    <circle
       r="1"
       id="gpDot" />
  </defs>
  <sodipodi:namedview
     id="base"
     pagecolor="#ffffff"
     bordercolor="#666666"
     borderopacity="1.0"
     inkscape:pageopacity="0.0"
     inkscape:pageshadow="2"
     inkscape:zoom="1.979899"
     inkscape:cx="353.1076"
     inkscape:cy="669.29989"
     inkscape:document-units="px"
     inkscape:current-layer="layer1"
     showgrid="false" />
  <metadata
     id="metadata7">
    <rdf:RDF>
      <cc:Work
         rdf:about="">
        <dc:format>image/svg+xml</dc:format>
        <dc:type
           rdf:resource="http://purl.org/dc/dcmitype/StillImage" />
        <dc:title></dc:title>
      </cc:Work>
    </rdf:RDF>
  </metadata>
  <g
     inkscape:label="Layer 1"
     inkscape:groupmode="layer"
     id="layer1">
    <g
       style="color:#000000;fill:none;stroke:currentColor;stroke-width:1"
       id="g2355"
       transform="translate(-209.28571,-716.70925)" />
    <text
       xml:space="preserve"
       style="font-size:12px;font-style:normal;font-variant:normal;font-weight:normal;font-stretch:normal;text-indent:0;text-align:start;text-decoration:none;line-height:125%;letter-spacing:0px;word-spacing:0px;text-transform:none;direction:ltr;block-progression:tb;writing-mode:lr-tb;text-anchor:start;color:#000000;fill:#000000;fill-opacity:1;fill-rule:nonzero;stroke:none;stroke-width:1px;marker:none;visibility:visible;display:inline;overflow:visible;enable-background:accumulate;font-family:Arial;-inkscape-font-specification:Arial"
       x="318.92856"
       y="478.79074"
       id="text5445"
       sodipodi:linespacing="125%"><tspan
         sodipodi:role="line"
         id="tspan5447"
         x="318.92856"
         y="478.79074" /></text>
    <g
       id="g5478">
      <rect
         y="356.70392"
         x="171.9915"
         height="199.55643"
         width="335.98227"
         id="rect5457"
         style="fill:#ffffff;stroke:#ffffff;stroke-width:3.75695038;stroke-linejoin:round;stroke-miterlimit:10;stroke-opacity:1;stroke-dasharray:none;stroke-dashoffset:0" />
      <path
         inkscape:connector-curvature="0"
         id="path3840"
         d="m 179.83104,436.48128 2.5,-28.57143 4.28571,49.28571 3.57143,-23.57143 3.21428,36.07143 3.92858,-63.21428 2.5,68.57142 5,-37.14285 2.85714,30.35714 4.28571,-103.57143 3.92857,65.35714 2.14286,-7.5 4.28572,70.71429 5,-57.85714 2.14285,0.35714 3.92857,-11.42857 3.57143,10.35714 1.42857,-1.78571 2.85715,3.21428 2.5,-13.21428 3.21428,30.71428 4.28572,-41.78571 3.57143,29.64286 3.21428,-27.5 4.28572,74.64285 3.57142,-60.35714 3.21429,43.92857 2.14286,-26.78571 5.35714,102.85714 4.64286,-65 1.42857,8.21429 4.28571,-86.42858 4.64286,48.92858 2.5,-7.5 1.78571,4.64285 4.28572,-18.57143 3.21428,-0.35714 2.14286,-7.14286 2.85714,9.28572"
         style="fill:none;stroke:#000000;stroke-width:2;stroke-linejoin:round;stroke-miterlimit:10;stroke-opacity:1;stroke-dasharray:none;stroke-dashoffset:0" />
      <g
         id="g5368">
        <g
           style="color:#ff0000;fill:none;stroke:#000000;stroke-width:4.97234917;stroke-linecap:round;stroke-linejoin:round;stroke-miterlimit:4;stroke-opacity:1;stroke-dasharray:none"
           id="g2485"
           transform="matrix(0.31446181,0,0,0.12763586,589.81495,306.33517)">
          <path
             inkscape:connector-curvature="0"
             d="m -700.58345,638.13012 6.06763,-7.24154 6.74181,-7.24154 6.06762,-6.91238 6.06763,-6.91237 6.06763,-6.58322 6.74181,-6.25406 6.06763,-5.92489 6.06763,-5.59574 6.06763,-4.93741 6.74181,-4.27909 6.06763,-3.94993 6.06763,-3.29161 6.74181,-2.96244 6.06762,-1.97497 6.06763,-1.31664 6.06763,-0.65832 6.74181,0 6.06763,0.65832 6.06763,1.31664 6.06763,1.97497 6.74181,2.96244 6.06763,3.29161 6.06763,3.94993 6.74181,4.27909 6.06762,4.93741 6.06763,5.59574 6.06763,5.92489 6.74181,6.25406 6.06763,6.58322 6.06763,6.91237 6.06763,6.91238 6.74181,7.24154 6.06763,7.24154 6.06763,7.24153 6.74181,7.24154 6.06762,6.91238 6.06763,6.91238 6.06763,6.58321 6.74181,6.25406 6.06763,5.92489 6.06763,5.59574 6.06763,4.93741 6.74181,4.27909 6.06763,3.94993 6.06763,3.29161 6.74181,2.96245 6.06762,1.97496 6.06763,1.31664 6.06763,0.65833 6.74181,0 6.06763,-0.65833 6.06763,-1.31664 6.06763,-1.97496 6.74181,-2.96245 6.06763,-3.29161 6.06763,-3.94993 6.74181,-4.27909 6.06763,-4.93741 6.06762,-5.59574 6.06763,-5.92489 6.74181,-6.25406 6.06763,-6.58321 6.06763,-6.91238 6.06763,-6.91238 6.74181,-7.24154 6.06762,-7.24153 6.06763,-7.24154"
             id="path2487"
             style="stroke:#000000;stroke-width:4.97234917;stroke-linecap:round;stroke-linejoin:round;stroke-miterlimit:4;stroke-opacity:1;stroke-dasharray:none"
             sodipodi:nodetypes="cccccccccccccccccccccccccccccccccccccccccccccccccccccccccccccccccccc" />
        </g>
        <g
           transform="matrix(0.2120909,0,0,-0.12763586,518.0975,606.61248)"
           id="g4172"
           style="color:#ff0000;fill:none;stroke:#000000;stroke-width:6.23572493;stroke-linecap:round;stroke-linejoin:round;stroke-miterlimit:4;stroke-opacity:1;stroke-dasharray:none">
          <path
             style="stroke:#000000;stroke-width:6.23572493;stroke-linecap:round;stroke-linejoin:round;stroke-miterlimit:4;stroke-opacity:1;stroke-dasharray:none"
             id="path4174"
             d="m -700.58345,638.13012 6.06763,-7.24154 6.74181,-7.24154 6.06762,-6.91238 6.06763,-6.91237 6.06763,-6.58322 6.74181,-6.25406 6.06763,-5.92489 6.06763,-5.59574 6.06763,-4.93741 6.74181,-4.27909 6.06763,-3.94993 6.06763,-3.29161 6.74181,-2.96244 6.06762,-1.97497 6.06763,-1.31664 6.06763,-0.65832 6.74181,0 6.06763,0.65832 6.06763,1.31664 6.06763,1.97497 6.74181,2.96244 6.06763,3.29161 6.06763,3.94993 6.74181,4.27909 6.06762,4.93741 6.06763,5.59574 6.06763,5.92489 6.74181,6.25406 6.06763,6.58322 6.06763,6.91237 6.06763,6.91238 6.74181,7.24154 6.06763,7.24154 6.06763,7.24153 6.74181,7.24154 6.06762,6.91238 6.06763,6.91238 6.06763,6.58321 6.74181,6.25406 6.06763,5.92489 6.06763,5.59574 6.06763,4.93741 6.74181,4.27909 6.06763,3.94993 6.06763,3.29161 6.74181,2.96245 6.06762,1.97496 6.06763,1.31664 6.06763,0.65833 6.74181,0 6.06763,-0.65833 6.06763,-1.31664 6.06763,-1.97496 6.74181,-2.96245 6.06763,-3.29161 6.06763,-3.94993 6.74181,-4.27909 6.06763,-4.93741 6.06762,-5.59574 6.06763,-5.92489 6.74181,-6.25406 6.06763,-6.58321 6.06763,-6.91238 6.06763,-6.91238 6.74181,-7.24154 6.06762,-7.24153 6.06763,-7.24154 6.74181,-7.24154 6.06763,-6.91238 6.06763,-6.91237 6.06763,-6.58322 6.74181,-6.25406 6.06763,-5.92489 6.06763,-5.59574 6.06763,-4.93741 6.74181,-4.27909 6.06762,-3.94993 6.06763,-3.29161 6.74181,-2.96244 6.06763,-1.97497 6.06763,-1.31664 6.06763,-0.65832 6.74181,0 6.06763,0.65832 6.06763,1.31664 6.06763,1.97497 6.74181,2.96244 6.06763,3.29161 6.06763,3.94993 6.74181,4.27909 6.06763,4.93741 6.06762,5.59574 6.06763,5.92489 6.74181,6.25406 6.06763,6.58322 6.06763,6.91237 6.067625,6.91238 6.74181,7.24154 6.067629,7.24154"
             inkscape:connector-curvature="0" />
        </g>
        <g
           id="g4184"
           style="stroke-width:1;stroke-miterlimit:4;stroke-dasharray:none"
           transform="matrix(0.95210346,0,0,1,18.180959,-24.485707)">
          <g
             transform="matrix(0.11021863,0,0,-0.12763586,446.22049,585.39928)"
             id="g4176"
             style="color:#ff0000;fill:none;stroke:#000000;stroke-width:8.43113708;stroke-linecap:round;stroke-linejoin:round;stroke-miterlimit:4;stroke-opacity:1;stroke-dasharray:none">
            <path
               style="stroke:#000000;stroke-width:8.43113708;stroke-linecap:round;stroke-linejoin:round;stroke-miterlimit:4;stroke-opacity:1;stroke-dasharray:none"
               id="path4178"
               d="m -700.58345,638.13012 6.06763,-7.24154 6.74181,-7.24154 6.06762,-6.91238 6.06763,-6.91237 6.06763,-6.58322 6.74181,-6.25406 6.06763,-5.92489 6.06763,-5.59574 6.06763,-4.93741 6.74181,-4.27909 6.06763,-3.94993 6.06763,-3.29161 6.74181,-2.96244 6.06762,-1.97497 6.06763,-1.31664 6.06763,-0.65832 6.74181,0 6.06763,0.65832 6.06763,1.31664 6.06763,1.97497 6.74181,2.96244 6.06763,3.29161 6.06763,3.94993 6.74181,4.27909 6.06762,4.93741 6.06763,5.59574 6.06763,5.92489 6.74181,6.25406 6.06763,6.58322 6.06763,6.91237 6.06763,6.91238 6.74181,7.24154 6.06763,7.24154 6.06763,7.24153 6.74181,7.24154 6.06762,6.91238 6.06763,6.91238 6.06763,6.58321 6.74181,6.25406 6.06763,5.92489 6.06763,5.59574 6.06763,4.93741 6.74181,4.27909 6.06763,3.94993 6.06763,3.29161 6.74181,2.96245 6.06762,1.97496 6.06763,1.31664 6.06763,0.65833 6.74181,0 6.06763,-0.65833 6.06763,-1.31664 6.06763,-1.97496 6.74181,-2.96245 6.06763,-3.29161 6.06763,-3.94993 6.74181,-4.27909 6.06763,-4.93741 6.06762,-5.59574 6.06763,-5.92489 6.74181,-6.25406 6.06763,-6.58321 6.06763,-6.91238 6.06763,-6.91238 6.74181,-7.24154 6.06762,-7.24153 6.06763,-7.24154 6.74181,-7.24154 6.06763,-6.91238 6.06763,-6.91237 6.06763,-6.58322 6.74181,-6.25406 6.06763,-5.92489 6.06763,-5.59574 6.06763,-4.93741 6.74181,-4.27909 6.06762,-3.94993 6.06763,-3.29161 6.74181,-2.96244 6.06763,-1.97497 6.06763,-1.31664 6.06763,-0.65832 6.74181,0 6.06763,0.65832 6.06763,1.31664 6.06763,1.97497 6.74181,2.96244 6.06763,3.29161 6.06763,3.94993 6.74181,4.27909 6.06763,4.93741 6.06762,5.59574 6.06763,5.92489 6.74181,6.25406 6.06763,6.58322 6.06763,6.91237 6.067625,6.91238 6.74181,7.24154 6.067629,7.24154"
               inkscape:connector-curvature="0" />
          </g>
          <g
             style="color:#ff0000;fill:none;stroke:#000000;stroke-width:8.43113708;stroke-linecap:round;stroke-linejoin:round;stroke-miterlimit:4;stroke-opacity:1;stroke-dasharray:none"
             id="g4180"
             transform="matrix(0.11021863,0,0,0.12763586,514.59518,422.31331)">
            <path
               inkscape:connector-curvature="0"
               d="m -700.58345,638.13012 6.06763,-7.24154 6.74181,-7.24154 6.06762,-6.91238 6.06763,-6.91237 6.06763,-6.58322 6.74181,-6.25406 6.06763,-5.92489 6.06763,-5.59574 6.06763,-4.93741 6.74181,-4.27909 6.06763,-3.94993 6.06763,-3.29161 6.74181,-2.96244 6.06762,-1.97497 6.06763,-1.31664 6.06763,-0.65832 6.74181,0 6.06763,0.65832 6.06763,1.31664 6.06763,1.97497 6.74181,2.96244 6.06763,3.29161 6.06763,3.94993 6.74181,4.27909 6.06762,4.93741 6.06763,5.59574 6.06763,5.92489 6.74181,6.25406 6.06763,6.58322 6.06763,6.91237 6.06763,6.91238 6.74181,7.24154 6.06763,7.24154 6.06763,7.24153 6.74181,7.24154 6.06762,6.91238 6.06763,6.91238 6.06763,6.58321 6.74181,6.25406 6.06763,5.92489 6.06763,5.59574 6.06763,4.93741 6.74181,4.27909 6.06763,3.94993 6.06763,3.29161 6.74181,2.96245 6.06762,1.97496 6.06763,1.31664 6.06763,0.65833 6.74181,0 6.06763,-0.65833 6.06763,-1.31664 6.06763,-1.97496 6.74181,-2.96245 6.06763,-3.29161 6.06763,-3.94993 6.74181,-4.27909 6.06763,-4.93741 6.06762,-5.59574 6.06763,-5.92489 6.74181,-6.25406 6.06763,-6.58321 6.06763,-6.91238 6.06763,-6.91238 6.74181,-7.24154 6.06762,-7.24153 6.06763,-7.24154 6.74181,-7.24154 6.06763,-6.91238 6.06763,-6.91237 6.06763,-6.58322 6.74181,-6.25406 6.06763,-5.92489 6.06763,-5.59574 6.06763,-4.93741 6.74181,-4.27909 6.06762,-3.94993 6.06763,-3.29161 6.74181,-2.96244 6.06763,-1.97497 6.06763,-1.31664 6.06763,-0.65832 6.74181,0 6.06763,0.65832 6.06763,1.31664 6.06763,1.97497 6.74181,2.96244 6.06763,3.29161 6.06763,3.94993 6.74181,4.27909 6.06763,4.93741 6.06762,5.59574 6.06763,5.92489 6.74181,6.25406 6.06763,6.58322 6.06763,6.91237 6.067625,6.91238 6.74181,7.24154 6.067629,7.24154"
               id="path4182"
               style="stroke:#000000;stroke-width:8.43113708;stroke-linecap:round;stroke-linejoin:round;stroke-miterlimit:4;stroke-opacity:1;stroke-dasharray:none" />
          </g>
        </g>
        <g
           id="g4190"
           transform="matrix(0.95210346,0,0,1,18.180959,-93.176053)"
           style="stroke-width:1;stroke-miterlimit:4;stroke-dasharray:none">
          <g
             style="color:#ff0000;fill:none;stroke:#000000;stroke-width:8.43113708;stroke-linecap:round;stroke-linejoin:round;stroke-miterlimit:4;stroke-opacity:1;stroke-dasharray:none"
             id="g4192"
             transform="matrix(0.11021863,0,0,-0.12763586,446.22049,585.39928)">
            <path
               inkscape:connector-curvature="0"
               d="m -700.58345,638.13012 6.06763,-7.24154 6.74181,-7.24154 6.06762,-6.91238 6.06763,-6.91237 6.06763,-6.58322 6.74181,-6.25406 6.06763,-5.92489 6.06763,-5.59574 6.06763,-4.93741 6.74181,-4.27909 6.06763,-3.94993 6.06763,-3.29161 6.74181,-2.96244 6.06762,-1.97497 6.06763,-1.31664 6.06763,-0.65832 6.74181,0 6.06763,0.65832 6.06763,1.31664 6.06763,1.97497 6.74181,2.96244 6.06763,3.29161 6.06763,3.94993 6.74181,4.27909 6.06762,4.93741 6.06763,5.59574 6.06763,5.92489 6.74181,6.25406 6.06763,6.58322 6.06763,6.91237 6.06763,6.91238 6.74181,7.24154 6.06763,7.24154 6.06763,7.24153 6.74181,7.24154 6.06762,6.91238 6.06763,6.91238 6.06763,6.58321 6.74181,6.25406 6.06763,5.92489 6.06763,5.59574 6.06763,4.93741 6.74181,4.27909 6.06763,3.94993 6.06763,3.29161 6.74181,2.96245 6.06762,1.97496 6.06763,1.31664 6.06763,0.65833 6.74181,0 6.06763,-0.65833 6.06763,-1.31664 6.06763,-1.97496 6.74181,-2.96245 6.06763,-3.29161 6.06763,-3.94993 6.74181,-4.27909 6.06763,-4.93741 6.06762,-5.59574 6.06763,-5.92489 6.74181,-6.25406 6.06763,-6.58321 6.06763,-6.91238 6.06763,-6.91238 6.74181,-7.24154 6.06762,-7.24153 6.06763,-7.24154 6.74181,-7.24154 6.06763,-6.91238 6.06763,-6.91237 6.06763,-6.58322 6.74181,-6.25406 6.06763,-5.92489 6.06763,-5.59574 6.06763,-4.93741 6.74181,-4.27909 6.06762,-3.94993 6.06763,-3.29161 6.74181,-2.96244 6.06763,-1.97497 6.06763,-1.31664 6.06763,-0.65832 6.74181,0 6.06763,0.65832 6.06763,1.31664 6.06763,1.97497 6.74181,2.96244 6.06763,3.29161 6.06763,3.94993 6.74181,4.27909 6.06763,4.93741 6.06762,5.59574 6.06763,5.92489 6.74181,6.25406 6.06763,6.58322 6.06763,6.91237 6.067625,6.91238 6.74181,7.24154 6.067629,7.24154"
               id="path4194"
               style="stroke:#000000;stroke-width:8.43113708;stroke-linecap:round;stroke-linejoin:round;stroke-miterlimit:4;stroke-opacity:1;stroke-dasharray:none" />
          </g>
          <g
             transform="matrix(0.11021863,0,0,0.12763586,514.59518,422.31331)"
             id="g4196"
             style="color:#ff0000;fill:none;stroke:#000000;stroke-width:8.43113708;stroke-linecap:round;stroke-linejoin:round;stroke-miterlimit:4;stroke-opacity:1;stroke-dasharray:none">
            <path
               style="stroke:#000000;stroke-width:8.43113708;stroke-linecap:round;stroke-linejoin:round;stroke-miterlimit:4;stroke-opacity:1;stroke-dasharray:none"
               id="path4198"
               d="m -700.58345,638.13012 6.06763,-7.24154 6.74181,-7.24154 6.06762,-6.91238 6.06763,-6.91237 6.06763,-6.58322 6.74181,-6.25406 6.06763,-5.92489 6.06763,-5.59574 6.06763,-4.93741 6.74181,-4.27909 6.06763,-3.94993 6.06763,-3.29161 6.74181,-2.96244 6.06762,-1.97497 6.06763,-1.31664 6.06763,-0.65832 6.74181,0 6.06763,0.65832 6.06763,1.31664 6.06763,1.97497 6.74181,2.96244 6.06763,3.29161 6.06763,3.94993 6.74181,4.27909 6.06762,4.93741 6.06763,5.59574 6.06763,5.92489 6.74181,6.25406 6.06763,6.58322 6.06763,6.91237 6.06763,6.91238 6.74181,7.24154 6.06763,7.24154 6.06763,7.24153 6.74181,7.24154 6.06762,6.91238 6.06763,6.91238 6.06763,6.58321 6.74181,6.25406 6.06763,5.92489 6.06763,5.59574 6.06763,4.93741 6.74181,4.27909 6.06763,3.94993 6.06763,3.29161 6.74181,2.96245 6.06762,1.97496 6.06763,1.31664 6.06763,0.65833 6.74181,0 6.06763,-0.65833 6.06763,-1.31664 6.06763,-1.97496 6.74181,-2.96245 6.06763,-3.29161 6.06763,-3.94993 6.74181,-4.27909 6.06763,-4.93741 6.06762,-5.59574 6.06763,-5.92489 6.74181,-6.25406 6.06763,-6.58321 6.06763,-6.91238 6.06763,-6.91238 6.74181,-7.24154 6.06762,-7.24153 6.06763,-7.24154 6.74181,-7.24154 6.06763,-6.91238 6.06763,-6.91237 6.06763,-6.58322 6.74181,-6.25406 6.06763,-5.92489 6.06763,-5.59574 6.06763,-4.93741 6.74181,-4.27909 6.06762,-3.94993 6.06763,-3.29161 6.74181,-2.96244 6.06763,-1.97497 6.06763,-1.31664 6.06763,-0.65832 6.74181,0 6.06763,0.65832 6.06763,1.31664 6.06763,1.97497 6.74181,2.96244 6.06763,3.29161 6.06763,3.94993 6.74181,4.27909 6.06763,4.93741 6.06762,5.59574 6.06763,5.92489 6.74181,6.25406 6.06763,6.58322 6.06763,6.91237 6.067625,6.91238 6.74181,7.24154 6.067629,7.24154"
               inkscape:connector-curvature="0" />
          </g>
        </g>
        <g
           id="g4232"
           transform="matrix(1.1021658,0,0,1,-42.202612,-94.485308)"
           style="stroke-width:1;stroke-miterlimit:4;stroke-dasharray:none">
          <g
             id="g4234"
             transform="matrix(0.43215451,0,0,1,214.08245,24.243661)"
             style="stroke-width:1.52117956;stroke-miterlimit:4;stroke-dasharray:none">
            <g
               style="color:#ff0000;fill:none;stroke:#000000;stroke-width:12.82527256;stroke-linecap:round;stroke-linejoin:round;stroke-miterlimit:4;stroke-opacity:1;stroke-dasharray:none"
               id="g4236"
               transform="matrix(0.11021863,0,0,-0.12763586,446.22049,585.39928)">
              <path
                 inkscape:connector-curvature="0"
                 d="m -700.58345,638.13012 6.06763,-7.24154 6.74181,-7.24154 6.06762,-6.91238 6.06763,-6.91237 6.06763,-6.58322 6.74181,-6.25406 6.06763,-5.92489 6.06763,-5.59574 6.06763,-4.93741 6.74181,-4.27909 6.06763,-3.94993 6.06763,-3.29161 6.74181,-2.96244 6.06762,-1.97497 6.06763,-1.31664 6.06763,-0.65832 6.74181,0 6.06763,0.65832 6.06763,1.31664 6.06763,1.97497 6.74181,2.96244 6.06763,3.29161 6.06763,3.94993 6.74181,4.27909 6.06762,4.93741 6.06763,5.59574 6.06763,5.92489 6.74181,6.25406 6.06763,6.58322 6.06763,6.91237 6.06763,6.91238 6.74181,7.24154 6.06763,7.24154 6.06763,7.24153 6.74181,7.24154 6.06762,6.91238 6.06763,6.91238 6.06763,6.58321 6.74181,6.25406 6.06763,5.92489 6.06763,5.59574 6.06763,4.93741 6.74181,4.27909 6.06763,3.94993 6.06763,3.29161 6.74181,2.96245 6.06762,1.97496 6.06763,1.31664 6.06763,0.65833 6.74181,0 6.06763,-0.65833 6.06763,-1.31664 6.06763,-1.97496 6.74181,-2.96245 6.06763,-3.29161 6.06763,-3.94993 6.74181,-4.27909 6.06763,-4.93741 6.06762,-5.59574 6.06763,-5.92489 6.74181,-6.25406 6.06763,-6.58321 6.06763,-6.91238 6.06763,-6.91238 6.74181,-7.24154 6.06762,-7.24153 6.06763,-7.24154 6.74181,-7.24154 6.06763,-6.91238 6.06763,-6.91237 6.06763,-6.58322 6.74181,-6.25406 6.06763,-5.92489 6.06763,-5.59574 6.06763,-4.93741 6.74181,-4.27909 6.06762,-3.94993 6.06763,-3.29161 6.74181,-2.96244 6.06763,-1.97497 6.06763,-1.31664 6.06763,-0.65832 6.74181,0 6.06763,0.65832 6.06763,1.31664 6.06763,1.97497 6.74181,2.96244 6.06763,3.29161 6.06763,3.94993 6.74181,4.27909 6.06763,4.93741 6.06762,5.59574 6.06763,5.92489 6.74181,6.25406 6.06763,6.58322 6.06763,6.91237 6.067625,6.91238 6.74181,7.24154 6.067629,7.24154"
                 id="path4238"
                 style="stroke:#000000;stroke-width:12.82527256;stroke-linecap:round;stroke-linejoin:round;stroke-miterlimit:4;stroke-opacity:1;stroke-dasharray:none" />
            </g>
            <g
               transform="matrix(0.11021863,0,0,0.12763586,514.59518,422.31331)"
               id="g4240"
               style="color:#ff0000;fill:none;stroke:#000000;stroke-width:12.82527256;stroke-linecap:round;stroke-linejoin:round;stroke-miterlimit:4;stroke-opacity:1;stroke-dasharray:none">
              <path
                 style="stroke:#000000;stroke-width:12.82527256;stroke-linecap:round;stroke-linejoin:round;stroke-miterlimit:4;stroke-opacity:1;stroke-dasharray:none"
                 id="path4242"
                 d="m -700.58345,638.13012 6.06763,-7.24154 6.74181,-7.24154 6.06762,-6.91238 6.06763,-6.91237 6.06763,-6.58322 6.74181,-6.25406 6.06763,-5.92489 6.06763,-5.59574 6.06763,-4.93741 6.74181,-4.27909 6.06763,-3.94993 6.06763,-3.29161 6.74181,-2.96244 6.06762,-1.97497 6.06763,-1.31664 6.06763,-0.65832 6.74181,0 6.06763,0.65832 6.06763,1.31664 6.06763,1.97497 6.74181,2.96244 6.06763,3.29161 6.06763,3.94993 6.74181,4.27909 6.06762,4.93741 6.06763,5.59574 6.06763,5.92489 6.74181,6.25406 6.06763,6.58322 6.06763,6.91237 6.06763,6.91238 6.74181,7.24154 6.06763,7.24154 6.06763,7.24153 6.74181,7.24154 6.06762,6.91238 6.06763,6.91238 6.06763,6.58321 6.74181,6.25406 6.06763,5.92489 6.06763,5.59574 6.06763,4.93741 6.74181,4.27909 6.06763,3.94993 6.06763,3.29161 6.74181,2.96245 6.06762,1.97496 6.06763,1.31664 6.06763,0.65833 6.74181,0 6.06763,-0.65833 6.06763,-1.31664 6.06763,-1.97496 6.74181,-2.96245 6.06763,-3.29161 6.06763,-3.94993 6.74181,-4.27909 6.06763,-4.93741 6.06762,-5.59574 6.06763,-5.92489 6.74181,-6.25406 6.06763,-6.58321 6.06763,-6.91238 6.06763,-6.91238 6.74181,-7.24154 6.06762,-7.24153 6.06763,-7.24154 6.74181,-7.24154 6.06763,-6.91238 6.06763,-6.91237 6.06763,-6.58322 6.74181,-6.25406 6.06763,-5.92489 6.06763,-5.59574 6.06763,-4.93741 6.74181,-4.27909 6.06762,-3.94993 6.06763,-3.29161 6.74181,-2.96244 6.06763,-1.97497 6.06763,-1.31664 6.06763,-0.65832 6.74181,0 6.06763,0.65832 6.06763,1.31664 6.06763,1.97497 6.74181,2.96244 6.06763,3.29161 6.06763,3.94993 6.74181,4.27909 6.06763,4.93741 6.06762,5.59574 6.06763,5.92489 6.74181,6.25406 6.06763,6.58322 6.06763,6.91237 6.067625,6.91238 6.74181,7.24154 6.067629,7.24154"
                 inkscape:connector-curvature="0" />
            </g>
          </g>
          <g
             transform="matrix(0.43215451,0,0,1,273.2057,24.16838)"
             id="g4244"
             style="stroke-width:1.52117956;stroke-miterlimit:4;stroke-dasharray:none">
            <g
               transform="matrix(0.11021863,0,0,-0.12763586,446.22049,585.39928)"
               id="g4246"
               style="color:#ff0000;fill:none;stroke:#000000;stroke-width:12.82527256;stroke-linecap:round;stroke-linejoin:round;stroke-miterlimit:4;stroke-opacity:1;stroke-dasharray:none">
              <path
                 style="stroke:#000000;stroke-width:12.82527256;stroke-linecap:round;stroke-linejoin:round;stroke-miterlimit:4;stroke-opacity:1;stroke-dasharray:none"
                 id="path4248"
                 d="m -700.58345,638.13012 6.06763,-7.24154 6.74181,-7.24154 6.06762,-6.91238 6.06763,-6.91237 6.06763,-6.58322 6.74181,-6.25406 6.06763,-5.92489 6.06763,-5.59574 6.06763,-4.93741 6.74181,-4.27909 6.06763,-3.94993 6.06763,-3.29161 6.74181,-2.96244 6.06762,-1.97497 6.06763,-1.31664 6.06763,-0.65832 6.74181,0 6.06763,0.65832 6.06763,1.31664 6.06763,1.97497 6.74181,2.96244 6.06763,3.29161 6.06763,3.94993 6.74181,4.27909 6.06762,4.93741 6.06763,5.59574 6.06763,5.92489 6.74181,6.25406 6.06763,6.58322 6.06763,6.91237 6.06763,6.91238 6.74181,7.24154 6.06763,7.24154 6.06763,7.24153 6.74181,7.24154 6.06762,6.91238 6.06763,6.91238 6.06763,6.58321 6.74181,6.25406 6.06763,5.92489 6.06763,5.59574 6.06763,4.93741 6.74181,4.27909 6.06763,3.94993 6.06763,3.29161 6.74181,2.96245 6.06762,1.97496 6.06763,1.31664 6.06763,0.65833 6.74181,0 6.06763,-0.65833 6.06763,-1.31664 6.06763,-1.97496 6.74181,-2.96245 6.06763,-3.29161 6.06763,-3.94993 6.74181,-4.27909 6.06763,-4.93741 6.06762,-5.59574 6.06763,-5.92489 6.74181,-6.25406 6.06763,-6.58321 6.06763,-6.91238 6.06763,-6.91238 6.74181,-7.24154 6.06762,-7.24153 6.06763,-7.24154 6.74181,-7.24154 6.06763,-6.91238 6.06763,-6.91237 6.06763,-6.58322 6.74181,-6.25406 6.06763,-5.92489 6.06763,-5.59574 6.06763,-4.93741 6.74181,-4.27909 6.06762,-3.94993 6.06763,-3.29161 6.74181,-2.96244 6.06763,-1.97497 6.06763,-1.31664 6.06763,-0.65832 6.74181,0 6.06763,0.65832 6.06763,1.31664 6.06763,1.97497 6.74181,2.96244 6.06763,3.29161 6.06763,3.94993 6.74181,4.27909 6.06763,4.93741 6.06762,5.59574 6.06763,5.92489 6.74181,6.25406 6.06763,6.58322 6.06763,6.91237 6.067625,6.91238 6.74181,7.24154 6.067629,7.24154"
                 inkscape:connector-curvature="0" />
            </g>
            <g
               style="color:#ff0000;fill:none;stroke:#000000;stroke-width:12.82527256;stroke-linecap:round;stroke-linejoin:round;stroke-miterlimit:4;stroke-opacity:1;stroke-dasharray:none"
               id="g4250"
               transform="matrix(0.11021863,0,0,0.12763586,514.59518,422.31331)">
              <path
                 inkscape:connector-curvature="0"
                 d="m -700.58345,638.13012 6.06763,-7.24154 6.74181,-7.24154 6.06762,-6.91238 6.06763,-6.91237 6.06763,-6.58322 6.74181,-6.25406 6.06763,-5.92489 6.06763,-5.59574 6.06763,-4.93741 6.74181,-4.27909 6.06763,-3.94993 6.06763,-3.29161 6.74181,-2.96244 6.06762,-1.97497 6.06763,-1.31664 6.06763,-0.65832 6.74181,0 6.06763,0.65832 6.06763,1.31664 6.06763,1.97497 6.74181,2.96244 6.06763,3.29161 6.06763,3.94993 6.74181,4.27909 6.06762,4.93741 6.06763,5.59574 6.06763,5.92489 6.74181,6.25406 6.06763,6.58322 6.06763,6.91237 6.06763,6.91238 6.74181,7.24154 6.06763,7.24154 6.06763,7.24153 6.74181,7.24154 6.06762,6.91238 6.06763,6.91238 6.06763,6.58321 6.74181,6.25406 6.06763,5.92489 6.06763,5.59574 6.06763,4.93741 6.74181,4.27909 6.06763,3.94993 6.06763,3.29161 6.74181,2.96245 6.06762,1.97496 6.06763,1.31664 6.06763,0.65833 6.74181,0 6.06763,-0.65833 6.06763,-1.31664 6.06763,-1.97496 6.74181,-2.96245 6.06763,-3.29161 6.06763,-3.94993 6.74181,-4.27909 6.06763,-4.93741 6.06762,-5.59574 6.06763,-5.92489 6.74181,-6.25406 6.06763,-6.58321 6.06763,-6.91238 6.06763,-6.91238 6.74181,-7.24154 6.06762,-7.24153 6.06763,-7.24154 6.74181,-7.24154 6.06763,-6.91238 6.06763,-6.91237 6.06763,-6.58322 6.74181,-6.25406 6.06763,-5.92489 6.06763,-5.59574 6.06763,-4.93741 6.74181,-4.27909 6.06762,-3.94993 6.06763,-3.29161 6.74181,-2.96244 6.06763,-1.97497 6.06763,-1.31664 6.06763,-0.65832 6.74181,0 6.06763,0.65832 6.06763,1.31664 6.06763,1.97497 6.74181,2.96244 6.06763,3.29161 6.06763,3.94993 6.74181,4.27909 6.06763,4.93741 6.06762,5.59574 6.06763,5.92489 6.74181,6.25406 6.06763,6.58322 6.06763,6.91237 6.067625,6.91238 6.74181,7.24154 6.067629,7.24154"
                 id="path4252"
                 style="stroke:#000000;stroke-width:12.82527256;stroke-linecap:round;stroke-linejoin:round;stroke-miterlimit:4;stroke-opacity:1;stroke-dasharray:none" />
            </g>
          </g>
        </g>
        <g
           id="g4320"
           style="stroke-width:1;stroke-miterlimit:4;stroke-dasharray:none"
           transform="translate(0.60415789,1.8231201)">
          <g
             style="stroke-width:1.64502418;stroke-miterlimit:4;stroke-dasharray:none"
             id="g4254"
             transform="matrix(0.36953488,0,0,1,230.86665,-73.214286)">
            <g
               style="stroke-width:2.50237703;stroke-miterlimit:4;stroke-dasharray:none"
               id="g4256"
               transform="matrix(0.43215451,0,0,1,214.08245,24.243661)">
              <g
                 style="color:#ff0000;fill:none;stroke:#000000;stroke-width:21.09788322;stroke-linecap:round;stroke-linejoin:round;stroke-miterlimit:4;stroke-opacity:1;stroke-dasharray:none"
                 id="g4258"
                 transform="matrix(0.11021863,0,0,-0.12763586,446.22049,585.39928)">
                <path
                   inkscape:connector-curvature="0"
                   d="m -700.58345,638.13012 6.06763,-7.24154 6.74181,-7.24154 6.06762,-6.91238 6.06763,-6.91237 6.06763,-6.58322 6.74181,-6.25406 6.06763,-5.92489 6.06763,-5.59574 6.06763,-4.93741 6.74181,-4.27909 6.06763,-3.94993 6.06763,-3.29161 6.74181,-2.96244 6.06762,-1.97497 6.06763,-1.31664 6.06763,-0.65832 6.74181,0 6.06763,0.65832 6.06763,1.31664 6.06763,1.97497 6.74181,2.96244 6.06763,3.29161 6.06763,3.94993 6.74181,4.27909 6.06762,4.93741 6.06763,5.59574 6.06763,5.92489 6.74181,6.25406 6.06763,6.58322 6.06763,6.91237 6.06763,6.91238 6.74181,7.24154 6.06763,7.24154 6.06763,7.24153 6.74181,7.24154 6.06762,6.91238 6.06763,6.91238 6.06763,6.58321 6.74181,6.25406 6.06763,5.92489 6.06763,5.59574 6.06763,4.93741 6.74181,4.27909 6.06763,3.94993 6.06763,3.29161 6.74181,2.96245 6.06762,1.97496 6.06763,1.31664 6.06763,0.65833 6.74181,0 6.06763,-0.65833 6.06763,-1.31664 6.06763,-1.97496 6.74181,-2.96245 6.06763,-3.29161 6.06763,-3.94993 6.74181,-4.27909 6.06763,-4.93741 6.06762,-5.59574 6.06763,-5.92489 6.74181,-6.25406 6.06763,-6.58321 6.06763,-6.91238 6.06763,-6.91238 6.74181,-7.24154 6.06762,-7.24153 6.06763,-7.24154 6.74181,-7.24154 6.06763,-6.91238 6.06763,-6.91237 6.06763,-6.58322 6.74181,-6.25406 6.06763,-5.92489 6.06763,-5.59574 6.06763,-4.93741 6.74181,-4.27909 6.06762,-3.94993 6.06763,-3.29161 6.74181,-2.96244 6.06763,-1.97497 6.06763,-1.31664 6.06763,-0.65832 6.74181,0 6.06763,0.65832 6.06763,1.31664 6.06763,1.97497 6.74181,2.96244 6.06763,3.29161 6.06763,3.94993 6.74181,4.27909 6.06763,4.93741 6.06762,5.59574 6.06763,5.92489 6.74181,6.25406 6.06763,6.58322 6.06763,6.91237 6.067625,6.91238 6.74181,7.24154 6.067629,7.24154"
                   id="path4260"
                   style="stroke:#000000;stroke-width:21.09788322;stroke-linecap:round;stroke-linejoin:round;stroke-miterlimit:4;stroke-opacity:1;stroke-dasharray:none" />
              </g>
              <g
                 transform="matrix(0.11021863,0,0,0.12763586,514.59518,422.31331)"
                 id="g4262"
                 style="color:#ff0000;fill:none;stroke:#000000;stroke-width:21.09788322;stroke-linecap:round;stroke-linejoin:round;stroke-miterlimit:4;stroke-opacity:1;stroke-dasharray:none">
                <path
                   style="stroke:#000000;stroke-width:21.09788322;stroke-linecap:round;stroke-linejoin:round;stroke-miterlimit:4;stroke-opacity:1;stroke-dasharray:none"
                   id="path4264"
                   d="m -700.58345,638.13012 6.06763,-7.24154 6.74181,-7.24154 6.06762,-6.91238 6.06763,-6.91237 6.06763,-6.58322 6.74181,-6.25406 6.06763,-5.92489 6.06763,-5.59574 6.06763,-4.93741 6.74181,-4.27909 6.06763,-3.94993 6.06763,-3.29161 6.74181,-2.96244 6.06762,-1.97497 6.06763,-1.31664 6.06763,-0.65832 6.74181,0 6.06763,0.65832 6.06763,1.31664 6.06763,1.97497 6.74181,2.96244 6.06763,3.29161 6.06763,3.94993 6.74181,4.27909 6.06762,4.93741 6.06763,5.59574 6.06763,5.92489 6.74181,6.25406 6.06763,6.58322 6.06763,6.91237 6.06763,6.91238 6.74181,7.24154 6.06763,7.24154 6.06763,7.24153 6.74181,7.24154 6.06762,6.91238 6.06763,6.91238 6.06763,6.58321 6.74181,6.25406 6.06763,5.92489 6.06763,5.59574 6.06763,4.93741 6.74181,4.27909 6.06763,3.94993 6.06763,3.29161 6.74181,2.96245 6.06762,1.97496 6.06763,1.31664 6.06763,0.65833 6.74181,0 6.06763,-0.65833 6.06763,-1.31664 6.06763,-1.97496 6.74181,-2.96245 6.06763,-3.29161 6.06763,-3.94993 6.74181,-4.27909 6.06763,-4.93741 6.06762,-5.59574 6.06763,-5.92489 6.74181,-6.25406 6.06763,-6.58321 6.06763,-6.91238 6.06763,-6.91238 6.74181,-7.24154 6.06762,-7.24153 6.06763,-7.24154 6.74181,-7.24154 6.06763,-6.91238 6.06763,-6.91237 6.06763,-6.58322 6.74181,-6.25406 6.06763,-5.92489 6.06763,-5.59574 6.06763,-4.93741 6.74181,-4.27909 6.06762,-3.94993 6.06763,-3.29161 6.74181,-2.96244 6.06763,-1.97497 6.06763,-1.31664 6.06763,-0.65832 6.74181,0 6.06763,0.65832 6.06763,1.31664 6.06763,1.97497 6.74181,2.96244 6.06763,3.29161 6.06763,3.94993 6.74181,4.27909 6.06763,4.93741 6.06762,5.59574 6.06763,5.92489 6.74181,6.25406 6.06763,6.58322 6.06763,6.91237 6.067625,6.91238 6.74181,7.24154 6.067629,7.24154"
                   inkscape:connector-curvature="0" />
              </g>
            </g>
            <g
               style="stroke-width:2.50237703;stroke-miterlimit:4;stroke-dasharray:none"
               transform="matrix(0.43215451,0,0,1,273.2057,24.16838)"
               id="g4266">
              <g
                 transform="matrix(0.11021863,0,0,-0.12763586,446.22049,585.39928)"
                 id="g4268"
                 style="color:#ff0000;fill:none;stroke:#000000;stroke-width:21.09788322;stroke-linecap:round;stroke-linejoin:round;stroke-miterlimit:4;stroke-opacity:1;stroke-dasharray:none">
                <path
                   style="stroke:#000000;stroke-width:21.09788322;stroke-linecap:round;stroke-linejoin:round;stroke-miterlimit:4;stroke-opacity:1;stroke-dasharray:none"
                   id="path4270"
                   d="m -700.58345,638.13012 6.06763,-7.24154 6.74181,-7.24154 6.06762,-6.91238 6.06763,-6.91237 6.06763,-6.58322 6.74181,-6.25406 6.06763,-5.92489 6.06763,-5.59574 6.06763,-4.93741 6.74181,-4.27909 6.06763,-3.94993 6.06763,-3.29161 6.74181,-2.96244 6.06762,-1.97497 6.06763,-1.31664 6.06763,-0.65832 6.74181,0 6.06763,0.65832 6.06763,1.31664 6.06763,1.97497 6.74181,2.96244 6.06763,3.29161 6.06763,3.94993 6.74181,4.27909 6.06762,4.93741 6.06763,5.59574 6.06763,5.92489 6.74181,6.25406 6.06763,6.58322 6.06763,6.91237 6.06763,6.91238 6.74181,7.24154 6.06763,7.24154 6.06763,7.24153 6.74181,7.24154 6.06762,6.91238 6.06763,6.91238 6.06763,6.58321 6.74181,6.25406 6.06763,5.92489 6.06763,5.59574 6.06763,4.93741 6.74181,4.27909 6.06763,3.94993 6.06763,3.29161 6.74181,2.96245 6.06762,1.97496 6.06763,1.31664 6.06763,0.65833 6.74181,0 6.06763,-0.65833 6.06763,-1.31664 6.06763,-1.97496 6.74181,-2.96245 6.06763,-3.29161 6.06763,-3.94993 6.74181,-4.27909 6.06763,-4.93741 6.06762,-5.59574 6.06763,-5.92489 6.74181,-6.25406 6.06763,-6.58321 6.06763,-6.91238 6.06763,-6.91238 6.74181,-7.24154 6.06762,-7.24153 6.06763,-7.24154 6.74181,-7.24154 6.06763,-6.91238 6.06763,-6.91237 6.06763,-6.58322 6.74181,-6.25406 6.06763,-5.92489 6.06763,-5.59574 6.06763,-4.93741 6.74181,-4.27909 6.06762,-3.94993 6.06763,-3.29161 6.74181,-2.96244 6.06763,-1.97497 6.06763,-1.31664 6.06763,-0.65832 6.74181,0 6.06763,0.65832 6.06763,1.31664 6.06763,1.97497 6.74181,2.96244 6.06763,3.29161 6.06763,3.94993 6.74181,4.27909 6.06763,4.93741 6.06762,5.59574 6.06763,5.92489 6.74181,6.25406 6.06763,6.58322 6.06763,6.91237 6.067625,6.91238 6.74181,7.24154 6.067629,7.24154"
                   inkscape:connector-curvature="0" />
              </g>
              <g
                 style="color:#ff0000;fill:none;stroke:#000000;stroke-width:21.09788322;stroke-linecap:round;stroke-linejoin:round;stroke-miterlimit:4;stroke-opacity:1;stroke-dasharray:none"
                 id="g4272"
                 transform="matrix(0.11021863,0,0,0.12763586,514.59518,422.31331)">
                <path
                   inkscape:connector-curvature="0"
                   d="m -700.58345,638.13012 6.06763,-7.24154 6.74181,-7.24154 6.06762,-6.91238 6.06763,-6.91237 6.06763,-6.58322 6.74181,-6.25406 6.06763,-5.92489 6.06763,-5.59574 6.06763,-4.93741 6.74181,-4.27909 6.06763,-3.94993 6.06763,-3.29161 6.74181,-2.96244 6.06762,-1.97497 6.06763,-1.31664 6.06763,-0.65832 6.74181,0 6.06763,0.65832 6.06763,1.31664 6.06763,1.97497 6.74181,2.96244 6.06763,3.29161 6.06763,3.94993 6.74181,4.27909 6.06762,4.93741 6.06763,5.59574 6.06763,5.92489 6.74181,6.25406 6.06763,6.58322 6.06763,6.91237 6.06763,6.91238 6.74181,7.24154 6.06763,7.24154 6.06763,7.24153 6.74181,7.24154 6.06762,6.91238 6.06763,6.91238 6.06763,6.58321 6.74181,6.25406 6.06763,5.92489 6.06763,5.59574 6.06763,4.93741 6.74181,4.27909 6.06763,3.94993 6.06763,3.29161 6.74181,2.96245 6.06762,1.97496 6.06763,1.31664 6.06763,0.65833 6.74181,0 6.06763,-0.65833 6.06763,-1.31664 6.06763,-1.97496 6.74181,-2.96245 6.06763,-3.29161 6.06763,-3.94993 6.74181,-4.27909 6.06763,-4.93741 6.06762,-5.59574 6.06763,-5.92489 6.74181,-6.25406 6.06763,-6.58321 6.06763,-6.91238 6.06763,-6.91238 6.74181,-7.24154 6.06762,-7.24153 6.06763,-7.24154 6.74181,-7.24154 6.06763,-6.91238 6.06763,-6.91237 6.06763,-6.58322 6.74181,-6.25406 6.06763,-5.92489 6.06763,-5.59574 6.06763,-4.93741 6.74181,-4.27909 6.06762,-3.94993 6.06763,-3.29161 6.74181,-2.96244 6.06763,-1.97497 6.06763,-1.31664 6.06763,-0.65832 6.74181,0 6.06763,0.65832 6.06763,1.31664 6.06763,1.97497 6.74181,2.96244 6.06763,3.29161 6.06763,3.94993 6.74181,4.27909 6.06763,4.93741 6.06762,5.59574 6.06763,5.92489 6.74181,6.25406 6.06763,6.58322 6.06763,6.91237 6.067625,6.91238 6.74181,7.24154 6.067629,7.24154"
                   id="path4274"
                   style="stroke:#000000;stroke-width:21.09788322;stroke-linecap:round;stroke-linejoin:round;stroke-miterlimit:4;stroke-opacity:1;stroke-dasharray:none" />
              </g>
            </g>
          </g>
          <g
             style="stroke-width:1.64502418;stroke-miterlimit:4;stroke-dasharray:none"
             transform="matrix(0.36953488,0,0,1,274.58602,-73.419553)"
             id="g4276">
            <g
               style="stroke-width:2.50237703;stroke-miterlimit:4;stroke-dasharray:none"
               transform="matrix(0.43215451,0,0,1,214.08245,24.243661)"
               id="g4278">
              <g
                 transform="matrix(0.11021863,0,0,-0.12763586,446.22049,585.39928)"
                 id="g4280"
                 style="color:#ff0000;fill:none;stroke:#000000;stroke-width:21.09788322;stroke-linecap:round;stroke-linejoin:round;stroke-miterlimit:4;stroke-opacity:1;stroke-dasharray:none">
                <path
                   style="stroke:#000000;stroke-width:21.09788322;stroke-linecap:round;stroke-linejoin:round;stroke-miterlimit:4;stroke-opacity:1;stroke-dasharray:none"
                   id="path4282"
                   d="m -700.58345,638.13012 6.06763,-7.24154 6.74181,-7.24154 6.06762,-6.91238 6.06763,-6.91237 6.06763,-6.58322 6.74181,-6.25406 6.06763,-5.92489 6.06763,-5.59574 6.06763,-4.93741 6.74181,-4.27909 6.06763,-3.94993 6.06763,-3.29161 6.74181,-2.96244 6.06762,-1.97497 6.06763,-1.31664 6.06763,-0.65832 6.74181,0 6.06763,0.65832 6.06763,1.31664 6.06763,1.97497 6.74181,2.96244 6.06763,3.29161 6.06763,3.94993 6.74181,4.27909 6.06762,4.93741 6.06763,5.59574 6.06763,5.92489 6.74181,6.25406 6.06763,6.58322 6.06763,6.91237 6.06763,6.91238 6.74181,7.24154 6.06763,7.24154 6.06763,7.24153 6.74181,7.24154 6.06762,6.91238 6.06763,6.91238 6.06763,6.58321 6.74181,6.25406 6.06763,5.92489 6.06763,5.59574 6.06763,4.93741 6.74181,4.27909 6.06763,3.94993 6.06763,3.29161 6.74181,2.96245 6.06762,1.97496 6.06763,1.31664 6.06763,0.65833 6.74181,0 6.06763,-0.65833 6.06763,-1.31664 6.06763,-1.97496 6.74181,-2.96245 6.06763,-3.29161 6.06763,-3.94993 6.74181,-4.27909 6.06763,-4.93741 6.06762,-5.59574 6.06763,-5.92489 6.74181,-6.25406 6.06763,-6.58321 6.06763,-6.91238 6.06763,-6.91238 6.74181,-7.24154 6.06762,-7.24153 6.06763,-7.24154 6.74181,-7.24154 6.06763,-6.91238 6.06763,-6.91237 6.06763,-6.58322 6.74181,-6.25406 6.06763,-5.92489 6.06763,-5.59574 6.06763,-4.93741 6.74181,-4.27909 6.06762,-3.94993 6.06763,-3.29161 6.74181,-2.96244 6.06763,-1.97497 6.06763,-1.31664 6.06763,-0.65832 6.74181,0 6.06763,0.65832 6.06763,1.31664 6.06763,1.97497 6.74181,2.96244 6.06763,3.29161 6.06763,3.94993 6.74181,4.27909 6.06763,4.93741 6.06762,5.59574 6.06763,5.92489 6.74181,6.25406 6.06763,6.58322 6.06763,6.91237 6.067625,6.91238 6.74181,7.24154 6.067629,7.24154"
                   inkscape:connector-curvature="0" />
              </g>
              <g
                 style="color:#ff0000;fill:none;stroke:#000000;stroke-width:21.09788322;stroke-linecap:round;stroke-linejoin:round;stroke-miterlimit:4;stroke-opacity:1;stroke-dasharray:none"
                 id="g4284"
                 transform="matrix(0.11021863,0,0,0.12763586,514.59518,422.31331)">
                <path
                   inkscape:connector-curvature="0"
                   d="m -700.58345,638.13012 6.06763,-7.24154 6.74181,-7.24154 6.06762,-6.91238 6.06763,-6.91237 6.06763,-6.58322 6.74181,-6.25406 6.06763,-5.92489 6.06763,-5.59574 6.06763,-4.93741 6.74181,-4.27909 6.06763,-3.94993 6.06763,-3.29161 6.74181,-2.96244 6.06762,-1.97497 6.06763,-1.31664 6.06763,-0.65832 6.74181,0 6.06763,0.65832 6.06763,1.31664 6.06763,1.97497 6.74181,2.96244 6.06763,3.29161 6.06763,3.94993 6.74181,4.27909 6.06762,4.93741 6.06763,5.59574 6.06763,5.92489 6.74181,6.25406 6.06763,6.58322 6.06763,6.91237 6.06763,6.91238 6.74181,7.24154 6.06763,7.24154 6.06763,7.24153 6.74181,7.24154 6.06762,6.91238 6.06763,6.91238 6.06763,6.58321 6.74181,6.25406 6.06763,5.92489 6.06763,5.59574 6.06763,4.93741 6.74181,4.27909 6.06763,3.94993 6.06763,3.29161 6.74181,2.96245 6.06762,1.97496 6.06763,1.31664 6.06763,0.65833 6.74181,0 6.06763,-0.65833 6.06763,-1.31664 6.06763,-1.97496 6.74181,-2.96245 6.06763,-3.29161 6.06763,-3.94993 6.74181,-4.27909 6.06763,-4.93741 6.06762,-5.59574 6.06763,-5.92489 6.74181,-6.25406 6.06763,-6.58321 6.06763,-6.91238 6.06763,-6.91238 6.74181,-7.24154 6.06762,-7.24153 6.06763,-7.24154 6.74181,-7.24154 6.06763,-6.91238 6.06763,-6.91237 6.06763,-6.58322 6.74181,-6.25406 6.06763,-5.92489 6.06763,-5.59574 6.06763,-4.93741 6.74181,-4.27909 6.06762,-3.94993 6.06763,-3.29161 6.74181,-2.96244 6.06763,-1.97497 6.06763,-1.31664 6.06763,-0.65832 6.74181,0 6.06763,0.65832 6.06763,1.31664 6.06763,1.97497 6.74181,2.96244 6.06763,3.29161 6.06763,3.94993 6.74181,4.27909 6.06763,4.93741 6.06762,5.59574 6.06763,5.92489 6.74181,6.25406 6.06763,6.58322 6.06763,6.91237 6.067625,6.91238 6.74181,7.24154 6.067629,7.24154"
                   id="path4286"
                   style="stroke:#000000;stroke-width:21.09788322;stroke-linecap:round;stroke-linejoin:round;stroke-miterlimit:4;stroke-opacity:1;stroke-dasharray:none" />
              </g>
            </g>
            <g
               style="stroke-width:2.50237703;stroke-miterlimit:4;stroke-dasharray:none"
               id="g4288"
               transform="matrix(0.43215451,0,0,1,273.2057,24.16838)">
              <g
                 style="color:#ff0000;fill:none;stroke:#000000;stroke-width:21.09788322;stroke-linecap:round;stroke-linejoin:round;stroke-miterlimit:4;stroke-opacity:1;stroke-dasharray:none"
                 id="g4290"
                 transform="matrix(0.11021863,0,0,-0.12763586,446.22049,585.39928)">
                <path
                   inkscape:connector-curvature="0"
                   d="m -700.58345,638.13012 6.06763,-7.24154 6.74181,-7.24154 6.06762,-6.91238 6.06763,-6.91237 6.06763,-6.58322 6.74181,-6.25406 6.06763,-5.92489 6.06763,-5.59574 6.06763,-4.93741 6.74181,-4.27909 6.06763,-3.94993 6.06763,-3.29161 6.74181,-2.96244 6.06762,-1.97497 6.06763,-1.31664 6.06763,-0.65832 6.74181,0 6.06763,0.65832 6.06763,1.31664 6.06763,1.97497 6.74181,2.96244 6.06763,3.29161 6.06763,3.94993 6.74181,4.27909 6.06762,4.93741 6.06763,5.59574 6.06763,5.92489 6.74181,6.25406 6.06763,6.58322 6.06763,6.91237 6.06763,6.91238 6.74181,7.24154 6.06763,7.24154 6.06763,7.24153 6.74181,7.24154 6.06762,6.91238 6.06763,6.91238 6.06763,6.58321 6.74181,6.25406 6.06763,5.92489 6.06763,5.59574 6.06763,4.93741 6.74181,4.27909 6.06763,3.94993 6.06763,3.29161 6.74181,2.96245 6.06762,1.97496 6.06763,1.31664 6.06763,0.65833 6.74181,0 6.06763,-0.65833 6.06763,-1.31664 6.06763,-1.97496 6.74181,-2.96245 6.06763,-3.29161 6.06763,-3.94993 6.74181,-4.27909 6.06763,-4.93741 6.06762,-5.59574 6.06763,-5.92489 6.74181,-6.25406 6.06763,-6.58321 6.06763,-6.91238 6.06763,-6.91238 6.74181,-7.24154 6.06762,-7.24153 6.06763,-7.24154 6.74181,-7.24154 6.06763,-6.91238 6.06763,-6.91237 6.06763,-6.58322 6.74181,-6.25406 6.06763,-5.92489 6.06763,-5.59574 6.06763,-4.93741 6.74181,-4.27909 6.06762,-3.94993 6.06763,-3.29161 6.74181,-2.96244 6.06763,-1.97497 6.06763,-1.31664 6.06763,-0.65832 6.74181,0 6.06763,0.65832 6.06763,1.31664 6.06763,1.97497 6.74181,2.96244 6.06763,3.29161 6.06763,3.94993 6.74181,4.27909 6.06763,4.93741 6.06762,5.59574 6.06763,5.92489 6.74181,6.25406 6.06763,6.58322 6.06763,6.91237 6.067625,6.91238 6.74181,7.24154 6.067629,7.24154"
                   id="path4292"
                   style="stroke:#000000;stroke-width:21.09788322;stroke-linecap:round;stroke-linejoin:round;stroke-miterlimit:4;stroke-opacity:1;stroke-dasharray:none" />
              </g>
              <g
                 transform="matrix(0.11021863,0,0,0.12763586,514.59518,422.31331)"
                 id="g4294"
                 style="color:#ff0000;fill:none;stroke:#000000;stroke-width:21.09788322;stroke-linecap:round;stroke-linejoin:round;stroke-miterlimit:4;stroke-opacity:1;stroke-dasharray:none">
                <path
                   style="stroke:#000000;stroke-width:21.09788322;stroke-linecap:round;stroke-linejoin:round;stroke-miterlimit:4;stroke-opacity:1;stroke-dasharray:none"
                   id="path4296"
                   d="m -700.58345,638.13012 6.06763,-7.24154 6.74181,-7.24154 6.06762,-6.91238 6.06763,-6.91237 6.06763,-6.58322 6.74181,-6.25406 6.06763,-5.92489 6.06763,-5.59574 6.06763,-4.93741 6.74181,-4.27909 6.06763,-3.94993 6.06763,-3.29161 6.74181,-2.96244 6.06762,-1.97497 6.06763,-1.31664 6.06763,-0.65832 6.74181,0 6.06763,0.65832 6.06763,1.31664 6.06763,1.97497 6.74181,2.96244 6.06763,3.29161 6.06763,3.94993 6.74181,4.27909 6.06762,4.93741 6.06763,5.59574 6.06763,5.92489 6.74181,6.25406 6.06763,6.58322 6.06763,6.91237 6.06763,6.91238 6.74181,7.24154 6.06763,7.24154 6.06763,7.24153 6.74181,7.24154 6.06762,6.91238 6.06763,6.91238 6.06763,6.58321 6.74181,6.25406 6.06763,5.92489 6.06763,5.59574 6.06763,4.93741 6.74181,4.27909 6.06763,3.94993 6.06763,3.29161 6.74181,2.96245 6.06762,1.97496 6.06763,1.31664 6.06763,0.65833 6.74181,0 6.06763,-0.65833 6.06763,-1.31664 6.06763,-1.97496 6.74181,-2.96245 6.06763,-3.29161 6.06763,-3.94993 6.74181,-4.27909 6.06763,-4.93741 6.06762,-5.59574 6.06763,-5.92489 6.74181,-6.25406 6.06763,-6.58321 6.06763,-6.91238 6.06763,-6.91238 6.74181,-7.24154 6.06762,-7.24153 6.06763,-7.24154 6.74181,-7.24154 6.06763,-6.91238 6.06763,-6.91237 6.06763,-6.58322 6.74181,-6.25406 6.06763,-5.92489 6.06763,-5.59574 6.06763,-4.93741 6.74181,-4.27909 6.06762,-3.94993 6.06763,-3.29161 6.74181,-2.96244 6.06763,-1.97497 6.06763,-1.31664 6.06763,-0.65832 6.74181,0 6.06763,0.65832 6.06763,1.31664 6.06763,1.97497 6.74181,2.96244 6.06763,3.29161 6.06763,3.94993 6.74181,4.27909 6.06763,4.93741 6.06762,5.59574 6.06763,5.92489 6.74181,6.25406 6.06763,6.58322 6.06763,6.91237 6.067625,6.91238 6.74181,7.24154 6.067629,7.24154"
                   inkscape:connector-curvature="0" />
              </g>
            </g>
          </g>
          <g
             style="stroke-width:1.64502418;stroke-miterlimit:4;stroke-dasharray:none"
             id="g4298"
             transform="matrix(0.36953488,0,0,1,318.27512,-73.608956)">
            <g
               style="stroke-width:2.50237703;stroke-miterlimit:4;stroke-dasharray:none"
               id="g4300"
               transform="matrix(0.43215451,0,0,1,214.08245,24.243661)">
              <g
                 style="color:#ff0000;fill:none;stroke:#000000;stroke-width:21.09788322;stroke-linecap:round;stroke-linejoin:round;stroke-miterlimit:4;stroke-opacity:1;stroke-dasharray:none"
                 id="g4302"
                 transform="matrix(0.11021863,0,0,-0.12763586,446.22049,585.39928)">
                <path
                   inkscape:connector-curvature="0"
                   d="m -700.58345,638.13012 6.06763,-7.24154 6.74181,-7.24154 6.06762,-6.91238 6.06763,-6.91237 6.06763,-6.58322 6.74181,-6.25406 6.06763,-5.92489 6.06763,-5.59574 6.06763,-4.93741 6.74181,-4.27909 6.06763,-3.94993 6.06763,-3.29161 6.74181,-2.96244 6.06762,-1.97497 6.06763,-1.31664 6.06763,-0.65832 6.74181,0 6.06763,0.65832 6.06763,1.31664 6.06763,1.97497 6.74181,2.96244 6.06763,3.29161 6.06763,3.94993 6.74181,4.27909 6.06762,4.93741 6.06763,5.59574 6.06763,5.92489 6.74181,6.25406 6.06763,6.58322 6.06763,6.91237 6.06763,6.91238 6.74181,7.24154 6.06763,7.24154 6.06763,7.24153 6.74181,7.24154 6.06762,6.91238 6.06763,6.91238 6.06763,6.58321 6.74181,6.25406 6.06763,5.92489 6.06763,5.59574 6.06763,4.93741 6.74181,4.27909 6.06763,3.94993 6.06763,3.29161 6.74181,2.96245 6.06762,1.97496 6.06763,1.31664 6.06763,0.65833 6.74181,0 6.06763,-0.65833 6.06763,-1.31664 6.06763,-1.97496 6.74181,-2.96245 6.06763,-3.29161 6.06763,-3.94993 6.74181,-4.27909 6.06763,-4.93741 6.06762,-5.59574 6.06763,-5.92489 6.74181,-6.25406 6.06763,-6.58321 6.06763,-6.91238 6.06763,-6.91238 6.74181,-7.24154 6.06762,-7.24153 6.06763,-7.24154 6.74181,-7.24154 6.06763,-6.91238 6.06763,-6.91237 6.06763,-6.58322 6.74181,-6.25406 6.06763,-5.92489 6.06763,-5.59574 6.06763,-4.93741 6.74181,-4.27909 6.06762,-3.94993 6.06763,-3.29161 6.74181,-2.96244 6.06763,-1.97497 6.06763,-1.31664 6.06763,-0.65832 6.74181,0 6.06763,0.65832 6.06763,1.31664 6.06763,1.97497 6.74181,2.96244 6.06763,3.29161 6.06763,3.94993 6.74181,4.27909 6.06763,4.93741 6.06762,5.59574 6.06763,5.92489 6.74181,6.25406 6.06763,6.58322 6.06763,6.91237 6.067625,6.91238 6.74181,7.24154 6.067629,7.24154"
                   id="path4304"
                   style="stroke:#000000;stroke-width:21.09788322;stroke-linecap:round;stroke-linejoin:round;stroke-miterlimit:4;stroke-opacity:1;stroke-dasharray:none" />
              </g>
              <g
                 transform="matrix(0.11021863,0,0,0.12763586,514.59518,422.31331)"
                 id="g4306"
                 style="color:#ff0000;fill:none;stroke:#000000;stroke-width:21.09788322;stroke-linecap:round;stroke-linejoin:round;stroke-miterlimit:4;stroke-opacity:1;stroke-dasharray:none">
                <path
                   style="stroke:#000000;stroke-width:21.09788322;stroke-linecap:round;stroke-linejoin:round;stroke-miterlimit:4;stroke-opacity:1;stroke-dasharray:none"
                   id="path4308"
                   d="m -700.58345,638.13012 6.06763,-7.24154 6.74181,-7.24154 6.06762,-6.91238 6.06763,-6.91237 6.06763,-6.58322 6.74181,-6.25406 6.06763,-5.92489 6.06763,-5.59574 6.06763,-4.93741 6.74181,-4.27909 6.06763,-3.94993 6.06763,-3.29161 6.74181,-2.96244 6.06762,-1.97497 6.06763,-1.31664 6.06763,-0.65832 6.74181,0 6.06763,0.65832 6.06763,1.31664 6.06763,1.97497 6.74181,2.96244 6.06763,3.29161 6.06763,3.94993 6.74181,4.27909 6.06762,4.93741 6.06763,5.59574 6.06763,5.92489 6.74181,6.25406 6.06763,6.58322 6.06763,6.91237 6.06763,6.91238 6.74181,7.24154 6.06763,7.24154 6.06763,7.24153 6.74181,7.24154 6.06762,6.91238 6.06763,6.91238 6.06763,6.58321 6.74181,6.25406 6.06763,5.92489 6.06763,5.59574 6.06763,4.93741 6.74181,4.27909 6.06763,3.94993 6.06763,3.29161 6.74181,2.96245 6.06762,1.97496 6.06763,1.31664 6.06763,0.65833 6.74181,0 6.06763,-0.65833 6.06763,-1.31664 6.06763,-1.97496 6.74181,-2.96245 6.06763,-3.29161 6.06763,-3.94993 6.74181,-4.27909 6.06763,-4.93741 6.06762,-5.59574 6.06763,-5.92489 6.74181,-6.25406 6.06763,-6.58321 6.06763,-6.91238 6.06763,-6.91238 6.74181,-7.24154 6.06762,-7.24153 6.06763,-7.24154 6.74181,-7.24154 6.06763,-6.91238 6.06763,-6.91237 6.06763,-6.58322 6.74181,-6.25406 6.06763,-5.92489 6.06763,-5.59574 6.06763,-4.93741 6.74181,-4.27909 6.06762,-3.94993 6.06763,-3.29161 6.74181,-2.96244 6.06763,-1.97497 6.06763,-1.31664 6.06763,-0.65832 6.74181,0 6.06763,0.65832 6.06763,1.31664 6.06763,1.97497 6.74181,2.96244 6.06763,3.29161 6.06763,3.94993 6.74181,4.27909 6.06763,4.93741 6.06762,5.59574 6.06763,5.92489 6.74181,6.25406 6.06763,6.58322 6.06763,6.91237 6.067625,6.91238 6.74181,7.24154 6.067629,7.24154"
                   inkscape:connector-curvature="0" />
              </g>
            </g>
            <g
               style="stroke-width:2.50237703;stroke-miterlimit:4;stroke-dasharray:none"
               transform="matrix(0.43215451,0,0,1,273.2057,24.16838)"
               id="g4310">
              <g
                 transform="matrix(0.11021863,0,0,-0.12763586,446.22049,585.39928)"
                 id="g4312"
                 style="color:#ff0000;fill:none;stroke:#000000;stroke-width:21.09788322;stroke-linecap:round;stroke-linejoin:round;stroke-miterlimit:4;stroke-opacity:1;stroke-dasharray:none">
                <path
                   style="stroke:#000000;stroke-width:21.09788322;stroke-linecap:round;stroke-linejoin:round;stroke-miterlimit:4;stroke-opacity:1;stroke-dasharray:none"
                   id="path4314"
                   d="m -700.58345,638.13012 6.06763,-7.24154 6.74181,-7.24154 6.06762,-6.91238 6.06763,-6.91237 6.06763,-6.58322 6.74181,-6.25406 6.06763,-5.92489 6.06763,-5.59574 6.06763,-4.93741 6.74181,-4.27909 6.06763,-3.94993 6.06763,-3.29161 6.74181,-2.96244 6.06762,-1.97497 6.06763,-1.31664 6.06763,-0.65832 6.74181,0 6.06763,0.65832 6.06763,1.31664 6.06763,1.97497 6.74181,2.96244 6.06763,3.29161 6.06763,3.94993 6.74181,4.27909 6.06762,4.93741 6.06763,5.59574 6.06763,5.92489 6.74181,6.25406 6.06763,6.58322 6.06763,6.91237 6.06763,6.91238 6.74181,7.24154 6.06763,7.24154 6.06763,7.24153 6.74181,7.24154 6.06762,6.91238 6.06763,6.91238 6.06763,6.58321 6.74181,6.25406 6.06763,5.92489 6.06763,5.59574 6.06763,4.93741 6.74181,4.27909 6.06763,3.94993 6.06763,3.29161 6.74181,2.96245 6.06762,1.97496 6.06763,1.31664 6.06763,0.65833 6.74181,0 6.06763,-0.65833 6.06763,-1.31664 6.06763,-1.97496 6.74181,-2.96245 6.06763,-3.29161 6.06763,-3.94993 6.74181,-4.27909 6.06763,-4.93741 6.06762,-5.59574 6.06763,-5.92489 6.74181,-6.25406 6.06763,-6.58321 6.06763,-6.91238 6.06763,-6.91238 6.74181,-7.24154 6.06762,-7.24153 6.06763,-7.24154 6.74181,-7.24154 6.06763,-6.91238 6.06763,-6.91237 6.06763,-6.58322 6.74181,-6.25406 6.06763,-5.92489 6.06763,-5.59574 6.06763,-4.93741 6.74181,-4.27909 6.06762,-3.94993 6.06763,-3.29161 6.74181,-2.96244 6.06763,-1.97497 6.06763,-1.31664 6.06763,-0.65832 6.74181,0 6.06763,0.65832 6.06763,1.31664 6.06763,1.97497 6.74181,2.96244 6.06763,3.29161 6.06763,3.94993 6.74181,4.27909 6.06763,4.93741 6.06762,5.59574 6.06763,5.92489 6.74181,6.25406 6.06763,6.58322 6.06763,6.91237 6.067625,6.91238 6.74181,7.24154 6.067629,7.24154"
                   inkscape:connector-curvature="0" />
              </g>
              <g
                 style="color:#ff0000;fill:none;stroke:#000000;stroke-width:21.09788322;stroke-linecap:round;stroke-linejoin:round;stroke-miterlimit:4;stroke-opacity:1;stroke-dasharray:none"
                 id="g4316"
                 transform="matrix(0.11021863,0,0,0.12763586,514.59518,422.31331)">
                <path
                   inkscape:connector-curvature="0"
                   d="m -700.58345,638.13012 6.06763,-7.24154 6.74181,-7.24154 6.06762,-6.91238 6.06763,-6.91237 6.06763,-6.58322 6.74181,-6.25406 6.06763,-5.92489 6.06763,-5.59574 6.06763,-4.93741 6.74181,-4.27909 6.06763,-3.94993 6.06763,-3.29161 6.74181,-2.96244 6.06762,-1.97497 6.06763,-1.31664 6.06763,-0.65832 6.74181,0 6.06763,0.65832 6.06763,1.31664 6.06763,1.97497 6.74181,2.96244 6.06763,3.29161 6.06763,3.94993 6.74181,4.27909 6.06762,4.93741 6.06763,5.59574 6.06763,5.92489 6.74181,6.25406 6.06763,6.58322 6.06763,6.91237 6.06763,6.91238 6.74181,7.24154 6.06763,7.24154 6.06763,7.24153 6.74181,7.24154 6.06762,6.91238 6.06763,6.91238 6.06763,6.58321 6.74181,6.25406 6.06763,5.92489 6.06763,5.59574 6.06763,4.93741 6.74181,4.27909 6.06763,3.94993 6.06763,3.29161 6.74181,2.96245 6.06762,1.97496 6.06763,1.31664 6.06763,0.65833 6.74181,0 6.06763,-0.65833 6.06763,-1.31664 6.06763,-1.97496 6.74181,-2.96245 6.06763,-3.29161 6.06763,-3.94993 6.74181,-4.27909 6.06763,-4.93741 6.06762,-5.59574 6.06763,-5.92489 6.74181,-6.25406 6.06763,-6.58321 6.06763,-6.91238 6.06763,-6.91238 6.74181,-7.24154 6.06762,-7.24153 6.06763,-7.24154 6.74181,-7.24154 6.06763,-6.91238 6.06763,-6.91237 6.06763,-6.58322 6.74181,-6.25406 6.06763,-5.92489 6.06763,-5.59574 6.06763,-4.93741 6.74181,-4.27909 6.06762,-3.94993 6.06763,-3.29161 6.74181,-2.96244 6.06763,-1.97497 6.06763,-1.31664 6.06763,-0.65832 6.74181,0 6.06763,0.65832 6.06763,1.31664 6.06763,1.97497 6.74181,2.96244 6.06763,3.29161 6.06763,3.94993 6.74181,4.27909 6.06763,4.93741 6.06762,5.59574 6.06763,5.92489 6.74181,6.25406 6.06763,6.58322 6.06763,6.91237 6.067625,6.91238 6.74181,7.24154 6.067629,7.24154"
                   id="path4318"
                   style="stroke:#000000;stroke-width:21.09788322;stroke-linecap:round;stroke-linejoin:round;stroke-miterlimit:4;stroke-opacity:1;stroke-dasharray:none" />
              </g>
            </g>
          </g>
        </g>
        <g
           id="g4379"
           transform="matrix(0.88094889,0,0,1,43.990589,0.46905518)">
          <g
             transform="matrix(0.36040846,0,0,1,236.51827,-2.020305)"
             id="g4200"
             style="stroke-width:1.52117956;stroke-miterlimit:4;stroke-dasharray:none">
            <g
               transform="matrix(0.11021863,0,0,-0.12763586,446.22049,585.39928)"
               id="g4202"
               style="color:#ff0000;fill:none;stroke:#000000;stroke-width:12.82527256;stroke-linecap:round;stroke-linejoin:round;stroke-miterlimit:4;stroke-opacity:1;stroke-dasharray:none">
              <path
                 style="stroke:#000000;stroke-width:12.82527256;stroke-linecap:round;stroke-linejoin:round;stroke-miterlimit:4;stroke-opacity:1;stroke-dasharray:none"
                 id="path4204"
                 d="m -700.58345,638.13012 6.06763,-7.24154 6.74181,-7.24154 6.06762,-6.91238 6.06763,-6.91237 6.06763,-6.58322 6.74181,-6.25406 6.06763,-5.92489 6.06763,-5.59574 6.06763,-4.93741 6.74181,-4.27909 6.06763,-3.94993 6.06763,-3.29161 6.74181,-2.96244 6.06762,-1.97497 6.06763,-1.31664 6.06763,-0.65832 6.74181,0 6.06763,0.65832 6.06763,1.31664 6.06763,1.97497 6.74181,2.96244 6.06763,3.29161 6.06763,3.94993 6.74181,4.27909 6.06762,4.93741 6.06763,5.59574 6.06763,5.92489 6.74181,6.25406 6.06763,6.58322 6.06763,6.91237 6.06763,6.91238 6.74181,7.24154 6.06763,7.24154 6.06763,7.24153 6.74181,7.24154 6.06762,6.91238 6.06763,6.91238 6.06763,6.58321 6.74181,6.25406 6.06763,5.92489 6.06763,5.59574 6.06763,4.93741 6.74181,4.27909 6.06763,3.94993 6.06763,3.29161 6.74181,2.96245 6.06762,1.97496 6.06763,1.31664 6.06763,0.65833 6.74181,0 6.06763,-0.65833 6.06763,-1.31664 6.06763,-1.97496 6.74181,-2.96245 6.06763,-3.29161 6.06763,-3.94993 6.74181,-4.27909 6.06763,-4.93741 6.06762,-5.59574 6.06763,-5.92489 6.74181,-6.25406 6.06763,-6.58321 6.06763,-6.91238 6.06763,-6.91238 6.74181,-7.24154 6.06762,-7.24153 6.06763,-7.24154 6.74181,-7.24154 6.06763,-6.91238 6.06763,-6.91237 6.06763,-6.58322 6.74181,-6.25406 6.06763,-5.92489 6.06763,-5.59574 6.06763,-4.93741 6.74181,-4.27909 6.06762,-3.94993 6.06763,-3.29161 6.74181,-2.96244 6.06763,-1.97497 6.06763,-1.31664 6.06763,-0.65832 6.74181,0 6.06763,0.65832 6.06763,1.31664 6.06763,1.97497 6.74181,2.96244 6.06763,3.29161 6.06763,3.94993 6.74181,4.27909 6.06763,4.93741 6.06762,5.59574 6.06763,5.92489 6.74181,6.25406 6.06763,6.58322 6.06763,6.91237 6.067625,6.91238 6.74181,7.24154 6.067629,7.24154"
                 inkscape:connector-curvature="0" />
            </g>
            <g
               style="color:#ff0000;fill:none;stroke:#000000;stroke-width:12.82527256;stroke-linecap:round;stroke-linejoin:round;stroke-miterlimit:4;stroke-opacity:1;stroke-dasharray:none"
               id="g4206"
               transform="matrix(0.11021863,0,0,0.12763586,514.59518,422.31331)">
              <path
                 inkscape:connector-curvature="0"
                 d="m -700.58345,638.13012 6.06763,-7.24154 6.74181,-7.24154 6.06762,-6.91238 6.06763,-6.91237 6.06763,-6.58322 6.74181,-6.25406 6.06763,-5.92489 6.06763,-5.59574 6.06763,-4.93741 6.74181,-4.27909 6.06763,-3.94993 6.06763,-3.29161 6.74181,-2.96244 6.06762,-1.97497 6.06763,-1.31664 6.06763,-0.65832 6.74181,0 6.06763,0.65832 6.06763,1.31664 6.06763,1.97497 6.74181,2.96244 6.06763,3.29161 6.06763,3.94993 6.74181,4.27909 6.06762,4.93741 6.06763,5.59574 6.06763,5.92489 6.74181,6.25406 6.06763,6.58322 6.06763,6.91237 6.06763,6.91238 6.74181,7.24154 6.06763,7.24154 6.06763,7.24153 6.74181,7.24154 6.06762,6.91238 6.06763,6.91238 6.06763,6.58321 6.74181,6.25406 6.06763,5.92489 6.06763,5.59574 6.06763,4.93741 6.74181,4.27909 6.06763,3.94993 6.06763,3.29161 6.74181,2.96245 6.06762,1.97496 6.06763,1.31664 6.06763,0.65833 6.74181,0 6.06763,-0.65833 6.06763,-1.31664 6.06763,-1.97496 6.74181,-2.96245 6.06763,-3.29161 6.06763,-3.94993 6.74181,-4.27909 6.06763,-4.93741 6.06762,-5.59574 6.06763,-5.92489 6.74181,-6.25406 6.06763,-6.58321 6.06763,-6.91238 6.06763,-6.91238 6.74181,-7.24154 6.06762,-7.24153 6.06763,-7.24154 6.74181,-7.24154 6.06763,-6.91238 6.06763,-6.91237 6.06763,-6.58322 6.74181,-6.25406 6.06763,-5.92489 6.06763,-5.59574 6.06763,-4.93741 6.74181,-4.27909 6.06762,-3.94993 6.06763,-3.29161 6.74181,-2.96244 6.06763,-1.97497 6.06763,-1.31664 6.06763,-0.65832 6.74181,0 6.06763,0.65832 6.06763,1.31664 6.06763,1.97497 6.74181,2.96244 6.06763,3.29161 6.06763,3.94993 6.74181,4.27909 6.06763,4.93741 6.06762,5.59574 6.06763,5.92489 6.74181,6.25406 6.06763,6.58322 6.06763,6.91237 6.067625,6.91238 6.74181,7.24154 6.067629,7.24154"
                 id="path4208"
                 style="stroke:#000000;stroke-width:12.82527256;stroke-linecap:round;stroke-linejoin:round;stroke-miterlimit:4;stroke-opacity:1;stroke-dasharray:none" />
            </g>
          </g>
          <g
             id="g4210"
             transform="matrix(0.36040846,0,0,1,285.82591,-2.095586)"
             style="stroke-width:1.52117956;stroke-miterlimit:4;stroke-dasharray:none">
            <g
               style="color:#ff0000;fill:none;stroke:#000000;stroke-width:12.82527256;stroke-linecap:round;stroke-linejoin:round;stroke-miterlimit:4;stroke-opacity:1;stroke-dasharray:none"
               id="g4212"
               transform="matrix(0.11021863,0,0,-0.12763586,446.22049,585.39928)">
              <path
                 inkscape:connector-curvature="0"
                 d="m -700.58345,638.13012 6.06763,-7.24154 6.74181,-7.24154 6.06762,-6.91238 6.06763,-6.91237 6.06763,-6.58322 6.74181,-6.25406 6.06763,-5.92489 6.06763,-5.59574 6.06763,-4.93741 6.74181,-4.27909 6.06763,-3.94993 6.06763,-3.29161 6.74181,-2.96244 6.06762,-1.97497 6.06763,-1.31664 6.06763,-0.65832 6.74181,0 6.06763,0.65832 6.06763,1.31664 6.06763,1.97497 6.74181,2.96244 6.06763,3.29161 6.06763,3.94993 6.74181,4.27909 6.06762,4.93741 6.06763,5.59574 6.06763,5.92489 6.74181,6.25406 6.06763,6.58322 6.06763,6.91237 6.06763,6.91238 6.74181,7.24154 6.06763,7.24154 6.06763,7.24153 6.74181,7.24154 6.06762,6.91238 6.06763,6.91238 6.06763,6.58321 6.74181,6.25406 6.06763,5.92489 6.06763,5.59574 6.06763,4.93741 6.74181,4.27909 6.06763,3.94993 6.06763,3.29161 6.74181,2.96245 6.06762,1.97496 6.06763,1.31664 6.06763,0.65833 6.74181,0 6.06763,-0.65833 6.06763,-1.31664 6.06763,-1.97496 6.74181,-2.96245 6.06763,-3.29161 6.06763,-3.94993 6.74181,-4.27909 6.06763,-4.93741 6.06762,-5.59574 6.06763,-5.92489 6.74181,-6.25406 6.06763,-6.58321 6.06763,-6.91238 6.06763,-6.91238 6.74181,-7.24154 6.06762,-7.24153 6.06763,-7.24154 6.74181,-7.24154 6.06763,-6.91238 6.06763,-6.91237 6.06763,-6.58322 6.74181,-6.25406 6.06763,-5.92489 6.06763,-5.59574 6.06763,-4.93741 6.74181,-4.27909 6.06762,-3.94993 6.06763,-3.29161 6.74181,-2.96244 6.06763,-1.97497 6.06763,-1.31664 6.06763,-0.65832 6.74181,0 6.06763,0.65832 6.06763,1.31664 6.06763,1.97497 6.74181,2.96244 6.06763,3.29161 6.06763,3.94993 6.74181,4.27909 6.06763,4.93741 6.06762,5.59574 6.06763,5.92489 6.74181,6.25406 6.06763,6.58322 6.06763,6.91237 6.067625,6.91238 6.74181,7.24154 6.067629,7.24154"
                 id="path4214"
                 style="stroke:#000000;stroke-width:12.82527256;stroke-linecap:round;stroke-linejoin:round;stroke-miterlimit:4;stroke-opacity:1;stroke-dasharray:none" />
            </g>
            <g
               transform="matrix(0.11021863,0,0,0.12763586,514.59518,422.31331)"
               id="g4216"
               style="color:#ff0000;fill:none;stroke:#000000;stroke-width:12.82527256;stroke-linecap:round;stroke-linejoin:round;stroke-miterlimit:4;stroke-opacity:1;stroke-dasharray:none">
              <path
                 style="stroke:#000000;stroke-width:12.82527256;stroke-linecap:round;stroke-linejoin:round;stroke-miterlimit:4;stroke-opacity:1;stroke-dasharray:none"
                 id="path4218"
                 d="m -700.58345,638.13012 6.06763,-7.24154 6.74181,-7.24154 6.06762,-6.91238 6.06763,-6.91237 6.06763,-6.58322 6.74181,-6.25406 6.06763,-5.92489 6.06763,-5.59574 6.06763,-4.93741 6.74181,-4.27909 6.06763,-3.94993 6.06763,-3.29161 6.74181,-2.96244 6.06762,-1.97497 6.06763,-1.31664 6.06763,-0.65832 6.74181,0 6.06763,0.65832 6.06763,1.31664 6.06763,1.97497 6.74181,2.96244 6.06763,3.29161 6.06763,3.94993 6.74181,4.27909 6.06762,4.93741 6.06763,5.59574 6.06763,5.92489 6.74181,6.25406 6.06763,6.58322 6.06763,6.91237 6.06763,6.91238 6.74181,7.24154 6.06763,7.24154 6.06763,7.24153 6.74181,7.24154 6.06762,6.91238 6.06763,6.91238 6.06763,6.58321 6.74181,6.25406 6.06763,5.92489 6.06763,5.59574 6.06763,4.93741 6.74181,4.27909 6.06763,3.94993 6.06763,3.29161 6.74181,2.96245 6.06762,1.97496 6.06763,1.31664 6.06763,0.65833 6.74181,0 6.06763,-0.65833 6.06763,-1.31664 6.06763,-1.97496 6.74181,-2.96245 6.06763,-3.29161 6.06763,-3.94993 6.74181,-4.27909 6.06763,-4.93741 6.06762,-5.59574 6.06763,-5.92489 6.74181,-6.25406 6.06763,-6.58321 6.06763,-6.91238 6.06763,-6.91238 6.74181,-7.24154 6.06762,-7.24153 6.06763,-7.24154 6.74181,-7.24154 6.06763,-6.91238 6.06763,-6.91237 6.06763,-6.58322 6.74181,-6.25406 6.06763,-5.92489 6.06763,-5.59574 6.06763,-4.93741 6.74181,-4.27909 6.06762,-3.94993 6.06763,-3.29161 6.74181,-2.96244 6.06763,-1.97497 6.06763,-1.31664 6.06763,-0.65832 6.74181,0 6.06763,0.65832 6.06763,1.31664 6.06763,1.97497 6.74181,2.96244 6.06763,3.29161 6.06763,3.94993 6.74181,4.27909 6.06763,4.93741 6.06762,5.59574 6.06763,5.92489 6.74181,6.25406 6.06763,6.58322 6.06763,6.91237 6.067625,6.91238 6.74181,7.24154 6.067629,7.24154"
                 inkscape:connector-curvature="0" />
            </g>
          </g>
          <g
             style="stroke-width:1.52117956;stroke-miterlimit:4;stroke-dasharray:none"
             transform="matrix(0.36040846,0,0,1,335.32338,-2.095586)"
             id="g4369">
            <g
               transform="matrix(0.11021863,0,0,-0.12763586,446.22049,585.39928)"
               id="g4371"
               style="color:#ff0000;fill:none;stroke:#000000;stroke-width:12.82527256;stroke-linecap:round;stroke-linejoin:round;stroke-miterlimit:4;stroke-opacity:1;stroke-dasharray:none">
              <path
                 style="stroke:#000000;stroke-width:12.82527256;stroke-linecap:round;stroke-linejoin:round;stroke-miterlimit:4;stroke-opacity:1;stroke-dasharray:none"
                 id="path4373"
                 d="m -700.58345,638.13012 6.06763,-7.24154 6.74181,-7.24154 6.06762,-6.91238 6.06763,-6.91237 6.06763,-6.58322 6.74181,-6.25406 6.06763,-5.92489 6.06763,-5.59574 6.06763,-4.93741 6.74181,-4.27909 6.06763,-3.94993 6.06763,-3.29161 6.74181,-2.96244 6.06762,-1.97497 6.06763,-1.31664 6.06763,-0.65832 6.74181,0 6.06763,0.65832 6.06763,1.31664 6.06763,1.97497 6.74181,2.96244 6.06763,3.29161 6.06763,3.94993 6.74181,4.27909 6.06762,4.93741 6.06763,5.59574 6.06763,5.92489 6.74181,6.25406 6.06763,6.58322 6.06763,6.91237 6.06763,6.91238 6.74181,7.24154 6.06763,7.24154 6.06763,7.24153 6.74181,7.24154 6.06762,6.91238 6.06763,6.91238 6.06763,6.58321 6.74181,6.25406 6.06763,5.92489 6.06763,5.59574 6.06763,4.93741 6.74181,4.27909 6.06763,3.94993 6.06763,3.29161 6.74181,2.96245 6.06762,1.97496 6.06763,1.31664 6.06763,0.65833 6.74181,0 6.06763,-0.65833 6.06763,-1.31664 6.06763,-1.97496 6.74181,-2.96245 6.06763,-3.29161 6.06763,-3.94993 6.74181,-4.27909 6.06763,-4.93741 6.06762,-5.59574 6.06763,-5.92489 6.74181,-6.25406 6.06763,-6.58321 6.06763,-6.91238 6.06763,-6.91238 6.74181,-7.24154 6.06762,-7.24153 6.06763,-7.24154 6.74181,-7.24154 6.06763,-6.91238 6.06763,-6.91237 6.06763,-6.58322 6.74181,-6.25406 6.06763,-5.92489 6.06763,-5.59574 6.06763,-4.93741 6.74181,-4.27909 6.06762,-3.94993 6.06763,-3.29161 6.74181,-2.96244 6.06763,-1.97497 6.06763,-1.31664 6.06763,-0.65832 6.74181,0 6.06763,0.65832 6.06763,1.31664 6.06763,1.97497 6.74181,2.96244 6.06763,3.29161 6.06763,3.94993 6.74181,4.27909 6.06763,4.93741 6.06762,5.59574 6.06763,5.92489 6.74181,6.25406 6.06763,6.58322 6.06763,6.91237 6.067625,6.91238 6.74181,7.24154 6.067629,7.24154"
                 inkscape:connector-curvature="0" />
            </g>
            <g
               style="color:#ff0000;fill:none;stroke:#000000;stroke-width:12.82527256;stroke-linecap:round;stroke-linejoin:round;stroke-miterlimit:4;stroke-opacity:1;stroke-dasharray:none"
               id="g4375"
               transform="matrix(0.11021863,0,0,0.12763586,514.59518,422.31331)">
              <path
                 inkscape:connector-curvature="0"
                 d="m -700.58345,638.13012 6.06763,-7.24154 6.74181,-7.24154 6.06762,-6.91238 6.06763,-6.91237 6.06763,-6.58322 6.74181,-6.25406 6.06763,-5.92489 6.06763,-5.59574 6.06763,-4.93741 6.74181,-4.27909 6.06763,-3.94993 6.06763,-3.29161 6.74181,-2.96244 6.06762,-1.97497 6.06763,-1.31664 6.06763,-0.65832 6.74181,0 6.06763,0.65832 6.06763,1.31664 6.06763,1.97497 6.74181,2.96244 6.06763,3.29161 6.06763,3.94993 6.74181,4.27909 6.06762,4.93741 6.06763,5.59574 6.06763,5.92489 6.74181,6.25406 6.06763,6.58322 6.06763,6.91237 6.06763,6.91238 6.74181,7.24154 6.06763,7.24154 6.06763,7.24153 6.74181,7.24154 6.06762,6.91238 6.06763,6.91238 6.06763,6.58321 6.74181,6.25406 6.06763,5.92489 6.06763,5.59574 6.06763,4.93741 6.74181,4.27909 6.06763,3.94993 6.06763,3.29161 6.74181,2.96245 6.06762,1.97496 6.06763,1.31664 6.06763,0.65833 6.74181,0 6.06763,-0.65833 6.06763,-1.31664 6.06763,-1.97496 6.74181,-2.96245 6.06763,-3.29161 6.06763,-3.94993 6.74181,-4.27909 6.06763,-4.93741 6.06762,-5.59574 6.06763,-5.92489 6.74181,-6.25406 6.06763,-6.58321 6.06763,-6.91238 6.06763,-6.91238 6.74181,-7.24154 6.06762,-7.24153 6.06763,-7.24154 6.74181,-7.24154 6.06763,-6.91238 6.06763,-6.91237 6.06763,-6.58322 6.74181,-6.25406 6.06763,-5.92489 6.06763,-5.59574 6.06763,-4.93741 6.74181,-4.27909 6.06762,-3.94993 6.06763,-3.29161 6.74181,-2.96244 6.06763,-1.97497 6.06763,-1.31664 6.06763,-0.65832 6.74181,0 6.06763,0.65832 6.06763,1.31664 6.06763,1.97497 6.74181,2.96244 6.06763,3.29161 6.06763,3.94993 6.74181,4.27909 6.06763,4.93741 6.06762,5.59574 6.06763,5.92489 6.74181,6.25406 6.06763,6.58322 6.06763,6.91237 6.067625,6.91238 6.74181,7.24154 6.067629,7.24154"
                 id="path4377"
                 style="stroke:#000000;stroke-width:12.82527256;stroke-linecap:round;stroke-linejoin:round;stroke-miterlimit:4;stroke-opacity:1;stroke-dasharray:none" />
            </g>
          </g>
        </g>
      </g>
      <path
         inkscape:connector-curvature="0"
         id="path4396"
         d="m 311.51847,455.36203 38.89087,0"
         style="fill:none;stroke:#000000;stroke-width:4;stroke-linejoin:round;stroke-miterlimit:10;stroke-opacity:1;stroke-dasharray:none;stroke-dashoffset:0;marker-end:url(#Arrow1Send)" />
      <text
         sodipodi:linespacing="125%"
         id="text5449"
         y="445.57648"
         x="313.21429"
         style="font-size:12px;font-style:normal;font-variant:normal;font-weight:normal;font-stretch:normal;text-indent:0;text-align:start;text-decoration:none;line-height:125%;letter-spacing:0px;word-spacing:0px;text-transform:none;direction:ltr;block-progression:tb;writing-mode:lr-tb;text-anchor:start;color:#000000;fill:#000000;fill-opacity:1;fill-rule:nonzero;stroke:none;stroke-width:1px;marker:none;visibility:visible;display:inline;overflow:visible;enable-background:accumulate;font-family:Arial;-inkscape-font-specification:Arial"
         xml:space="preserve"><tspan
           y="445.57648"
           x="313.21429"
           id="tspan5451"
           sodipodi:role="line">Fourier</tspan></text>
      <text
         sodipodi:linespacing="125%"
         id="text5453"
         y="473.79077"
         x="305.92523"
         style="font-size:12px;font-style:normal;font-variant:normal;font-weight:normal;font-stretch:normal;text-indent:0;text-align:start;text-decoration:none;line-height:125%;letter-spacing:0px;word-spacing:0px;text-transform:none;direction:ltr;block-progression:tb;writing-mode:lr-tb;text-anchor:start;color:#000000;fill:#000000;fill-opacity:1;fill-rule:nonzero;stroke:none;stroke-width:1px;marker:none;visibility:visible;display:inline;overflow:visible;enable-background:accumulate;font-family:Arial;-inkscape-font-specification:Arial"
         xml:space="preserve"><tspan
           y="473.79077"
           x="305.92523"
           id="tspan5455"
           sodipodi:role="line">Transform</tspan></text>
    </g>
  </g>
</svg>
