<?xml version="1.0" encoding="UTF-8" standalone="no"?>
<!-- Created with Inkscape (http://www.inkscape.org/) -->

<svg
   xmlns:dc="http://purl.org/dc/elements/1.1/"
   xmlns:cc="http://creativecommons.org/ns#"
   xmlns:rdf="http://www.w3.org/1999/02/22-rdf-syntax-ns#"
   xmlns:svg="http://www.w3.org/2000/svg"
   xmlns="http://www.w3.org/2000/svg"
   xmlns:sodipodi="http://sodipodi.sourceforge.net/DTD/sodipodi-0.dtd"
   xmlns:inkscape="http://www.inkscape.org/namespaces/inkscape"
   id="svg2"
   version="1.1"
   inkscape:version="0.48.1 r9760"
   width="642.5"
   height="450"
   xml:space="preserve"
   sodipodi:docname="fig.wave_superpos_3.pdf"><metadata
     id="metadata8"><rdf:RDF><cc:Work
         rdf:about=""><dc:format>image/svg+xml</dc:format><dc:type
           rdf:resource="http://purl.org/dc/dcmitype/StillImage" /><dc:title></dc:title></cc:Work></rdf:RDF></metadata><defs
     id="defs6" /><sodipodi:namedview
     pagecolor="#ffffff"
     bordercolor="#666666"
     borderopacity="1"
     objecttolerance="10"
     gridtolerance="10"
     guidetolerance="10"
     inkscape:pageopacity="0"
     inkscape:pageshadow="2"
     inkscape:window-width="640"
     inkscape:window-height="480"
     id="namedview4"
     showgrid="false"
     inkscape:zoom="0.52444444"
     inkscape:cx="321.25"
     inkscape:cy="225"
     inkscape:current-layer="g10" /><g
     id="g10"
     inkscape:groupmode="layer"
     inkscape:label="fig.wave_superpos_3"
     transform="matrix(1.25,0,0,-1.25,0,450)"><g
       id="g12"
       transform="scale(0.1,0.1)"><path
         d="m 649.68,1746.8 14.027,0.61 14.637,0 14.023,-0.61 14.028,-0.61 14.636,-1.22 14.028,-1.83 14.027,-1.82 14.633,-1.84 14.027,-1.21 14.027,0 14.637,0.61 14.024,2.44 14.027,3.65 14.637,4.88 14.027,5.49 14.027,4.88 14.633,4.27 14.027,1.22 14.028,-1.83 14.637,-5.49 14.023,-9.15 14.027,-12.8 14.637,-14.03 14.027,-14.03 14.029,-10.36 14.63,-4.88 14.03,3.05 14.03,12.19 14.63,21.35 14.03,29.27 14.02,32.32 14.64,32.32 14.03,25 14.03,12.2 14.63,-4.27 14.03,-24.39 14.02,-43.91 14.64,-58.54 14.02,-67.09 14.03,-64.64 14.64,-51.84 14.02,-26.83 14.03,6.1 14.63,43.91 14.03,78.67 14.03,107.33 14.64,120.75 14.02,116.48 14.03,92.09 14.63,48.78 14.03,-7.92 14.03,-70.75 14.63,-128.67 14.03,-173.2 14.03,-193.32 14.63,-184.17 14.03,-143.92 14.02,-75.62 14.64,10.97 14.03,104.29 14.02,188.44 14.64,248.81 14.02,274.43 14.03,256.74 14.64,196.37 14.02,100.63 14.03,-17.69 14.64,-139.65 14.02,-246.99 14.03,-319.56 14.63,-343.95 14.03,-315.28 14.03,-234.789 14.64,-113.43 14.02,28.66 14.03,171.369 14.63,289.06 14.03,364.08 14.03,382.37 14.63,340.29 14.03,243.93 14.02,108.55 14.64,-43.9 14.02,-188.44 14.03,-303.7 14.64,-368.35 14.03,-375.05 14.02,-321.99 14.64,-220.156 14.02,-85.989 14.03,57.325 14.64,187.83 14.02,282.97 14.03,330.53 14.64,323.83 14.02,267.11 14.03,171.36 14.63,54.28 14.03,-65.26 14.03,-165.87 14.63,-234.79 14.03,-261.62 14.02,-246.38 14.64,-192.71 14.03,-114.04 14.03,-23.78 14.63,62.2 14.03,130.51 14.02,172.58 14.64,182.34 14.02,163.44 14.03,121.36 14.64,63.42 14.03,3.05 14.02,-51.22 14.64,-90.26 14.02,-111.6 14.03,-111.6 14.64,-95.14 14.02,-64.64 14.03,-29.27 14.63,6.1 14.03,35.98 14.03,55.49 14.63,63.42 14.03,59.77 14.03,47.57 14.63,29.88 14.03,9.76 14.02,-7.93 14.64,-21.35 14.03,-29.88 14.03,-31.71 14.63,-28.05 14.03,-20.74 14.02,-10.98 14.64,-1.82 14.02,6.09 14.03,12.2 14.64,14.03 14.02,14.02 14.03,11.59 14.63,7.93 14.03,2.44 14.03,-1.22 14.64,-4.88 14.02,-6.71 14.03,-7.93 14.63,-6.09 14.03,-4.88 14.03,-1.22 14.63,1.22 14.03,4.88 14.03,6.09 14.63,7.93 14.03,6.71 14.02,4.88 14.64,1.22 14.03,-2.44 14.02,-7.93 14.64,-11.59 14.03,-14.02 14.02,-14.03 14.64,-12.2 14.02,-6.09 14.03,1.82 14.64,10.98 14.02,20.74 14.03,28.05 14.63,31.71 14.03,29.88 14.03,21.35 14.64,7.93 14.02,-9.76 14.03,-29.88 14.63,-47.57 14.03,-59.77 14.03,-63.42 14.63,-55.49 14.03,-35.98 14.03,-6.1 14.63,29.27 14.03,64.64 14.02,95.14 14.64,111.6 14.03,111.6 14.02,90.26 14.64,51.22 14.02,-3.05 14.03,-63.42 14.64,-121.36 14.02,-163.44 14.03,-182.34 14.64,-172.58 14.02,-130.51 14.03,-62.2 14.63,23.78 14.03,114.04 14.03,192.71 14.63,246.38 14.03,261.62 14.03,234.79 14.63,165.87 14.03,65.26 14.03,-54.28 14.63,-171.36 14.03,-267.11 14.02,-323.83 14.64,-330.53 14.03,-282.97 14.02,-187.83 14.64,-57.325 14.03,85.989 14.02,220.156 14.64,321.99 14.02,375.05 14.03,368.35 14.64,303.7 14.02,188.44 14.03,43.9 14.63,-108.55 14.03,-243.93 14.03,-340.29 14.63,-382.37 14.03,-364.08 14.03,-289.06 14.63,-171.369 14.03,-28.66 14.02,113.43 14.64,234.789 14.03,315.28 14.03,343.95 14.63,319.56 14.03,246.99 14.02,139.65 14.64,17.69 14.03,-100.63 14.02,-196.37 14.64,-256.74 14.03,-274.43 14.02,-248.81 14.64,-188.44 14.02,-104.29 14.03,-10.97 14.64,75.62 14.02,143.92 14.03,184.17 14.63,193.32 14.03,173.2 14.03,128.67 14.63,70.75 14.03,7.92 14.03,-48.78 14.63,-92.09 14.03,-116.48 14.02,-120.75 14.64,-107.33 14.03,-78.67 14.03,-43.91 14.63,-6.1 14.03,26.83 14.02,51.84 14.64,64.64 14.02,67.09 14.03,58.54 14.64,43.91 14.02,24.39 14.03,4.27 14.63,-12.2 14.03,-25 14.03,-32.32 14.64,-32.32 14.02,-29.27 14.03,-21.35 14.63,-12.19 14.03,-3.05 14.03,4.88 14.63,10.36 14.03,14.03 14.03,14.03 14.63,12.8 14.03,9.15 14.02,5.49 14.64,1.83 14.03,-1.22 14.02,-4.27 14.64,-4.88 14.02,-5.49 14.03,-4.88 14.64,-3.65 14.03,-2.44 14.02,-0.61 14.64,0 14.02,1.21 14.03,1.84 14.63,1.82 14.03,1.83 14.03,1.22 14.64,0.61 14.02,0.61"
         style="fill:none;stroke:#000000;stroke-opacity:1;stroke-width:9.1476;stroke-linecap:butt;stroke-linejoin:miter;stroke-miterlimit:10;stroke-dasharray:none"
         id="path14" /><path
         d="m 791.773,266.113 0,60.981"
         style="fill:none;stroke:#000000;stroke-opacity:1;stroke-width:9.1476;stroke-linecap:butt;stroke-linejoin:miter;stroke-miterlimit:10;stroke-dasharray:none"
         id="path16" /><path
         d="m 791.773,3224.45 0,-60.99"
         style="fill:none;stroke:#000000;stroke-opacity:1;stroke-width:9.1476;stroke-linecap:butt;stroke-linejoin:miter;stroke-miterlimit:10;stroke-dasharray:none"
         id="path18" /><path
         d="m 934.477,266.113 0,60.981"
         style="fill:none;stroke:#000000;stroke-opacity:1;stroke-width:9.1476;stroke-linecap:butt;stroke-linejoin:miter;stroke-miterlimit:10;stroke-dasharray:none"
         id="path20" /><path
         d="m 934.477,3224.45 0,-60.99"
         style="fill:none;stroke:#000000;stroke-opacity:1;stroke-width:9.1476;stroke-linecap:butt;stroke-linejoin:miter;stroke-miterlimit:10;stroke-dasharray:none"
         id="path22" /><path
         d="m 1076.57,266.113 0,60.981"
         style="fill:none;stroke:#000000;stroke-opacity:1;stroke-width:9.1476;stroke-linecap:butt;stroke-linejoin:miter;stroke-miterlimit:10;stroke-dasharray:none"
         id="path24" /><path
         d="m 1076.57,3224.45 0,-60.99"
         style="fill:none;stroke:#000000;stroke-opacity:1;stroke-width:9.1476;stroke-linecap:butt;stroke-linejoin:miter;stroke-miterlimit:10;stroke-dasharray:none"
         id="path26" /><path
         d="m 1218.66,266.113 0,60.981"
         style="fill:none;stroke:#000000;stroke-opacity:1;stroke-width:9.1476;stroke-linecap:butt;stroke-linejoin:miter;stroke-miterlimit:10;stroke-dasharray:none"
         id="path28" /><path
         d="m 1218.66,3224.45 0,-60.99"
         style="fill:none;stroke:#000000;stroke-opacity:1;stroke-width:9.1476;stroke-linecap:butt;stroke-linejoin:miter;stroke-miterlimit:10;stroke-dasharray:none"
         id="path30" /><path
         d="m 1503.46,266.113 0,60.981"
         style="fill:none;stroke:#000000;stroke-opacity:1;stroke-width:9.1476;stroke-linecap:butt;stroke-linejoin:miter;stroke-miterlimit:10;stroke-dasharray:none"
         id="path32" /><path
         d="m 1503.46,3224.45 0,-60.99"
         style="fill:none;stroke:#000000;stroke-opacity:1;stroke-width:9.1476;stroke-linecap:butt;stroke-linejoin:miter;stroke-miterlimit:10;stroke-dasharray:none"
         id="path34" /><path
         d="m 1645.55,266.113 0,60.981"
         style="fill:none;stroke:#000000;stroke-opacity:1;stroke-width:9.1476;stroke-linecap:butt;stroke-linejoin:miter;stroke-miterlimit:10;stroke-dasharray:none"
         id="path36" /><path
         d="m 1645.55,3224.45 0,-60.99"
         style="fill:none;stroke:#000000;stroke-opacity:1;stroke-width:9.1476;stroke-linecap:butt;stroke-linejoin:miter;stroke-miterlimit:10;stroke-dasharray:none"
         id="path38" /><path
         d="m 1788.25,266.113 0,60.981"
         style="fill:none;stroke:#000000;stroke-opacity:1;stroke-width:9.1476;stroke-linecap:butt;stroke-linejoin:miter;stroke-miterlimit:10;stroke-dasharray:none"
         id="path40" /><path
         d="m 1788.25,3224.45 0,-60.99"
         style="fill:none;stroke:#000000;stroke-opacity:1;stroke-width:9.1476;stroke-linecap:butt;stroke-linejoin:miter;stroke-miterlimit:10;stroke-dasharray:none"
         id="path42" /><path
         d="m 1930.34,266.113 0,60.981"
         style="fill:none;stroke:#000000;stroke-opacity:1;stroke-width:9.1476;stroke-linecap:butt;stroke-linejoin:miter;stroke-miterlimit:10;stroke-dasharray:none"
         id="path44" /><path
         d="m 1930.34,3224.45 0,-60.99"
         style="fill:none;stroke:#000000;stroke-opacity:1;stroke-width:9.1476;stroke-linecap:butt;stroke-linejoin:miter;stroke-miterlimit:10;stroke-dasharray:none"
         id="path46" /><path
         d="m 2215.14,266.113 0,60.981"
         style="fill:none;stroke:#000000;stroke-opacity:1;stroke-width:9.1476;stroke-linecap:butt;stroke-linejoin:miter;stroke-miterlimit:10;stroke-dasharray:none"
         id="path48" /><path
         d="m 2215.14,3224.45 0,-60.99"
         style="fill:none;stroke:#000000;stroke-opacity:1;stroke-width:9.1476;stroke-linecap:butt;stroke-linejoin:miter;stroke-miterlimit:10;stroke-dasharray:none"
         id="path50" /><path
         d="m 2357.23,266.113 0,60.981"
         style="fill:none;stroke:#000000;stroke-opacity:1;stroke-width:9.1476;stroke-linecap:butt;stroke-linejoin:miter;stroke-miterlimit:10;stroke-dasharray:none"
         id="path52" /><path
         d="m 2357.23,3224.45 0,-60.99"
         style="fill:none;stroke:#000000;stroke-opacity:1;stroke-width:9.1476;stroke-linecap:butt;stroke-linejoin:miter;stroke-miterlimit:10;stroke-dasharray:none"
         id="path54" /><path
         d="m 2499.32,266.113 0,60.981"
         style="fill:none;stroke:#000000;stroke-opacity:1;stroke-width:9.1476;stroke-linecap:butt;stroke-linejoin:miter;stroke-miterlimit:10;stroke-dasharray:none"
         id="path56" /><path
         d="m 2499.32,3224.45 0,-60.99"
         style="fill:none;stroke:#000000;stroke-opacity:1;stroke-width:9.1476;stroke-linecap:butt;stroke-linejoin:miter;stroke-miterlimit:10;stroke-dasharray:none"
         id="path58" /><path
         d="m 2642.03,266.113 0,60.981"
         style="fill:none;stroke:#000000;stroke-opacity:1;stroke-width:9.1476;stroke-linecap:butt;stroke-linejoin:miter;stroke-miterlimit:10;stroke-dasharray:none"
         id="path60" /><path
         d="m 2642.03,3224.45 0,-60.99"
         style="fill:none;stroke:#000000;stroke-opacity:1;stroke-width:9.1476;stroke-linecap:butt;stroke-linejoin:miter;stroke-miterlimit:10;stroke-dasharray:none"
         id="path62" /><path
         d="m 2926.21,266.113 0,60.981"
         style="fill:none;stroke:#000000;stroke-opacity:1;stroke-width:9.1476;stroke-linecap:butt;stroke-linejoin:miter;stroke-miterlimit:10;stroke-dasharray:none"
         id="path64" /><path
         d="m 2926.21,3224.45 0,-60.99"
         style="fill:none;stroke:#000000;stroke-opacity:1;stroke-width:9.1476;stroke-linecap:butt;stroke-linejoin:miter;stroke-miterlimit:10;stroke-dasharray:none"
         id="path66" /><path
         d="m 3068.91,266.113 0,60.981"
         style="fill:none;stroke:#000000;stroke-opacity:1;stroke-width:9.1476;stroke-linecap:butt;stroke-linejoin:miter;stroke-miterlimit:10;stroke-dasharray:none"
         id="path68" /><path
         d="m 3068.91,3224.45 0,-60.99"
         style="fill:none;stroke:#000000;stroke-opacity:1;stroke-width:9.1476;stroke-linecap:butt;stroke-linejoin:miter;stroke-miterlimit:10;stroke-dasharray:none"
         id="path70" /><path
         d="m 3211.01,266.113 0,60.981"
         style="fill:none;stroke:#000000;stroke-opacity:1;stroke-width:9.1476;stroke-linecap:butt;stroke-linejoin:miter;stroke-miterlimit:10;stroke-dasharray:none"
         id="path72" /><path
         d="m 3211.01,3224.45 0,-60.99"
         style="fill:none;stroke:#000000;stroke-opacity:1;stroke-width:9.1476;stroke-linecap:butt;stroke-linejoin:miter;stroke-miterlimit:10;stroke-dasharray:none"
         id="path74" /><path
         d="m 3353.1,266.113 0,60.981"
         style="fill:none;stroke:#000000;stroke-opacity:1;stroke-width:9.1476;stroke-linecap:butt;stroke-linejoin:miter;stroke-miterlimit:10;stroke-dasharray:none"
         id="path76" /><path
         d="m 3353.1,3224.45 0,-60.99"
         style="fill:none;stroke:#000000;stroke-opacity:1;stroke-width:9.1476;stroke-linecap:butt;stroke-linejoin:miter;stroke-miterlimit:10;stroke-dasharray:none"
         id="path78" /><path
         d="m 3637.9,266.113 0,60.981"
         style="fill:none;stroke:#000000;stroke-opacity:1;stroke-width:9.1476;stroke-linecap:butt;stroke-linejoin:miter;stroke-miterlimit:10;stroke-dasharray:none"
         id="path80" /><path
         d="m 3637.9,3224.45 0,-60.99"
         style="fill:none;stroke:#000000;stroke-opacity:1;stroke-width:9.1476;stroke-linecap:butt;stroke-linejoin:miter;stroke-miterlimit:10;stroke-dasharray:none"
         id="path82" /><path
         d="m 3779.99,266.113 0,60.981"
         style="fill:none;stroke:#000000;stroke-opacity:1;stroke-width:9.1476;stroke-linecap:butt;stroke-linejoin:miter;stroke-miterlimit:10;stroke-dasharray:none"
         id="path84" /><path
         d="m 3779.99,3224.45 0,-60.99"
         style="fill:none;stroke:#000000;stroke-opacity:1;stroke-width:9.1476;stroke-linecap:butt;stroke-linejoin:miter;stroke-miterlimit:10;stroke-dasharray:none"
         id="path86" /><path
         d="m 3922.69,266.113 0,60.981"
         style="fill:none;stroke:#000000;stroke-opacity:1;stroke-width:9.1476;stroke-linecap:butt;stroke-linejoin:miter;stroke-miterlimit:10;stroke-dasharray:none"
         id="path88" /><path
         d="m 3922.69,3224.45 0,-60.99"
         style="fill:none;stroke:#000000;stroke-opacity:1;stroke-width:9.1476;stroke-linecap:butt;stroke-linejoin:miter;stroke-miterlimit:10;stroke-dasharray:none"
         id="path90" /><path
         d="m 4064.79,266.113 0,60.981"
         style="fill:none;stroke:#000000;stroke-opacity:1;stroke-width:9.1476;stroke-linecap:butt;stroke-linejoin:miter;stroke-miterlimit:10;stroke-dasharray:none"
         id="path92" /><path
         d="m 4064.79,3224.45 0,-60.99"
         style="fill:none;stroke:#000000;stroke-opacity:1;stroke-width:9.1476;stroke-linecap:butt;stroke-linejoin:miter;stroke-miterlimit:10;stroke-dasharray:none"
         id="path94" /><path
         d="m 4349.58,266.113 0,60.981"
         style="fill:none;stroke:#000000;stroke-opacity:1;stroke-width:9.1476;stroke-linecap:butt;stroke-linejoin:miter;stroke-miterlimit:10;stroke-dasharray:none"
         id="path96" /><path
         d="m 4349.58,3224.45 0,-60.99"
         style="fill:none;stroke:#000000;stroke-opacity:1;stroke-width:9.1476;stroke-linecap:butt;stroke-linejoin:miter;stroke-miterlimit:10;stroke-dasharray:none"
         id="path98" /><path
         d="m 4491.67,266.113 0,60.981"
         style="fill:none;stroke:#000000;stroke-opacity:1;stroke-width:9.1476;stroke-linecap:butt;stroke-linejoin:miter;stroke-miterlimit:10;stroke-dasharray:none"
         id="path100" /><path
         d="m 4491.67,3224.45 0,-60.99"
         style="fill:none;stroke:#000000;stroke-opacity:1;stroke-width:9.1476;stroke-linecap:butt;stroke-linejoin:miter;stroke-miterlimit:10;stroke-dasharray:none"
         id="path102" /><path
         d="m 4633.77,266.113 0,60.981"
         style="fill:none;stroke:#000000;stroke-opacity:1;stroke-width:9.1476;stroke-linecap:butt;stroke-linejoin:miter;stroke-miterlimit:10;stroke-dasharray:none"
         id="path104" /><path
         d="m 4633.77,3224.45 0,-60.99"
         style="fill:none;stroke:#000000;stroke-opacity:1;stroke-width:9.1476;stroke-linecap:butt;stroke-linejoin:miter;stroke-miterlimit:10;stroke-dasharray:none"
         id="path106" /><path
         d="m 4776.47,266.113 0,60.981"
         style="fill:none;stroke:#000000;stroke-opacity:1;stroke-width:9.1476;stroke-linecap:butt;stroke-linejoin:miter;stroke-miterlimit:10;stroke-dasharray:none"
         id="path108" /><path
         d="m 4776.47,3224.45 0,-60.99"
         style="fill:none;stroke:#000000;stroke-opacity:1;stroke-width:9.1476;stroke-linecap:butt;stroke-linejoin:miter;stroke-miterlimit:10;stroke-dasharray:none"
         id="path110" /><path
         d="m 649.68,266.113 0,121.965"
         style="fill:none;stroke:#000000;stroke-opacity:1;stroke-width:9.1476;stroke-linecap:butt;stroke-linejoin:miter;stroke-miterlimit:10;stroke-dasharray:none"
         id="path112" /><path
         d="m 649.68,3224.45 0,-121.97"
         style="fill:none;stroke:#000000;stroke-opacity:1;stroke-width:9.1476;stroke-linecap:butt;stroke-linejoin:miter;stroke-miterlimit:10;stroke-dasharray:none"
         id="path114" /><path
         d="m 1361.36,266.113 0,121.965"
         style="fill:none;stroke:#000000;stroke-opacity:1;stroke-width:9.1476;stroke-linecap:butt;stroke-linejoin:miter;stroke-miterlimit:10;stroke-dasharray:none"
         id="path116" /><path
         d="m 1361.36,3224.45 0,-121.97"
         style="fill:none;stroke:#000000;stroke-opacity:1;stroke-width:9.1476;stroke-linecap:butt;stroke-linejoin:miter;stroke-miterlimit:10;stroke-dasharray:none"
         id="path118" /><path
         d="m 2072.44,266.113 0,121.965"
         style="fill:none;stroke:#000000;stroke-opacity:1;stroke-width:9.1476;stroke-linecap:butt;stroke-linejoin:miter;stroke-miterlimit:10;stroke-dasharray:none"
         id="path120" /><path
         d="m 2072.44,3224.45 0,-121.97"
         style="fill:none;stroke:#000000;stroke-opacity:1;stroke-width:9.1476;stroke-linecap:butt;stroke-linejoin:miter;stroke-miterlimit:10;stroke-dasharray:none"
         id="path122" /><path
         d="m 2784.12,266.113 0,121.965"
         style="fill:none;stroke:#000000;stroke-opacity:1;stroke-width:9.1476;stroke-linecap:butt;stroke-linejoin:miter;stroke-miterlimit:10;stroke-dasharray:none"
         id="path124" /><path
         d="m 2784.12,3224.45 0,-121.97"
         style="fill:none;stroke:#000000;stroke-opacity:1;stroke-width:9.1476;stroke-linecap:butt;stroke-linejoin:miter;stroke-miterlimit:10;stroke-dasharray:none"
         id="path126" /><path
         d="m 3495.8,266.113 0,121.965"
         style="fill:none;stroke:#000000;stroke-opacity:1;stroke-width:9.1476;stroke-linecap:butt;stroke-linejoin:miter;stroke-miterlimit:10;stroke-dasharray:none"
         id="path128" /><path
         d="m 3495.8,3224.45 0,-121.97"
         style="fill:none;stroke:#000000;stroke-opacity:1;stroke-width:9.1476;stroke-linecap:butt;stroke-linejoin:miter;stroke-miterlimit:10;stroke-dasharray:none"
         id="path130" /><path
         d="m 4206.88,266.113 0,121.965"
         style="fill:none;stroke:#000000;stroke-opacity:1;stroke-width:9.1476;stroke-linecap:butt;stroke-linejoin:miter;stroke-miterlimit:10;stroke-dasharray:none"
         id="path132" /><path
         d="m 4206.88,3224.45 0,-121.97"
         style="fill:none;stroke:#000000;stroke-opacity:1;stroke-width:9.1476;stroke-linecap:butt;stroke-linejoin:miter;stroke-miterlimit:10;stroke-dasharray:none"
         id="path134" /><path
         d="m 4918.56,266.113 0,121.965"
         style="fill:none;stroke:#000000;stroke-opacity:1;stroke-width:9.1476;stroke-linecap:butt;stroke-linejoin:miter;stroke-miterlimit:10;stroke-dasharray:none"
         id="path136" /><path
         d="m 4918.56,3224.45 0,-121.97"
         style="fill:none;stroke:#000000;stroke-opacity:1;stroke-width:9.1476;stroke-linecap:butt;stroke-linejoin:miter;stroke-miterlimit:10;stroke-dasharray:none"
         id="path138" /><g
         id="g140"
         transform="scale(10,10)"><text
           transform="matrix(1,0,0,-1,58.5039,2.52227)"
           id="text142"><tspan
             style="fill:#000000;fill-opacity:1;fill-rule:nonzero;stroke:none;font-family:Helvetica;font-variant:normal;font-weight:normal;font-size:25.6133;writing-mode:lr;-inkscape-font-specification:Helvetica"
             x="0 64.03325 78.2742448"
             y="0"
             sodipodi:role="line"
             id="tspan144">050</tspan><tspan
             style="fill:#000000;fill-opacity:1;fill-rule:nonzero;stroke:none;font-family:Helvetica;font-variant:normal;font-weight:normal;font-size:25.6133;writing-mode:lr;-inkscape-font-specification:Helvetica"
             x="128.005 142.2459948 156.4869896 199.17334698 213.41434178 227.65533658"
             y="0.24375"
             sodipodi:role="line"
             id="tspan146">100150</tspan><tspan
             style="fill:#000000;fill-opacity:1;fill-rule:nonzero;stroke:none;font-family:Helvetica;font-variant:normal;font-weight:normal;font-size:25.6133;writing-mode:lr;-inkscape-font-specification:Helvetica"
             x="270.281 284.5219948 298.7629896 341.44934698 355.69034178 369.93133658 412.61769396 426.85868876 441.09968356"
             y="0"
             sodipodi:role="line"
             id="tspan148">200250300</tspan></text>
</g><path
         d="m 649.68,364.906 60.984,0"
         style="fill:none;stroke:#000000;stroke-opacity:1;stroke-width:9.1476;stroke-linecap:butt;stroke-linejoin:miter;stroke-miterlimit:10;stroke-dasharray:none"
         id="path150" /><path
         d="m 4918.56,364.906 -60.98,0"
         style="fill:none;stroke:#000000;stroke-opacity:1;stroke-width:9.1476;stroke-linecap:butt;stroke-linejoin:miter;stroke-miterlimit:10;stroke-dasharray:none"
         id="path152" /><path
         d="m 649.68,463.09 60.984,0"
         style="fill:none;stroke:#000000;stroke-opacity:1;stroke-width:9.1476;stroke-linecap:butt;stroke-linejoin:miter;stroke-miterlimit:10;stroke-dasharray:none"
         id="path154" /><path
         d="m 4918.56,463.09 -60.98,0"
         style="fill:none;stroke:#000000;stroke-opacity:1;stroke-width:9.1476;stroke-linecap:butt;stroke-linejoin:miter;stroke-miterlimit:10;stroke-dasharray:none"
         id="path156" /><path
         d="m 649.68,561.883 60.984,0"
         style="fill:none;stroke:#000000;stroke-opacity:1;stroke-width:9.1476;stroke-linecap:butt;stroke-linejoin:miter;stroke-miterlimit:10;stroke-dasharray:none"
         id="path158" /><path
         d="m 4918.56,561.883 -60.98,0"
         style="fill:none;stroke:#000000;stroke-opacity:1;stroke-width:9.1476;stroke-linecap:butt;stroke-linejoin:miter;stroke-miterlimit:10;stroke-dasharray:none"
         id="path160" /><path
         d="m 649.68,660.68 60.984,0"
         style="fill:none;stroke:#000000;stroke-opacity:1;stroke-width:9.1476;stroke-linecap:butt;stroke-linejoin:miter;stroke-miterlimit:10;stroke-dasharray:none"
         id="path162" /><path
         d="m 4918.56,660.68 -60.98,0"
         style="fill:none;stroke:#000000;stroke-opacity:1;stroke-width:9.1476;stroke-linecap:butt;stroke-linejoin:miter;stroke-miterlimit:10;stroke-dasharray:none"
         id="path164" /><path
         d="m 649.68,857.656 60.984,0"
         style="fill:none;stroke:#000000;stroke-opacity:1;stroke-width:9.1476;stroke-linecap:butt;stroke-linejoin:miter;stroke-miterlimit:10;stroke-dasharray:none"
         id="path166" /><path
         d="m 4918.56,857.656 -60.98,0"
         style="fill:none;stroke:#000000;stroke-opacity:1;stroke-width:9.1476;stroke-linecap:butt;stroke-linejoin:miter;stroke-miterlimit:10;stroke-dasharray:none"
         id="path168" /><path
         d="m 649.68,956.449 60.984,0"
         style="fill:none;stroke:#000000;stroke-opacity:1;stroke-width:9.1476;stroke-linecap:butt;stroke-linejoin:miter;stroke-miterlimit:10;stroke-dasharray:none"
         id="path170" /><path
         d="m 4918.56,956.449 -60.98,0"
         style="fill:none;stroke:#000000;stroke-opacity:1;stroke-width:9.1476;stroke-linecap:butt;stroke-linejoin:miter;stroke-miterlimit:10;stroke-dasharray:none"
         id="path172" /><path
         d="m 649.68,1055.25 60.984,0"
         style="fill:none;stroke:#000000;stroke-opacity:1;stroke-width:9.1476;stroke-linecap:butt;stroke-linejoin:miter;stroke-miterlimit:10;stroke-dasharray:none"
         id="path174" /><path
         d="m 4918.56,1055.25 -60.98,0"
         style="fill:none;stroke:#000000;stroke-opacity:1;stroke-width:9.1476;stroke-linecap:butt;stroke-linejoin:miter;stroke-miterlimit:10;stroke-dasharray:none"
         id="path176" /><path
         d="m 649.68,1153.43 60.984,0"
         style="fill:none;stroke:#000000;stroke-opacity:1;stroke-width:9.1476;stroke-linecap:butt;stroke-linejoin:miter;stroke-miterlimit:10;stroke-dasharray:none"
         id="path178" /><path
         d="m 4918.56,1153.43 -60.98,0"
         style="fill:none;stroke:#000000;stroke-opacity:1;stroke-width:9.1476;stroke-linecap:butt;stroke-linejoin:miter;stroke-miterlimit:10;stroke-dasharray:none"
         id="path180" /><path
         d="m 649.68,1351.02 60.984,0"
         style="fill:none;stroke:#000000;stroke-opacity:1;stroke-width:9.1476;stroke-linecap:butt;stroke-linejoin:miter;stroke-miterlimit:10;stroke-dasharray:none"
         id="path182" /><path
         d="m 4918.56,1351.02 -60.98,0"
         style="fill:none;stroke:#000000;stroke-opacity:1;stroke-width:9.1476;stroke-linecap:butt;stroke-linejoin:miter;stroke-miterlimit:10;stroke-dasharray:none"
         id="path184" /><path
         d="m 649.68,1449.2 60.984,0"
         style="fill:none;stroke:#000000;stroke-opacity:1;stroke-width:9.1476;stroke-linecap:butt;stroke-linejoin:miter;stroke-miterlimit:10;stroke-dasharray:none"
         id="path186" /><path
         d="m 4918.56,1449.2 -60.98,0"
         style="fill:none;stroke:#000000;stroke-opacity:1;stroke-width:9.1476;stroke-linecap:butt;stroke-linejoin:miter;stroke-miterlimit:10;stroke-dasharray:none"
         id="path188" /><path
         d="m 649.68,1548 60.984,0"
         style="fill:none;stroke:#000000;stroke-opacity:1;stroke-width:9.1476;stroke-linecap:butt;stroke-linejoin:miter;stroke-miterlimit:10;stroke-dasharray:none"
         id="path190" /><path
         d="m 4918.56,1548 -60.98,0"
         style="fill:none;stroke:#000000;stroke-opacity:1;stroke-width:9.1476;stroke-linecap:butt;stroke-linejoin:miter;stroke-miterlimit:10;stroke-dasharray:none"
         id="path192" /><path
         d="m 649.68,1646.79 60.984,0"
         style="fill:none;stroke:#000000;stroke-opacity:1;stroke-width:9.1476;stroke-linecap:butt;stroke-linejoin:miter;stroke-miterlimit:10;stroke-dasharray:none"
         id="path194" /><path
         d="m 4918.56,1646.79 -60.98,0"
         style="fill:none;stroke:#000000;stroke-opacity:1;stroke-width:9.1476;stroke-linecap:butt;stroke-linejoin:miter;stroke-miterlimit:10;stroke-dasharray:none"
         id="path196" /><path
         d="m 649.68,1843.77 60.984,0"
         style="fill:none;stroke:#000000;stroke-opacity:1;stroke-width:9.1476;stroke-linecap:butt;stroke-linejoin:miter;stroke-miterlimit:10;stroke-dasharray:none"
         id="path198" /><path
         d="m 4918.56,1843.77 -60.98,0"
         style="fill:none;stroke:#000000;stroke-opacity:1;stroke-width:9.1476;stroke-linecap:butt;stroke-linejoin:miter;stroke-miterlimit:10;stroke-dasharray:none"
         id="path200" /><path
         d="m 649.68,1942.56 60.984,0"
         style="fill:none;stroke:#000000;stroke-opacity:1;stroke-width:9.1476;stroke-linecap:butt;stroke-linejoin:miter;stroke-miterlimit:10;stroke-dasharray:none"
         id="path202" /><path
         d="m 4918.56,1942.56 -60.98,0"
         style="fill:none;stroke:#000000;stroke-opacity:1;stroke-width:9.1476;stroke-linecap:butt;stroke-linejoin:miter;stroke-miterlimit:10;stroke-dasharray:none"
         id="path204" /><path
         d="m 649.68,2040.75 60.984,0"
         style="fill:none;stroke:#000000;stroke-opacity:1;stroke-width:9.1476;stroke-linecap:butt;stroke-linejoin:miter;stroke-miterlimit:10;stroke-dasharray:none"
         id="path206" /><path
         d="m 4918.56,2040.75 -60.98,0"
         style="fill:none;stroke:#000000;stroke-opacity:1;stroke-width:9.1476;stroke-linecap:butt;stroke-linejoin:miter;stroke-miterlimit:10;stroke-dasharray:none"
         id="path208" /><path
         d="m 649.68,2139.54 60.984,0"
         style="fill:none;stroke:#000000;stroke-opacity:1;stroke-width:9.1476;stroke-linecap:butt;stroke-linejoin:miter;stroke-miterlimit:10;stroke-dasharray:none"
         id="path210" /><path
         d="m 4918.56,2139.54 -60.98,0"
         style="fill:none;stroke:#000000;stroke-opacity:1;stroke-width:9.1476;stroke-linecap:butt;stroke-linejoin:miter;stroke-miterlimit:10;stroke-dasharray:none"
         id="path212" /><path
         d="m 649.68,2337.13 60.984,0"
         style="fill:none;stroke:#000000;stroke-opacity:1;stroke-width:9.1476;stroke-linecap:butt;stroke-linejoin:miter;stroke-miterlimit:10;stroke-dasharray:none"
         id="path214" /><path
         d="m 4918.56,2337.13 -60.98,0"
         style="fill:none;stroke:#000000;stroke-opacity:1;stroke-width:9.1476;stroke-linecap:butt;stroke-linejoin:miter;stroke-miterlimit:10;stroke-dasharray:none"
         id="path216" /><path
         d="m 649.68,2435.31 60.984,0"
         style="fill:none;stroke:#000000;stroke-opacity:1;stroke-width:9.1476;stroke-linecap:butt;stroke-linejoin:miter;stroke-miterlimit:10;stroke-dasharray:none"
         id="path218" /><path
         d="m 4918.56,2435.31 -60.98,0"
         style="fill:none;stroke:#000000;stroke-opacity:1;stroke-width:9.1476;stroke-linecap:butt;stroke-linejoin:miter;stroke-miterlimit:10;stroke-dasharray:none"
         id="path220" /><path
         d="m 649.68,2534.11 60.984,0"
         style="fill:none;stroke:#000000;stroke-opacity:1;stroke-width:9.1476;stroke-linecap:butt;stroke-linejoin:miter;stroke-miterlimit:10;stroke-dasharray:none"
         id="path222" /><path
         d="m 4918.56,2534.11 -60.98,0"
         style="fill:none;stroke:#000000;stroke-opacity:1;stroke-width:9.1476;stroke-linecap:butt;stroke-linejoin:miter;stroke-miterlimit:10;stroke-dasharray:none"
         id="path224" /><path
         d="m 649.68,2632.9 60.984,0"
         style="fill:none;stroke:#000000;stroke-opacity:1;stroke-width:9.1476;stroke-linecap:butt;stroke-linejoin:miter;stroke-miterlimit:10;stroke-dasharray:none"
         id="path226" /><path
         d="m 4918.56,2632.9 -60.98,0"
         style="fill:none;stroke:#000000;stroke-opacity:1;stroke-width:9.1476;stroke-linecap:butt;stroke-linejoin:miter;stroke-miterlimit:10;stroke-dasharray:none"
         id="path228" /><path
         d="m 649.68,2829.88 60.984,0"
         style="fill:none;stroke:#000000;stroke-opacity:1;stroke-width:9.1476;stroke-linecap:butt;stroke-linejoin:miter;stroke-miterlimit:10;stroke-dasharray:none"
         id="path230" /><path
         d="m 4918.56,2829.88 -60.98,0"
         style="fill:none;stroke:#000000;stroke-opacity:1;stroke-width:9.1476;stroke-linecap:butt;stroke-linejoin:miter;stroke-miterlimit:10;stroke-dasharray:none"
         id="path232" /><path
         d="m 649.68,2928.67 60.984,0"
         style="fill:none;stroke:#000000;stroke-opacity:1;stroke-width:9.1476;stroke-linecap:butt;stroke-linejoin:miter;stroke-miterlimit:10;stroke-dasharray:none"
         id="path234" /><path
         d="m 4918.56,2928.67 -60.98,0"
         style="fill:none;stroke:#000000;stroke-opacity:1;stroke-width:9.1476;stroke-linecap:butt;stroke-linejoin:miter;stroke-miterlimit:10;stroke-dasharray:none"
         id="path236" /><path
         d="m 649.68,3026.86 60.984,0"
         style="fill:none;stroke:#000000;stroke-opacity:1;stroke-width:9.1476;stroke-linecap:butt;stroke-linejoin:miter;stroke-miterlimit:10;stroke-dasharray:none"
         id="path238" /><path
         d="m 4918.56,3026.86 -60.98,0"
         style="fill:none;stroke:#000000;stroke-opacity:1;stroke-width:9.1476;stroke-linecap:butt;stroke-linejoin:miter;stroke-miterlimit:10;stroke-dasharray:none"
         id="path240" /><path
         d="m 649.68,3125.65 60.984,0"
         style="fill:none;stroke:#000000;stroke-opacity:1;stroke-width:9.1476;stroke-linecap:butt;stroke-linejoin:miter;stroke-miterlimit:10;stroke-dasharray:none"
         id="path242" /><path
         d="m 4918.56,3125.65 -60.98,0"
         style="fill:none;stroke:#000000;stroke-opacity:1;stroke-width:9.1476;stroke-linecap:butt;stroke-linejoin:miter;stroke-miterlimit:10;stroke-dasharray:none"
         id="path244" /><path
         d="m 649.68,266.113 121.968,0"
         style="fill:none;stroke:#000000;stroke-opacity:1;stroke-width:9.1476;stroke-linecap:butt;stroke-linejoin:miter;stroke-miterlimit:10;stroke-dasharray:none"
         id="path246" /><path
         d="m 4918.56,266.113 -121.97,0"
         style="fill:none;stroke:#000000;stroke-opacity:1;stroke-width:9.1476;stroke-linecap:butt;stroke-linejoin:miter;stroke-miterlimit:10;stroke-dasharray:none"
         id="path248" /><path
         d="m 649.68,758.863 121.968,0"
         style="fill:none;stroke:#000000;stroke-opacity:1;stroke-width:9.1476;stroke-linecap:butt;stroke-linejoin:miter;stroke-miterlimit:10;stroke-dasharray:none"
         id="path250" /><path
         d="m 4918.56,758.863 -121.97,0"
         style="fill:none;stroke:#000000;stroke-opacity:1;stroke-width:9.1476;stroke-linecap:butt;stroke-linejoin:miter;stroke-miterlimit:10;stroke-dasharray:none"
         id="path252" /><path
         d="m 649.68,1252.22 121.968,0"
         style="fill:none;stroke:#000000;stroke-opacity:1;stroke-width:9.1476;stroke-linecap:butt;stroke-linejoin:miter;stroke-miterlimit:10;stroke-dasharray:none"
         id="path254" /><path
         d="m 4918.56,1252.22 -121.97,0"
         style="fill:none;stroke:#000000;stroke-opacity:1;stroke-width:9.1476;stroke-linecap:butt;stroke-linejoin:miter;stroke-miterlimit:10;stroke-dasharray:none"
         id="path256" /><path
         d="m 649.68,1744.97 121.968,0"
         style="fill:none;stroke:#000000;stroke-opacity:1;stroke-width:9.1476;stroke-linecap:butt;stroke-linejoin:miter;stroke-miterlimit:10;stroke-dasharray:none"
         id="path258" /><path
         d="m 4918.56,1744.97 -121.97,0"
         style="fill:none;stroke:#000000;stroke-opacity:1;stroke-width:9.1476;stroke-linecap:butt;stroke-linejoin:miter;stroke-miterlimit:10;stroke-dasharray:none"
         id="path260" /><path
         d="m 649.68,2238.34 121.968,0"
         style="fill:none;stroke:#000000;stroke-opacity:1;stroke-width:9.1476;stroke-linecap:butt;stroke-linejoin:miter;stroke-miterlimit:10;stroke-dasharray:none"
         id="path262" /><path
         d="m 4918.56,2238.34 -121.97,0"
         style="fill:none;stroke:#000000;stroke-opacity:1;stroke-width:9.1476;stroke-linecap:butt;stroke-linejoin:miter;stroke-miterlimit:10;stroke-dasharray:none"
         id="path264" /><path
         d="m 649.68,2731.09 121.968,0"
         style="fill:none;stroke:#000000;stroke-opacity:1;stroke-width:9.1476;stroke-linecap:butt;stroke-linejoin:miter;stroke-miterlimit:10;stroke-dasharray:none"
         id="path266" /><path
         d="m 4918.56,2731.09 -121.97,0"
         style="fill:none;stroke:#000000;stroke-opacity:1;stroke-width:9.1476;stroke-linecap:butt;stroke-linejoin:miter;stroke-miterlimit:10;stroke-dasharray:none"
         id="path268" /><path
         d="m 649.68,3224.45 121.968,0"
         style="fill:none;stroke:#000000;stroke-opacity:1;stroke-width:9.1476;stroke-linecap:butt;stroke-linejoin:miter;stroke-miterlimit:10;stroke-dasharray:none"
         id="path270" /><path
         d="m 4918.56,3224.45 -121.97,0"
         style="fill:none;stroke:#000000;stroke-opacity:1;stroke-width:9.1476;stroke-linecap:butt;stroke-linejoin:miter;stroke-miterlimit:10;stroke-dasharray:none"
         id="path272" /><g
         id="g274"
         transform="scale(10,10)"><text
           transform="matrix(1,0,0,-1,1.48359,17.8293)"
           id="text276"><tspan
             style="fill:#000000;fill-opacity:1;fill-rule:nonzero;stroke:none;font-family:Helvetica;font-variant:normal;font-weight:normal;font-size:25.6133;writing-mode:lr;-inkscape-font-specification:Helvetica"
             x="0 8.5292289 22.7702237 29.8907211 44.1317159"
             y="0"
             sodipodi:role="line"
             id="tspan278">-0.75</tspan><tspan
             style="fill:#000000;fill-opacity:1;fill-rule:nonzero;stroke:none;font-family:Helvetica;font-variant:normal;font-weight:normal;font-size:25.6133;writing-mode:lr;-inkscape-font-specification:Helvetica"
             x="0.244141 8.7733699 23.0143647 30.1348621 44.3758569"
             y="-49.3363"
             sodipodi:role="line"
             id="tspan280">-0.50</tspan><tspan
             style="fill:#000000;fill-opacity:1;fill-rule:nonzero;stroke:none;font-family:Helvetica;font-variant:normal;font-weight:normal;font-size:25.6133;writing-mode:lr;-inkscape-font-specification:Helvetica"
             x="0 8.5292289 22.7702237 29.8907211 44.1317159"
             y="-98.6113"
             sodipodi:role="line"
             id="tspan282">-0.25</tspan><tspan
             style="fill:#000000;fill-opacity:1;fill-rule:nonzero;stroke:none;font-family:Helvetica;font-variant:normal;font-weight:normal;font-size:25.6133;writing-mode:lr;-inkscape-font-specification:Helvetica"
             x="8.90391 23.1449048 30.2654022 44.506397"
             y="-147.9472"
             sodipodi:role="line"
             id="tspan284">0.00</tspan><tspan
             style="fill:#000000;fill-opacity:1;fill-rule:nonzero;stroke:none;font-family:Helvetica;font-variant:normal;font-weight:normal;font-size:25.6133;writing-mode:lr;-inkscape-font-specification:Helvetica"
             x="8.659769 22.9007638 30.0212612 44.262256"
             y="-197.2222"
             sodipodi:role="line"
             id="tspan286">0.25</tspan><tspan
             style="fill:#000000;fill-opacity:1;fill-rule:nonzero;stroke:none;font-family:Helvetica;font-variant:normal;font-weight:normal;font-size:25.6133;writing-mode:lr;-inkscape-font-specification:Helvetica"
             x="8.90391 23.1449048 30.2654022 44.506397"
             y="-246.5585"
             sodipodi:role="line"
             id="tspan288">0.50</tspan><tspan
             style="fill:#000000;fill-opacity:1;fill-rule:nonzero;stroke:none;font-family:Helvetica;font-variant:normal;font-weight:normal;font-size:25.6133;writing-mode:lr;-inkscape-font-specification:Helvetica"
             x="8.659769 22.9007638 30.0212612 44.262256"
             y="-295.8335"
             sodipodi:role="line"
             id="tspan290">0.75</tspan></text>
</g><path
         d="m 649.68,266.113 4268.88,0 0,2958.33 -4268.88,0 0,-2958.33 z"
         style="fill:none;stroke:#000000;stroke-opacity:1;stroke-width:9.1476;stroke-linecap:butt;stroke-linejoin:miter;stroke-miterlimit:10;stroke-dasharray:none"
         id="path292" /><g
         id="g294"
         transform="scale(10,10)"><text
           transform="matrix(1,0,0,-1,98.5094,340.13)"
           id="text296"><tspan
             style="fill:#000000;fill-opacity:1;fill-rule:nonzero;stroke:none;font-family:Helvetica;font-variant:normal;font-weight:bold;font-size:25.6133;writing-mode:lr;-inkscape-font-specification:Helvetica-Bold"
             x="0 18.4928026 27.0220315 35.5512604 49.7922552 59.7558289 68.2850578 75.4055552 99.5845104 113.8255052 128.0665 142.3074948 156.5484896 163.668987 179.3187133 194.9684396 202.088937 209.2094344 223.4504292 230.5709266 249.0637292 263.304724 277.5457188 293.1954451 307.4364399 321.6774347 331.6410084 345.8820032"
             y="0"
             sodipodi:role="line"
             id="tspan298">After: Waves Fully Recovered</tspan></text>
</g></g></g></svg>