<?xml version="1.0" encoding="UTF-8" standalone="no"?>
<!-- Created with Inkscape (http://www.inkscape.org/) -->

<svg
   xmlns:dc="http://purl.org/dc/elements/1.1/"
   xmlns:cc="http://creativecommons.org/ns#"
   xmlns:rdf="http://www.w3.org/1999/02/22-rdf-syntax-ns#"
   xmlns:svg="http://www.w3.org/2000/svg"
   xmlns="http://www.w3.org/2000/svg"
   xmlns:sodipodi="http://sodipodi.sourceforge.net/DTD/sodipodi-0.dtd"
   xmlns:inkscape="http://www.inkscape.org/namespaces/inkscape"
   width="766.52002"
   height="481.25"
   id="svg2"
   version="1.1"
   inkscape:version="0.48.0 r9654"
   sodipodi:docname="New document 1">
  <defs
     id="defs4" />
  <sodipodi:namedview
     id="base"
     pagecolor="#ffffff"
     bordercolor="#666666"
     borderopacity="1.0"
     inkscape:pageopacity="0.0"
     inkscape:pageshadow="2"
     inkscape:zoom="0.49497475"
     inkscape:cx="474.98361"
     inkscape:cy="461.21246"
     inkscape:document-units="px"
     inkscape:current-layer="layer1"
     showgrid="false"
     inkscape:window-width="1024"
     inkscape:window-height="718"
     inkscape:window-x="-8"
     inkscape:window-y="-8"
     inkscape:window-maximized="1">
    <inkscape:grid
       type="xygrid"
       id="grid2985"
       empspacing="5"
       visible="true"
       enabled="true"
       snapvisiblegridlinesonly="true" />
  </sodipodi:namedview>
  <metadata
     id="metadata7">
    <rdf:RDF>
      <cc:Work
         rdf:about="">
        <dc:format>image/svg+xml</dc:format>
        <dc:type
           rdf:resource="http://purl.org/dc/dcmitype/StillImage" />
        <dc:title></dc:title>
      </cc:Work>
    </rdf:RDF>
  </metadata>
  <g
     inkscape:label="Layer 1"
     inkscape:groupmode="layer"
     id="layer1"
     transform="translate(0,-571.11217)">
    <g
       id="g3818"
       transform="translate(0.37952712,459.24999)">
      <path
         sodipodi:nodetypes="cscccccccccsc"
         inkscape:connector-curvature="0"
         id="path2987"
         d="M 99.46875,312.375 C 88.661629,313.4702 80,348.88258 80,392.375 c 0,8.30731 0.318761,16.31039 0.90625,23.84375 L 0,552.36218 l 80,0 0,-60 20,0.0128 0,-20 340,0 0,-160 -339.46875,0 c -0.17154,-0.0174 -0.35866,0 -0.53125,0 -0.172589,0 -0.359708,-0.0174 -0.53125,0 z"
         style="fill:#ff7f2a;stroke:#000000;stroke-width:0.79056942px;stroke-linecap:butt;stroke-linejoin:miter;stroke-opacity:1" />
      <rect
         y="112.36218"
         x="440"
         height="360"
         width="280"
         id="rect3759"
         style="fill:#2a2aff;stroke:#000000;stroke-width:1;stroke-miterlimit:4;stroke-opacity:1;stroke-dasharray:none;stroke-dashoffset:0" />
      <rect
         y="132.36218"
         x="460"
         height="120"
         width="80"
         id="rect3761"
         style="fill:#00ffff;stroke:#000000;stroke-width:1;stroke-miterlimit:4;stroke-opacity:1;stroke-dasharray:none;stroke-dashoffset:0" />
      <path
         id="rect3765"
         d="m 140,214.375 c -21.40103,0 -38.86617,7.96098 -39.9375,18 l -0.0625,0 0,1 0,19 20,0 0,60 40,0 0,-60 20,0 0,-19 0,-1 -0.0625,0 c -1.07133,-10.03902 -18.53647,-18 -39.9375,-18 z"
         style="fill:#00ff00;stroke:#000000;stroke-width:1;stroke-miterlimit:4;stroke-opacity:1;stroke-dashoffset:0"
         inkscape:connector-curvature="0" />
      <path
         d="m 220,532.36218 c 0,33.13709 -26.86292,60 -60,60 -33.13708,0 -60,-26.86291 -60,-60 0,-33.13708 26.86292,-60 60,-60 33.13708,0 60,26.86292 60,60 z"
         sodipodi:ry="60"
         sodipodi:rx="60"
         sodipodi:cy="532.36218"
         sodipodi:cx="160"
         id="path3774"
         style="fill:#ff0000;stroke:#000000;stroke-width:1;stroke-miterlimit:4;stroke-opacity:1;stroke-dasharray:none;stroke-dashoffset:0"
         sodipodi:type="arc" />
      <path
         inkscape:connector-curvature="0"
         id="path3776"
         d="m 670,502.36218 c 0,49.70563 -40.29438,90 -90,90 -49.70562,0 -90,-40.29437 -90,-90 0,-49.70562 40.29438,-90 90,-90 49.70562,0 90,40.29438 90,90 z"
         style="fill:#ff0000;stroke:#000000;stroke-width:1.5;stroke-miterlimit:4;stroke-opacity:1;stroke-dashoffset:0" />
      <path
         transform="translate(200,0)"
         d="m 220,532.36218 c 0,33.13709 -26.86292,60 -60,60 -33.13708,0 -60,-26.86291 -60,-60 0,-33.13708 26.86292,-60 60,-60 33.13708,0 60,26.86292 60,60 z"
         sodipodi:ry="60"
         sodipodi:rx="60"
         sodipodi:cy="532.36218"
         sodipodi:cx="160"
         id="path3778"
         style="fill:#ff0000;stroke:#000000;stroke-width:1;stroke-miterlimit:4;stroke-opacity:1;stroke-dasharray:none;stroke-dashoffset:0"
         sodipodi:type="arc" />
      <path
         inkscape:connector-curvature="0"
         id="path3780"
         d="m 630,502.36218 c 0,27.61424 -22.38577,50 -50,50 -27.61424,0 -50,-22.38576 -50,-50 0,-27.61423 22.38576,-50 50,-50 27.61423,0 50,22.38577 50,50 z"
         style="fill:#000080;stroke:#000000;stroke-width:0.83333325;stroke-miterlimit:4;stroke-opacity:1;stroke-dashoffset:0" />
      <rect
         y="532.36218"
         x="140"
         height="20"
         width="480"
         id="rect3784"
         style="fill:#ffff00;fill-opacity:1;stroke:#000000;stroke-width:1;stroke-miterlimit:4;stroke-opacity:1;stroke-dasharray:none;stroke-dashoffset:0" />
      <rect
         y="132.36218"
         x="563.26532"
         height="120"
         width="133.87755"
         id="rect3763"
         style="fill:#00ffff;stroke:#000000;stroke-width:0.97788966;stroke-miterlimit:4;stroke-opacity:1;stroke-dasharray:none;stroke-dashoffset:0" />
      <path
         style="fill:#e6e6e6;fill-opacity:1;stroke:#000000;stroke-width:0.51860428px;stroke-linecap:butt;stroke-linejoin:miter;stroke-opacity:1"
         d="m 680.40817,252.36218 c -12.55102,-42.85715 0,-51.42857 0,-51.42857 0,0 0,-8.57143 -12.55102,-17.14286 -31.99895,-21.85294 -37.65307,-51.42857 -37.65307,-51.42857 0,0 -5.65411,29.57563 -37.65306,51.42857 C 580,192.36218 580,200.93361 580,200.93361 c 0,0 12.55102,8.57142 0,51.42857 l -16.73469,0 0,-120 133.87755,0 0,120 z"
         id="path3802"
         inkscape:connector-curvature="0"
         sodipodi:nodetypes="ccscscc" />
      <path
         id="rect3810"
         d="m 758,412.375 0,11.40625 -38,0 0,38.59375 38,0 0,10 7.65625,0 0,-60 -7.65625,0 z"
         style="fill:#000000;stroke:#000000;stroke-width:1;stroke-miterlimit:4;stroke-opacity:1;stroke-dashoffset:0"
         inkscape:connector-curvature="0" />
    </g>
  </g>
</svg>
