<?xml version="1.0" encoding="UTF-8" standalone="no"?>
<!-- Created with Inkscape (http://www.inkscape.org/) -->

<svg
   xmlns:dc="http://purl.org/dc/elements/1.1/"
   xmlns:cc="http://creativecommons.org/ns#"
   xmlns:rdf="http://www.w3.org/1999/02/22-rdf-syntax-ns#"
   xmlns:svg="http://www.w3.org/2000/svg"
   xmlns="http://www.w3.org/2000/svg"
   xmlns:sodipodi="http://sodipodi.sourceforge.net/DTD/sodipodi-0.dtd"
   xmlns:inkscape="http://www.inkscape.org/namespaces/inkscape"
   width="744.09448819"
   height="1052.3622047"
   id="svg3071"
   version="1.1"
   inkscape:version="0.48.1 r9760"
   sodipodi:docname="New document 3">
  <defs
     id="defs3073" />
  <sodipodi:namedview
     id="base"
     pagecolor="#ffffff"
     bordercolor="#666666"
     borderopacity="1.0"
     inkscape:pageopacity="0.0"
     inkscape:pageshadow="2"
     inkscape:zoom="1.979899"
     inkscape:cx="188.97358"
     inkscape:cy="614.07049"
     inkscape:document-units="px"
     inkscape:current-layer="layer1"
     showgrid="false" />
  <metadata
     id="metadata3076">
    <rdf:RDF>
      <cc:Work
         rdf:about="">
        <dc:format>image/svg+xml</dc:format>
        <dc:type
           rdf:resource="http://purl.org/dc/dcmitype/StillImage" />
        <dc:title></dc:title>
      </cc:Work>
    </rdf:RDF>
  </metadata>
  <g
     inkscape:label="Layer 1"
     inkscape:groupmode="layer"
     id="layer1">
    <path
       style="fill:#000000;stroke:#000000;stroke-width:0.16625433px;stroke-linecap:butt;stroke-linejoin:miter;stroke-opacity:1"
       d="m 46.912198,415.58972 c -2.337669,0.22392 -4.211251,7.46407 -4.211251,16.35621 0,1.69846 0.06895,3.33471 0.19603,4.87492 l -17.500691,27.83489 17.304661,0 0,-12.26716 4.326165,0.003 0,-4.08905 73.544808,0 0,-32.71244 -73.429894,0 c -0.03711,-0.004 -0.07758,0 -0.114914,0 -0.03733,0 -0.07781,-0.004 -0.114914,0 z"
       id="path2987"
       inkscape:connector-curvature="0"
       sodipodi:nodetypes="cscccccccccsc" />
    <rect
       style="fill:#000000;stroke:#000000;stroke-width:0.21029694;stroke-miterlimit:4;stroke-opacity:1;stroke-dasharray:none;stroke-dashoffset:0"
       id="rect3759"
       width="60.566315"
       height="73.602966"
       x="120.57191"
       y="374.69656" />
    <rect
       style="fill:#ffffff;stroke:#000000;stroke-width:0.21029694;stroke-miterlimit:4;stroke-opacity:1;stroke-dasharray:none;stroke-dashoffset:0"
       id="rect3761"
       width="17.304663"
       height="24.534323"
       x="124.89809"
       y="378.78561" />
    <path
       inkscape:connector-curvature="0"
       style="fill:#000000;stroke:#000000;stroke-width:0.21029694;stroke-miterlimit:4;stroke-opacity:1;stroke-dashoffset:0"
       d="m 55.679443,395.55336 c -4.629219,0 -8.407074,1.62764 -8.638811,3.68014 l -0.01352,0 0,0.20446 0,3.8846 4.326165,0 0,12.26716 8.65233,0 0,-12.26716 4.326166,0 0,-3.8846 0,-0.20446 -0.01352,0 c -0.231738,-2.0525 -4.009592,-3.68014 -8.638811,-3.68014 z"
       id="rect3765" />
    <path
       sodipodi:type="arc"
       style="fill:#000000;stroke:#000000;stroke-width:1;stroke-miterlimit:4;stroke-opacity:1;stroke-dasharray:none;stroke-dashoffset:0"
       id="path3774"
       sodipodi:cx="160"
       sodipodi:cy="532.36218"
       sodipodi:rx="60"
       sodipodi:ry="60"
       d="m 220,532.36218 a 60,60 0 1 1 -120,0 60,60 0 1 1 120,0 z"
       transform="matrix(0.21630827,0,0,0.20445269,25.396286,351.72381)" />
    <path
       style="fill:#000000;stroke:#000000;stroke-width:0.31544542;stroke-miterlimit:4;stroke-opacity:1;stroke-dashoffset:0"
       d="m 170.32282,454.43311 c 0,10.16245 -8.716,18.40074 -19.46774,18.40074 -10.75174,0 -19.46775,-8.23829 -19.46775,-18.40074 0,-10.16245 8.71601,-18.40074 19.46775,-18.40074 10.75174,0 19.46774,8.23829 19.46774,18.40074 z"
       id="path3776"
       inkscape:connector-curvature="0" />
    <path
       sodipodi:type="arc"
       style="fill:#000000;stroke:#000000;stroke-width:1;stroke-miterlimit:4;stroke-opacity:1;stroke-dasharray:none;stroke-dashoffset:0"
       id="path3778"
       sodipodi:cx="160"
       sodipodi:cy="532.36218"
       sodipodi:rx="60"
       sodipodi:ry="60"
       d="m 220,532.36218 a 60,60 0 1 1 -120,0 60,60 0 1 1 120,0 z"
       transform="matrix(0.21630827,0,0,0.20445269,68.657939,351.72381)" />
    <path
       style="fill:#ffffff;stroke:#000000;stroke-width:0.17524743;stroke-miterlimit:4;stroke-opacity:1;stroke-dashoffset:0"
       d="m 161.67049,454.43311 c 0,5.6458 -4.84222,10.22263 -10.81541,10.22263 -5.97319,0 -10.81541,-4.57683 -10.81541,-10.22263 0,-5.6458 4.84222,-10.22264 10.81541,-10.22264 5.97319,0 10.81541,4.57684 10.81541,10.22264 z"
       id="path3780"
       inkscape:connector-curvature="0" />
    <rect
       style="fill:#000000;fill-opacity:1;stroke:#000000;stroke-width:0.21029694;stroke-miterlimit:4;stroke-opacity:1;stroke-dasharray:none;stroke-dashoffset:0"
       id="rect3784"
       width="103.82796"
       height="4.0890536"
       x="55.679443"
       y="460.56668" />
    <rect
       style="fill:#000000;stroke:#000000;stroke-width:0.20564722;stroke-miterlimit:4;stroke-opacity:1;stroke-dasharray:none;stroke-dashoffset:0"
       id="rect3763"
       width="28.95882"
       height="24.534323"
       x="147.23523"
       y="378.78561" />
    <path
       sodipodi:nodetypes="ccscscc"
       inkscape:connector-curvature="0"
       id="path3802"
       d="m 172.57419,403.31994 c -2.71488,-8.76226 0,-10.51471 0,-10.51471 0,0 0,-1.75245 -2.71488,-3.50491 -6.92164,-4.46789 -8.14467,-10.51471 -8.14467,-10.51471 0,0 -1.22303,6.04682 -8.14467,10.51471 -2.71489,1.75246 -2.71489,3.50491 -2.71489,3.50491 0,0 2.71489,1.75245 0,10.51471 l -3.61985,0 0,-24.53433 28.95882,0 0,24.53433 z"
       style="fill:#ffffff;fill-opacity:1;stroke:#000000;stroke-width:0.1090609px;stroke-linecap:butt;stroke-linejoin:miter;stroke-opacity:1" />
    <g
       id="g3226">
      <path
         id="rect3810"
         d="m 189.35795,436.03499 0,2.33204 -8.21972,0 0,7.89059 8.21972,0 0,2.04453 1.65611,0 0,-12.26716 -1.65611,0 z"
         style="fill:#000000;stroke:#000000;stroke-width:0.21029694;stroke-miterlimit:4;stroke-opacity:1;stroke-dashoffset:0"
         inkscape:connector-curvature="0" />
    </g>
    <g
       id="g3237"
       transform="translate(-5.0507627,0)">
      <rect
         y="402.32901"
         x="206.5762"
         height="52.527931"
         width="111.11678"
         id="rect3212"
         style="fill:#000000;fill-opacity:1;fill-rule:nonzero;stroke:#ffffff;stroke-width:1;stroke-linejoin:round;stroke-miterlimit:10;stroke-opacity:1;stroke-dasharray:none;stroke-dashoffset:0" />
      <g
         transform="matrix(-1,0,0,1,388.81981,0)"
         id="g3229">
        <path
           id="path3231"
           d="m 189.35795,436.03499 0,2.33204 -8.21972,0 0,7.89059 8.21972,0 0,2.04453 1.65611,0 0,-12.26716 -1.65611,0 z"
           style="fill:#000000;stroke:#000000;stroke-width:0.21029694;stroke-miterlimit:4;stroke-opacity:1;stroke-dashoffset:0"
           inkscape:connector-curvature="0" />
      </g>
      <path
         sodipodi:type="arc"
         style="fill:#000000;stroke:#000000;stroke-width:1;stroke-miterlimit:4;stroke-opacity:1;stroke-dasharray:none;stroke-dashoffset:0"
         id="path3233"
         sodipodi:cx="160"
         sodipodi:cy="532.36218"
         sodipodi:rx="60"
         sodipodi:ry="60"
         d="m 220,532.36218 c 0,33.13709 -26.86292,60 -60,60 -33.13708,0 -60,-26.86291 -60,-60 0,-33.13708 26.86292,-60 60,-60 33.13708,0 60,26.86292 60,60 z"
         transform="matrix(0.21630827,0,0,0.20445269,197.6273,351.72381)" />
      <path
         transform="matrix(0.21630827,0,0,0.20445269,260.76183,351.72381)"
         d="m 220,532.36218 c 0,33.13709 -26.86292,60 -60,60 -33.13708,0 -60,-26.86291 -60,-60 0,-33.13708 26.86292,-60 60,-60 33.13708,0 60,26.86292 60,60 z"
         sodipodi:ry="60"
         sodipodi:rx="60"
         sodipodi:cy="532.36218"
         sodipodi:cx="160"
         id="path3235"
         style="fill:#000000;stroke:#000000;stroke-width:1;stroke-miterlimit:4;stroke-opacity:1;stroke-dasharray:none;stroke-dashoffset:0"
         sodipodi:type="arc" />
    </g>
  </g>
</svg>
