<?xml version="1.0" encoding="UTF-8" standalone="no"?>
<!-- Created with Inkscape (http://www.inkscape.org/) -->

<svg
   xmlns:dc="http://purl.org/dc/elements/1.1/"
   xmlns:cc="http://creativecommons.org/ns#"
   xmlns:rdf="http://www.w3.org/1999/02/22-rdf-syntax-ns#"
   xmlns:svg="http://www.w3.org/2000/svg"
   xmlns="http://www.w3.org/2000/svg"
   xmlns:sodipodi="http://sodipodi.sourceforge.net/DTD/sodipodi-0.dtd"
   xmlns:inkscape="http://www.inkscape.org/namespaces/inkscape"
   id="svg2"
   version="1.1"
   inkscape:version="0.48.1 r9760"
   width="653.75"
   height="162.5"
   xml:space="preserve"
   sodipodi:docname="fig_kg_freq_speed.svg"
   inkscape:export-filename="/Users/oreilly/svn_docs/physics/fig_kg_freq_speed.png"
   inkscape:export-xdpi="150"
   inkscape:export-ydpi="150"><metadata
     id="metadata8"><rdf:RDF><cc:Work
         rdf:about=""><dc:format>image/svg+xml</dc:format><dc:type
           rdf:resource="http://purl.org/dc/dcmitype/StillImage" /><dc:title></dc:title></cc:Work></rdf:RDF></metadata><defs
     id="defs6" /><sodipodi:namedview
     pagecolor="#ffffff"
     bordercolor="#666666"
     borderopacity="1"
     objecttolerance="10"
     gridtolerance="10"
     guidetolerance="10"
     inkscape:pageopacity="0"
     inkscape:pageshadow="2"
     inkscape:window-width="954"
     inkscape:window-height="769"
     id="namedview4"
     showgrid="false"
     inkscape:zoom="0.77858509"
     inkscape:cx="326.875"
     inkscape:cy="81.25"
     inkscape:window-x="363"
     inkscape:window-y="168"
     inkscape:window-maximized="0"
     inkscape:current-layer="g10" /><g
     id="g10"
     inkscape:groupmode="layer"
     inkscape:label="fig.kg_freq_speed"
     transform="matrix(1.25,0,0,-1.25,0,162.5)"><g
       id="g12"
       transform="scale(0.1,0.1)"><path
         d="m 3238.11,482.078 16.26,9.707 8.13,4.852 13.55,9.703 13.55,9.703 10.85,4.852 35.23,0 13.55,-14.555 13.55,-9.703 8.13,-14.559 13.55,-14.555 13.56,-9.703 10.84,0 13.55,9.703 13.55,14.555 8.13,24.262 13.55,24.262 13.56,24.257 8.12,14.555 13.56,9.707 13.55,-9.707 10.84,-24.258 13.55,-38.816 13.56,-38.817 8.12,-48.519 13.55,-33.965 13.56,-19.406 10.84,9.703 13.55,33.965 13.55,48.519 8.13,72.782 13.55,72.777 13.56,58.226 8.13,38.817 13.55,0 13.55,-33.965 10.84,-63.078 13.55,-97.039 13.55,-97.039 8.14,-97.043 13.55,-72.778 13.55,-24.261 10.84,14.558 13.55,72.778 13.55,106.746 8.13,135.855 13.56,131.004 13.55,111.598 8.13,77.629 13.55,4.855 13.55,-48.523 10.84,-106.742 13.55,-150.415 13.56,-164.968 8.13,-160.114 13.55,-121.3 13.55,-58.223 8.13,9.7032 13.55,72.7778 13.56,135.859 10.84,179.523 13.55,184.375 13.55,174.672 8.13,121.301 13.55,48.52 13.55,-24.258 10.85,-92.188 13.55,-155.265 13.55,-184.375 8.13,-189.231 13.55,-160.117 13.55,-111.5938 8.14,-48.5196 13.55,24.2578 13.55,97.0396 10.84,135.859 13.55,179.523 13.55,169.821 8.13,155.261 13.56,106.746 13.55,38.817 8.13,-14.555 16.26,-82.484 13.55,-116.449 8.13,-145.563 13.55,-145.559 13.56,-131.003 8.13,-87.336 13.55,-48.52 13.55,9.703 10.84,48.52 13.55,87.336 13.55,106.746 8.14,106.742 13.55,101.895 13.55,72.777 8.13,48.519 13.55,9.707 13.55,-24.261 10.84,-58.223 13.56,-63.078 13.55,-72.777 8.13,-72.782 13.55,-58.226 13.55,-38.813 13.55,-19.41 10.85,0 13.55,24.262 13.55,43.668 8.13,38.816 13.55,48.52 13.55,43.668 8.13,24.257 13.55,24.262 24.4,0 13.55,-19.41 13.55,-24.258 8.13,-24.261 13.55,-24.258 13.56,-14.559 8.12,-14.555 16.27,-9.703 21.68,0 13.55,9.703 13.55,14.555 8.13,9.707 13.55,4.852 13.56,9.703 10.84,9.703 13.55,4.852 13.55,0 8.13,-4.852 27.11,0 8.13,-9.703 13.55,-9.703 24.39,0 27.1,-14.559 0,0"
         style="fill:none;stroke:#000000;stroke-opacity:1;stroke-width:19.1212;stroke-linecap:butt;stroke-linejoin:miter;stroke-miterlimit:10;stroke-dasharray:none"
         id="path14" /><path
         d="m 25.7461,482.402 28.6836,9.559 14.3398,4.781 23.9024,9.563 23.8981,9.558 19.121,4.782 62.145,0 23.902,-14.34 23.903,-9.563 14.339,-14.34 23.903,-14.343 23.902,-9.559 19.121,0 23.903,9.559 23.898,14.343 14.344,23.903 23.898,23.898 23.903,23.902 14.339,14.34 23.903,9.563 23.902,-9.563 19.121,-23.898 23.903,-38.242 23.902,-38.246 14.34,-47.801 23.902,-33.461 23.898,-19.121 19.122,9.558 23.902,33.461 23.902,47.805 14.34,71.703 23.902,71.707 23.903,57.363 14.34,38.243 23.902,0 23.902,-33.461 19.121,-62.145 23.899,-95.605 23.902,-95.61 14.344,-95.605 23.898,-71.703 23.903,-23.903 19.121,14.34 23.902,71.707 23.903,105.164 14.34,133.852 23.9,129.066 23.9,109.946 14.34,76.488 23.91,4.777 23.89,-47.801 19.13,-105.168 23.9,-148.187 23.9,-162.531 14.34,-157.75 23.9,-119.508 23.9,-57.3634 14.34,9.5586 23.91,71.7068 23.9,133.848 19.12,176.871 23.9,181.652 23.9,172.09 14.35,119.508 23.89,47.801 23.91,-23.899 19.12,-90.828 23.9,-152.969 23.9,-181.652 14.34,-186.43 23.9,-157.75 23.91,-109.9488 14.34,-47.8008 23.9,23.9024 23.9,95.6052 19.12,133.848 23.9,176.871 23.9,167.309 14.34,152.972 23.9,105.164 23.91,38.243 14.34,-14.34 28.68,-81.266 23.9,-114.727 14.34,-143.41 23.9,-143.406 23.9,-129.07 14.35,-86.043 23.9,-47.805 23.9,9.563 19.12,47.8 23.9,86.047 23.9,105.164 14.34,105.168 23.91,100.387 23.9,71.703 14.34,47.805 23.9,9.558 23.9,-23.898 19.12,-57.363 23.9,-62.145 23.9,-71.707 14.34,-71.703 23.91,-57.363 23.9,-38.242 23.9,-19.122 19.12,0 23.9,23.903 23.9,43.019 14.35,38.243 23.9,47.804 23.9,43.024 14.34,23.902 23.9,23.898 43.02,0 23.91,-19.121 23.9,-23.898 14.34,-23.902 23.9,-23.903 23.9,-14.34 14.34,-14.343 28.68,-9.559 38.24,0 23.91,9.559 23.9,14.343 14.34,9.559 23.9,4.781 23.9,9.563 19.12,9.558 23.9,4.782 23.91,0 14.34,-4.782 47.8,0 14.34,-9.558 23.9,-9.563 43.03,0 47.8,-14.34 0,0"
         style="fill:none;stroke:#000000;stroke-opacity:1;stroke-width:19.1212;stroke-linecap:butt;stroke-linejoin:miter;stroke-miterlimit:10;stroke-dasharray:none"
         id="path16" /><g
         id="g18"
         transform="scale(10,10)"><text
           transform="matrix(1,0,0,-1,44.6414,115.766)"
           id="text20"><tspan
             style="fill:#000000;fill-opacity:1;fill-rule:nonzero;stroke:none;font-family:Helvetica;font-variant:normal;font-weight:normal;font-size:17.2091;writing-mode:lr;-inkscape-font-specification:Helvetica"
             x="0 9.5682596 19.1365192 31.5614894 41.129749 46.8603793 51.6445091 62.1592692 67.8898995 77.4581591 87.0264187 96.5946783 106.1629379 115.7311975 124.3357475 132.9402975 137.7244273 147.7745417 152.5586715 164.0371412 167.8575614 177.425821 189.8507912 199.4190508 254.51863091 266.94360111 270.76402131 280.33228091 289.90054051 299.46880011 305.19943041 309.98356021 320.49832031 326.22895061 335.79721021 345.36546981 354.93372941 364.50198901 374.07024861 382.67479861 391.27934861 396.06347841 406.11359281 410.89772261 421.41248271 430.98074231 439.58529231 444.36942211 453.93768171"
             y="0"
             sodipodi:role="line"
             id="tspan22">Lower Frequency = SlowerHigher Frequency = Faster</tspan></text>
</g></g></g></svg>