<?xml version="1.0" encoding="UTF-8" standalone="no"?>
<svg
   xmlns:dc="http://purl.org/dc/elements/1.1/"
   xmlns:cc="http://creativecommons.org/ns#"
   xmlns:rdf="http://www.w3.org/1999/02/22-rdf-syntax-ns#"
   xmlns:svg="http://www.w3.org/2000/svg"
   xmlns="http://www.w3.org/2000/svg"
   xmlns:xlink="http://www.w3.org/1999/xlink"
   xmlns:sodipodi="http://sodipodi.sourceforge.net/DTD/sodipodi-0.dtd"
   xmlns:inkscape="http://www.inkscape.org/namespaces/inkscape"
   width="1000"
   height="750"
   viewBox="0 0 1000 750"
   id="svg2335"
   sodipodi:version="0.32"
   inkscape:version="0.48.1 r9760"
   sodipodi:docname="fig_schrodinger_spread_init_cond.svg"
   version="1.1"
   inkscape:export-filename="/Users/oreilly/svn_docs/physics/fig_schrodinger_spread_init_cond.png"
   inkscape:export-xdpi="150"
   inkscape:export-ydpi="150">
  <metadata
     id="metadata2494">
    <rdf:RDF>
      <cc:Work
         rdf:about="">
        <dc:format>image/svg+xml</dc:format>
        <dc:type
           rdf:resource="http://purl.org/dc/dcmitype/StillImage" />
        <dc:title />
      </cc:Work>
    </rdf:RDF>
  </metadata>
  <sodipodi:namedview
     inkscape:window-height="588"
     inkscape:window-width="909"
     inkscape:pageshadow="2"
     inkscape:pageopacity="0.0"
     guidetolerance="10.0"
     gridtolerance="10.0"
     objecttolerance="10.0"
     borderopacity="1.0"
     bordercolor="#666666"
     pagecolor="#ffffff"
     id="base"
     inkscape:zoom="2.8208847"
     inkscape:cx="367.39648"
     inkscape:cy="475.90373"
     inkscape:window-x="664"
     inkscape:window-y="190"
     inkscape:current-layer="svg2335"
     showgrid="false" />
  <desc
     id="desc2337">Produced by GNUPLOT 4.0 patchlevel 0 </desc>
  <defs
     id="defs2339">
    <linearGradient
       inkscape:collect="always"
       id="linearGradient7539">
      <stop
         style="stop-color:#0000ff;stop-opacity:1;"
         offset="0"
         id="stop7541" />
      <stop
         style="stop-color:#0000ff;stop-opacity:0;"
         offset="1"
         id="stop7543" />
    </linearGradient>
    <marker
       inkscape:stockid="Arrow1Sstart"
       orient="auto"
       refY="0.0"
       refX="0.0"
       id="Arrow1Sstart"
       style="overflow:visible">
      <path
         id="path3852"
         d="M 0.0,0.0 L 5.0,-5.0 L -12.5,0.0 L 5.0,5.0 L 0.0,0.0 z "
         style="fill-rule:evenodd;stroke:#000000;stroke-width:1.0pt;marker-start:none"
         transform="scale(0.2) translate(6,0)" />
    </marker>
    <marker
       inkscape:stockid="Arrow1Mend"
       orient="auto"
       refY="0.0"
       refX="0.0"
       id="Arrow1Mend"
       style="overflow:visible;">
      <path
         id="path3849"
         d="M 0.0,0.0 L 5.0,-5.0 L -12.5,0.0 L 5.0,5.0 L 0.0,0.0 z "
         style="fill-rule:evenodd;stroke:#000000;stroke-width:1.0pt;marker-start:none;"
         transform="scale(0.4) rotate(180) translate(10,0)" />
    </marker>
    <marker
       inkscape:stockid="Arrow1Mstart"
       orient="auto"
       refY="0.0"
       refX="0.0"
       id="Arrow1Mstart"
       style="overflow:visible">
      <path
         id="path3846"
         d="M 0.0,0.0 L 5.0,-5.0 L -12.5,0.0 L 5.0,5.0 L 0.0,0.0 z "
         style="fill-rule:evenodd;stroke:#000000;stroke-width:1.0pt;marker-start:none"
         transform="scale(0.4) translate(10,0)" />
    </marker>
    <circle
       id="gpDot"
       r="1" />
    <path
       id="gpPt0"
       style="stroke-width:0.133"
       d="M-1,0 h2 M0,-1 v2" />
    <path
       id="gpPt1"
       style="stroke-width:0.133"
       d="M-1,-1 L1,1 M1,-1 L-1,1" />
    <path
       id="gpPt2"
       style="stroke-width:0.133"
       d="M-1,0 L1,0 M0,-1 L0,1 M-1,-1 L1,1 M-1,1 L1,-1" />
    <rect
       id="gpPt3"
       style="stroke-width:0.133"
       x="-1"
       y="-1"
       width="2"
       height="2" />
    <use
       xlink:href="#gpPt3"
       id="gpPt4"
       style="fill:currentColor; stroke:none" />
    <circle
       id="gpPt5"
       style="stroke-width:0.133"
       cx="0"
       cy="0"
       r="1" />
    <use
       xlink:href="#gpPt5"
       id="gpPt6"
       style="fill:currentColor; stroke:none" />
    <path
       id="gpPt7"
       style="stroke-width:0.133"
       d="M0,-1.33 L-1.33,0.67 L1.33,0.67 z" />
    <use
       xlink:href="#gpPt7"
       id="gpPt8"
       style="fill:currentColor; stroke:none" />
    <use
       xlink:href="#gpPt7"
       id="gpPt9"
       transform="rotate(180)" />
    <use
       xlink:href="#gpPt9"
       id="gpPt10"
       style="fill:currentColor; stroke:none" />
    <use
       xlink:href="#gpPt3"
       id="gpPt11"
       transform="rotate(45)" />
    <use
       xlink:href="#gpPt11"
       id="gpPt12"
       style="fill:currentColor; stroke:none" />
    <radialGradient
       inkscape:collect="always"
       xlink:href="#linearGradient7539"
       id="radialGradient7855"
       gradientUnits="userSpaceOnUse"
       gradientTransform="translate(0,3.791938e-5)"
       cx="307.06885"
       cy="484.04077"
       fx="307.06885"
       fy="484.04077"
       r="12.281668" />
    <style
       id="style8337"
       type="text/css">
   
    .str2 {stroke:#28166F;stroke-width:6.48189;stroke-linecap:round;stroke-linejoin:round}
    .str1 {stroke:black;stroke-width:6.48189}
    .str0 {stroke:black;stroke-width:6.48189;stroke-linecap:round;stroke-linejoin:round}
    .fil1 {fill:none;fill-rule:nonzero}
    .fil0 {fill:white}
   
  </style>
    <clipPath
       id="clipPath18"
       clipPathUnits="userSpaceOnUse">
      <path
         id="path20"
         d="m 0,0 0,4215.21 5385.83,0 L 5385.83,0 0,0 z" />
    </clipPath>
  </defs>
  <rect
     style="fill:#ffffff;fill-opacity:1;fill-rule:nonzero;stroke:none"
     id="rect8404"
     width="288.20746"
     height="180.79436"
     x="89.333672"
     y="237.04036" />
  <g
     style="fill:none; color:black; stroke:currentColor; stroke-width:1.00"
     id="g2355" />
  <path
     sodipodi:type="arc"
     style="fill:url(#radialGradient7855);fill-opacity:1;stroke:#000000;stroke-width:1;stroke-miterlimit:4;stroke-opacity:1;stroke-dasharray:none;stroke-dashoffset:0"
     id="path7537"
     sodipodi:cx="307.06885"
     sodipodi:cy="484.04077"
     sodipodi:rx="11.781417"
     sodipodi:ry="11.781417"
     d="m 298.07394,476.432 a 11.781417,11.781417 0 1 1 -0.006,0.008"
     sodipodi:start="3.8437004"
     sodipodi:end="10.126038"
     sodipodi:open="true"
     transform="translate(-157.41979,-167.44652)" />
  <path
     style="fill:#ffffff;fill-opacity:1;fill-rule:nonzero;stroke:#000000;stroke-width:1;stroke-miterlimit:4;stroke-opacity:1;stroke-dasharray:none;stroke-dashoffset:0;marker-end:url(#Arrow1Mend)"
     d="m 160.94242,308.6491 51.40231,-16.30694"
     id="path8045"
     inkscape:connector-curvature="0"
     sodipodi:nodetypes="cc" />
  <path
     inkscape:connector-curvature="0"
     id="path8233"
     d="m 163.06941,315.03007 51.75681,-8.86247"
     style="fill:#ffffff;fill-opacity:1;fill-rule:nonzero;stroke:#000000;stroke-width:1;stroke-miterlimit:4;stroke-opacity:1;stroke-dasharray:none;stroke-dashoffset:0;marker-end:url(#Arrow1Mend)" />
  <path
     style="fill:#ffffff;fill-opacity:1;fill-rule:nonzero;stroke:#000000;stroke-width:1;stroke-miterlimit:4;stroke-opacity:1;stroke-dasharray:none;stroke-dashoffset:0;marker-end:url(#Arrow1Mend)"
     d="m 162.00592,322.47489 51.75681,8.86247"
     id="path8235"
     inkscape:connector-curvature="0" />
  <path
     inkscape:connector-curvature="0"
     id="path8237"
     d="m 156.68844,328.14687 52.46581,15.95244"
     style="fill:#ffffff;fill-opacity:1;fill-rule:nonzero;stroke:#000000;stroke-width:1;stroke-miterlimit:4;stroke-opacity:1;stroke-dasharray:none;stroke-dashoffset:0;marker-end:url(#Arrow1Mend)"
     sodipodi:nodetypes="cc" />
  <text
     xml:space="preserve"
     style="font-size:12px;font-style:normal;font-variant:normal;font-weight:normal;font-stretch:normal;text-indent:0;text-align:start;text-decoration:none;line-height:125%;letter-spacing:0px;word-spacing:0px;text-transform:none;direction:ltr;block-progression:tb;writing-mode:lr-tb;text-anchor:start;color:#000000;fill:#000000;fill-opacity:1;fill-rule:nonzero;stroke:none;stroke-width:1px;marker:none;visibility:visible;display:inline;overflow:visible;enable-background:accumulate;font-family:Arial;-inkscape-font-specification:Arial"
     x="96.069153"
     y="320.34756"
     id="text8239"
     sodipodi:linespacing="125%"><tspan
       sodipodi:role="line"
       id="tspan8241"
       x="96.069153"
       y="320.34756">Source</tspan></text>
  <text
     xml:space="preserve"
     style="font-size:12px;font-style:normal;font-variant:normal;font-weight:normal;font-stretch:normal;text-indent:0;text-align:start;text-decoration:none;line-height:125%;letter-spacing:0px;word-spacing:0px;text-transform:none;direction:ltr;block-progression:tb;writing-mode:lr-tb;text-anchor:start;color:#000000;fill:#000000;fill-opacity:1;fill-rule:nonzero;stroke:none;stroke-width:1px;marker:none;visibility:visible;display:inline;overflow:visible;enable-background:accumulate;font-family:Arial;-inkscape-font-specification:Arial"
     x="154.76477"
     y="366.15781"
     id="text8243"
     sodipodi:linespacing="125%"><tspan
       sodipodi:role="line"
       id="tspan8245"
       x="154.76477"
       y="366.15781">Initial</tspan><tspan
       sodipodi:role="line"
       x="154.76477"
       y="381.15781"
       id="tspan8247">uncertainty</tspan></text>
  <path
     sodipodi:nodetypes="cc"
     inkscape:connector-curvature="0"
     id="path8249"
     d="m 215.18072,291.27866 51.40231,-16.30694"
     style="fill:#ffffff;fill-opacity:1;fill-rule:nonzero;stroke:#000000;stroke-width:1;stroke-miterlimit:4;stroke-opacity:1;stroke-dasharray:none;stroke-dashoffset:0;marker-end:url(#Arrow1Mend)" />
  <path
     style="fill:#ffffff;fill-opacity:1;fill-rule:nonzero;stroke:#000000;stroke-width:1;stroke-miterlimit:4;stroke-opacity:1;stroke-dasharray:none;stroke-dashoffset:0;marker-end:url(#Arrow1Mend)"
     d="m 218.01671,305.4586 51.75681,-8.86247"
     id="path8251"
     inkscape:connector-curvature="0" />
  <path
     inkscape:connector-curvature="0"
     id="path8253"
     d="m 216.59872,331.33736 51.75681,8.86247"
     style="fill:#ffffff;fill-opacity:1;fill-rule:nonzero;stroke:#000000;stroke-width:1;stroke-miterlimit:4;stroke-opacity:1;stroke-dasharray:none;stroke-dashoffset:0;marker-end:url(#Arrow1Mend)" />
  <path
     sodipodi:nodetypes="cc"
     style="fill:#ffffff;fill-opacity:1;fill-rule:nonzero;stroke:#000000;stroke-width:1;stroke-miterlimit:4;stroke-opacity:1;stroke-dasharray:none;stroke-dashoffset:0;marker-end:url(#Arrow1Mend)"
     d="m 211.99024,345.16281 52.46581,15.95244"
     id="path8255"
     inkscape:connector-curvature="0" />
  <path
     d="m 190.702,367.1946 8.3e-4,-0.11006 0.001,-0.10752 0.002,-0.11578 8.3e-4,-0.10879 0.002,-0.1177 0.002,-0.11134 0.002,-0.10751 0.002,-0.11452 0.001,-0.11091 0.002,-0.10688 0.002,-0.11324 0.002,-0.10879 0.003,-0.11685 0.002,-0.11006 0.002,-0.10879 0.002,-0.11452 0.003,-0.10964 0.002,-0.10561 0.003,-0.11324 0.002,-0.10667 0.003,-0.11663 0.002,-0.10922 0.003,-0.10752 0.003,-0.11451 0.002,-0.10879 0.004,-0.11664 0.003,-0.11239 0.003,-0.10879 0.002,-0.11452 0.003,-0.10879 0.003,-0.10773 0.004,-0.11239 0.003,-0.10879 0.004,-0.11664 0.003,-0.10985 0.004,-0.10688 0.004,-0.11643 0.003,-0.109 0.004,-0.10539 0.005,-0.11219 0.003,-0.10794 0.004,-0.11536 0.005,-0.11112 0.004,-0.10561 0.005,-0.11452 0.004,-0.10879 0.005,-0.11663 0.005,-0.1124 0.005,-0.10646 0.004,-0.11451 0.006,-0.10985 0.005,-0.10646 0.006,-0.11239 0.004,-0.10879 0.007,-0.11452 0.005,-0.11346 0.006,-0.10539 0.006,-0.11452 0.006,-0.11006 0.006,-0.11536 0.007,-0.11325 0.006,-0.10561 0.007,-0.11685 0.007,-0.11006 0.007,-0.10646 0.006,-0.11197 0.007,-0.11006 0.007,-0.11579 0.007,-0.11197 0.008,-0.10667 0.007,-0.11451 0.008,-0.11006 0.007,-0.10561 0.008,-0.11325 0.008,-0.10773 0.009,-0.1143 0.008,-0.11133 0.009,-0.10752 0.009,-0.11346 0.009,-0.10985 0.01,-0.11578 0.0102,-0.11092 0.01,-0.10879 0.0103,-0.11451 0.0107,-0.11006 0.009,-0.1054 0.0107,-0.11346 0.0113,-0.10985 0.0117,-0.11451 0.0117,-0.11218 0.0112,-0.10667 0.0126,-0.11452 0.0117,-0.11006 0.014,-0.11537 0.0117,-0.11239 0.0125,-0.11006 0.0151,-0.11325 0.0126,-0.11006 0.0135,-0.10752 0.014,-0.11345 0.0144,-0.10985 0.0155,-0.11346 0.0144,-0.11324 0.015,-0.10667 0.0162,-0.11536 0.0155,-0.11006 0.0154,-0.10561 0.0164,-0.11325 0.0168,-0.10794 0.0172,-0.11536 0.0183,-0.11113 0.0163,-0.10645 0.0183,-0.11367 0.0181,-0.10964 0.0192,-0.11579 0.0201,-0.11324 0.0181,-0.10879 0.0211,-0.11367 0.0201,-0.10964 0.0202,-0.10794 0.0209,-0.11091 0.021,-0.11006 0.022,-0.11558 0.0214,-0.11218 0.0229,-0.10794 0.0229,-0.11324 0.0239,-0.11006 0.0219,-0.10646 0.0247,-0.1124 0.0235,-0.10751 0.0257,-0.11452 0.0257,-0.11134 0.0251,-0.10751 0.0266,-0.11091 0.0267,-0.11006 0.0281,-0.11685 0.0284,-0.11091 0.0272,-0.10794 0.0294,-0.11537 0.0281,-0.11006 0.0284,-0.10667 0.0309,-0.11218 0.0303,-0.10795 0.0318,-0.11769 0.0318,-0.11006 0.0313,-0.10752 0.0336,-0.11218 0.0318,-0.11007 0.037,-0.11769 0.0345,-0.11134 0.0328,-0.10879 0.0373,-0.11451 0.0355,-0.10985 0.0356,-0.10773 0.0378,-0.1124 0.0364,-0.10879 0.0403,-0.11664 0.0392,-0.11112 0.0383,-0.10773 0.0411,-0.11324 0.0407,-0.11112 0.0392,-0.10646 0.042,-0.11133 0.0421,-0.10752 0.045,-0.11685 0.0438,-0.11006 0.0426,-0.10646 0.0458,-0.11452 0.0458,-0.10879 0.049,-0.11684 0.0467,-0.11219 0.0463,-0.10667 0.0504,-0.11663 0.0492,-0.11006 0.0477,-0.1054 0.0517,-0.11452 0.0505,-0.10773 0.0538,-0.11685 0.0536,-0.10963 0.0514,-0.10667 0.0556,-0.11452 0.0547,-0.10879 0.0528,-0.10773 0.0575,-0.11239 0.0546,-0.10773 0.0603,-0.1143 0.0593,-0.11007 0.0565,-0.10773 0.0622,-0.11451 0.0594,-0.10879 0.0649,-0.11452 0.0636,-0.11324 0.0612,-0.10561 0.0668,-0.11642 0.0651,-0.10922 0.0625,-0.10646 0.0678,-0.11324 0.0654,-0.10667 0.0715,-0.11579 0.0692,-0.11324 0.0677,-0.10561 0.0721,-0.11409 0.071,-0.11006 0.0771,-0.11558 0.0738,-0.11345 0.0719,-0.1054 0.0776,-0.11579 0.0767,-0.11218 0.0729,-0.10434 0.0795,-0.1143 0.0774,-0.109 0.0832,-0.11431 0.0805,-0.11218 0.0785,-0.10667 0.0845,-0.11451 0.0832,-0.11007 0.0795,-0.10645 0.0869,-0.1124 0.0827,-0.10879 0.0908,-0.11451 0.0874,-0.11219 0.0859,-0.10539 0.0911,-0.11346 0.0888,-0.10985 0.0958,-0.11579 0.093,-0.11197 0.0911,-0.10773 0.0967,-0.11324 0.0939,-0.1124 0.0926,-0.10433 0.0986,-0.11452 0.0957,-0.10773 0.1028,-0.11558 0.0996,-0.11218 0.0977,-0.10794 0.10333,-0.11324 0.10227,-0.11006 0.10845,-0.11537 0.10615,-0.11239 0.10227,-0.10879 0.10942,-0.11452 0.10739,-0.11218 0.10333,-0.10434 0.11118,-0.1143 0.10793,-0.11006 0.11595,-0.11325 0.11216,-0.11345 0.10889,-0.10667 0.11729,-0.11536 0.11365,-0.11007 0.11022,-0.10434 0.11772,-0.11451 0.11411,-0.10794 0.12328,-0.11409 0.1187,-0.11134 0.11595,-0.10752 0.12294,-0.11366 0.11957,-0.10964 0.12903,-0.11579 0.12391,-0.11197 0.12143,-0.10794 0.12947,-0.11452 0.12514,-0.11091 0.12161,-0.10561 0.12947,-0.11324 0.12611,-0.10879 0.13512,-0.11685 0.13035,-0.11006 0.12567,-0.10773 0.13513,-0.1143 0.13167,-0.11006 0.12682,-0.10646 0.13591,-0.11134 0.13124,-0.10751 0.14068,-0.11579 0.1361,-0.11113 0.13123,-0.10645 0.14069,-0.1124 0.13697,-0.11006 0.14537,-0.11643 0.14103,-0.11218 0.13645,-0.10667 0.1459,-0.11451 0.14156,-0.11006 0.1361,-0.10773 0.14474,-0.11113 0.14166,-0.10879 0.14951,-0.11536 0.14625,-0.11133 0.14069,-0.10752 0.15049,-0.11367 0.14483,-0.10964 0.15473,-0.11685 0.14951,-0.11091 0.14493,-0.10921 0.15464,-0.11324 0.14863,-0.11091 0.14395,-0.10795 0.1542,-0.11091 0.14863,-0.11006 0.15843,-0.11685 0.15235,-0.11091 0.14757,-0.10794 0.1572,-0.11324 0.15234,-0.11006 0.14625,-0.10519 0.15606,-0.11239 0.15048,-0.11007 0.16082,-0.11536 0.15508,-0.11112 0.1496,-0.10688 0.15932,-0.11325 0.15288,-0.10879 0.16346,-0.11663 0.15809,-0.11113 0.15234,-0.10879 0.16162,-0.11451 0.15614,-0.11006 0.15048,-0.10519 0.15976,-0.11451 0.15332,-0.10689 0.164,-0.11769 0.15799,-0.11007 0.15234,-0.10751 0.1618,-0.11452 0.15507,-0.10879 0.16639,-0.11685 0.15976,-0.11345 0.15234,-0.10667 0.16365,-0.11537 0.15658,-0.11112 0.15084,-0.10646 0.16029,-0.11366 0.1542,-0.10879 0.16364,-0.11664 0.15791,-0.11112 0.15137,-0.10773 0.16082,-0.11452 0.1542,-0.10985 0.14863,-0.1056 0.15791,-0.11325 0.15101,-0.10879 0.16073,-0.11451 0.15376,-0.11134 0.14863,-0.10645 0.15755,-0.11431 0.15049,-0.109 0.16029,-0.1177 0.1527,-0.11112 0.14775,-0.10773 0.15561,-0.11451 0.1496,-0.11113 0.14387,-0.10645 0.1519,-0.11325 0.14572,-0.10921 0.15419,-0.11409 0.14775,-0.1124 0.14157,-0.10646 0.15013,-0.11451 0.14387,-0.11134 0.13697,-0.10539 0.14581,-0.11219 0.13963,-0.10794 0.14677,-0.11536 0.14069,-0.1124 0.13503,-0.10518 0.14254,-0.11367 0.13601,-0.10964 0.14439,-0.11579 0.13697,-0.11196 0.13185,-0.10689 0.13866,-0.11557 0.13185,-0.11006 0.12718,-0.10519 0.13406,-0.11239 0.12664,-0.11007 0.13459,-0.11536 0.1285,-0.11112 0.12196,-0.10561 0.12903,-0.11452 0.12293,-0.11218 0.12894,-0.11558 0.12381,-0.11218 0.11684,-0.10667 0.12391,-0.11536 0.1172,-0.11134 0.11224,-0.10667 0.11773,-0.11198 0.11127,-0.11006 0.11781,-0.11536 0.11163,-0.1124 0.10651,-0.10646 0.11127,-0.11451 0.10616,-0.11006 0.10041,-0.10667 0.10465,-0.11219 0.1,-0.10879 0.10483,-0.11451 0.0995,-0.11112 0.093,-0.10561 0.0986,-0.11452 0.093,-0.10964 0.0969,-0.11684 0.0925,-0.11346 0.0865,-0.1054 0.0906,-0.11536 0.0856,-0.11133 0.0805,-0.1054 0.0836,-0.11346 0.0789,-0.10879 0.0827,-0.11451 0.0773,-0.11325 0.0729,-0.10666 0.0758,-0.11219 0.071,-0.11006 0.0668,-0.10667 0.0682,-0.11218 0.0651,-0.10985 0.0668,-0.11346 0.0616,-0.10985 0.0586,-0.10773 0.0603,-0.11324 0.0556,-0.11006 0.0575,-0.11325 0.0532,-0.11366 0.0496,-0.10879 0.0504,-0.11325 0.0466,-0.11091 0.0431,-0.10561 0.0438,-0.11239 0.0403,-0.11006 0.0402,-0.11325 0.0374,-0.11218 0.0336,-0.10752 0.0336,-0.11239 0.0308,-0.11006 0.0305,-0.11664 0.0267,-0.11197 0.0242,-0.10922 0.0235,-0.11409 0.0205,-0.11006 0.0172,-0.10794 0.0174,-0.11218 0.0144,-0.10879 0.0132,-0.11558 0.01,-0.11218 0.008,-0.10667 0.003,-0.056 0.003,-0.0585 0.002,-0.0573 0.002,-0.0528 4.1e-4,-0.0257 0,-0.028 8.4e-4,-0.0293 0,-0.0157 8.3e-4,-0.0134 0,-0.109 -8.3e-4,-0.0291 -8.4e-4,-0.0235 -4.1e-4,-0.0594 -0.002,-0.0573 -0.002,-0.0507 -0.006,-0.11219 -0.009,-0.10666 -0.0108,-0.11537 -0.0122,-0.11006 -0.0144,-0.10667 -0.0164,-0.11218 -0.0182,-0.10794 -0.022,-0.11537 -0.022,-0.11027 -0.0242,-0.10752 -0.0276,-0.11452 -0.0285,-0.10879 -0.0327,-0.11663 -0.0328,-0.1124 -0.0336,-0.10773 -0.0388,-0.11451 -0.0389,-0.10985 -0.0392,-0.10773 -0.044,-0.11113 -0.0449,-0.11006 -0.0481,-0.11536 -0.0499,-0.1124 -0.0487,-0.10645 -0.0552,-0.11452 -0.0537,-0.10879 -0.0547,-0.10561 -0.0585,-0.11451 -0.0599,-0.10752 -0.0639,-0.11579 -0.0646,-0.10985 -0.0636,-0.10561 -0.0692,-0.11451 -0.0695,-0.10879 -0.0749,-0.11664 -0.0737,-0.11112 -0.0739,-0.10773 -0.0789,-0.11452 -0.0784,-0.10985 -0.0771,-0.10688 -0.0842,-0.11324 -0.0822,-0.10773 -0.0893,-0.11558 -0.0879,-0.11218 -0.0861,-0.10667 -0.0938,-0.11451 -0.0911,-0.10879 -0.19632,-0.22988 -0.0949,-0.10795 -0.1028,-0.11324 -0.1005,-0.11091 -0.0977,-0.10667 -0.10606,-0.11345 -0.10377,-0.10879 -0.11128,-0.11685 -0.21496,-0.21886 -0.11392,-0.11451 -0.11181,-0.10879 -0.1088,-0.10518 -0.11737,-0.11452 -0.11348,-0.10667 -0.12259,-0.11579 -0.11957,-0.11197 -0.11631,-0.10561 -0.12426,-0.11451 -0.12152,-0.11007 -0.12991,-0.11409 -0.12717,-0.11239 -0.12293,-0.10773 -0.13274,-0.11558 -0.12761,-0.11006 -0.12515,-0.10646 -0.13326,-0.11239 -0.13036,-0.11006 -0.1383,-0.1141 -0.13512,-0.11239 -0.13079,-0.10646 -0.14024,-0.11451 -0.13645,-0.11007 -0.13088,-0.10433 -0.14113,-0.11325 -0.13679,-0.10794 -0.14643,-0.11536 -0.14104,-0.11134 -0.13697,-0.10539 -0.14723,-0.11325 -0.14156,-0.11006 -0.15146,-0.11579 -0.14678,-0.11091 -0.14254,-0.10879 -0.15137,-0.11324 -0.14669,-0.11133 -0.14156,-0.1054 -0.15147,-0.11218 -0.14677,-0.11007 -0.15658,-0.11451 -0.15049,-0.11113 -0.14625,-0.10751 -0.30654,-0.22225 -0.15985,-0.11685 -0.15516,-0.11218 -0.14899,-0.10879 -0.15941,-0.11324 -0.1542,-0.11112 -0.14766,-0.10689 -0.15843,-0.11197 -0.15234,-0.11006 -0.16312,-0.11452 -0.15658,-0.11324 -0.15102,-0.10645 -0.16064,-0.11367 -0.1557,-0.11091 -0.14952,-0.10561 -0.15888,-0.11197 -0.15375,-0.10879 -0.16267,-0.11452 -0.15738,-0.11112 -0.15102,-0.10688 -0.16162,-0.11325 -0.15525,-0.10879 -0.16444,-0.11663 -0.15897,-0.1124 -0.15269,-0.10773 -0.16268,-0.11324 -0.15658,-0.11112 -0.14995,-0.10646 -0.15994,-0.11239 -0.1542,-0.10879 -0.16268,-0.11579 -0.15693,-0.10964 -0.15146,-0.10921 -0.16082,-0.11325 -0.15419,-0.10964 -0.16304,-0.11684 -0.1579,-0.11219 -0.15102,-0.10879 -0.16029,-0.11451 -0.15419,-0.11006 -0.14864,-0.10667 -0.15755,-0.11325 -0.15049,-0.10773 -0.15976,-0.11769 -0.15419,-0.11134 -0.14731,-0.10751 -0.15738,-0.11367 -0.1496,-0.11091 -0.14439,-0.10561 -0.15288,-0.11197 -0.14677,-0.10794 -0.15606,-0.1177 -0.14898,-0.11006 -0.14307,-0.10646 -0.15234,-0.11451 -0.14493,-0.10879 -0.1542,-0.11579 -0.1481,-0.11197 -0.14166,-0.10795 -0.15048,-0.11536 -0.14289,-0.10921 -0.13795,-0.10752 -0.14625,-0.11134 -0.14068,-0.10963 -0.14767,-0.11579 -0.14254,-0.11197 -0.13503,-0.10688 -0.14395,-0.11431 -0.13795,-0.109 -0.13273,-0.1054 -0.13919,-0.11345 -0.13317,-0.10752 -0.14157,-0.11558 -0.13513,-0.11006 -0.12982,-0.10773 -0.13697,-0.11324 -0.13133,-0.10879 -0.13882,-0.11579 -0.13221,-0.11197 -0.12673,-0.10921 -0.13503,-0.11325 -0.12806,-0.11091 -0.1224,-0.10561 -0.13035,-0.11239 -0.12391,-0.10879 -0.13088,-0.11536 -0.12479,-0.1124 -0.12055,-0.10561 -0.12611,-0.11409 -0.12161,-0.10921 -0.12664,-0.11664 -0.12329,-0.11324 -0.11595,-0.10667 -0.12294,-0.11537 -0.11772,-0.10879 -0.1126,-0.10794 -0.1187,-0.11451 -0.11313,-0.10646 -0.11913,-0.11812 -0.11455,-0.11091 -0.10933,-0.10794 -0.11499,-0.11409 -0.10977,-0.10922 -0.10377,-0.10646 -0.11163,-0.11324 -0.10465,-0.10667 -0.11128,-0.11579 -0.10703,-0.11197 -0.10139,-0.10561 -0.10659,-0.11451 -0.10227,-0.10964 -0.10704,-0.11451 -0.10191,-0.1124 -0.0987,-0.10773 -0.10324,-0.1143 -0.0976,-0.11134 -0.094,-0.10433 -0.0986,-0.11452 -0.094,-0.10879 -0.0996,-0.11536 -0.0939,-0.11134 -0.0906,-0.10667 -0.0949,-0.11409 -0.0903,-0.11006 -0.0949,-0.11685 -0.0907,-0.11324 -0.0864,-0.10561 -0.0903,-0.11537 -0.0869,-0.11239 -0.0832,-0.10561 -0.0865,-0.11451 -0.0832,-0.10879 -0.0869,-0.11537 -0.0827,-0.11239 -0.0786,-0.10646 -0.0832,-0.11558 -0.0785,-0.11006 -0.0757,-0.10434 -0.0785,-0.11451 -0.0757,-0.10879 -0.0795,-0.11452 -0.0747,-0.11091 -0.0721,-0.10561 -0.0752,-0.11451 -0.0719,-0.11007 -0.0747,-0.11557 -0.0721,-0.11324 -0.0677,-0.10773 -0.0719,-0.11452 -0.0678,-0.11112 -0.0646,-0.10561 -0.0686,-0.11324 -0.065,-0.11007 -0.0673,-0.11409 -0.0649,-0.11133 -0.0622,-0.10879 -0.0636,-0.11324 -0.0612,-0.11007 -0.0584,-0.10433 -0.0612,-0.11452 -0.0585,-0.10794 -0.0602,-0.11409 -0.0585,-0.1124 -0.0547,-0.10561 -0.0585,-0.11324 -0.0547,-0.11006 -0.0575,-0.11537 -0.0542,-0.11112 -0.0519,-0.10879 -0.0546,-0.11451 -0.0519,-0.11007 -0.0495,-0.10645 -0.051,-0.1124 -0.0495,-0.10879 -0.0501,-0.11536 -0.0495,-0.11134 -0.0462,-0.10752 -0.0477,-0.11239 -0.0463,-0.11006 -0.0486,-0.11664 -0.0458,-0.11239 -0.0426,-0.10879 -0.0457,-0.11452 -0.0431,-0.10964 -0.0411,-0.10794 -0.0429,-0.11218 -0.0402,-0.10879 -0.0425,-0.11558 -0.0403,-0.11345 -0.0383,-0.10667 -0.0392,-0.11325 -0.0384,-0.11091 -0.0355,-0.10688 -0.0387,-0.11112 -0.0356,-0.10879 -0.0373,-0.11452 -0.0355,-0.1109 -0.0328,-0.10795 -0.0355,-0.11218 -0.0332,-0.10985 -0.0355,-0.11791 -0.0328,-0.11112 -0.0313,-0.10879 -0.0626,-0.22458 -0.0294,-0.10518 -0.0309,-0.11367 -0.0294,-0.10879 -0.03,-0.11664 -0.0284,-0.10985 -0.0272,-0.10773 -0.0285,-0.11451 -0.0276,-0.11007 -0.0251,-0.10539 -0.0268,-0.11091 -0.0251,-0.10922 -0.0257,-0.11536 -0.0257,-0.11112 -0.023,-0.10561 -0.0251,-0.11452 -0.0239,-0.10879 m 0,0.001 -0.0239,-0.11791 -0.0229,-0.10985 -0.022,-0.10901 -0.0224,-0.11451 -0.022,-0.10985 -0.0201,-0.10561 -0.021,-0.11324 -0.02,-0.10879 -0.021,-0.11579 -0.0201,-0.10964 -0.0191,-0.10688 -0.0192,-0.1143 -0.0181,-0.10901 -0.0192,-0.11684 -0.0183,-0.11197 -0.0172,-0.10879 -0.0183,-0.11346 -0.0168,-0.11112 -0.0163,-0.10646 -0.0164,-0.11324 -0.0162,-0.10922 -0.0164,-0.11536 -0.0154,-0.11112 -0.015,-0.10773 -0.0154,-0.11558 -0.0145,-0.10879 -0.0135,-0.10561 -0.014,-0.11218 -0.0135,-0.10794 -0.0135,-0.11537 -0.014,-0.11239 -0.0127,-0.10519 -0.0125,-0.11451 -0.0132,-0.10879 -0.0125,-0.11685 -0.0117,-0.11091 -0.0113,-0.10794 -0.0117,-0.11579 -0.0112,-0.10964 -0.0108,-0.10667 -0.0111,-0.11218 -0.0109,-0.10879 -0.0107,-0.11579 -0.0102,-0.11112 -0.009,-0.10646 -0.0103,-0.11451 -0.01,-0.11006 -0.0103,-0.11685 -0.009,-0.11325 -0.008,-0.10518 -0.009,-0.11579 -0.008,-0.1124 -0.008,-0.10518 -0.009,-0.11451 -0.007,-0.10879 -0.008,-0.11579 -0.007,-0.11113 -0.008,-0.10751 -0.007,-0.11452 -0.007,-0.11133 -0.006,-0.10434 -0.007,-0.11324 -0.007,-0.10773 -0.007,-0.11685 -0.007,-0.11091 -0.006,-0.1054 -0.007,-0.11451 -0.006,-0.11007 -0.006,-0.11451 -0.006,-0.11325 -0.005,-0.10645 -0.006,-0.11579 -0.006,-0.10985 -0.005,-0.10646 -0.006,-0.11239 -0.005,-0.11006 -0.006,-0.11537 -0.004,-0.11239 -0.005,-0.10561 -0.005,-0.11452 -0.005,-0.10964 -0.004,-0.10667 -0.004,-0.11218 -0.004,-0.10879 -0.006,-0.11451 -0.004,-0.11113 -0.003,-0.10561 -0.004,-0.11324 -0.004,-0.11006 -0.004,-0.11664 -0.004,-0.11112 -0.004,-0.10879 -0.003,-0.11218 -0.003,-0.1124 -0.004,-0.10561 -0.003,-0.11324 -0.003,-0.10773 -0.004,-0.1143 -0.003,-0.11219 -0.003,-0.10794 -0.003,-0.11324 -0.003,-0.11006 -0.003,-0.11537 -0.003,-0.11324 -0.003,-0.10688 -0.002,-0.11452 -0.003,-0.11197 -0.002,-0.10667 -0.003,-0.11218 -0.002,-0.11006 -0.003,-0.11452 -0.002,-0.11239 -0.002,-0.10752 -0.002,-0.11452 -0.003,-0.11006 -0.002,-0.10518 -0.002,-0.11134 -0.002,-0.10985 -0.001,-0.11579 -0.002,-0.11091 -0.002,-0.10667 -0.002,-0.11324 -0.002,-0.109 -8.3e-4,-0.11685 -0.002,-0.11197 -8.3e-4,-0.10773 -0.002,-0.11324 -0.002,-0.11113 -0.002,-0.10688 -8.3e-4,-0.11197 -8.4e-4,-0.109 -8.3e-4,-0.11642 -0.002,-0.11134 -8.4e-4,-0.10667 -8.3e-4,-0.11324 -0.001,-0.11006 -0.002,-0.11897 -8.3e-4,-0.11091 -8.3e-4,-0.10879 -8.3e-4,-0.11367 -8.4e-4,-0.11091 -8.3e-4,-0.10667 -4.2e-4,-0.11324 -8.3e-4,-0.11007 -0.002,-0.22775 -8.3e-4,-0.10646 -8.4e-4,-0.11452 -8.3e-4,-0.11006 0,-0.10539"
     class="fil1 str2"
     id="_39579056"
     inkscape:connector-curvature="0"
     style="fill:none;stroke:#28166f;stroke-width:1;stroke-linecap:round;stroke-linejoin:round;stroke-miterlimit:4;stroke-dasharray:none" />
  <path
     style="fill:none;stroke:#28166f;stroke-width:1;stroke-linecap:round;stroke-linejoin:round;stroke-miterlimit:4;stroke-dasharray:none"
     inkscape:connector-curvature="0"
     id="path8380"
     class="fil1 str2"
     d="m 245.91783,381.16314 8.3e-4,-0.14432 9.9e-4,-0.14099 0.002,-0.15182 8.2e-4,-0.14266 0.002,-0.15434 0.002,-0.146 0.002,-0.14098 0.002,-0.15016 9.9e-4,-0.14544 0.002,-0.14015 0.002,-0.14849 0.002,-0.14266 0.003,-0.15322 0.002,-0.14432 0.002,-0.14266 0.002,-0.15017 0.003,-0.14377 0.002,-0.13849 0.003,-0.14849 0.002,-0.13987 0.003,-0.15294 0.002,-0.14322 0.003,-0.14099 0.003,-0.15016 0.002,-0.14265 0.004,-0.15295 0.003,-0.14738 0.003,-0.14265 0.002,-0.15017 0.003,-0.14266 0.003,-0.14126 0.004,-0.14738 0.003,-0.14266 0.004,-0.15295 0.003,-0.14404 0.004,-0.14015 0.004,-0.15268 0.003,-0.14293 0.004,-0.1382 0.005,-0.14711 0.003,-0.14154 0.004,-0.15127 0.005,-0.14571 0.004,-0.13849 0.005,-0.15017 0.004,-0.14265 0.005,-0.15294 0.005,-0.14739 0.005,-0.1396 0.004,-0.15016 0.006,-0.14404 0.005,-0.1396 0.006,-0.14738 0.004,-0.14266 0.007,-0.15017 0.005,-0.14878 0.006,-0.13819 0.006,-0.15017 0.006,-0.14432 0.006,-0.15127 0.007,-0.14851 0.006,-0.13848 0.007,-0.15323 0.007,-0.14432 0.007,-0.1396 0.006,-0.14683 0.007,-0.14432 0.007,-0.15183 0.007,-0.14683 0.008,-0.13987 0.007,-0.15016 0.008,-0.14432 0.007,-0.13849 0.008,-0.1485 0.008,-0.14127 0.009,-0.14988 0.008,-0.14598 0.009,-0.141 0.009,-0.14877 0.009,-0.14405 0.01,-0.15182 0.0102,-0.14545 0.01,-0.14266 0.0103,-0.15015 0.0106,-0.14432 0.009,-0.13822 0.0106,-0.14877 0.0112,-0.14405 0.0117,-0.15016 0.0117,-0.1471 0.0112,-0.13987 0.0125,-0.15017 0.0116,-0.14432 0.0139,-0.15129 0.0117,-0.14738 0.0125,-0.14432 0.015,-0.1485 0.0125,-0.14432 0.0134,-0.14099 0.0139,-0.14877 0.0143,-0.14404 0.0154,-0.14878 0.0143,-0.14849 0.0149,-0.13988 0.0161,-0.15127 0.0154,-0.14432 0.0153,-0.13849 0.0163,-0.1485 0.0167,-0.14154 0.0171,-0.15128 0.0182,-0.14572 0.0162,-0.13959 0.0182,-0.14905 0.018,-0.14377 0.0191,-0.15184 0.02,-0.14849 0.018,-0.14265 0.021,-0.14906 0.02,-0.14377 0.0201,-0.14154 0.0208,-0.14544 0.0209,-0.14432 0.0219,-0.15156 0.0213,-0.1471 0.0228,-0.14154 0.0228,-0.14849 0.0238,-0.14432 0.0218,-0.1396 0.0246,-0.14739 0.0234,-0.14098 0.0256,-0.15017 0.0256,-0.146 0.025,-0.14097 0.0265,-0.14544 0.0266,-0.14432 0.028,-0.15323 0.0283,-0.14543 0.0271,-0.14154 0.0293,-0.15129 0.028,-0.14432 0.0283,-0.13987 0.0308,-0.14711 0.0302,-0.14155 0.0317,-0.15433 0.0317,-0.14432 0.0312,-0.14099 0.0335,-0.1471 0.0317,-0.14433 0.0368,-0.15433 0.0343,-0.146 0.0327,-0.14266 0.0371,-0.15015 0.0353,-0.14405 0.0354,-0.14126 0.0376,-0.14739 0.0362,-0.14266 0.0401,-0.15295 0.039,-0.14571 0.0381,-0.14126 0.0409,-0.1485 0.0405,-0.14571 0.039,-0.1396 0.0418,-0.14598 0.0419,-0.14099 0.0448,-0.15323 0.0436,-0.14432 0.0424,-0.1396 0.0456,-0.15017 0.0456,-0.14266 0.0488,-0.15321 0.0465,-0.14711 0.0461,-0.13988 0.0502,-0.15293 0.049,-0.14433 0.0475,-0.13821 0.0515,-0.15017 0.0503,-0.14126 0.0536,-0.15323 0.0534,-0.14375 0.0512,-0.13988 0.0554,-0.15017 0.0545,-0.14265 0.0526,-0.14127 0.0572,-0.14738 0.0544,-0.14126 0.0601,-0.14988 0.059,-0.14434 0.0563,-0.14126 0.0619,-0.15016 0.0592,-0.14266 0.0646,-0.15017 0.0633,-0.14849 0.0609,-0.13848 0.0665,-0.15266 0.0648,-0.14322 0.0622,-0.1396 0.0675,-0.14849 0.0651,-0.13988 0.0712,-0.15184 0.0689,-0.14849 0.0674,-0.13848 0.0718,-0.14961 0.0707,-0.14432 0.0768,-0.15156 0.0735,-0.14877 0.0716,-0.13821 0.0773,-0.15183 0.0764,-0.1471 0.0726,-0.13682 0.0792,-0.14988 0.0771,-0.14293 0.0829,-0.1499 0.0802,-0.1471 0.0782,-0.13988 0.0841,-0.15015 0.0829,-0.14434 0.0792,-0.13958 0.0865,-0.14739 0.0824,-0.14266 0.0904,-0.15016 0.087,-0.14711 0.0855,-0.1382 0.0907,-0.14878 0.0884,-0.14404 0.0954,-0.15184 0.0926,-0.14682 0.0907,-0.14127 0.0963,-0.14849 0.0935,-0.14739 0.0922,-0.13681 0.0982,-0.15017 0.0953,-0.14126 0.10236,-0.15156 0.0992,-0.1471 0.0973,-0.14154 0.1029,-0.14849 0.10183,-0.14433 0.10799,-0.15128 0.1057,-0.14738 0.10184,-0.14265 0.10895,-0.15017 0.10693,-0.1471 0.1029,-0.13682 0.1107,-0.14988 0.10747,-0.14433 0.11546,-0.1485 0.11169,-0.14877 0.10842,-0.13987 0.1168,-0.15127 0.11316,-0.14434 0.10975,-0.13682 0.11722,-0.15015 0.11363,-0.14155 0.12276,-0.1496 0.11819,-0.146 0.11546,-0.14099 0.12242,-0.14904 0.11906,-0.14377 0.12848,-0.15184 0.12339,-0.14682 0.12091,-0.14155 0.12892,-0.15016 0.12461,-0.14544 0.12109,-0.13849 0.12892,-0.14849 0.12558,-0.14265 0.13454,-0.15323 0.1298,-0.14432 0.12513,-0.14127 0.13456,-0.14988 0.13111,-0.14432 0.12628,-0.1396 0.13534,-0.146 0.13068,-0.14097 0.14008,-0.15184 0.13552,-0.14572 0.13068,-0.13959 0.14009,-0.14739 0.13639,-0.14432 0.14475,-0.15268 0.14043,-0.1471 0.13587,-0.13987 0.14528,-0.15016 0.14096,-0.14432 0.13552,-0.14127 0.14413,-0.14572 0.14105,-0.14266 0.14888,-0.15127 0.14563,-0.14598 0.14009,-0.14099 0.14985,-0.14906 0.14422,-0.14377 0.15407,-0.15322 0.14887,-0.14544 0.14432,-0.14321 0.15398,-0.14849 0.148,-0.14543 0.14334,-0.14156 0.15354,-0.14543 0.148,-0.14432 0.15776,-0.15323 0.1517,-0.14544 0.14695,-0.14154 0.15653,-0.14849 0.15169,-0.14432 0.14563,-0.13793 0.1554,-0.14738 0.14984,-0.14433 0.16014,-0.15128 0.15442,-0.14571 0.14896,-0.14015 0.15865,-0.1485 0.15223,-0.14266 0.16276,-0.15293 0.15742,-0.14573 0.15169,-0.14265 0.16094,-0.15016 0.15547,-0.14432 0.14984,-0.13794 0.15909,-0.15015 0.15266,-0.14017 0.16331,-0.15432 0.15732,-0.14434 0.15169,-0.14098 0.16111,-0.15017 0.15441,-0.14265 0.16569,-0.15323 0.15908,-0.14876 0.15169,-0.13988 0.16296,-0.15128 0.15591,-0.14571 0.1502,-0.1396 0.15961,-0.14905 0.15355,-0.14265 0.16294,-0.15295 0.15724,-0.14571 0.15073,-0.14127 0.16013,-0.15017 0.15355,-0.14404 0.148,-0.13848 0.15724,-0.1485 0.15037,-0.14266 0.16004,-0.15015 0.15311,-0.146 0.148,-0.13959 0.15688,-0.14989 0.14985,-0.14293 0.15961,-0.15434 0.15205,-0.14572 0.14712,-0.14126 0.15495,-0.15016 0.14897,-0.14572 0.14326,-0.13959 0.15125,-0.1485 0.1451,-0.14321 0.15354,-0.14961 0.14712,-0.14738 0.14097,-0.13961 0.14949,-0.15015 0.14326,-0.146 0.13639,-0.1382 0.14519,-0.14711 0.13904,-0.14154 0.14614,-0.15128 0.14009,-0.14738 0.13446,-0.13793 0.14194,-0.14905 0.13543,-0.14377 0.14377,-0.15184 0.13639,-0.14681 0.13129,-0.14016 0.13807,-0.15155 0.13129,-0.14432 0.12664,-0.13794 0.13349,-0.14737 0.12611,-0.14434 0.13401,-0.15127 0.12796,-0.14571 0.12144,-0.13849 0.12848,-0.15016 0.12241,-0.14711 0.12839,-0.15156 0.12329,-0.1471 0.11634,-0.13987 0.12338,-0.15127 0.11671,-0.146 0.11176,-0.13988 0.11723,-0.14684 0.1108,-0.14432 0.11731,-0.15127 0.11115,-0.14739 0.10606,-0.1396 0.1108,-0.15016 0.10571,-0.14432 0.1,-0.13987 0.10421,-0.14712 0.0996,-0.14265 0.10439,-0.15016 0.0991,-0.14571 0.0926,-0.13849 0.0982,-0.15017 0.0926,-0.14377 0.0965,-0.15321 0.0921,-0.14878 0.0861,-0.13821 0.0902,-0.15127 0.0852,-0.14599 0.0802,-0.13821 0.0833,-0.14878 0.0786,-0.14265 0.0824,-0.15016 0.077,-0.1485 0.0726,-0.13987 0.0755,-0.14711 0.0707,-0.14432 0.0665,-0.13988 0.0679,-0.1471 0.0648,-0.14404 0.0665,-0.14878 0.0613,-0.14405 0.0584,-0.14126 0.06,-0.1485 0.0554,-0.14432 0.0573,-0.1485 0.053,-0.14904 0.0494,-0.14266 0.0502,-0.1485 0.0464,-0.14544 0.0429,-0.13848 0.0436,-0.14738 0.0401,-0.14432 0.04,-0.14851 0.0372,-0.1471 0.0335,-0.14099 0.0335,-0.14737 0.0307,-0.14433 0.0304,-0.15294 0.0266,-0.14683 0.0241,-0.14322 0.0234,-0.14961 0.0204,-0.14432 0.0171,-0.14154 0.0173,-0.1471 0.0143,-0.14265 0.0131,-0.15156 0.01,-0.14711 0.008,-0.13987 0.003,-0.0734 0.003,-0.0767 0.002,-0.0751 0.002,-0.0692 4.1e-4,-0.0337 0,-0.0367 8.3e-4,-0.0384 0,-0.0206 8.3e-4,-0.0176 0,-0.14294 -8.3e-4,-0.0382 -8.3e-4,-0.0308 -4.1e-4,-0.0779 -0.002,-0.0751 -0.002,-0.0665 -0.006,-0.14711 -0.009,-0.13987 -0.0107,-0.15128 -0.0122,-0.14432 -0.0143,-0.13988 -0.0163,-0.1471 -0.0181,-0.14154 -0.0219,-0.15128 -0.0219,-0.1446 -0.0241,-0.14099 -0.0275,-0.15017 -0.0284,-0.14266 -0.0326,-0.15293 -0.0327,-0.14739 -0.0335,-0.14127 -0.0386,-0.15016 -0.0387,-0.14404 -0.039,-0.14127 -0.0438,-0.14572 -0.0447,-0.14432 -0.0479,-0.15127 -0.0497,-0.14739 -0.0485,-0.13959 -0.055,-0.15017 -0.0535,-0.14266 -0.0545,-0.13848 -0.0582,-0.15016 -0.0597,-0.14099 -0.0636,-0.15183 -0.0643,-0.14405 -0.0633,-0.13848 -0.0689,-0.15016 -0.0692,-0.14266 -0.0746,-0.15295 -0.0734,-0.14571 -0.0736,-0.14126 -0.0786,-0.15017 -0.0781,-0.14405 -0.0768,-0.14015 -0.0839,-0.14849 -0.0818,-0.14127 -0.0889,-0.15156 -0.0875,-0.1471 -0.0857,-0.13987 -0.0934,-0.15016 -0.0907,-0.14266 -0.19549,-0.30144 -0.0945,-0.14155 -0.10236,-0.14849 -0.10007,-0.14544 -0.0973,-0.13987 -0.10561,-0.14877 -0.10333,-0.14266 -0.11081,-0.15322 -0.21404,-0.28699 -0.11344,-0.15016 -0.11133,-0.14265 -0.10834,-0.13792 -0.11687,-0.15017 -0.113,-0.13988 -0.12207,-0.15183 -0.11906,-0.14683 -0.11582,-0.13849 -0.12373,-0.15015 -0.121,-0.14434 -0.12936,-0.1496 -0.12663,-0.14738 -0.12241,-0.14126 -0.13218,-0.15156 -0.12706,-0.14433 -0.12462,-0.1396 -0.1327,-0.14737 -0.1298,-0.14432 -0.13772,-0.14962 -0.13454,-0.14738 -0.13024,-0.1396 -0.13964,-0.15016 -0.13587,-0.14433 -0.13033,-0.13681 -0.14053,-0.1485 -0.13621,-0.14154 -0.1458,-0.15127 -0.14044,-0.146 -0.13639,-0.1382 -0.14661,-0.1485 -0.14096,-0.14433 -0.15081,-0.15183 -0.14616,-0.14544 -0.14193,-0.14265 -0.15073,-0.14849 -0.14607,-0.14599 -0.14096,-0.13821 -0.15082,-0.1471 -0.14615,-0.14434 -0.15592,-0.15015 -0.14985,-0.14573 -0.14562,-0.14097 -0.30524,-0.29144 -0.15917,-0.15322 -0.1545,-0.14711 -0.14836,-0.14265 -0.15874,-0.14849 -0.15354,-0.14571 -0.14703,-0.14017 -0.15776,-0.14682 -0.15169,-0.14432 -0.16243,-0.15017 -0.15592,-0.14849 -0.15037,-0.13959 -0.15996,-0.14906 -0.15504,-0.14543 -0.14889,-0.13849 -0.1582,-0.14682 -0.1531,-0.14266 -0.16198,-0.15017 -0.15671,-0.14571 -0.15038,-0.14015 -0.16093,-0.14851 -0.15459,-0.14265 -0.16374,-0.15294 -0.1583,-0.14739 -0.15204,-0.14126 -0.16199,-0.14849 -0.15591,-0.14572 -0.14932,-0.1396 -0.15926,-0.14737 -0.15354,-0.14266 -0.16199,-0.15183 -0.15626,-0.14377 -0.15082,-0.14321 -0.16014,-0.1485 -0.15353,-0.14378 -0.16235,-0.15321 -0.15723,-0.14711 -0.15038,-0.14266 -0.15961,-0.15015 -0.15353,-0.14432 -0.14801,-0.13988 -0.15688,-0.1485 -0.14985,-0.14127 -0.15908,-0.15433 -0.15354,-0.146 -0.14668,-0.14097 -0.15672,-0.14906 -0.14896,-0.14543 -0.14378,-0.13849 -0.15223,-0.14683 -0.14614,-0.14154 -0.1554,-0.15434 -0.14835,-0.14432 -0.14246,-0.1396 -0.15169,-0.15015 -0.14432,-0.14266 -0.15354,-0.15184 -0.14747,-0.14682 -0.14106,-0.14156 -0.14984,-0.15127 -0.14229,-0.1432 -0.13736,-0.14099 -0.14563,-0.146 -0.14008,-0.14376 -0.14705,-0.15183 -0.14193,-0.14683 -0.13446,-0.14015 -0.14333,-0.1499 -0.13737,-0.14293 -0.13217,-0.13821 -0.13859,-0.14876 -0.13261,-0.14099 -0.14097,-0.15156 -0.13455,-0.14433 -0.12927,-0.14126 -0.13639,-0.14849 -0.13077,-0.14266 -0.13823,-0.15183 -0.13165,-0.14683 -0.12619,-0.14321 -0.13446,-0.1485 -0.12752,-0.14543 -0.12188,-0.13849 -0.12979,-0.14738 -0.12339,-0.14265 -0.13032,-0.15127 -0.12426,-0.14739 -0.12004,-0.13849 -0.12557,-0.14961 -0.1211,-0.1432 -0.1261,-0.15295 -0.12276,-0.14849 -0.11546,-0.13988 -0.12242,-0.15128 -0.11722,-0.14266 -0.11212,-0.14154 -0.1182,-0.15016 -0.11265,-0.1396 -0.11862,-0.15489 -0.11406,-0.14543 -0.10887,-0.14154 -0.1145,-0.14961 -0.10931,-0.14322 -0.10332,-0.1396 -0.11116,-0.14849 -0.10421,-0.13988 -0.1108,-0.15183 -0.10658,-0.14683 -0.10096,-0.13848 -0.10614,-0.15016 -0.10183,-0.14377 -0.10659,-0.15016 -0.10147,-0.14739 -0.0983,-0.14126 -0.10281,-0.14988 -0.0972,-0.146 -0.0936,-0.13681 -0.0982,-0.15017 -0.0936,-0.14265 -0.0992,-0.15128 -0.0935,-0.146 -0.0902,-0.13987 -0.0945,-0.14961 -0.0899,-0.14432 -0.0945,-0.15322 -0.0903,-0.14849 -0.086,-0.13849 -0.0899,-0.15128 -0.0865,-0.14738 -0.0828,-0.13849 -0.0861,-0.15015 -0.0828,-0.14266 -0.0865,-0.15128 -0.0823,-0.14738 -0.0783,-0.1396 -0.0829,-0.15156 -0.0782,-0.14432 -0.0754,-0.13682 -0.0782,-0.15016 -0.0754,-0.14265 -0.0792,-0.15017 -0.0744,-0.14544 -0.0718,-0.13848 -0.0749,-0.15016 -0.0716,-0.14433 -0.0744,-0.15155 -0.0718,-0.14849 -0.0674,-0.14127 -0.0716,-0.15017 -0.0675,-0.14571 -0.0643,-0.13848 -0.0683,-0.1485 -0.0647,-0.14433 -0.067,-0.14961 -0.0646,-0.14598 -0.0619,-0.14266 -0.0633,-0.14849 -0.0609,-0.14433 -0.0582,-0.13681 -0.0609,-0.15017 -0.0583,-0.14154 -0.0599,-0.14961 -0.0583,-0.14739 -0.0545,-0.13848 -0.0583,-0.14849 -0.0545,-0.14432 -0.0573,-0.15129 -0.054,-0.14571 -0.0517,-0.14266 -0.0544,-0.15015 -0.0517,-0.14434 -0.0493,-0.13958 -0.0508,-0.14739 -0.0493,-0.14266 -0.0499,-0.15127 -0.0493,-0.146 -0.046,-0.14099 -0.0475,-0.14738 -0.0461,-0.14432 -0.0484,-0.15295 -0.0456,-0.14737 -0.0424,-0.14266 -0.0455,-0.15017 -0.0429,-0.14377 -0.0409,-0.14154 -0.0427,-0.1471 -0.04,-0.14266 -0.0423,-0.15156 -0.0401,-0.14876 -0.0381,-0.13988 -0.039,-0.1485 -0.0382,-0.14544 -0.0353,-0.14015 -0.0385,-0.14571 -0.0354,-0.14266 -0.0371,-0.15017 -0.0354,-0.14542 -0.0327,-0.14155 -0.0353,-0.1471 -0.0331,-0.14405 -0.0353,-0.15462 -0.0327,-0.14571 -0.0312,-0.14265 -0.0623,-0.29449 -0.0293,-0.13792 -0.0308,-0.14906 -0.0293,-0.14266 -0.0299,-0.15294 -0.0283,-0.14405 -0.0271,-0.14127 -0.0284,-0.15015 -0.0275,-0.14434 -0.025,-0.13819 -0.0267,-0.14544 -0.025,-0.14322 -0.0256,-0.15127 -0.0256,-0.14571 -0.0229,-0.13849 -0.025,-0.15017 -0.0238,-0.14265 m 0,10e-4 -0.0238,-0.15462 -0.0228,-0.14404 -0.0219,-0.14295 -0.0223,-0.15015 -0.0219,-0.14405 -0.02,-0.13848 -0.0209,-0.1485 -0.0199,-0.14265 -0.0209,-0.15184 -0.02,-0.14377 -0.019,-0.14015 -0.0191,-0.14988 -0.018,-0.14294 -0.0191,-0.15322 -0.0182,-0.14682 -0.0171,-0.14266 -0.0182,-0.14878 -0.0167,-0.14571 -0.0162,-0.1396 -0.0163,-0.14849 -0.0161,-0.14322 -0.0163,-0.15127 -0.0153,-0.14571 -0.0149,-0.14127 -0.0153,-0.15156 -0.0144,-0.14265 -0.0134,-0.13849 -0.0139,-0.1471 -0.0134,-0.14154 -0.0135,-0.15128 -0.0139,-0.14738 -0.0126,-0.13794 -0.0125,-0.15015 -0.0131,-0.14266 -0.0124,-0.15322 -0.0117,-0.14544 -0.0113,-0.14154 -0.0117,-0.15183 -0.0112,-0.14378 -0.0108,-0.13987 -0.0111,-0.1471 -0.0109,-0.14266 -0.0106,-0.15183 -0.0102,-0.14571 -0.009,-0.1396 -0.0103,-0.15016 -0.01,-0.14432 -0.0103,-0.15323 -0.009,-0.1485 -0.008,-0.13792 -0.009,-0.15184 -0.008,-0.14739 -0.008,-0.13792 -0.009,-0.15016 -0.007,-0.14265 -0.008,-0.15184 -0.007,-0.14572 -0.008,-0.14098 -0.007,-0.15017 -0.007,-0.14598 -0.006,-0.13682 -0.007,-0.1485 -0.007,-0.14126 -0.007,-0.15323 -0.007,-0.14543 -0.006,-0.13821 -0.007,-0.15016 -0.006,-0.14433 -0.006,-0.15016 -0.006,-0.1485 -0.005,-0.13959 -0.006,-0.15184 -0.006,-0.14404 -0.005,-0.1396 -0.006,-0.14738 -0.005,-0.14432 -0.006,-0.15128 -0.004,-0.14738 -0.005,-0.13849 -0.005,-0.15017 -0.005,-0.14377 -0.004,-0.13987 -0.004,-0.1471 -0.004,-0.14266 -0.006,-0.15016 -0.004,-0.14572 -0.003,-0.13849 -0.004,-0.14849 -0.004,-0.14432 -0.004,-0.15295 -0.004,-0.14571 -0.004,-0.14265 -0.003,-0.14711 -0.003,-0.14738 -0.004,-0.13849 -0.003,-0.14849 -0.003,-0.14127 -0.004,-0.14988 -0.003,-0.14711 -0.003,-0.14154 -0.003,-0.1485 -0.003,-0.14432 -0.003,-0.15128 -0.003,-0.14849 -0.003,-0.14015 -0.002,-0.15017 -0.003,-0.14683 -0.002,-0.13987 -0.003,-0.1471 -0.002,-0.14433 -0.003,-0.15017 -0.002,-0.14737 -0.002,-0.14099 -0.002,-0.15017 -0.003,-0.14432 -0.002,-0.13793 -0.002,-0.14599 -0.002,-0.14405 -0.001,-0.15184 -0.002,-0.14543 -0.002,-0.13988 -0.002,-0.14849 -0.002,-0.14293 -8.3e-4,-0.15322 -0.002,-0.14683 -8.3e-4,-0.14127 -0.002,-0.14849 -0.002,-0.14572 -0.002,-0.14015 -8.3e-4,-0.14683 -8.3e-4,-0.14293 -8.3e-4,-0.15266 -0.002,-0.146 -8.4e-4,-0.13988 -8.3e-4,-0.14849 -9.9e-4,-0.14432 -0.002,-0.156 -8.3e-4,-0.14544 -8.3e-4,-0.14265 -8.2e-4,-0.14906 -8.4e-4,-0.14543 -8.2e-4,-0.13988 -4.2e-4,-0.14849 -8.3e-4,-0.14434 -0.002,-0.29864 -8.3e-4,-0.1396 -8.3e-4,-0.15017 -8.3e-4,-0.14432 0,-0.1382" />
  <text
     xml:space="preserve"
     style="font-size:12px;font-style:normal;font-variant:normal;font-weight:normal;font-stretch:normal;text-indent:0;text-align:start;text-decoration:none;line-height:125%;letter-spacing:0px;word-spacing:0px;text-transform:none;direction:ltr;block-progression:tb;writing-mode:lr-tb;text-anchor:start;color:#000000;fill:#000000;fill-opacity:1;fill-rule:nonzero;stroke:none;stroke-width:1px;marker:none;visibility:visible;display:inline;overflow:visible;enable-background:accumulate;font-family:Arial;-inkscape-font-specification:Arial"
     x="229.71516"
     y="394.43781"
     id="text8382"
     sodipodi:linespacing="125%"><tspan
       sodipodi:role="line"
       id="tspan8384"
       x="229.71516"
       y="394.43781">Spreads out</tspan><tspan
       sodipodi:role="line"
       x="229.71516"
       y="409.43781"
       id="tspan8386">over time</tspan></text>
  <text
     xml:space="preserve"
     style="font-size:12px;font-style:normal;font-variant:normal;font-weight:normal;font-stretch:normal;text-indent:0;text-align:start;text-decoration:none;line-height:125%;letter-spacing:0px;word-spacing:0px;text-transform:none;direction:ltr;block-progression:tb;writing-mode:lr-tb;text-anchor:start;color:#000000;fill:#000000;fill-opacity:1;fill-rule:nonzero;stroke:none;stroke-width:1px;marker:none;visibility:visible;display:inline;overflow:visible;enable-background:accumulate;font-family:Arial;-inkscape-font-specification:Arial"
     x="288.56195"
     y="257.95578"
     id="text8388"
     sodipodi:linespacing="125%"><tspan
       sodipodi:role="line"
       x="288.56195"
       y="257.95578"
       id="tspan8392">each wave-</tspan><tspan
       sodipodi:role="line"
       x="288.56195"
       y="272.95581"
       id="tspan8396">packet remains</tspan><tspan
       sodipodi:role="line"
       x="288.56195"
       y="287.95581"
       id="tspan8398">tightly localized</tspan></text>
  <path
     inkscape:connector-curvature="0"
     id="path1156"
     style="fill:none;stroke:#000000;stroke-width:0.5;stroke-linecap:butt;stroke-linejoin:round;stroke-miterlimit:10;stroke-opacity:1;stroke-dasharray:none"
     d="m 274.13928,261.5572 -9.5e-4,0.0847 m 10.39734,8.02957 c 0.11853,-0.012 0.23706,-0.024 0.35558,-0.0359 m -10.76488,-8.2424 0.009,0.0813 m -0.041,-0.23897 0.018,0.0782 m 2.17547,10.30231 c 0.33722,-0.0859 0.67444,-0.17174 1.01167,-0.25752 m -2.96834,0.75023 c 0.32059,-0.0803 0.64118,-0.1605 0.96181,-0.24067 m -1.24765,-10.78443 0.0262,0.0755 m -1.50228,11.37657 c 0.28298,-0.0676 0.56597,-0.1351 0.84899,-0.20255 m -2.30198,0.52505 0.34079,-0.073 0.34077,-0.073 m 2.18476,-11.77579 0.0332,0.0731 m -3.95195,12.03584 0.23587,-0.0376 0.23586,-0.0376 m -1.062,0.10606 c 0.0782,0.002 0.15645,0.003 0.23471,0.005 m 4.20173,-12.28884 0.0375,0.0717 m -4.57274,12.0771 -0.0125,0.0886 m 0.39923,-0.38772 c -0.0841,0.0565 -0.16823,0.1131 -0.25237,0.16961 m 4.32102,-12.16064 0.0405,0.0706 m -3.27659,11.47059 -0.23415,0.12124 -0.23414,0.12124 m 1.67661,-0.81937 -0.32286,0.15122 -0.32287,0.15121 m 2.59028,-11.40728 0.0419,0.0702 m -0.49685,10.36277 c -0.25777,0.11518 -0.51554,0.23036 -0.77328,0.34564 m 2.43262,-1.07482 c -0.28118,0.1231 -0.56235,0.24618 -0.84349,0.36937 m -0.44448,-10.21328 0.0418,0.0702 m 2.95575,9.02757 c -0.28447,0.12421 -0.56893,0.24841 -0.85337,0.37271 m 2.49348,-1.09531 c -0.26813,0.11868 -0.53626,0.23736 -0.80435,0.35614 m 2.26593,-1.0185 -0.35108,0.16075 -0.35108,0.16076 m 1.89166,-0.89204 -0.27794,0.13604 -0.27794,0.13604 m 1.40363,-0.72712 -0.1889,0.10594 -0.18891,0.10595 m 0.84071,-0.5369 c -0.0606,0.0485 -0.12116,0.0971 -0.18172,0.14575 m 0.24507,-0.33563 0.018,0.0783 m -0.33915,-0.13822 c 0.069,0.005 0.13793,0.01 0.20687,0.0144 m -0.87326,0.0423 c 0.12427,-0.0139 0.24858,-0.0277 0.37284,-0.0416 m -1.32237,0.19404 0.25277,-0.0433 0.25278,-0.0433 m -1.6606,0.30833 0.29896,-0.0589 0.29897,-0.0589 m -1.87222,0.37983 0.32308,-0.0671 0.32308,-0.0671 m -1.94969,0.40611 0.3249,-0.0677 0.32491,-0.0677 m -1.89726,0.38837 0.30589,-0.0612 0.30589,-0.0613 m -1.72842,0.33133 0.2689,-0.0487 0.26888,-0.0488 m -1.46272,0.24155 0.21779,-0.0315 0.21778,-0.0315 m 7.49433,15.077 0.0293,0.0743 m -0.0914,-0.22182 0.0322,0.0734 m -8.59077,-14.87492 c 0.10484,-0.007 0.20966,-0.0147 0.3145,-0.022 m 8.17692,14.67782 0.0341,0.0727 m -0.10753,-0.21639 0.0372,0.0717 m -8.88994,-14.60531 0.096,0.0114 0.0884,0.0105 m 8.59037,14.36959 0.0395,0.0709 m -0.1208,-0.2119 0.0413,0.0703 m -8.90873,-14.43045 0.0552,0.0656 m 8.72875,14.15432 0.0419,0.0701 m -0.12505,-0.21047 0.0413,0.0703 m -8.67149,-14.3421 -0.0502,0.0826 -0.0141,0.0233 m 8.61485,14.02431 0.0392,0.071 m -0.11199,-0.21489 0.0354,0.0723 m -8.22803,-14.32343 c -0.0556,0.0469 -0.11118,0.0937 -0.16678,0.14059 m 8.29682,13.96326 0.0293,0.0743 m -0.0785,-0.22618 0.0227,0.0766 m -7.64726,-14.35119 c -0.0822,0.0559 -0.16444,0.11173 -0.24665,0.16758 m 7.83945,13.9493 0.0137,0.0796 m -0.0266,-0.24372 0.004,0.0829 M 273.45716,266.844 c -0.10015,0.0619 -0.20031,0.12384 -0.30047,0.18577 m 7.30996,13.9597 -0.006,0.0863 m 0.0327,-0.26378 -0.0157,0.0895 m -6.37602,-14.44372 c -0.10906,0.0649 -0.21813,0.12986 -0.32719,0.19479 m 6.76274,13.97611 -0.0239,0.0923 m 0.0807,-0.27999 -0.0291,0.0923 0,0 -3.1e-4,0.002 m -5.80454,-14.46832 c -0.10918,0.065 -0.21836,0.12994 -0.32755,0.19492 m 6.22508,13.98928 -0.0309,0.0916 0,0 -9.3e-4,0.003 m 0.0936,-0.28437 -0.0293,0.0922 0,0 -3.1e-4,0.002 m -5.30613,-14.46821 c -0.10145,0.0624 -0.20289,0.12471 -0.30433,0.18707 m 5.69086,14.00128 -0.0232,0.0921 m 0.0517,-0.27019 -0.0107,0.0879 m -4.85735,-14.45137 c -0.0872,0.0575 -0.17444,0.11509 -0.26166,0.17265 m 5.12545,14.02383 0.007,0.0819 m -0.0542,-0.2344 0.0294,0.0744 m -4.40697,-14.43512 c -0.0682,0.0511 -0.13638,0.10224 -0.20457,0.15336 m 4.48351,14.07223 0.0561,0.0654 m -0.21136,-0.18139 0.0809,0.053 0.004,0.003 m -3.89752,-14.43877 -0.0703,0.0664 0,0 -0.0684,0.0646 m 3.73731,14.15588 0.0898,0.0359 0,0 0.0244,0.01 m -0.38424,-0.12297 0.0936,0.0241 0.048,0.0124 m -3.29643,-14.47336 -0.0525,0.0812 0,0 -0.0171,0.0265 m 2.90617,14.26822 0.0953,0.0167 0.0692,0.0121 m -0.51813,-0.0777 0.0958,0.0125 0.0842,0.0109 m -2.62523,-14.53166 -0.002,0.0851 m 2.07694,14.37992 0.0961,0.011 0.0901,0.0103 m -0.55169,-0.0664 0.0959,0.0123 0.0847,0.011 m -1.9766,-14.58232 0.0581,0.0646 m 1.40292,14.43915 0.0952,0.0173 0.0668,0.0123 m -0.43949,-0.10431 0.0924,0.0288 0,0 0.0376,0.0117 m -1.50741,-14.57236 0.0887,0.0385 0.0203,0.009 m 1.07445,14.38163 0.081,0.0529 0,0 0.004,0.003 m -0.17207,-0.19467 0.0284,0.0747 m -1.40287,-14.43917 0.0942,0.0219 0,0 0.0535,0.0124 m 1.26438,14.14894 -0.0335,0.0907 -0.002,0.006 m 0.20918,-0.32349 -0.0635,0.0729 0,0 -0.0406,0.0466 m -1.81658,-14.13087 0.0957,0.0142 0.0773,0.0116 m 2.05893,13.71195 c -0.0574,0.0475 -0.11492,0.095 -0.17235,0.14258 m 0.6115,-0.45945 c -0.0782,0.0545 -0.15636,0.1091 -0.23455,0.16359 m -2.80194,-13.62939 0.096,0.0112 0.0888,0.0104 m 3.39838,13.09082 c -0.095,0.0602 -0.19008,0.12039 -0.28508,0.18067 m 0.90835,-0.55975 c -0.10622,0.064 -0.21244,0.12795 -0.31863,0.19201 m -4.25826,-12.96876 0.096,0.0114 0.0884,0.0105 m 5.05047,12.36403 c -0.11017,0.0653 -0.22035,0.13062 -0.33049,0.19602 m 0.97492,-0.58226 c -0.10575,0.0638 -0.21149,0.12762 -0.3172,0.19153 m -5.9156,-12.24022 0.0956,0.0141 0,0 0.0777,0.0114 m 6.63688,11.65946 c -0.0923,0.0593 -0.18462,0.11854 -0.2769,0.17791 m 0.73341,-0.50065 c -0.0699,0.0517 -0.1399,0.10343 -0.20982,0.15524 m -7.3751,-11.57852 0.0946,0.0199 0,0 0.0591,0.0124 m 7.71605,11.12629 -0.0667,0.0701 0,0 -0.0515,0.0541 m 0.1887,-0.31658 -0.006,0.0865 m -8.20414,-11.12986 0.0921,0.0293 0.0362,0.0116 m 7.90766,10.89294 0.0907,0.0335 0,0 0.0285,0.0105 m -0.55358,-0.0657 c 0.0834,-9e-5 0.16663,-1.5e-4 0.24998,-1.3e-4 m -8.06557,-11.00817 0.0863,0.0438 0.0135,0.007 m 7.02459,11.02281 c 0.1256,-0.0144 0.2512,-0.0287 0.37682,-0.043 m -1.30195,0.18722 0.24479,-0.0406 0.2448,-0.0406 m -6.84403,-11.25243 0.0704,0.0606 m 5.16746,11.48194 0.28941,-0.0557 0.28942,-0.0557 m -1.82646,0.36446 0.31786,-0.0653 0.31785,-0.0653 m -4.72446,-11.80015 0.0424,0.07 m 2.74307,12.13268 0.32673,-0.0683 0.32673,-0.0683 m -1.92729,0.39853 0.31383,-0.0639 0.31383,-0.0639 m -2.18655,-12.48925 0.018,0.0783 m 0.38613,12.7606 0.27856,-0.052 0.27856,-0.052 m -1.50676,0.25656 0.22193,-0.0329 0.22191,-0.0329 m 0.0974,-13.09249 -0.003,0.0852 m -1.20489,13.12971 c 0.0978,-0.005 0.19562,-0.01 0.29341,-0.0149 m -0.61472,-0.045 0.0899,0.0357 0,0 0.0246,0.01 m 1.44268,-13.37859 -0.0176,0.0903 m -1.47584,13.05276 -0.057,0.0781 0,0 -0.0245,0.0336 m 0.54437,-0.43666 c -0.0937,0.0598 -0.18743,0.11949 -0.28114,0.17924 m 1.36209,-13.18283 -0.027,0.0928 0,0 -2.1e-4,4.2e-4 m -0.2059,12.45512 -0.235,0.12153 -0.235,0.12152 m 1.6597,-0.81356 -0.3169,0.1492 -0.3169,0.1492 m -0.26113,-12.46582 -0.0305,0.0918 -10e-4,0.003 m 2.38809,11.41005 c -0.25315,0.11362 -0.5063,0.22724 -0.75945,0.34086 m 2.39999,-1.06336 c -0.27867,0.12224 -0.55735,0.24449 -0.83602,0.36674 m -3.09757,-11.33883 -0.0303,0.0918 0,0 -10e-4,0.003 m 5.6743,10.13109 c -0.28534,0.1245 -0.57068,0.249 -0.85603,0.3735 m 2.5154,-1.10272 c -0.27195,0.11998 -0.54391,0.23995 -0.81585,0.35992 m -6.42978,-10.04431 -0.027,0.0929 0,0 -2.2e-4,4.2e-4 m 8.76234,8.91909 c -0.23877,0.10876 -0.47754,0.21752 -0.71631,0.32628 m 1.92433,-0.90297 -0.2813,0.13717 -0.28129,0.13717 m -9.33707,-8.89339 -0.02,0.0911 m 10.75225,8.07817 -0.18216,0.10367 -0.18216,0.10367 m 0.75114,-0.50655 -0.0696,0.0671 0,0 -0.0648,0.0625 m -10.95805,-8.17712 -0.011,0.088 m 11.00466,7.82435 0.0891,0.0373 0.0221,0.009 m -11.12461,-8.37358 0.0137,0.0796 m -0.70774,10.93968 c 0.30427,-0.0747 0.60855,-0.14948 0.91283,-0.22423 m -0.31564,-11.09929 0.0293,0.0743 m -3.50998,11.88657 0.29052,-0.056 0.29051,-0.056 m -1.75429,0.17157 0.0892,0.0374 0,0 0.022,0.009 m 4.39723,-12.35482 0.0392,0.071 m -3.78405,11.64217 -0.18216,0.10367 -0.18216,0.10367 m 2.75734,-1.35298 c -0.23876,0.10875 -0.47752,0.21751 -0.71628,0.32627 m 1.90268,-11.17485 0.0419,0.0701 m 2.0604,9.33022 c -0.28534,0.1245 -0.57068,0.249 -0.85603,0.3735 m 4.10977,-1.80998 c -0.25314,0.11361 -0.50628,0.22723 -0.75941,0.34084 m 3.12127,-1.47595 -0.23502,0.12153 -0.235,0.12152 m 1.39217,-0.89167 -0.057,0.0782 -0.0245,0.0336 m -0.55133,-0.23493 c 0.0978,-0.005 0.19558,-0.01 0.29337,-0.0149 m -2.17239,0.31284 0.27856,-0.052 0.27856,-0.052 m -3.08222,0.62028 0.32674,-0.0683 0.32673,-0.0683 m -3.12939,0.63622 0.28941,-0.0557 0.28942,-0.0557 m 5.91699,15.4414 0.0275,0.0751 m -8.36375,-15.12023 c 0.12559,-0.0144 0.2512,-0.0287 0.37682,-0.043 m 7.83459,14.79341 0.0332,0.0731 m -0.17913,-0.3608 0.0385,0.0713 m -8.97195,-14.57769 0.0907,0.0335 0,0 0.0285,0.0105 m 8.65147,14.18035 0.0417,0.0702 m -0.20745,-0.35122 0.0405,0.0706 m -8.5121,-14.39606 -0.0667,0.0701 0,0 -0.0515,0.0541 m 8.44469,13.9132 0.0332,0.0731 m -0.12967,-0.37751 0.018,0.0783 m -7.34781,-14.45246 c -0.0923,0.0593 -0.18466,0.11856 -0.27695,0.17793 m 7.58083,13.86808 -10e-4,0.0847 m 0.0538,-0.43951 -0.02,0.0911 m -6.06118,-14.5502 c -0.11017,0.0653 -0.22036,0.13062 -0.33049,0.19602 m 6.52355,13.88832 -0.0303,0.0918 0,0 -0.001,0.003 m 0.15216,-0.47275 -0.027,0.0928 0,0 -2e-4,4.3e-4 m -5.05108,-14.5545 c -0.095,0.0602 -0.19007,0.12038 -0.28508,0.18067 m 5.41747,13.92506 -0.003,0.0852 m -0.094,-0.38946 0.0424,0.0699 m -4.20503,-14.50336 c -0.0574,0.0475 -0.11492,0.095 -0.17235,0.14258 m 4.02392,14.05903 0.0862,0.0437 0.0135,0.007 m -0.63773,-0.20574 0.0946,0.0198 0,0 0.0591,0.0124 m -3.11926,-14.53323 -0.0334,0.0907 -0.002,0.006 m 2.29864,14.30499 0.096,0.0114 0.0884,0.0105 m -0.90898,-0.11408 0.0957,0.0142 0.0773,0.0116 m -1.88102,-14.61463 0.0809,0.053 0.004,0.003 m 1.0745,14.38164 0.0887,0.0385 0.0203,0.009 m -0.27856,-0.32711 -0.002,0.0851 m -1.53603,-14.39419 0.0952,0.0174 0.0668,0.0122 m 1.72457,13.82493 -0.0703,0.0664 0,0 -0.0684,0.0646 m 1.01213,-0.76325 c -0.0872,0.0575 -0.17444,0.1151 -0.26166,0.17265 m -3.22268,-13.48721 0.0961,0.011 0.0902,0.0104 m 4.53379,12.53863 c -0.10918,0.065 -0.21837,0.12995 -0.32755,0.19492 m 1.60297,-0.9629 c -0.10017,0.0619 -0.20032,0.12385 -0.30048,0.18577 m -6.39728,-12.07745 0.0953,0.0167 0.0692,0.0121 m 7.43349,11.22176 c -0.0556,0.0469 -0.11118,0.0937 -0.16678,0.14059 m 0.30029,-0.52271 0.0552,0.0656 m -8.32467,-11.08905 0.0898,0.0358 0.0244,0.01 m 7.28713,10.93419 c 0.10484,-0.007 0.20967,-0.0147 0.3145,-0.022 m -2.15424,0.30671 0.26889,-0.0487 0.26889,-0.0487 m -6.4105,-11.39893 0.056,0.0653 m 3.34046,11.93081 0.32491,-0.0677 0.3249,-0.0677 m -3.17526,0.65164 0.29897,-0.0589 0.29896,-0.0589 m -1.56582,-12.69899 0.007,0.0819 m -0.91841,13.03291 c 0.12427,-0.0139 0.24852,-0.0278 0.37282,-0.0416 m -1.00536,-0.0816 0.018,0.0783 m 1.58027,-13.42508 -0.0232,0.0921 m -0.65278,12.60613 -0.18891,0.10595 -0.1889,0.10595 m 2.73957,-1.34706 -0.35106,0.16074 -0.35107,0.16075 m -0.86292,-12.26247 -0.0309,0.0916 0,0 -9.4e-4,0.003 m 4.85028,10.40953 c -0.28447,0.12421 -0.56893,0.24841 -0.85337,0.37271 m 4.14206,-1.821 c -0.25777,0.11519 -0.51553,0.23037 -0.77327,0.34564 m -7.22175,-9.7767 -0.0239,0.0923 m 10.41181,8.19319 -0.23416,0.12125 -0.23416,0.12124 m 1.2317,-0.83753 -0.0125,0.0886 m -11.08639,-8.13376 -0.006,0.0863 m -0.0603,-0.56935 0.0227,0.0766 m -2.29618,11.47641 c 0.25714,-0.0588 0.51428,-0.11763 0.77142,-0.17644 m -3.06035,0.27587 -0.0696,0.0671 0,0 -0.0648,0.0625 m 4.41416,-12.36052 0.0413,0.0703 m 0.27771,9.93261 c -0.27195,0.11998 -0.54391,0.23995 -0.81585,0.35993 m 7.10411,-3.15885 -0.3169,0.14921 -0.31691,0.1492 m 2.44946,-1.58597 0.0899,0.0357 0.0245,0.01 m -3.71982,0.49871 0.31383,-0.0639 0.31382,-0.0639 m -5.43067,1.07684 0.2448,-0.0406 0.24479,-0.0406 m 6.9743,15.08412 0.0303,0.0741 m -0.32123,-0.6498 0.0404,0.0707 m -8.94296,-14.58747 -0.006,0.0865 m 8.58351,13.86629 0.0375,0.0717 m -0.22527,-0.68224 0.009,0.0813 m -6.69813,-14.67199 c -0.10575,0.0638 -0.2115,0.12762 -0.31721,0.19152 m 7.10702,13.69118 -0.0269,0.0929 -2.1e-4,4.2e-4 m 0.24965,-0.84271 -0.0176,0.0903 m -4.6052,-14.70517 c -0.0782,0.0545 -0.1564,0.109 -0.23456,0.1636 m 4.64773,13.84823 0.0704,0.0605 m -1.13103,-0.37607 0.0957,0.0141 0,0 0.0777,0.0115 m -2.82746,-14.63185 0.0284,0.0747 m 1.22638,14.33031 0.0942,0.0219 0,0 0.0535,0.0124 m -0.45104,-0.60585 -0.0525,0.0812 0,0 -0.0171,0.0266 m -1.9276,-14.26187 0.0959,0.0123 0.0848,0.0109 m 3.52209,12.8805 c -0.10144,0.0624 -0.20288,0.12472 -0.30432,0.18707 m 2.74956,-1.68738 c -0.0822,0.0559 -0.16444,0.11172 -0.24665,0.16758 m -7.27006,-11.78244 0.0936,0.0241 0.048,0.0123 m 7.58161,10.83469 0.096,0.0114 0.0884,0.0105 m -3.77929,0.51881 0.30589,-0.0613 0.30589,-0.0613 m -5.36581,-11.75194 0.0293,0.0743 m -0.14902,12.77291 0.25278,-0.0433 0.25279,-0.0433 m -1.69154,-0.18676 c -0.0606,0.0485 -0.12117,0.0971 -0.18172,0.14575 m 1.57385,-13.4229 -0.0293,0.0921 0,0 -3e-4,0.002 m 3.22249,10.95958 c -0.26812,0.11869 -0.53622,0.23746 -0.80435,0.35614 m 7.14446,-3.17255 -0.32285,0.15121 -0.32287,0.15121 m -8.6757,-9.28539 -0.0157,0.0895 m 10.78563,7.72986 c 0.0783,0.002 0.15645,0.003 0.23471,0.005 m -10.99061,-8.16613 0.004,0.0829 m 1.15392,10.31057 c 0.33163,-0.084 0.66326,-0.16797 0.99489,-0.25195 m -5.13125,0.3016 -0.28131,0.13718 -0.28131,0.13717 m 11.48721,-5.31399 c -0.0937,0.0597 -0.18743,0.11949 -0.28115,0.17923 m -5.77822,0.52023 0.31786,-0.0653 0.31785,-0.0653 m 4.15286,14.68942 0.0419,0.0702 m -8.21866,-14.83224 c -0.0699,0.0517 -0.13988,0.10342 -0.20978,0.15523 m 8.05432,13.37106 -0.0109,0.088 m 0.30883,-1.53666 0.018,0.0782 m -4.00937,-14.90652 -0.0635,0.0729 0,0 -0.0406,0.0466 m 2.10136,14.03464 0.0961,0.0112 0,0 0.0889,0.0104 m -0.53149,-1.25271 c -0.0682,0.0511 -0.13639,0.10224 -0.20457,0.15336 m -3.14813,-13.84944 0.0958,0.0125 0.0842,0.0109 m 7.26248,10.94252 -0.0502,0.0826 0,0 -0.0142,0.0233 m -6.46822,0.7534 0.32307,-0.0671 0.32308,-0.0671 m -2.82633,-12.61007 -0.0107,0.0879 m 0.40152,11.91284 -0.27794,0.13604 -0.27796,0.13604 m 11.44332,-5.29926 c -0.0841,0.0565 -0.16828,0.11302 -0.25238,0.16962 m -7.34092,-0.97386 c -0.27868,0.12225 -0.55735,0.2445 -0.83602,0.36674 m -4.23353,-1.34985 c 0.0834,-9e-5 0.16663,-1.5e-4 0.24999,-1.3e-4 m 7.85041,13.43996 0.0262,0.0755 m -0.40346,-2.64408 0.0921,0.0293 0.0362,0.0115 m -3.79778,-14.97801 0.0923,0.0286 0,0 0.0376,0.0117 m 4.21346,11.97283 c -0.10906,0.0649 -0.21813,0.12986 -0.3272,0.1948 m -8.11029,-0.0398 c 0.069,0.005 0.13789,0.01 0.20687,0.0144 m 1.44076,-14.05198 -0.029,0.0922 -3.1e-4,0.002 m 6.89039,4.32785 0.22194,-0.0329 0.22193,-0.0329 m -0.20668,16.16266 0.0359,0.0722 m -3.43238,-4.31676 0.0581,0.0646 m -3.7727,-14.98639 0.081,0.0529 0,0 0.004,0.003 m 6.38484,8.54289 c -0.28119,0.12309 -0.56236,0.24618 -0.8435,0.36936 m -4.56909,-6.62885 c -0.10622,0.064 -0.21244,0.12794 -0.31863,0.192 m 6.03514,8.66106 0.21779,-0.0315 0.21779,-0.0315 m -7.28345,-13.80007 0.0354,0.0723 m 6.70646,19.21894 -0.0305,0.0918 -0.001,0.003 m -10.94953,-7.16893 c 0.11852,-0.012 0.23704,-0.0239 0.35556,-0.0359 m 14.00011,-3.29852 0.23584,-0.0376 0.23585,-0.0376 m -1.05277,0.18723 0.29053,-0.0561 0.29053,-0.0561 m -1.26264,0.25815 0.34079,-0.073 0.34078,-0.073 m -1.45298,0.32247 c 0.25713,-0.0588 0.51427,-0.11762 0.7714,-0.17643 m -1.62038,0.37903 c 0.28299,-0.0675 0.56597,-0.1351 0.84899,-0.20255 m -1.76182,0.42682 c 0.30428,-0.0747 0.60857,-0.14948 0.91284,-0.22422 m -1.8746,0.46503 c 0.32059,-0.0803 0.64118,-0.16051 0.96178,-0.24077 m -1.95668,0.49268 c 0.33162,-0.084 0.66325,-0.16796 0.99492,-0.25186 m -2.00655,0.50954 c 0.33721,-0.0859 0.67443,-0.17175 1.01165,-0.25762"
     sodipodi:nodetypes="cccccccccccccccccccccccccccccccccccccccccccccccccccccccccccccccccccccccccccccccccccccccccccccccccccccccccccccccccccccccccccccccccccccccccccccccccccccccccccccccccccccccccccccccccccccccccccccccccccccccccccccccccccccccccccccccccccccccccccccccccccccccccccccccccccccccccccccccccccccccccccccccccccccccccccccccccccccccccccccccccccccccccccccccccccccccccccccccccccccccccccccccccccccccccccccccccccccccccccccccccccccccccccccccccccccccccccccccccccccccccccccccccccccccccccccccccccccccccccccccccccccccccccccccccccccccccccccccccccccccccccccccccccccccccccccccccccccccccccccccccccccccccccccccccccccccccccccccccccccccccccccccccccccccccccccccccccccccccccccccccccccccccccccccccccccccccccccccccccccccccccccccccccccccccccccccccccccccccccccccccccccccccccccccccccccccccccccccccccccccccccccccccc" />
  <path
     sodipodi:nodetypes="cccccccccccccccccccccccccccccccccccccccccccccccccccccccccccccccccccccccccccccccccccccccccccccccccccccccccccccccccccccccccccccccccccccccccccccccccccccccccccccccccccccccccccccccccccccccccccccccccccccccccccccccccccccccccccccccccccccccccccccccccccccccccccccccccccccccccccccccccccccccccccccccccccccccccccccccccccccccccccccccccccccccccccccccccccccccccccccccccccccccccccccccccccccccccccccccccccccccccccccccccccccccccccccccccccccccccccccccccccccccccccccccccccccccccccccccccccccccccccccccccccccccccccccccccccccccccccccccccccccccccccccccccccccccccccccccccccccccccccccccccccccccccccccccccccccccccccccccccccccccccccccccccccccccccccccccccccccccccccccccccccccccccccccccccccccccccccccccccccccccccccccccccccccccccccccccccccccccccccccccccccccccccccccccccccccccccccccccccccccccccccccccccc"
     d="m 277.32977,353.28699 -9.5e-4,-0.0847 m 10.39734,-8.02957 c 0.11853,0.012 0.23706,0.024 0.35558,0.0359 m -10.76488,8.2424 0.009,-0.0813 m -0.041,0.23897 0.018,-0.0782 m 2.17547,-10.30231 c 0.33722,0.0859 0.67444,0.17174 1.01167,0.25752 m -2.96834,-0.75023 c 0.32059,0.0803 0.64118,0.1605 0.96181,0.24067 m -1.24765,10.78443 0.0262,-0.0755 m -1.50228,-11.37657 c 0.28298,0.0676 0.56597,0.1351 0.84899,0.20255 m -2.30198,-0.52505 0.34079,0.073 0.34077,0.073 m 2.18476,11.77579 0.0332,-0.0731 m -3.95195,-12.03584 0.23587,0.0376 0.23586,0.0376 m -1.062,-0.10606 c 0.0782,-0.002 0.15645,-0.003 0.23471,-0.005 m 4.20173,12.28884 0.0375,-0.0717 m -4.57274,-12.0771 -0.0125,-0.0886 m 0.39923,0.38772 c -0.0841,-0.0565 -0.16823,-0.1131 -0.25237,-0.16961 m 4.32102,12.16064 0.0405,-0.0706 m -3.27659,-11.47059 -0.23415,-0.12124 -0.23414,-0.12124 m 1.67661,0.81937 -0.32286,-0.15122 -0.32287,-0.15121 m 2.59028,11.40728 0.0419,-0.0702 m -0.49685,-10.36277 c -0.25777,-0.11518 -0.51554,-0.23036 -0.77328,-0.34564 m 2.43262,1.07482 c -0.28118,-0.1231 -0.56235,-0.24618 -0.84349,-0.36937 m -0.44448,10.21328 0.0418,-0.0702 m 2.95575,-9.02757 c -0.28447,-0.12421 -0.56893,-0.24841 -0.85337,-0.37271 m 2.49348,1.09531 c -0.26813,-0.11868 -0.53626,-0.23736 -0.80435,-0.35614 m 2.26593,1.0185 -0.35108,-0.16075 -0.35108,-0.16076 m 1.89166,0.89204 -0.27794,-0.13604 -0.27794,-0.13604 m 1.40363,0.72712 -0.1889,-0.10594 -0.18891,-0.10595 m 0.84071,0.5369 c -0.0606,-0.0485 -0.12116,-0.0971 -0.18172,-0.14575 m 0.24507,0.33563 0.018,-0.0783 m -0.33915,0.13822 c 0.069,-0.005 0.13793,-0.01 0.20687,-0.0144 m -0.87326,-0.0423 c 0.12427,0.0139 0.24858,0.0277 0.37284,0.0416 m -1.32237,-0.19404 0.25277,0.0433 0.25278,0.0433 m -1.6606,-0.30833 0.29896,0.0589 0.29897,0.0589 m -1.87222,-0.37983 0.32308,0.0671 0.32308,0.0671 m -1.94969,-0.40611 0.3249,0.0677 0.32491,0.0677 m -1.89726,-0.38837 0.30589,0.0612 0.30589,0.0613 m -1.72842,-0.33133 0.2689,0.0487 0.26888,0.0488 m -1.46272,-0.24155 0.21779,0.0315 0.21778,0.0315 m 7.49433,-15.077 0.0293,-0.0743 m -0.0914,0.22182 0.0322,-0.0734 m -8.59077,14.87492 c 0.10484,0.007 0.20966,0.0147 0.3145,0.022 m 8.17692,-14.67782 0.0341,-0.0727 m -0.10753,0.21639 0.0372,-0.0717 m -8.88994,14.60531 0.096,-0.0114 0.0884,-0.0105 m 8.59037,-14.36959 0.0395,-0.0709 m -0.1208,0.2119 0.0413,-0.0703 m -8.90873,14.43045 0.0552,-0.0656 m 8.72875,-14.15432 0.0419,-0.0701 m -0.12505,0.21047 0.0413,-0.0703 m -8.67149,14.3421 -0.0502,-0.0826 -0.0141,-0.0233 m 8.61485,-14.02431 0.0392,-0.071 m -0.11199,0.21489 0.0354,-0.0723 m -8.22803,14.32343 c -0.0556,-0.0469 -0.11118,-0.0937 -0.16678,-0.14059 m 8.29682,-13.96326 0.0293,-0.0743 m -0.0785,0.22618 0.0227,-0.0766 m -7.64726,14.35119 c -0.0822,-0.0559 -0.16444,-0.11173 -0.24665,-0.16758 m 7.83945,-13.9493 0.0137,-0.0796 m -0.0266,0.24372 0.004,-0.0829 m -7.00639,14.39923 c -0.10015,-0.0619 -0.20031,-0.12384 -0.30047,-0.18577 m 7.30996,-13.9597 -0.006,-0.0863 m 0.0327,0.26378 -0.0157,-0.0895 m -6.37602,14.44372 c -0.10906,-0.0649 -0.21813,-0.12986 -0.32719,-0.19479 m 6.76274,-13.97611 -0.0239,-0.0923 m 0.0807,0.27999 -0.0291,-0.0923 0,0 -3.1e-4,-0.002 m -5.80454,14.46832 c -0.10918,-0.065 -0.21836,-0.12994 -0.32755,-0.19492 m 6.22508,-13.98928 -0.0309,-0.0916 0,0 -9.3e-4,-0.003 m 0.0936,0.28437 -0.0293,-0.0922 0,0 -3.1e-4,-0.002 m -5.30613,14.46821 c -0.10145,-0.0624 -0.20289,-0.12471 -0.30433,-0.18707 m 5.69086,-14.00128 -0.0232,-0.0921 m 0.0517,0.27019 -0.0107,-0.0879 m -4.85735,14.45137 c -0.0872,-0.0575 -0.17444,-0.11509 -0.26166,-0.17265 m 5.12545,-14.02383 0.007,-0.0819 m -0.0542,0.2344 0.0294,-0.0744 m -4.40697,14.43512 c -0.0682,-0.0511 -0.13638,-0.10224 -0.20457,-0.15336 m 4.48351,-14.07223 0.0561,-0.0654 m -0.21136,0.18139 0.0809,-0.053 0.004,-0.003 m -3.89752,14.43877 -0.0703,-0.0664 0,0 -0.0684,-0.0646 m 3.73731,-14.15588 0.0898,-0.0359 0,0 0.0244,-0.01 m -0.38424,0.12297 0.0936,-0.0241 0.048,-0.0124 m -3.29643,14.47336 -0.0525,-0.0812 0,0 -0.0171,-0.0265 m 2.90617,-14.26822 0.0953,-0.0167 0.0692,-0.0121 m -0.51813,0.0777 0.0958,-0.0125 0.0842,-0.0109 m -2.62523,14.53166 -0.002,-0.0851 m 2.07694,-14.37992 0.0961,-0.011 0.0901,-0.0103 m -0.55169,0.0664 0.0959,-0.0123 0.0847,-0.011 m -1.9766,14.58232 0.0581,-0.0646 m 1.40292,-14.43915 0.0952,-0.0173 0.0668,-0.0123 m -0.43949,0.10431 0.0924,-0.0288 0,0 0.0376,-0.0117 m -1.50741,14.57236 0.0887,-0.0385 0.0203,-0.009 m 1.07445,-14.38163 0.081,-0.0529 0,0 0.004,-0.003 m -0.17207,0.19467 0.0284,-0.0747 m -1.40287,14.43917 0.0942,-0.0219 0,0 0.0535,-0.0124 m 1.26438,-14.14894 -0.0335,-0.0907 -0.002,-0.006 m 0.20918,0.32349 -0.0635,-0.0729 0,0 -0.0406,-0.0466 m -1.81658,14.13087 0.0957,-0.0142 0.0773,-0.0116 m 2.05893,-13.71195 c -0.0574,-0.0475 -0.11492,-0.095 -0.17235,-0.14258 m 0.6115,0.45945 c -0.0782,-0.0545 -0.15636,-0.1091 -0.23455,-0.16359 m -2.80194,13.62939 0.096,-0.0112 0.0888,-0.0104 m 3.39838,-13.09082 c -0.095,-0.0602 -0.19008,-0.12039 -0.28508,-0.18067 m 0.90835,0.55975 c -0.10622,-0.064 -0.21244,-0.12795 -0.31863,-0.19201 m -4.25826,12.96876 0.096,-0.0114 0.0884,-0.0105 m 5.05047,-12.36403 c -0.11017,-0.0653 -0.22035,-0.13062 -0.33049,-0.19602 m 0.97492,0.58226 c -0.10575,-0.0638 -0.21149,-0.12762 -0.3172,-0.19153 m -5.9156,12.24022 0.0956,-0.0141 0,0 0.0777,-0.0114 m 6.63688,-11.65946 c -0.0923,-0.0593 -0.18462,-0.11854 -0.2769,-0.17791 m 0.73341,0.50065 c -0.0699,-0.0517 -0.1399,-0.10343 -0.20982,-0.15524 m -7.3751,11.57852 0.0946,-0.0199 0,0 0.0591,-0.0124 m 7.71605,-11.12629 -0.0667,-0.0701 0,0 -0.0515,-0.0541 m 0.1887,0.31658 -0.006,-0.0865 m -8.20414,11.12986 0.0921,-0.0293 0.0362,-0.0116 m 7.90766,-10.89294 0.0907,-0.0335 0,0 0.0285,-0.0105 m -0.55358,0.0657 c 0.0834,9e-5 0.16663,1.5e-4 0.24998,1.3e-4 m -8.06557,11.00817 0.0863,-0.0438 0.0135,-0.007 m 7.02459,-11.02281 c 0.1256,0.0144 0.2512,0.0287 0.37682,0.043 m -1.30195,-0.18722 0.24479,0.0406 0.2448,0.0406 m -6.84403,11.25243 0.0704,-0.0606 m 5.16746,-11.48194 0.28941,0.0557 0.28942,0.0557 m -1.82646,-0.36446 0.31786,0.0653 0.31785,0.0653 m -4.72446,11.80015 0.0424,-0.07 m 2.74307,-12.13268 0.32673,0.0683 0.32673,0.0683 m -1.92729,-0.39853 0.31383,0.0639 0.31383,0.0639 m -2.18655,12.48925 0.018,-0.0783 m 0.38613,-12.7606 0.27856,0.052 0.27856,0.052 m -1.50676,-0.25656 0.22193,0.0329 0.22191,0.0329 m 0.0974,13.09249 -0.003,-0.0852 m -1.20489,-13.12971 c 0.0978,0.005 0.19562,0.01 0.29341,0.0149 m -0.61472,0.045 0.0899,-0.0357 0,0 0.0246,-0.01 m 1.44268,13.37859 -0.0176,-0.0903 m -1.47584,-13.05276 -0.057,-0.0781 0,0 -0.0245,-0.0336 m 0.54437,0.43666 c -0.0937,-0.0598 -0.18743,-0.11949 -0.28114,-0.17924 m 1.36209,13.18283 -0.027,-0.0928 0,0 -2.1e-4,-4.2e-4 m -0.2059,-12.45512 -0.235,-0.12153 -0.235,-0.12152 m 1.6597,0.81356 -0.3169,-0.1492 -0.3169,-0.1492 m -0.26113,12.46582 -0.0305,-0.0918 -10e-4,-0.003 m 2.38809,-11.41005 c -0.25315,-0.11362 -0.5063,-0.22724 -0.75945,-0.34086 m 2.39999,1.06336 c -0.27867,-0.12224 -0.55735,-0.24449 -0.83602,-0.36674 m -3.09757,11.33883 -0.0303,-0.0918 0,0 -10e-4,-0.003 m 5.6743,-10.13109 c -0.28534,-0.1245 -0.57068,-0.249 -0.85603,-0.3735 m 2.5154,1.10272 c -0.27195,-0.11998 -0.54391,-0.23995 -0.81585,-0.35992 m -6.42978,10.04431 -0.027,-0.0929 0,0 -2.2e-4,-4.2e-4 m 8.76234,-8.91909 c -0.23877,-0.10876 -0.47754,-0.21752 -0.71631,-0.32628 m 1.92433,0.90297 -0.2813,-0.13717 -0.28129,-0.13717 m -9.33707,8.89339 -0.02,-0.0911 m 10.75225,-8.07817 -0.18216,-0.10367 -0.18216,-0.10367 m 0.75114,0.50655 -0.0696,-0.0671 0,0 -0.0648,-0.0625 m -10.95805,8.17712 -0.011,-0.088 m 11.00466,-7.82435 0.0891,-0.0373 0.0221,-0.009 m -11.12461,8.37358 0.0137,-0.0796 m -0.70774,-10.93968 c 0.30427,0.0747 0.60855,0.14948 0.91283,0.22423 m -0.31564,11.09929 0.0293,-0.0743 m -3.50998,-11.88657 0.29052,0.056 0.29051,0.056 m -1.75429,-0.17157 0.0892,-0.0374 0,0 0.022,-0.009 m 4.39723,12.35482 0.0392,-0.071 m -3.78405,-11.64217 -0.18216,-0.10367 -0.18216,-0.10367 m 2.75734,1.35298 c -0.23876,-0.10875 -0.47752,-0.21751 -0.71628,-0.32627 m 1.90268,11.17485 0.0419,-0.0701 m 2.0604,-9.33022 c -0.28534,-0.1245 -0.57068,-0.249 -0.85603,-0.3735 m 4.10977,1.80998 c -0.25314,-0.11361 -0.50628,-0.22723 -0.75941,-0.34084 m 3.12127,1.47595 -0.23502,-0.12153 -0.235,-0.12152 m 1.39217,0.89167 -0.057,-0.0782 -0.0245,-0.0336 m -0.55133,0.23493 c 0.0978,0.005 0.19558,0.01 0.29337,0.0149 m -2.17239,-0.31284 0.27856,0.052 0.27856,0.052 m -3.08222,-0.62028 0.32674,0.0683 0.32673,0.0683 m -3.12939,-0.63622 0.28941,0.0557 0.28942,0.0557 m 5.91699,-15.4414 0.0275,-0.0751 m -8.36375,15.12023 c 0.12559,0.0144 0.2512,0.0287 0.37682,0.043 m 7.83459,-14.79341 0.0332,-0.0731 m -0.17913,0.3608 0.0385,-0.0713 m -8.97195,14.57769 0.0907,-0.0335 0,0 0.0285,-0.0105 m 8.65147,-14.18035 0.0417,-0.0702 m -0.20745,0.35122 0.0405,-0.0706 m -8.5121,14.39606 -0.0667,-0.0701 0,0 -0.0515,-0.0541 m 8.44469,-13.9132 0.0332,-0.0731 m -0.12967,0.37751 0.018,-0.0783 m -7.34781,14.45246 c -0.0923,-0.0593 -0.18466,-0.11856 -0.27695,-0.17793 m 7.58083,-13.86808 -10e-4,-0.0847 m 0.0538,0.43951 -0.02,-0.0911 m -6.06118,14.5502 c -0.11017,-0.0653 -0.22036,-0.13062 -0.33049,-0.19602 m 6.52355,-13.88832 -0.0303,-0.0918 0,0 -0.001,-0.003 m 0.15216,0.47275 -0.027,-0.0928 0,0 -2e-4,-4.3e-4 m -5.05108,14.5545 c -0.095,-0.0602 -0.19007,-0.12038 -0.28508,-0.18067 m 5.41747,-13.92506 -0.003,-0.0852 m -0.094,0.38946 0.0424,-0.0699 m -4.20503,14.50336 c -0.0574,-0.0475 -0.11492,-0.095 -0.17235,-0.14258 m 4.02392,-14.05903 0.0862,-0.0437 0.0135,-0.007 m -0.63773,0.20574 0.0946,-0.0198 0,0 0.0591,-0.0124 m -3.11926,14.53323 -0.0334,-0.0907 -0.002,-0.006 m 2.29864,-14.30499 0.096,-0.0114 0.0884,-0.0105 m -0.90898,0.11408 0.0957,-0.0142 0.0773,-0.0116 m -1.88102,14.61463 0.0809,-0.053 0.004,-0.003 m 1.0745,-14.38164 0.0887,-0.0385 0.0203,-0.009 m -0.27856,0.32711 -0.002,-0.0851 m -1.53603,14.39419 0.0952,-0.0174 0.0668,-0.0122 m 1.72457,-13.82493 -0.0703,-0.0664 0,0 -0.0684,-0.0646 m 1.01213,0.76325 c -0.0872,-0.0575 -0.17444,-0.1151 -0.26166,-0.17265 m -3.22268,13.48721 0.0961,-0.011 0.0902,-0.0104 m 4.53379,-12.53863 c -0.10918,-0.065 -0.21837,-0.12995 -0.32755,-0.19492 m 1.60297,0.9629 c -0.10017,-0.0619 -0.20032,-0.12385 -0.30048,-0.18577 m -6.39728,12.07745 0.0953,-0.0167 0.0692,-0.0121 m 7.43349,-11.22176 c -0.0556,-0.0469 -0.11118,-0.0937 -0.16678,-0.14059 m 0.30029,0.52271 0.0552,-0.0656 m -8.32467,11.08905 0.0898,-0.0358 0.0244,-0.01 m 7.28713,-10.93419 c 0.10484,0.007 0.20967,0.0147 0.3145,0.022 m -2.15424,-0.30671 0.26889,0.0487 0.26889,0.0487 m -6.4105,11.39893 0.056,-0.0653 m 3.34046,-11.93081 0.32491,0.0677 0.3249,0.0677 m -3.17526,-0.65164 0.29897,0.0589 0.29896,0.0589 m -1.56582,12.69899 0.007,-0.0819 m -0.91841,-13.03291 c 0.12427,0.0139 0.24852,0.0278 0.37282,0.0416 m -1.00536,0.0816 0.018,-0.0783 m 1.58027,13.42508 -0.0232,-0.0921 m -0.65278,-12.60613 -0.18891,-0.10595 -0.1889,-0.10595 m 2.73957,1.34706 -0.35106,-0.16074 -0.35107,-0.16075 m -0.86292,12.26247 -0.0309,-0.0916 0,0 -9.4e-4,-0.003 m 4.85028,-10.40953 c -0.28447,-0.12421 -0.56893,-0.24841 -0.85337,-0.37271 m 4.14206,1.821 c -0.25777,-0.11519 -0.51553,-0.23037 -0.77327,-0.34564 m -7.22175,9.7767 -0.0239,-0.0923 m 10.41181,-8.19319 -0.23416,-0.12125 -0.23416,-0.12124 m 1.2317,0.83753 -0.0125,-0.0886 m -11.08639,8.13376 -0.006,-0.0863 m -0.0603,0.56935 0.0227,-0.0766 m -2.29618,-11.47641 c 0.25714,0.0588 0.51428,0.11763 0.77142,0.17644 m -3.06035,-0.27587 -0.0696,-0.0671 0,0 -0.0648,-0.0625 m 4.41416,12.36052 0.0413,-0.0703 m 0.27771,-9.93261 c -0.27195,-0.11998 -0.54391,-0.23995 -0.81585,-0.35993 m 7.10411,3.15885 -0.3169,-0.14921 -0.31691,-0.1492 m 2.44946,1.58597 0.0899,-0.0357 0.0245,-0.01 m -3.71982,-0.49871 0.31383,0.0639 0.31382,0.0639 m -5.43067,-1.07684 0.2448,0.0406 0.24479,0.0406 m 6.9743,-15.08412 0.0303,-0.0741 m -0.32123,0.6498 0.0404,-0.0707 m -8.94296,14.58747 -0.006,-0.0865 m 8.58351,-13.86629 0.0375,-0.0717 m -0.22527,0.68224 0.009,-0.0813 m -6.69813,14.67199 c -0.10575,-0.0638 -0.2115,-0.12762 -0.31721,-0.19152 m 7.10702,-13.69118 -0.0269,-0.0929 -2.1e-4,-4.2e-4 m 0.24965,0.84271 -0.0176,-0.0903 m -4.6052,14.70517 c -0.0782,-0.0545 -0.1564,-0.109 -0.23456,-0.1636 m 4.64773,-13.84823 0.0704,-0.0605 m -1.13103,0.37607 0.0957,-0.0141 0,0 0.0777,-0.0115 m -2.82746,14.63185 0.0284,-0.0747 m 1.22638,-14.33031 0.0942,-0.0219 0,0 0.0535,-0.0124 m -0.45104,0.60585 -0.0525,-0.0812 0,0 -0.0171,-0.0266 m -1.9276,14.26187 0.0959,-0.0123 0.0848,-0.0109 m 3.52209,-12.8805 c -0.10144,-0.0624 -0.20288,-0.12472 -0.30432,-0.18707 m 2.74956,1.68738 c -0.0822,-0.0559 -0.16444,-0.11172 -0.24665,-0.16758 m -7.27006,11.78244 0.0936,-0.0241 0.048,-0.0123 m 7.58161,-10.83469 0.096,-0.0114 0.0884,-0.0105 m -3.77929,-0.51881 0.30589,0.0613 0.30589,0.0613 m -5.36581,11.75194 0.0293,-0.0743 m -0.14902,-12.77291 0.25278,0.0433 0.25279,0.0433 m -1.69154,0.18676 c -0.0606,-0.0485 -0.12117,-0.0971 -0.18172,-0.14575 m 1.57385,13.4229 -0.0293,-0.0921 0,0 -3e-4,-0.002 m 3.22249,-10.95958 c -0.26812,-0.11869 -0.53622,-0.23746 -0.80435,-0.35614 m 7.14446,3.17255 -0.32285,-0.15121 -0.32287,-0.15121 m -8.6757,9.28539 -0.0157,-0.0895 m 10.78563,-7.72986 c 0.0783,-0.002 0.15645,-0.003 0.23471,-0.005 m -10.99061,8.16613 0.004,-0.0829 m 1.15392,-10.31057 c 0.33163,0.084 0.66326,0.16797 0.99489,0.25195 m -5.13125,-0.3016 -0.28131,-0.13718 -0.28131,-0.13717 m 11.48721,5.31399 c -0.0937,-0.0597 -0.18743,-0.11949 -0.28115,-0.17923 m -5.77822,-0.52023 0.31786,0.0653 0.31785,0.0653 m 4.15286,-14.68942 0.0419,-0.0702 m -8.21866,14.83224 c -0.0699,-0.0517 -0.13988,-0.10342 -0.20978,-0.15523 m 8.05432,-13.37106 -0.0109,-0.088 m 0.30883,1.53666 0.018,-0.0782 m -4.00937,14.90652 -0.0635,-0.0729 0,0 -0.0406,-0.0466 m 2.10136,-14.03464 0.0961,-0.0112 0,0 0.0889,-0.0104 m -0.53149,1.25271 c -0.0682,-0.0511 -0.13639,-0.10224 -0.20457,-0.15336 m -3.14813,13.84944 0.0958,-0.0125 0.0842,-0.0109 m 7.26248,-10.94252 -0.0502,-0.0826 0,0 -0.0142,-0.0233 m -6.46822,-0.7534 0.32307,0.0671 0.32308,0.0671 m -2.82633,12.61007 -0.0107,-0.0879 m 0.40152,-11.91284 -0.27794,-0.13604 -0.27796,-0.13604 m 11.44332,5.29926 c -0.0841,-0.0565 -0.16828,-0.11302 -0.25238,-0.16962 m -7.34092,0.97386 c -0.27868,-0.12225 -0.55735,-0.2445 -0.83602,-0.36674 m -4.23353,1.34985 c 0.0834,9e-5 0.16663,1.5e-4 0.24999,1.3e-4 m 7.85041,-13.43996 0.0262,-0.0755 m -0.40346,2.64408 0.0921,-0.0293 0.0362,-0.0115 m -3.79778,14.97801 0.0923,-0.0286 0,0 0.0376,-0.0117 m 4.21346,-11.97283 c -0.10906,-0.0649 -0.21813,-0.12986 -0.3272,-0.1948 m -8.11029,0.0398 c 0.069,-0.005 0.13789,-0.01 0.20687,-0.0144 m 1.44076,14.05198 -0.029,-0.0922 -3.1e-4,-0.002 m 6.89039,-4.32785 0.22194,0.0329 0.22193,0.0329 m -0.20668,-16.16266 0.0359,-0.0722 m -3.43238,4.31676 0.0581,-0.0646 m -3.7727,14.98639 0.081,-0.0529 0,0 0.004,-0.003 m 6.38484,-8.54289 c -0.28119,-0.12309 -0.56236,-0.24618 -0.8435,-0.36936 m -4.56909,6.62885 c -0.10622,-0.064 -0.21244,-0.12794 -0.31863,-0.192 m 6.03514,-8.66106 0.21779,0.0315 0.21779,0.0315 m -7.28345,13.80007 0.0354,-0.0723 m 6.70646,-19.21894 -0.0305,-0.0918 -10e-4,-0.003 m -10.94953,7.16893 c 0.11852,0.012 0.23704,0.0239 0.35556,0.0359 m 14.00011,3.29852 0.23584,0.0376 0.23585,0.0376 m -1.05277,-0.18723 0.29053,0.0561 0.29053,0.0561 m -1.26264,-0.25815 0.34079,0.073 0.34078,0.073 m -1.45298,-0.32247 c 0.25713,0.0588 0.51427,0.11762 0.7714,0.17643 m -1.62038,-0.37903 c 0.28299,0.0675 0.56597,0.1351 0.84899,0.20255 m -1.76182,-0.42682 c 0.30428,0.0747 0.60857,0.14948 0.91284,0.22422 m -1.8746,-0.46503 c 0.32059,0.0803 0.64118,0.16051 0.96178,0.24077 m -1.95668,-0.49268 c 0.33162,0.084 0.66325,0.16796 0.99492,0.25186 m -2.00655,-0.50954 c 0.33721,0.0859 0.67443,0.17175 1.01165,0.25762"
     style="fill:none;stroke:#000000;stroke-width:0.5;stroke-linecap:butt;stroke-linejoin:round;stroke-miterlimit:10;stroke-opacity:1;stroke-dasharray:none"
     id="path8456"
     inkscape:connector-curvature="0" />
</svg>
