<?xml version="1.0" encoding="UTF-8" standalone="no"?>
<!-- Created with Inkscape (http://www.inkscape.org/) -->

<svg
   xmlns:dc="http://purl.org/dc/elements/1.1/"
   xmlns:cc="http://creativecommons.org/ns#"
   xmlns:rdf="http://www.w3.org/1999/02/22-rdf-syntax-ns#"
   xmlns:svg="http://www.w3.org/2000/svg"
   xmlns="http://www.w3.org/2000/svg"
   xmlns:sodipodi="http://sodipodi.sourceforge.net/DTD/sodipodi-0.dtd"
   xmlns:inkscape="http://www.inkscape.org/namespaces/inkscape"
   id="svg2"
   version="1.1"
   inkscape:version="0.48.1 r9760"
   width="387.5"
   height="175"
   xml:space="preserve"
   sodipodi:docname="fig_kg_mass_drag.svg"
   inkscape:export-filename="/Users/oreilly/svn_docs/physics/fig_kg_mass_drag.png"
   inkscape:export-xdpi="150"
   inkscape:export-ydpi="150"><metadata
     id="metadata8"><rdf:RDF><cc:Work
         rdf:about=""><dc:format>image/svg+xml</dc:format><dc:type
           rdf:resource="http://purl.org/dc/dcmitype/StillImage" /><dc:title></dc:title></cc:Work></rdf:RDF></metadata><defs
     id="defs6" /><sodipodi:namedview
     pagecolor="#ffffff"
     bordercolor="#666666"
     borderopacity="1"
     objecttolerance="10"
     gridtolerance="10"
     guidetolerance="10"
     inkscape:pageopacity="0"
     inkscape:pageshadow="2"
     inkscape:window-width="1001"
     inkscape:window-height="814"
     id="namedview4"
     showgrid="false"
     inkscape:zoom="1.3135484"
     inkscape:cx="193.75"
     inkscape:cy="87.5"
     inkscape:window-x="317"
     inkscape:window-y="165"
     inkscape:window-maximized="0"
     inkscape:current-layer="g10" /><g
     id="g10"
     inkscape:groupmode="layer"
     inkscape:label="fig.kg_mass_drag"
     transform="matrix(1.25,0,0,-1.25,0,175)"><g
       id="g12"
       transform="scale(0.1,0.1)"><path
         d="m 26.9727,699.324 28.6835,9.563 14.3399,4.781 23.9023,9.559 23.9026,9.562 19.121,4.777 62.144,0 23.899,-14.339 23.902,-9.559 14.34,-14.344 23.902,-14.34 23.903,-9.558 19.121,0 23.902,9.558 23.903,14.34 14.339,23.903 23.903,23.902 23.898,23.902 14.344,14.34 23.898,9.563 23.903,-9.563 19.121,-23.902 23.902,-38.242 23.902,-38.243 14.34,-47.8 23.903,-33.465 23.902,-19.121 19.121,9.562 23.898,33.461 23.903,47.805 14.344,71.703 23.898,71.703 23.902,57.363 14.34,38.243 23.903,0 23.902,-33.461 19.121,-62.145 23.902,-95.605 23.903,-95.606 14.34,-95.605 23.902,-71.704 23.898,-23.902 19.121,14.34 23.903,71.703 23.906,105.168 14.34,133.848 23.9,129.07 23.9,109.941 14.34,76.49 23.9,4.78 23.91,-47.8 19.12,-105.169 23.89,-148.191 23.91,-162.528 14.34,-157.75 23.9,-119.507 23.9,-57.364 14.34,9.559 23.9,71.703 23.91,133.852 19.12,176.871 23.9,181.648 23.9,172.096 14.34,119.51 23.9,47.8 23.9,-23.91 19.12,-90.82 23.91,-152.969 23.9,-181.652 14.34,-186.434 23.9,-157.75 23.9,-109.945 14.34,-47.805 23.91,23.903 23.9,95.605 19.12,133.852 23.9,176.871 23.9,167.308 14.34,152.969 23.9,105.167 23.9,38.24 14.34,-14.34 28.69,-81.26 23.9,-114.729 14.34,-143.41 23.9,-143.41 23.9,-129.066 14.34,-86.047 23.91,-47.801 23.89,9.558 19.13,47.805 23.9,86.043 23.9,105.168 14.34,105.168 23.9,100.387 23.9,71.703 14.34,47.801 23.91,9.562 23.9,-23.902 19.12,-57.363 23.9,-62.145 23.9,-71.703 14.35,-71.703 23.89,-57.364 23.91,-38.246 23.9,-19.121 19.12,0 23.9,23.903 23.9,43.023 14.34,38.242 23.91,47.805 23.89,43.02 14.35,23.902 23.9,23.902 43.02,0 23.9,-19.121 23.91,-23.902 14.33,-23.903 23.91,-23.898 23.9,-14.344 14.34,-14.34 28.68,-9.558 38.24,0 23.9,9.558 23.91,14.34 14.34,9.563 23.9,4.781 23.9,9.559 19.12,9.562 23.9,4.777 23.9,0 14.35,-4.777 47.8,0 14.34,-9.562 23.9,-9.559 43.02,0 47.81,-14.344 0,0"
         style="fill:none;stroke:#000000;stroke-opacity:1;stroke-width:19.1212;stroke-linecap:butt;stroke-linejoin:miter;stroke-miterlimit:10;stroke-dasharray:none"
         id="path14" /><path
         d="m 1444.33,1191.7 0,-363.309"
         style="fill:none;stroke:#000000;stroke-opacity:1;stroke-width:9.5606;stroke-linecap:butt;stroke-linejoin:miter;stroke-miterlimit:10;stroke-dasharray:none"
         id="path16" /><path
         d="m 1463.45,904.879 -19.12,-76.488 -19.12,76.488"
         style="fill:none;stroke:#000000;stroke-opacity:1;stroke-width:9.5606;stroke-linecap:butt;stroke-linejoin:miter;stroke-miterlimit:10;stroke-dasharray:none"
         id="path18" /><path
         d="m 1616.42,254.758 0,363.301"
         style="fill:none;stroke:#000000;stroke-opacity:1;stroke-width:9.5606;stroke-linecap:butt;stroke-linejoin:miter;stroke-miterlimit:10;stroke-dasharray:none"
         id="path20" /><path
         d="m 1597.3,541.574 19.12,76.485 19.12,-76.485"
         style="fill:none;stroke:#000000;stroke-opacity:1;stroke-width:9.5606;stroke-linecap:butt;stroke-linejoin:miter;stroke-miterlimit:10;stroke-dasharray:none"
         id="path22" /><path
         d="m 1100.15,1076.97 0,-229.454"
         style="fill:none;stroke:#000000;stroke-opacity:1;stroke-width:9.5606;stroke-linecap:butt;stroke-linejoin:miter;stroke-miterlimit:10;stroke-dasharray:none"
         id="path24" /><path
         d="M 1119.27,924 1100.15,847.516 1081.03,924"
         style="fill:none;stroke:#000000;stroke-opacity:1;stroke-width:9.5606;stroke-linecap:butt;stroke-linejoin:miter;stroke-miterlimit:10;stroke-dasharray:none"
         id="path26" /><path
         d="m 1272.24,293 0,229.453"
         style="fill:none;stroke:#000000;stroke-opacity:1;stroke-width:9.5606;stroke-linecap:butt;stroke-linejoin:miter;stroke-miterlimit:10;stroke-dasharray:none"
         id="path28" /><path
         d="m 1253.12,445.969 19.12,76.484 19.12,-76.484"
         style="fill:none;stroke:#000000;stroke-opacity:1;stroke-width:9.5606;stroke-linecap:butt;stroke-linejoin:miter;stroke-miterlimit:10;stroke-dasharray:none"
         id="path30" /><path
         d="m 1788.51,1134.33 0,-229.451"
         style="fill:none;stroke:#000000;stroke-opacity:1;stroke-width:9.5606;stroke-linecap:butt;stroke-linejoin:miter;stroke-miterlimit:10;stroke-dasharray:none"
         id="path32" /><path
         d="m 1807.63,981.363 -19.12,-76.484 -19.12,76.484"
         style="fill:none;stroke:#000000;stroke-opacity:1;stroke-width:9.5606;stroke-linecap:butt;stroke-linejoin:miter;stroke-miterlimit:10;stroke-dasharray:none"
         id="path34" /><path
         d="m 1960.61,388.605 0,172.09"
         style="fill:none;stroke:#000000;stroke-opacity:1;stroke-width:9.5606;stroke-linecap:butt;stroke-linejoin:miter;stroke-miterlimit:10;stroke-dasharray:none"
         id="path36" /><path
         d="m 1941.48,484.211 19.13,76.484 19.12,-76.484"
         style="fill:none;stroke:#000000;stroke-opacity:1;stroke-width:9.5606;stroke-linecap:butt;stroke-linejoin:miter;stroke-miterlimit:10;stroke-dasharray:none"
         id="path38" /><path
         d="m 947.18,426.848 0,172.09"
         style="fill:none;stroke:#000000;stroke-opacity:1;stroke-width:9.5606;stroke-linecap:butt;stroke-linejoin:miter;stroke-miterlimit:10;stroke-dasharray:none"
         id="path40" /><path
         d="m 928.059,522.453 19.121,76.485 19.121,-76.485"
         style="fill:none;stroke:#000000;stroke-opacity:1;stroke-width:9.5606;stroke-linecap:butt;stroke-linejoin:miter;stroke-miterlimit:10;stroke-dasharray:none"
         id="path42" /><path
         d="m 1138.39,1210.82 286.82,-210.34"
         style="fill:none;stroke:#000000;stroke-opacity:1;stroke-width:9.5606;stroke-linecap:butt;stroke-linejoin:miter;stroke-miterlimit:10;stroke-dasharray:none"
         id="path44" /><path
         d="m 1374.84,1061.13 50.37,-60.65 -72.98,29.81"
         style="fill:none;stroke:#000000;stroke-opacity:1;stroke-width:9.5606;stroke-linecap:butt;stroke-linejoin:miter;stroke-miterlimit:10;stroke-dasharray:none"
         id="path46" /><path
         d="M 1234,407.727 1119.27,350.363"
         style="fill:none;stroke:#000000;stroke-opacity:1;stroke-width:9.5606;stroke-linecap:butt;stroke-linejoin:miter;stroke-miterlimit:10;stroke-dasharray:none"
         id="path48" /><path
         d="m 1196.23,367.465 -76.96,-17.102 59.86,51.309"
         style="fill:none;stroke:#000000;stroke-opacity:1;stroke-width:9.5606;stroke-linecap:butt;stroke-linejoin:miter;stroke-miterlimit:10;stroke-dasharray:none"
         id="path50" /><path
         d="m 1310.48,407.727 114.73,-57.364"
         style="fill:none;stroke:#000000;stroke-opacity:1;stroke-width:9.5606;stroke-linecap:butt;stroke-linejoin:miter;stroke-miterlimit:10;stroke-dasharray:none"
         id="path52" /><path
         d="m 1365.35,401.672 59.86,-51.309 -76.96,17.102"
         style="fill:none;stroke:#000000;stroke-opacity:1;stroke-width:9.5606;stroke-linecap:butt;stroke-linejoin:miter;stroke-miterlimit:10;stroke-dasharray:none"
         id="path54" /><path
         d="m 1291.36,312.121 76.49,-114.726"
         style="fill:none;stroke:#000000;stroke-opacity:1;stroke-width:9.5606;stroke-linecap:butt;stroke-linejoin:miter;stroke-miterlimit:10;stroke-dasharray:none"
         id="path56" /><path
         d="m 1341.33,271.637 26.52,-74.242 -58.34,53.031"
         style="fill:none;stroke:#000000;stroke-opacity:1;stroke-width:9.5606;stroke-linecap:butt;stroke-linejoin:miter;stroke-miterlimit:10;stroke-dasharray:none"
         id="path58" /><path
         d="M 1253.12,331.242 1176.64,197.395"
         style="fill:none;stroke:#000000;stroke-opacity:1;stroke-width:9.5606;stroke-linecap:butt;stroke-linejoin:miter;stroke-miterlimit:10;stroke-dasharray:none"
         id="path60" /><path
         d="m 1231.18,254.312 -54.54,-56.917 21.34,75.89"
         style="fill:none;stroke:#000000;stroke-opacity:1;stroke-width:9.5606;stroke-linecap:butt;stroke-linejoin:miter;stroke-miterlimit:10;stroke-dasharray:none"
         id="path62" /><g
         id="g64"
         transform="scale(10,10)"><text
           transform="matrix(1,0,0,-1,66.0363,5.8)"
           id="text66"><tspan
             style="fill:#000000;fill-opacity:1;fill-rule:nonzero;stroke:none;font-family:Helvetica;font-variant:normal;font-weight:normal;font-size:11.4727;writing-mode:lr;-inkscape-font-specification:Helvetica"
             x="0 4.0728085 12.3560979 18.7349191 22.5553282 28.2916782 34.6704994 37.85991 44.2387312 48.0591403 54.4379615 58.51077 61.7001806 65.5205897 78.2782321 82.0986412 85.2880518 88.4774624 91.0244018 97.403223 103.7820442 106.9714548 112.7078048 115.8972154 122.2760366 128.6548578 135.033679 137.5806184 143.9594396 149.6957896 152.8852002 156.0746108 162.453432 166.2738411 172.6526623"
             y="0"
             sodipodi:role="line"
             id="tspan68">&quot;Curvature&quot; ( ) fights against drag</tspan><tspan
             style="fill:#000000;fill-opacity:1;fill-rule:nonzero;stroke:none;font-family:Helvetica;font-variant:normal;font-weight:normal;font-size:11.4727;writing-mode:lr;-inkscape-font-specification:Helvetica"
             x="9.56055 19.1173091 25.4961303 31.2324803 36.9688303 40.1582409 46.5370621 50.3574712 56.7362924 63.1151136 68.8514636 72.0408742 80.3241636 86.7029848 92.4393348 98.818156 102.0075666 108.3863878 114.765209 123.0484984"
             y="-122.376"
             sodipodi:role="line"
             id="tspan70">Mass drags wave down</tspan></text>
<text
           transform="matrix(-1,9e-8,9e-8,1,139.653,12.5535)"
           id="text72"><tspan
             style="fill:#000000;fill-opacity:1;fill-rule:nonzero;stroke:none;font-family:Symbol;font-variant:normal;font-weight:normal;font-size:11.4727;writing-mode:lr;-inkscape-font-specification:Symbol"
             x="0"
             y="0"
             id="tspan74">∆</tspan></text>
<text
           transform="matrix(1,0,0,-1,140.609,9.0793)"
           id="text76"><tspan
             style="fill:#000000;fill-opacity:1;fill-rule:nonzero;stroke:none;font-family:Helvetica;font-variant:normal;font-weight:normal;font-size:9.5606;writing-mode:lr;-inkscape-font-specification:Helvetica"
             x="0"
             y="0"
             id="tspan78">2</tspan></text>
</g></g></g></svg>