<?xml version="1.0" encoding="UTF-8" standalone="no"?>
<!-- Created with Inkscape (http://www.inkscape.org/) -->

<svg
   xmlns:dc="http://purl.org/dc/elements/1.1/"
   xmlns:cc="http://creativecommons.org/ns#"
   xmlns:rdf="http://www.w3.org/1999/02/22-rdf-syntax-ns#"
   xmlns:svg="http://www.w3.org/2000/svg"
   xmlns="http://www.w3.org/2000/svg"
   xmlns:sodipodi="http://sodipodi.sourceforge.net/DTD/sodipodi-0.dtd"
   xmlns:inkscape="http://www.inkscape.org/namespaces/inkscape"
   width="744.09448819"
   height="1052.3622047"
   id="svg3071"
   version="1.1"
   inkscape:version="0.48.1 r9760"
   sodipodi:docname="fig_lorentz_xform.svg"
   inkscape:export-filename="/Users/oreilly/svn_docs/physics/fig_lorentz_xform.png"
   inkscape:export-xdpi="150"
   inkscape:export-ydpi="150">
  <defs
     id="defs3073">
    <marker
       inkscape:stockid="Arrow1Mstart"
       orient="auto"
       refY="0.0"
       refX="0.0"
       id="Arrow1Mstart"
       style="overflow:visible">
      <path
         id="path4101"
         d="M 0.0,0.0 L 5.0,-5.0 L -12.5,0.0 L 5.0,5.0 L 0.0,0.0 z "
         style="fill-rule:evenodd;stroke:#000000;stroke-width:1.0pt;marker-start:none"
         transform="scale(0.4) translate(10,0)" />
    </marker>
    <marker
       inkscape:stockid="Arrow1Mend"
       orient="auto"
       refY="0.0"
       refX="0.0"
       id="Arrow1Mend"
       style="overflow:visible;">
      <path
         id="path4104"
         d="M 0.0,0.0 L 5.0,-5.0 L -12.5,0.0 L 5.0,5.0 L 0.0,0.0 z "
         style="fill-rule:evenodd;stroke:#000000;stroke-width:1.0pt;marker-start:none;"
         transform="scale(0.4) rotate(180) translate(10,0)" />
    </marker>
    <clipPath
       id="clipPath18"
       clipPathUnits="userSpaceOnUse">
      <path
         id="path20"
         d="m 0,0 0,4215.21 5385.83,0 L 5385.83,0 0,0 z" />
    </clipPath>
  </defs>
  <sodipodi:namedview
     id="base"
     pagecolor="#ffffff"
     bordercolor="#666666"
     borderopacity="1.0"
     inkscape:pageopacity="0.0"
     inkscape:pageshadow="2"
     inkscape:zoom="1.979899"
     inkscape:cx="248.63996"
     inkscape:cy="631.30779"
     inkscape:document-units="px"
     inkscape:current-layer="layer1"
     showgrid="false" />
  <metadata
     id="metadata3076">
    <rdf:RDF>
      <cc:Work
         rdf:about="">
        <dc:format>image/svg+xml</dc:format>
        <dc:type
           rdf:resource="http://purl.org/dc/dcmitype/StillImage" />
        <dc:title />
      </cc:Work>
    </rdf:RDF>
  </metadata>
  <g
     inkscape:label="Layer 1"
     inkscape:groupmode="layer"
     id="layer1">
    <rect
       style="fill:#ffffff;fill-opacity:1;fill-rule:nonzero;stroke:#ffffff;stroke-width:1.08004165;stroke-linejoin:round;stroke-miterlimit:10;stroke-opacity:1;stroke-dasharray:none;stroke-dashoffset:0"
       id="rect6141"
       width="483.25363"
       height="293.44238"
       x="-18.650885"
       y="276.05994" />
    <g
       id="g3301"
       transform="matrix(-0.65400986,0,0,0.65400986,278.39727,230.70207)">
      <path
         sodipodi:nodetypes="cscccccccccsc"
         inkscape:connector-curvature="0"
         id="path2987"
         d="m 46.912198,415.58972 c -2.337669,0.22392 -4.211251,7.46407 -4.211251,16.35621 0,1.69846 0.06895,3.33471 0.19603,4.87492 l -17.500691,27.83489 17.304661,0 0,-12.26716 4.326165,0.003 0,-4.08905 73.544808,0 0,-32.71244 -73.429894,0 c -0.03711,-0.004 -0.07758,0 -0.114914,0 -0.03733,0 -0.07781,-0.004 -0.114914,0 z"
         style="fill:#000000;stroke:#000000;stroke-width:0.16625433px;stroke-linecap:butt;stroke-linejoin:miter;stroke-opacity:1" />
      <rect
         y="374.69656"
         x="120.57191"
         height="73.602966"
         width="60.566315"
         id="rect3759"
         style="fill:#000000;stroke:#000000;stroke-width:0.21029694;stroke-miterlimit:4;stroke-opacity:1;stroke-dasharray:none;stroke-dashoffset:0" />
      <rect
         y="378.78561"
         x="124.89809"
         height="24.534323"
         width="17.304663"
         id="rect3761"
         style="fill:#ffffff;stroke:#000000;stroke-width:0.21029694;stroke-miterlimit:4;stroke-opacity:1;stroke-dasharray:none;stroke-dashoffset:0" />
      <path
         id="rect3765"
         d="m 55.679443,395.55336 c -4.629219,0 -8.407074,1.62764 -8.638811,3.68014 l -0.01352,0 0,0.20446 0,3.8846 4.326165,0 0,12.26716 8.65233,0 0,-12.26716 4.326166,0 0,-3.8846 0,-0.20446 -0.01352,0 c -0.231738,-2.0525 -4.009592,-3.68014 -8.638811,-3.68014 z"
         style="fill:#000000;stroke:#000000;stroke-width:0.21029694;stroke-miterlimit:4;stroke-opacity:1;stroke-dashoffset:0"
         inkscape:connector-curvature="0" />
      <path
         transform="matrix(0.21630827,0,0,0.20445269,25.396286,351.72381)"
         d="m 220,532.36218 c 0,33.13709 -26.86292,60 -60,60 -33.13708,0 -60,-26.86291 -60,-60 0,-33.13708 26.86292,-60 60,-60 33.13708,0 60,26.86292 60,60 z"
         sodipodi:ry="60"
         sodipodi:rx="60"
         sodipodi:cy="532.36218"
         sodipodi:cx="160"
         id="path3774"
         style="fill:#000000;stroke:#000000;stroke-width:1;stroke-miterlimit:4;stroke-opacity:1;stroke-dasharray:none;stroke-dashoffset:0"
         sodipodi:type="arc" />
      <path
         inkscape:connector-curvature="0"
         id="path3776"
         d="m 170.32282,454.43311 c 0,10.16245 -8.716,18.40074 -19.46774,18.40074 -10.75174,0 -19.46775,-8.23829 -19.46775,-18.40074 0,-10.16245 8.71601,-18.40074 19.46775,-18.40074 10.75174,0 19.46774,8.23829 19.46774,18.40074 z"
         style="fill:#000000;stroke:#000000;stroke-width:0.31544542;stroke-miterlimit:4;stroke-opacity:1;stroke-dashoffset:0" />
      <path
         transform="matrix(0.21630827,0,0,0.20445269,68.657939,351.72381)"
         d="m 220,532.36218 c 0,33.13709 -26.86292,60 -60,60 -33.13708,0 -60,-26.86291 -60,-60 0,-33.13708 26.86292,-60 60,-60 33.13708,0 60,26.86292 60,60 z"
         sodipodi:ry="60"
         sodipodi:rx="60"
         sodipodi:cy="532.36218"
         sodipodi:cx="160"
         id="path3778"
         style="fill:#000000;stroke:#000000;stroke-width:1;stroke-miterlimit:4;stroke-opacity:1;stroke-dasharray:none;stroke-dashoffset:0"
         sodipodi:type="arc" />
      <path
         inkscape:connector-curvature="0"
         id="path3780"
         d="m 161.67049,454.43311 c 0,5.6458 -4.84222,10.22263 -10.81541,10.22263 -5.97319,0 -10.81541,-4.57683 -10.81541,-10.22263 0,-5.6458 4.84222,-10.22264 10.81541,-10.22264 5.97319,0 10.81541,4.57684 10.81541,10.22264 z"
         style="fill:#ffffff;stroke:#000000;stroke-width:0.17524743;stroke-miterlimit:4;stroke-opacity:1;stroke-dashoffset:0" />
      <rect
         y="460.56668"
         x="55.679443"
         height="4.0890536"
         width="103.82796"
         id="rect3784"
         style="fill:#000000;fill-opacity:1;stroke:#000000;stroke-width:0.21029694;stroke-miterlimit:4;stroke-opacity:1;stroke-dasharray:none;stroke-dashoffset:0" />
      <rect
         y="378.78561"
         x="147.23523"
         height="24.534323"
         width="28.95882"
         id="rect3763"
         style="fill:#000000;stroke:#000000;stroke-width:0.20564722;stroke-miterlimit:4;stroke-opacity:1;stroke-dasharray:none;stroke-dashoffset:0" />
      <path
         style="fill:#ffffff;fill-opacity:1;stroke:#000000;stroke-width:0.1090609px;stroke-linecap:butt;stroke-linejoin:miter;stroke-opacity:1"
         d="m 172.57419,403.31994 c -2.71488,-8.76226 0,-10.51471 0,-10.51471 0,0 0,-1.75245 -2.71488,-3.50491 -6.92164,-4.46789 -8.14467,-10.51471 -8.14467,-10.51471 0,0 -1.22303,6.04682 -8.14467,10.51471 -2.71489,1.75246 -2.71489,3.50491 -2.71489,3.50491 0,0 2.71489,1.75245 0,10.51471 l -3.61985,0 0,-24.53433 28.95882,0 0,24.53433 z"
         id="path3802"
         inkscape:connector-curvature="0"
         sodipodi:nodetypes="ccscscc" />
      <g
         id="g3226">
        <path
           inkscape:connector-curvature="0"
           style="fill:#000000;stroke:#000000;stroke-width:0.21029694;stroke-miterlimit:4;stroke-opacity:1;stroke-dashoffset:0"
           d="m 189.35795,436.03499 0,2.33204 -8.21972,0 0,7.89059 8.21972,0 0,2.04453 1.65611,0 0,-12.26716 -1.65611,0 z"
           id="rect3810" />
      </g>
      <g
         transform="translate(-5.0507627,0)"
         id="g3237">
        <rect
           style="fill:#000000;fill-opacity:1;fill-rule:nonzero;stroke:#ffffff;stroke-width:1;stroke-linejoin:round;stroke-miterlimit:10;stroke-opacity:1;stroke-dasharray:none;stroke-dashoffset:0"
           id="rect3212"
           width="111.11678"
           height="52.527931"
           x="206.5762"
           y="402.32901" />
        <g
           id="g3229"
           transform="matrix(-1,0,0,1,388.81981,0)">
          <path
             inkscape:connector-curvature="0"
             style="fill:#000000;stroke:#000000;stroke-width:0.21029694;stroke-miterlimit:4;stroke-opacity:1;stroke-dashoffset:0"
             d="m 189.35795,436.03499 0,2.33204 -8.21972,0 0,7.89059 8.21972,0 0,2.04453 1.65611,0 0,-12.26716 -1.65611,0 z"
             id="path3231" />
        </g>
        <path
           transform="matrix(0.21630827,0,0,0.20445269,197.6273,351.72381)"
           d="m 220,532.36218 c 0,33.13709 -26.86292,60 -60,60 -33.13708,0 -60,-26.86291 -60,-60 0,-33.13708 26.86292,-60 60,-60 33.13708,0 60,26.86292 60,60 z"
           sodipodi:ry="60"
           sodipodi:rx="60"
           sodipodi:cy="532.36218"
           sodipodi:cx="160"
           id="path3233"
           style="fill:#000000;stroke:#000000;stroke-width:1;stroke-miterlimit:4;stroke-opacity:1;stroke-dasharray:none;stroke-dashoffset:0"
           sodipodi:type="arc" />
        <path
           sodipodi:type="arc"
           style="fill:#000000;stroke:#000000;stroke-width:1;stroke-miterlimit:4;stroke-opacity:1;stroke-dasharray:none;stroke-dashoffset:0"
           id="path3235"
           sodipodi:cx="160"
           sodipodi:cy="532.36218"
           sodipodi:rx="60"
           sodipodi:ry="60"
           d="m 220,532.36218 c 0,33.13709 -26.86292,60 -60,60 -33.13708,0 -60,-26.86291 -60,-60 0,-33.13708 26.86292,-60 60,-60 33.13708,0 60,26.86292 60,60 z"
           transform="matrix(0.21630827,0,0,0.20445269,260.76183,351.72381)" />
      </g>
    </g>
    <path
       style="fill:#000000;fill-opacity:1;fill-rule:nonzero;stroke:#000000;stroke-width:2.61603951;stroke-linejoin:round;stroke-miterlimit:10;stroke-opacity:1;stroke-dasharray:none;stroke-dashoffset:0;marker-end:url(#Arrow1Mend)"
       d="m 74.907185,299.64183 189.606475,0"
       id="path3322"
       inkscape:connector-curvature="0" />
    <text
       xml:space="preserve"
       style="font-size:12px;font-style:normal;font-variant:normal;font-weight:normal;font-stretch:normal;text-indent:0;text-align:start;text-decoration:none;line-height:125%;letter-spacing:0px;word-spacing:0px;text-transform:none;direction:ltr;block-progression:tb;writing-mode:lr-tb;text-anchor:start;color:#000000;fill:#000000;fill-opacity:1;fill-rule:nonzero;stroke:none;stroke-width:1px;marker:none;visibility:visible;display:inline;overflow:visible;enable-background:accumulate;font-family:Arial;-inkscape-font-specification:Arial"
       x="93.089928"
       y="292.22238"
       id="text4536"
       sodipodi:linespacing="125%"><tspan
         sodipodi:role="line"
         id="tspan4538"
         x="93.089928"
         y="292.22238">30m in 100ns = 3x10<tspan
   style="font-size:65.00091553%;baseline-shift:super"
   id="tspan5662">8</tspan> m/s</tspan></text>
    <text
       xml:space="preserve"
       style="font-size:12px;font-style:normal;font-variant:normal;font-weight:normal;font-stretch:normal;text-indent:0;text-align:start;text-decoration:none;line-height:125%;letter-spacing:0px;word-spacing:0px;text-transform:none;direction:ltr;block-progression:tb;writing-mode:lr-tb;text-anchor:start;color:#000000;fill:#000000;fill-opacity:1;fill-rule:nonzero;stroke:none;stroke-width:1px;marker:none;visibility:visible;display:inline;overflow:visible;enable-background:accumulate;font-family:Arial;-inkscape-font-specification:Arial"
       x="13.571433"
       y="302.71933"
       id="text4565"
       sodipodi:linespacing="125%"><tspan
         sodipodi:role="line"
         id="tspan4567"
         x="13.571433"
         y="302.71933">light ray</tspan></text>
    <text
       xml:space="preserve"
       style="font-size:12px;font-style:normal;font-variant:normal;font-weight:normal;font-stretch:normal;text-indent:0;text-align:start;text-decoration:none;line-height:125%;letter-spacing:0px;word-spacing:0px;text-transform:none;direction:ltr;block-progression:tb;writing-mode:lr-tb;text-anchor:start;color:#000000;fill:#000000;fill-opacity:1;fill-rule:nonzero;stroke:none;stroke-width:1px;marker:none;visibility:visible;display:inline;overflow:visible;enable-background:accumulate;font-family:Arial;-inkscape-font-specification:Arial"
       x="13.659324"
       y="514.47528"
       id="text4590"
       sodipodi:linespacing="125%"><tspan
         sodipodi:role="line"
         id="tspan4592"
         x="13.659324"
         y="514.47528">stopped</tspan><tspan
         sodipodi:role="line"
         x="13.659324"
         y="529.47528"
         id="tspan5090">(ref frame)</tspan></text>
    <g
       id="g5687"
       transform="translate(0,-17.172593)">
      <path
         style="fill:#ff0000;stroke:#000000;stroke-width:0.07704052px;stroke-linecap:butt;stroke-linejoin:miter;stroke-opacity:1"
         d="m 161.07751,415.03157 c 0.76753,0.14645 1.38268,4.88158 1.38268,10.69713 0,1.11081 -0.0226,2.18093 -0.0644,3.18824 l 5.74597,18.2043 -5.6816,0 0,-8.02285 -1.42041,0.002 0,-2.67428 -24.14683,0 0,-21.39425 24.1091,0 c 0.0122,-0.003 0.0255,0 0.0377,0 0.0123,0 0.0255,-0.003 0.0377,0 z"
         id="path4596"
         inkscape:connector-curvature="0"
         sodipodi:nodetypes="cscccccccccsc" />
      <rect
         transform="scale(-1,1)"
         style="fill:#ff0000;stroke:#000000;stroke-width:0.09744941;stroke-miterlimit:4;stroke-opacity:1;stroke-dasharray:none;stroke-dashoffset:0"
         id="rect4598"
         width="19.885628"
         height="48.137066"
         x="-136.89296"
         y="388.28705" />
      <rect
         transform="scale(-1,1)"
         style="fill:#ffffff;stroke:#000000;stroke-width:0.09744941;stroke-miterlimit:4;stroke-opacity:1;stroke-dasharray:none;stroke-dashoffset:0"
         id="rect4600"
         width="5.6816082"
         height="16.045689"
         x="-135.47255"
         y="390.96133" />
      <path
         inkscape:connector-curvature="0"
         style="fill:#ff0000;stroke:#000000;stroke-width:0.09744941;stroke-miterlimit:4;stroke-opacity:1;stroke-dashoffset:0"
         d="m 158.19898,401.9276 c 1.5199,0 2.76028,1.06449 2.83636,2.40685 l 0.004,0 0,0.13371 0,2.54057 -1.4204,0 0,8.02284 -2.8408,0 0,-8.02284 -1.4204,0 0,-2.54057 0,-0.13371 0.004,0 c 0.0761,-1.34236 1.31646,-2.40685 2.83636,-2.40685 z"
         id="path4602" />
      <path
         sodipodi:type="arc"
         style="fill:#ff0000;stroke:#000000;stroke-width:1;stroke-miterlimit:4;stroke-opacity:1;stroke-dasharray:none;stroke-dashoffset:0"
         id="path4604"
         sodipodi:cx="160"
         sodipodi:cy="532.36218"
         sodipodi:rx="60"
         sodipodi:ry="60"
         d="m 220,532.36218 c 0,33.13709 -26.86292,60 -60,60 -33.13708,0 -60,-26.86291 -60,-60 0,-33.13708 26.86292,-60 60,-60 33.13708,0 60,26.86292 60,60 z"
         transform="matrix(-0.0710201,0,0,0.13371408,168.14179,373.26264)" />
      <path
         style="fill:#ff0000;stroke:#000000;stroke-width:0.1461741;stroke-miterlimit:4;stroke-opacity:1;stroke-dashoffset:0"
         d="m 120.55833,440.43553 c 0,6.64635 2.86171,12.03427 6.39181,12.03427 3.5301,0 6.39181,-5.38792 6.39181,-12.03427 0,-6.64634 -2.86171,-12.03426 -6.39181,-12.03426 -3.5301,0 -6.39181,5.38792 -6.39181,12.03426 z"
         id="path4606"
         inkscape:connector-curvature="0" />
      <path
         sodipodi:type="arc"
         style="fill:#ff0000;stroke:#000000;stroke-width:1;stroke-miterlimit:4;stroke-opacity:1;stroke-dasharray:none;stroke-dashoffset:0"
         id="path4608"
         sodipodi:cx="160"
         sodipodi:cy="532.36218"
         sodipodi:rx="60"
         sodipodi:ry="60"
         d="m 220,532.36218 c 0,33.13709 -26.86292,60 -60,60 -33.13708,0 -60,-26.86291 -60,-60 0,-33.13708 26.86292,-60 60,-60 33.13708,0 60,26.86292 60,60 z"
         transform="matrix(-0.0710201,0,0,0.13371408,153.93777,373.26264)" />
      <path
         style="fill:#ffffff;stroke:#000000;stroke-width:0.08120783;stroke-miterlimit:4;stroke-opacity:1;stroke-dashoffset:0"
         d="m 123.39913,440.43553 c 0,3.69241 1.58984,6.68571 3.55101,6.68571 1.96116,0 3.551,-2.9933 3.551,-6.68571 0,-3.6924 -1.58984,-6.6857 -3.551,-6.6857 -1.96117,0 -3.55101,2.9933 -3.55101,6.6857 z"
         id="path4610"
         inkscape:connector-curvature="0" />
      <rect
         transform="scale(-1,1)"
         style="fill:#ff0000;fill-opacity:1;stroke:#000000;stroke-width:0.09744941;stroke-miterlimit:4;stroke-opacity:1;stroke-dasharray:none;stroke-dashoffset:0"
         id="rect4612"
         width="34.089645"
         height="2.6742814"
         x="-158.19897"
         y="444.44696" />
      <rect
         transform="scale(-1,1)"
         style="fill:#ff0000;stroke:#000000;stroke-width:0.09529477;stroke-miterlimit:4;stroke-opacity:1;stroke-dasharray:none;stroke-dashoffset:0"
         id="rect4614"
         width="9.5079966"
         height="16.045689"
         x="-128.13864"
         y="390.96133" />
      <path
         sodipodi:nodetypes="ccscscc"
         inkscape:connector-curvature="0"
         id="path4616"
         d="m 119.81914,407.00702 c 0.89137,-5.73061 0,-6.87673 0,-6.87673 0,0 0,-1.14612 0.89137,-2.29224 2.27257,-2.92205 2.67413,-6.87673 2.67413,-6.87673 0,0 0.40155,3.95468 2.67412,6.87673 0.89138,1.14612 0.89138,2.29224 0.89138,2.29224 0,0 -0.89138,1.14612 0,6.87673 l 1.18849,0 0,-16.0457 -9.50799,0 0,16.0457 z"
         style="fill:#ffffff;fill-opacity:1;stroke:#000000;stroke-width:0.05053768px;stroke-linecap:butt;stroke-linejoin:miter;stroke-opacity:1" />
      <g
         transform="matrix(-0.32832818,0,0,0.65400986,176.48011,143.2318)"
         id="g4618"
         style="fill:#ff0000">
        <path
           id="path4620"
           d="m 189.35795,436.03499 0,2.33204 -8.21972,0 0,7.89059 8.21972,0 0,2.04453 1.65611,0 0,-12.26716 -1.65611,0 z"
           style="fill:#ff0000;stroke:#000000;stroke-width:0.21029694;stroke-miterlimit:4;stroke-opacity:1;stroke-dashoffset:0"
           inkscape:connector-curvature="0" />
      </g>
      <g
         id="g4622"
         transform="matrix(-0.32832818,0,0,0.65400986,178.13842,143.2318)"
         style="fill:#ff0000">
        <rect
           y="402.32901"
           x="206.5762"
           height="52.527931"
           width="111.11678"
           id="rect4624"
           style="fill:#ff0000;fill-opacity:1;fill-rule:nonzero;stroke:#ffffff;stroke-width:1;stroke-linejoin:round;stroke-miterlimit:10;stroke-opacity:1;stroke-dasharray:none;stroke-dashoffset:0" />
        <g
           transform="matrix(-1,0,0,1,388.81981,0)"
           id="g4626"
           style="fill:#ff0000">
          <path
             id="path4628"
             d="m 189.35795,436.03499 0,2.33204 -8.21972,0 0,7.89059 8.21972,0 0,2.04453 1.65611,0 0,-12.26716 -1.65611,0 z"
             style="fill:#ff0000;stroke:#000000;stroke-width:0.21029694;stroke-miterlimit:4;stroke-opacity:1;stroke-dashoffset:0"
             inkscape:connector-curvature="0" />
        </g>
        <path
           sodipodi:type="arc"
           style="fill:#ff0000;stroke:#000000;stroke-width:1;stroke-miterlimit:4;stroke-opacity:1;stroke-dasharray:none;stroke-dashoffset:0"
           id="path4630"
           sodipodi:cx="160"
           sodipodi:cy="532.36218"
           sodipodi:rx="60"
           sodipodi:ry="60"
           d="m 220,532.36218 c 0,33.13709 -26.86292,60 -60,60 -33.13708,0 -60,-26.86291 -60,-60 0,-33.13708 26.86292,-60 60,-60 33.13708,0 60,26.86292 60,60 z"
           transform="matrix(0.21630827,0,0,0.20445269,197.6273,351.72381)" />
        <path
           transform="matrix(0.21630827,0,0,0.20445269,260.76183,351.72381)"
           d="m 220,532.36218 c 0,33.13709 -26.86292,60 -60,60 -33.13708,0 -60,-26.86291 -60,-60 0,-33.13708 26.86292,-60 60,-60 33.13708,0 60,26.86292 60,60 z"
           sodipodi:ry="60"
           sodipodi:rx="60"
           sodipodi:cy="532.36218"
           sodipodi:cx="160"
           id="path4632"
           style="fill:#ff0000;stroke:#000000;stroke-width:1;stroke-miterlimit:4;stroke-opacity:1;stroke-dasharray:none;stroke-dashoffset:0"
           sodipodi:type="arc" />
      </g>
    </g>
    <text
       xml:space="preserve"
       style="font-size:12px;font-style:normal;font-variant:normal;font-weight:normal;font-stretch:normal;text-indent:0;text-align:start;text-decoration:none;line-height:125%;letter-spacing:0px;word-spacing:0px;text-transform:none;direction:ltr;block-progression:tb;writing-mode:lr-tb;text-anchor:start;color:#000000;fill:#000000;fill-opacity:1;fill-rule:nonzero;stroke:none;stroke-width:1px;marker:none;visibility:visible;display:inline;overflow:visible;enable-background:accumulate;font-family:Arial;-inkscape-font-specification:Arial"
       x="7.5714331"
       y="395.54672"
       id="text4634"
       sodipodi:linespacing="125%"><tspan
         sodipodi:role="line"
         id="tspan4636"
         x="7.5714331"
         y="395.54672">speeding</tspan><tspan
         sodipodi:role="line"
         x="7.5714331"
         y="410.54672"
         id="tspan4638">.866 c</tspan></text>
    <path
       inkscape:connector-curvature="0"
       id="path4640"
       d="m 74.75943,444.5627 168.18841,0"
       style="fill:#000000;fill-opacity:1;fill-rule:nonzero;stroke:#000000;stroke-width:2.32053018;stroke-linejoin:round;stroke-miterlimit:10;stroke-opacity:1;stroke-dasharray:none;stroke-dashoffset:0;marker-end:url(#Arrow1Mend)" />
    <text
       xml:space="preserve"
       style="font-size:12px;font-style:normal;font-variant:normal;font-weight:normal;font-stretch:normal;text-indent:0;text-align:start;text-decoration:none;line-height:125%;letter-spacing:0px;word-spacing:0px;text-transform:none;direction:ltr;block-progression:tb;writing-mode:lr-tb;text-anchor:start;color:#000000;fill:#000000;fill-opacity:1;fill-rule:nonzero;stroke:none;stroke-width:1px;marker:none;visibility:visible;display:inline;overflow:visible;enable-background:accumulate;font-family:Arial;-inkscape-font-specification:Arial"
       x="117.14285"
       y="459.11816"
       id="text4642"
       sodipodi:linespacing="125%"><tspan
         sodipodi:role="line"
         id="tspan4644"
         x="117.14285"
         y="459.11816">26 m in 100ns</tspan></text>
    <text
       xml:space="preserve"
       style="font-size:12px;font-style:normal;font-variant:normal;font-weight:normal;font-stretch:normal;text-indent:0;text-align:start;text-decoration:none;line-height:125%;letter-spacing:0px;word-spacing:0px;text-transform:none;direction:ltr;block-progression:tb;writing-mode:lr-tb;text-anchor:start;color:#000000;fill:#000000;fill-opacity:1;fill-rule:nonzero;stroke:none;stroke-width:1px;marker:none;visibility:visible;display:inline;overflow:visible;enable-background:accumulate;font-family:Arial;-inkscape-font-specification:Arial"
       x="73.571426"
       y="313.19904"
       id="text4646"
       sodipodi:linespacing="125%"><tspan
         sodipodi:role="line"
         id="tspan4648"
         x="73.571426"
         y="313.19904">t</tspan></text>
    <text
       xml:space="preserve"
       style="font-size:12px;font-style:normal;font-variant:normal;font-weight:normal;font-stretch:normal;text-indent:0;text-align:start;text-decoration:none;line-height:125%;letter-spacing:0px;word-spacing:0px;text-transform:none;direction:ltr;block-progression:tb;writing-mode:lr-tb;text-anchor:start;color:#000000;fill:#000000;fill-opacity:1;fill-rule:nonzero;stroke:none;stroke-width:1px;marker:none;visibility:visible;display:inline;overflow:visible;enable-background:accumulate;font-family:Arial;-inkscape-font-specification:Arial"
       x="266.07144"
       y="313.13458"
       id="text4650"
       sodipodi:linespacing="125%"><tspan
         sodipodi:role="line"
         id="tspan4652"
         x="266.07144"
         y="313.13458">t+100ns</tspan></text>
    <path
       sodipodi:type="arc"
       style="fill:#000000;fill-opacity:1;fill-rule:nonzero;stroke:#000000;stroke-width:4;stroke-linejoin:round;stroke-miterlimit:10;stroke-opacity:1;stroke-dasharray:none;stroke-dashoffset:0"
       id="path4656"
       sodipodi:cx="75.714287"
       sodipodi:cy="299.50504"
       sodipodi:rx="3.5714285"
       sodipodi:ry="3.5714285"
       d="m 79.285715,299.50504 a 3.5714285,3.5714285 0 1 1 -7.142857,0 3.5714285,3.5714285 0 1 1 7.142857,0 z"
       transform="matrix(0.5625,0,0,0.5625,33.125001,131.17025)" />
    <path
       d="m 79.285715,299.50504 a 3.5714285,3.5714285 0 1 1 -7.142857,0 3.5714285,3.5714285 0 1 1 7.142857,0 z"
       sodipodi:ry="3.5714285"
       sodipodi:rx="3.5714285"
       sodipodi:cy="299.50504"
       sodipodi:cx="75.714287"
       id="path4658"
       style="fill:#000000;fill-opacity:1;fill-rule:nonzero;stroke:#000000;stroke-width:4;stroke-linejoin:round;stroke-miterlimit:10;stroke-opacity:1;stroke-dasharray:none;stroke-dashoffset:0"
       sodipodi:type="arc"
       transform="matrix(0.5625,0,0,0.5625,224.19643,131.17025)" />
    <path
       d="m 79.285715,299.50504 a 3.5714285,3.5714285 0 1 1 -7.142857,0 3.5714285,3.5714285 0 1 1 7.142857,0 z"
       sodipodi:ry="3.5714285"
       sodipodi:rx="3.5714285"
       sodipodi:cy="299.50504"
       sodipodi:cx="75.714287"
       id="path4660"
       style="fill:#000000;fill-opacity:1;fill-rule:nonzero;stroke:#000000;stroke-width:4;stroke-linejoin:round;stroke-miterlimit:10;stroke-opacity:1;stroke-dasharray:none;stroke-dashoffset:0"
       sodipodi:type="arc"
       transform="matrix(0.5625,0,0,0.5625,33.125001,276.09112)" />
    <path
       transform="matrix(0.5625,0,0,0.5625,204.85094,276.09112)"
       sodipodi:type="arc"
       style="fill:#000000;fill-opacity:1;fill-rule:nonzero;stroke:#000000;stroke-width:4;stroke-linejoin:round;stroke-miterlimit:10;stroke-opacity:1;stroke-dasharray:none;stroke-dashoffset:0"
       id="path4662"
       sodipodi:cx="75.714287"
       sodipodi:cy="299.50504"
       sodipodi:rx="3.5714285"
       sodipodi:ry="3.5714285"
       d="m 79.285715,299.50504 a 3.5714285,3.5714285 0 1 1 -7.142857,0 3.5714285,3.5714285 0 1 1 7.142857,0 z" />
    <text
       sodipodi:linespacing="125%"
       id="text4664"
       y="458.0213"
       x="73.928574"
       style="font-size:12px;font-style:normal;font-variant:normal;font-weight:normal;font-stretch:normal;text-indent:0;text-align:start;text-decoration:none;line-height:125%;letter-spacing:0px;word-spacing:0px;text-transform:none;direction:ltr;block-progression:tb;writing-mode:lr-tb;text-anchor:start;color:#000000;fill:#000000;fill-opacity:1;fill-rule:nonzero;stroke:none;stroke-width:1px;marker:none;visibility:visible;display:inline;overflow:visible;enable-background:accumulate;font-family:Arial;-inkscape-font-specification:Arial"
       xml:space="preserve"><tspan
         y="458.0213"
         x="73.928574"
         id="tspan4666"
         sodipodi:role="line">t</tspan></text>
    <path
       style="fill:none;stroke:#000000;stroke-width:2;stroke-linejoin:round;stroke-miterlimit:10;stroke-opacity:1;stroke-dasharray:none;stroke-dashoffset:0;marker-start:url(#Arrow1Mstart);marker-end:url(#Arrow1Mend)"
       d="m 77.907906,344.86218 87.806384,0"
       id="path4668"
       inkscape:connector-curvature="0"
       sodipodi:nodetypes="cc" />
    <text
       xml:space="preserve"
       style="font-size:12px;font-style:normal;font-variant:normal;font-weight:normal;font-stretch:normal;text-indent:0;text-align:start;text-decoration:none;line-height:125%;letter-spacing:0px;word-spacing:0px;text-transform:none;direction:ltr;block-progression:tb;writing-mode:lr-tb;text-anchor:start;color:#000000;fill:#ff0000;fill-opacity:1;fill-rule:nonzero;stroke:none;stroke-width:1px;marker:none;visibility:visible;display:inline;overflow:visible;enable-background:accumulate;font-family:Arial;-inkscape-font-specification:Arial"
       x="-11.689287"
       y="347.82083"
       id="text5040"
       sodipodi:linespacing="125%"><tspan
         sodipodi:role="line"
         id="tspan5042"
         x="-11.689287"
         y="347.82083"
         style="font-weight:bold;-inkscape-font-specification:Arial Bold">contracted .5x</tspan></text>
    <text
       sodipodi:linespacing="125%"
       id="text5084"
       y="458.0213"
       x="246.66316"
       style="font-size:12px;font-style:normal;font-variant:normal;font-weight:normal;font-stretch:normal;text-indent:0;text-align:start;text-decoration:none;line-height:125%;letter-spacing:0px;word-spacing:0px;text-transform:none;direction:ltr;block-progression:tb;writing-mode:lr-tb;text-anchor:start;color:#000000;fill:#000000;fill-opacity:1;fill-rule:nonzero;stroke:none;stroke-width:1px;marker:none;visibility:visible;display:inline;overflow:visible;enable-background:accumulate;font-family:Arial;-inkscape-font-specification:Arial"
       xml:space="preserve"><tspan
         y="458.0213"
         x="246.66316"
         id="tspan5086"
         sodipodi:role="line">t+100ns</tspan></text>
    <path
       style="fill:#000000;fill-opacity:1;fill-rule:nonzero;stroke:#000000;stroke-width:2;stroke-linejoin:round;stroke-miterlimit:10;stroke-opacity:1;stroke-dasharray:none;stroke-dashoffset:0;marker-end:url(#Arrow1Mend)"
       d="m 247.67332,344.86218 16.82161,0"
       id="path5092"
       inkscape:connector-curvature="0"
       sodipodi:nodetypes="cc" />
    <text
       xml:space="preserve"
       style="font-size:12px;font-style:normal;font-variant:normal;font-weight:normal;font-stretch:normal;text-indent:0;text-align:start;text-decoration:none;line-height:125%;letter-spacing:0px;word-spacing:0px;text-transform:none;direction:ltr;block-progression:tb;writing-mode:lr-tb;text-anchor:start;color:#000000;fill:#000000;fill-opacity:1;fill-rule:nonzero;stroke:none;stroke-width:1px;marker:none;visibility:visible;display:inline;overflow:visible;enable-background:accumulate;font-family:Arial;-inkscape-font-specification:Arial"
       x="243.92859"
       y="337.00504"
       id="text5278"
       sodipodi:linespacing="125%"><tspan
         sodipodi:role="line"
         id="tspan5280"
         x="243.92859"
         y="337.00504">4m</tspan></text>
    <path
       style="fill:#000000;fill-opacity:1;fill-rule:nonzero;stroke:#000000;stroke-width:1;stroke-linejoin:round;stroke-miterlimit:10;stroke-opacity:1;stroke-dasharray:none;stroke-dashoffset:0;marker-end:url(#Arrow1Mend)"
       d="m 77.5,303.43361 164.64286,41.42857"
       id="path5282"
       inkscape:connector-curvature="0" />
    <path
       style="fill:#000000;fill-opacity:1;fill-rule:nonzero;stroke:#000000;stroke-width:1;stroke-linejoin:round;stroke-miterlimit:10;stroke-opacity:1;stroke-dasharray:none;stroke-dashoffset:0;marker-end:url(#Arrow1Mend)"
       d="m 267.85714,317.36218 0,20.81145"
       id="path5468"
       inkscape:connector-curvature="0"
       sodipodi:nodetypes="cc" />
    <text
       xml:space="preserve"
       style="font-size:12px;font-style:normal;font-variant:normal;font-weight:normal;font-stretch:normal;text-indent:0;text-align:start;text-decoration:none;line-height:125%;letter-spacing:0px;word-spacing:0px;text-transform:none;direction:ltr;block-progression:tb;writing-mode:lr-tb;text-anchor:start;color:#000000;fill:#ff0000;fill-opacity:1;fill-rule:nonzero;stroke:none;stroke-width:1px;marker:none;visibility:visible;display:inline;overflow:visible;enable-background:accumulate;font-family:Arial;-inkscape-font-specification:Arial"
       x="251.62726"
       y="360.93362"
       id="text5654"
       sodipodi:linespacing="125%"><tspan
         sodipodi:role="line"
         id="tspan5656"
         x="251.62726"
         y="360.93362">8m in 26.8ns = 3x10<tspan
   style="font-size:65.00091553%;baseline-shift:super"
   id="tspan5660">8</tspan> m/s</tspan></text>
    <text
       xml:space="preserve"
       style="font-size:12px;font-style:normal;font-variant:normal;font-weight:normal;font-stretch:normal;text-indent:0;text-align:start;text-decoration:none;line-height:125%;letter-spacing:0px;word-spacing:0px;text-transform:none;direction:ltr;block-progression:tb;writing-mode:lr-tb;text-anchor:start;color:#000000;fill:#000000;fill-opacity:1;fill-rule:nonzero;stroke:none;stroke-width:1px;marker:none;visibility:visible;display:inline;overflow:visible;enable-background:accumulate;font-family:Arial;-inkscape-font-specification:Arial"
       x="293.16757"
       y="473.04556"
       id="text5664"
       sodipodi:linespacing="125%"><tspan
         sodipodi:role="line"
         id="tspan5666"
         x="293.16757"
         y="473.04556"
         style="font-weight:bold;fill:#ff0000;-inkscape-font-specification:Arial Bold">time dilated 2x</tspan></text>
    <g
       id="g5708"
       transform="translate(172.73609,-17.172593)">
      <path
         sodipodi:nodetypes="cscccccccccsc"
         inkscape:connector-curvature="0"
         id="path5710"
         d="m 161.07751,415.03157 c 0.76753,0.14645 1.38268,4.88158 1.38268,10.69713 0,1.11081 -0.0226,2.18093 -0.0644,3.18824 l 5.74597,18.2043 -5.6816,0 0,-8.02285 -1.42041,0.002 0,-2.67428 -24.14683,0 0,-21.39425 24.1091,0 c 0.0122,-0.003 0.0255,0 0.0377,0 0.0123,0 0.0255,-0.003 0.0377,0 z"
         style="fill:#ff0000;stroke:#000000;stroke-width:0.07704052px;stroke-linecap:butt;stroke-linejoin:miter;stroke-opacity:1" />
      <rect
         y="388.28705"
         x="-136.89296"
         height="48.137066"
         width="19.885628"
         id="rect5712"
         style="fill:#ff0000;stroke:#000000;stroke-width:0.09744941;stroke-miterlimit:4;stroke-opacity:1;stroke-dasharray:none;stroke-dashoffset:0"
         transform="scale(-1,1)" />
      <rect
         y="390.96133"
         x="-135.47255"
         height="16.045689"
         width="5.6816082"
         id="rect5714"
         style="fill:#ffffff;stroke:#000000;stroke-width:0.09744941;stroke-miterlimit:4;stroke-opacity:1;stroke-dasharray:none;stroke-dashoffset:0"
         transform="scale(-1,1)" />
      <path
         id="path5716"
         d="m 158.19898,401.9276 c 1.5199,0 2.76028,1.06449 2.83636,2.40685 l 0.004,0 0,0.13371 0,2.54057 -1.4204,0 0,8.02284 -2.8408,0 0,-8.02284 -1.4204,0 0,-2.54057 0,-0.13371 0.004,0 c 0.0761,-1.34236 1.31646,-2.40685 2.83636,-2.40685 z"
         style="fill:#ff0000;stroke:#000000;stroke-width:0.09744941;stroke-miterlimit:4;stroke-opacity:1;stroke-dashoffset:0"
         inkscape:connector-curvature="0" />
      <path
         transform="matrix(-0.0710201,0,0,0.13371408,168.14179,373.26264)"
         d="m 220,532.36218 c 0,33.13709 -26.86292,60 -60,60 -33.13708,0 -60,-26.86291 -60,-60 0,-33.13708 26.86292,-60 60,-60 33.13708,0 60,26.86292 60,60 z"
         sodipodi:ry="60"
         sodipodi:rx="60"
         sodipodi:cy="532.36218"
         sodipodi:cx="160"
         id="path5718"
         style="fill:#ff0000;stroke:#000000;stroke-width:1;stroke-miterlimit:4;stroke-opacity:1;stroke-dasharray:none;stroke-dashoffset:0"
         sodipodi:type="arc" />
      <path
         inkscape:connector-curvature="0"
         id="path5720"
         d="m 120.55833,440.43553 c 0,6.64635 2.86171,12.03427 6.39181,12.03427 3.5301,0 6.39181,-5.38792 6.39181,-12.03427 0,-6.64634 -2.86171,-12.03426 -6.39181,-12.03426 -3.5301,0 -6.39181,5.38792 -6.39181,12.03426 z"
         style="fill:#ff0000;stroke:#000000;stroke-width:0.1461741;stroke-miterlimit:4;stroke-opacity:1;stroke-dashoffset:0" />
      <path
         transform="matrix(-0.0710201,0,0,0.13371408,153.93777,373.26264)"
         d="m 220,532.36218 c 0,33.13709 -26.86292,60 -60,60 -33.13708,0 -60,-26.86291 -60,-60 0,-33.13708 26.86292,-60 60,-60 33.13708,0 60,26.86292 60,60 z"
         sodipodi:ry="60"
         sodipodi:rx="60"
         sodipodi:cy="532.36218"
         sodipodi:cx="160"
         id="path5722"
         style="fill:#ff0000;stroke:#000000;stroke-width:1;stroke-miterlimit:4;stroke-opacity:1;stroke-dasharray:none;stroke-dashoffset:0"
         sodipodi:type="arc" />
      <path
         inkscape:connector-curvature="0"
         id="path5724"
         d="m 123.39913,440.43553 c 0,3.69241 1.58984,6.68571 3.55101,6.68571 1.96116,0 3.551,-2.9933 3.551,-6.68571 0,-3.6924 -1.58984,-6.6857 -3.551,-6.6857 -1.96117,0 -3.55101,2.9933 -3.55101,6.6857 z"
         style="fill:#ffffff;stroke:#000000;stroke-width:0.08120783;stroke-miterlimit:4;stroke-opacity:1;stroke-dashoffset:0" />
      <rect
         y="444.44696"
         x="-158.19897"
         height="2.6742814"
         width="34.089645"
         id="rect5726"
         style="fill:#ff0000;fill-opacity:1;stroke:#000000;stroke-width:0.09744941;stroke-miterlimit:4;stroke-opacity:1;stroke-dasharray:none;stroke-dashoffset:0"
         transform="scale(-1,1)" />
      <rect
         y="390.96133"
         x="-128.13864"
         height="16.045689"
         width="9.5079966"
         id="rect5728"
         style="fill:#ff0000;stroke:#000000;stroke-width:0.09529477;stroke-miterlimit:4;stroke-opacity:1;stroke-dasharray:none;stroke-dashoffset:0"
         transform="scale(-1,1)" />
      <path
         style="fill:#ffffff;fill-opacity:1;stroke:#000000;stroke-width:0.05053768px;stroke-linecap:butt;stroke-linejoin:miter;stroke-opacity:1"
         d="m 119.81914,407.00702 c 0.89137,-5.73061 0,-6.87673 0,-6.87673 0,0 0,-1.14612 0.89137,-2.29224 2.27257,-2.92205 2.67413,-6.87673 2.67413,-6.87673 0,0 0.40155,3.95468 2.67412,6.87673 0.89138,1.14612 0.89138,2.29224 0.89138,2.29224 0,0 -0.89138,1.14612 0,6.87673 l 1.18849,0 0,-16.0457 -9.50799,0 0,16.0457 z"
         id="path5730"
         inkscape:connector-curvature="0"
         sodipodi:nodetypes="ccscscc" />
      <g
         style="fill:#ff0000"
         id="g5732"
         transform="matrix(-0.32832818,0,0,0.65400986,176.48011,143.2318)">
        <path
           inkscape:connector-curvature="0"
           style="fill:#ff0000;stroke:#000000;stroke-width:0.21029694;stroke-miterlimit:4;stroke-opacity:1;stroke-dashoffset:0"
           d="m 189.35795,436.03499 0,2.33204 -8.21972,0 0,7.89059 8.21972,0 0,2.04453 1.65611,0 0,-12.26716 -1.65611,0 z"
           id="path5734" />
      </g>
      <g
         style="fill:#ff0000"
         transform="matrix(-0.32832818,0,0,0.65400986,178.13842,143.2318)"
         id="g5736">
        <rect
           style="fill:#ff0000;fill-opacity:1;fill-rule:nonzero;stroke:#ffffff;stroke-width:1;stroke-linejoin:round;stroke-miterlimit:10;stroke-opacity:1;stroke-dasharray:none;stroke-dashoffset:0"
           id="rect5738"
           width="111.11678"
           height="52.527931"
           x="206.5762"
           y="402.32901" />
        <g
           style="fill:#ff0000"
           id="g5740"
           transform="matrix(-1,0,0,1,388.81981,0)">
          <path
             inkscape:connector-curvature="0"
             style="fill:#ff0000;stroke:#000000;stroke-width:0.21029694;stroke-miterlimit:4;stroke-opacity:1;stroke-dashoffset:0"
             d="m 189.35795,436.03499 0,2.33204 -8.21972,0 0,7.89059 8.21972,0 0,2.04453 1.65611,0 0,-12.26716 -1.65611,0 z"
             id="path5742" />
        </g>
        <path
           transform="matrix(0.21630827,0,0,0.20445269,197.6273,351.72381)"
           d="m 220,532.36218 c 0,33.13709 -26.86292,60 -60,60 -33.13708,0 -60,-26.86291 -60,-60 0,-33.13708 26.86292,-60 60,-60 33.13708,0 60,26.86292 60,60 z"
           sodipodi:ry="60"
           sodipodi:rx="60"
           sodipodi:cy="532.36218"
           sodipodi:cx="160"
           id="path5744"
           style="fill:#ff0000;stroke:#000000;stroke-width:1;stroke-miterlimit:4;stroke-opacity:1;stroke-dasharray:none;stroke-dashoffset:0"
           sodipodi:type="arc" />
        <path
           sodipodi:type="arc"
           style="fill:#ff0000;stroke:#000000;stroke-width:1;stroke-miterlimit:4;stroke-opacity:1;stroke-dasharray:none;stroke-dashoffset:0"
           id="path5746"
           sodipodi:cx="160"
           sodipodi:cy="532.36218"
           sodipodi:rx="60"
           sodipodi:ry="60"
           d="m 220,532.36218 c 0,33.13709 -26.86292,60 -60,60 -33.13708,0 -60,-26.86291 -60,-60 0,-33.13708 26.86292,-60 60,-60 33.13708,0 60,26.86292 60,60 z"
           transform="matrix(0.21630827,0,0,0.20445269,260.76183,351.72381)" />
      </g>
    </g>
    <path
       inkscape:connector-curvature="0"
       id="path5748"
       d="m 78.947795,548.64443 182.030335,0"
       style="fill:#000000;fill-opacity:1;fill-rule:nonzero;stroke:#000000;stroke-width:2.61603951;stroke-linejoin:round;stroke-miterlimit:10;stroke-opacity:1;stroke-dasharray:none;stroke-dashoffset:0;marker-start:url(#Arrow1Mstart);marker-mid:none;marker-end:url(#Arrow1Mend)"
       sodipodi:nodetypes="cc" />
    <text
       xml:space="preserve"
       style="font-size:12px;font-style:normal;font-variant:normal;font-weight:normal;font-stretch:normal;text-indent:0;text-align:start;text-decoration:none;line-height:125%;letter-spacing:0px;word-spacing:0px;text-transform:none;direction:ltr;block-progression:tb;writing-mode:lr-tb;text-anchor:start;color:#000000;fill:#000000;fill-opacity:1;fill-rule:nonzero;stroke:none;stroke-width:1px;marker:none;visibility:visible;display:inline;overflow:visible;enable-background:accumulate;font-family:Arial;-inkscape-font-specification:Arial"
       x="158.42"
       y="562.43817"
       id="text5750"
       sodipodi:linespacing="125%"><tspan
         sodipodi:role="line"
         id="tspan5752"
         x="158.42"
         y="562.43817">30m</tspan></text>
    <g
       transform="matrix(1.25,0,0,-1.25,55.035301,775.09867)"
       inkscape:label="fig_wave_packet_raw"
       id="g10">
      <rect
         transform="scale(1,-1)"
         y="-232.22287"
         x="213.38358"
         height="43.83075"
         width="112.27905"
         id="rect7830"
         style="fill:#ffffff;fill-opacity:1;fill-rule:nonzero;stroke:#ffffff;stroke-width:0.69552761;stroke-linejoin:round;stroke-miterlimit:10;stroke-opacity:1;stroke-dasharray:none;stroke-dashoffset:0" />
      <path
         d="m 316.1002,210.28495 0.1906,1e-4 m 6.8578,0 0.001,0 m -78.4864,0.3424 0.1906,-0.0669 m 77.9136,-0.2755 0.1906,0 m -104.39296,0 0.19046,0 m 103.6309,0 0.1906,0 m -51.625,17.6488 c 0.0635,0.27713 0.12693,0.55427 0.1904,0.8314 m 50.863,-18.4802 0.1906,0 m -105.91698,0 0.19054,0 m 105.15484,0 0.1906,0 m -77.5328,0.4385 0.1906,-0.0418 m 76.7706,-0.3967 0.1906,0 m -105.53592,0 0.19047,0 m 104.77385,0 0.1906,0 m -89.7246,9e-4 0.19046,10e-4 m 88.96274,-0.002 0.1904,0 m -105.15494,0 0.19047,0 m 104.39287,0 0.1906,0 m -76.3898,0.4867 0.1906,-0.0184 m 75.6276,-0.4683 0.1906,0 m -50.863,-2.4841 c 0.0635,0.82804 0.12707,1.65607 0.1906,2.4841 m 50.1008,0 0.1906,0 m -94.67756,3e-4 0.19046,0 m 93.9155,-3e-4 0.1906,0 m -50.482,-7.2845 c 0.0635,0.78617 0.12707,1.57233 0.1906,2.3585 m 49.72,4.926 0.1904,0 m -75.2468,0.4925 0.1906,0.002 m 74.4846,-0.4944 0.1906,0 m -50.101,-11.59401 c 0.0635,0.69144 0.12707,1.38287 0.1906,2.07431 m 49.339,9.5197 0.1904,0 m -87.05762,-8e-4 0.19054,8e-4 m 86.29568,0 0.1904,0 m -49.72,-15.12553 0.0953,0.82629 0.0953,0.82629 m 48.958,13.47295 0.1904,0 m -74.1038,0.4635 0.1906,0.0183 m 73.3418,-0.4818 0.1904,0 m -49.339,-17.64885 0.0953,0.56199 0.0953,0.56199 m 48.577,16.52487 0.1904,0 m -96.39198,0 0.19046,0 m 95.63012,-1e-4 0.1904,0 M 267.142,191.278 c 0.0635,0.17561 0.12707,0.35122 0.1906,0.52683 m 48.196,18.48012 0.1904,0 m -72.9608,0.4086 0.1906,0.0302 m 72.1988,-0.4389 0.1904,1e-4 m -48.577,-19.12699 0.1906,-0.0959 m 47.815,19.22279 0.1904,0 m -84.39056,-0.002 0.19046,5e-4 m 83.6287,10e-4 0.1904,1e-4 M 266.38,192.26072 c 0.0635,-0.23339 0.12707,-0.46677 0.1906,-0.70016 m 47.434,18.72379 0.1904,0 m -71.8178,0.3367 0.1906,0.0377 m 71.0558,-0.3744 0.1904,0 m -47.815,-15.79746 0.0953,-0.62203 0.0953,-0.62203 m 47.053,17.04152 0.1904,0 m -88.96258,6e-4 0.19054,0 m 88.20064,-6e-4 0.1904,0 m -47.434,-12.62476 0.0953,-0.84551 0.0953,-0.84551 m 46.672,14.31588 0.1904,0 m -70.6748,0.2559 0.1906,0.041 m 69.9128,-0.2967 0.1904,-1e-4 m -47.053,-8.7438 c 0.0635,-0.6708 0.12707,-1.3416 0.1906,-2.0124 m 46.291,10.7565 0.1904,-1e-4 m -81.72358,-0.003 0.19048,3e-4 m 80.9617,0.003 0.1904,-1e-4 m -46.672,-4.4354 c 0.0635,-0.72977 0.12707,-1.45953 0.1906,-2.1893 m 45.91,6.6252 0.1904,-2e-4 m -69.5318,0.1731 0.1906,0.0407 m 68.7698,-0.2131 0.1904,-3e-4 m -46.291,-0.001 c 0.0635,-0.73807 0.12707,-1.47613 0.1906,-2.2142 m 45.529,2.216 0.1904,-2e-4 m -89.34348,-0.002 0.19046,0 m 88.58162,0.002 0.1904,-3e-4 m -45.91,4.2591 c 0.0635,-0.6969 0.12707,-1.3938 0.1906,-2.0907 m 45.148,-2.1678 0.1906,-1e-4 m -68.389,0.0944 0.1906,0.0375 m 67.6268,-0.1315 0.1906,-10e-5 m -45.5292,8.0689 0.0953,-0.9166 0.0953,-0.9166 m 44.767,-6.2356 0.1906,0 m -79.0568,-0.006 0.19048,1e-4 m 78.29472,0.005 0.1906,2e-4 m -45.1482,11.1946 0.0953,-0.73235 0.0953,-0.73235 m 44.386,-9.7308 0.1906,4e-4 m -67.246,0.027 0.1906,0.0324 m 66.4838,-0.0609 0.1906,6e-4 m -44.7672,13.4605 0.0953,-0.50805 0.0953,-0.50805 m 44.005,-12.4467 0.1906,9e-4 m -83.24772,3e-4 0.19048,0 m 82.48564,-0.003 0.1906,0.001 m -44.3862,14.7586 c 0.0635,-0.17407 0.12707,-0.34813 0.1906,-0.5222 m 43.624,-14.2403 0.1906,0.001 m -66.103,-0.0216 0.1906,0.026 m 65.3408,-0.009 0.1906,0.002 m -44.0052,15.0532 0.1906,-0.0195 m 43.243,-15.0386 0.1906,0.002 m -76.3898,0.008 0.19054,0 m 75.62766,-0.0125 0.1906,0.002 m -43.6242,14.379 c 0.0635,0.15223 0.12707,0.30447 0.1906,0.4567 m 42.862,-14.8401 0.1906,0.001 m -64.9598,-0.0508 0.1904,0.0191 m 64.1978,0.0284 0.1906,8e-4 m -43.2432,12.835 c 0.0635,0.2916 0.12707,0.5832 0.1906,0.8748 m 42.481,-13.7112 0.1906,1e-4 m -85.34324,0.0206 0.19056,0 m 84.58108,-0.0194 0.1906,-9e-4 m -42.8622,10.573 0.0953,0.6046 0.0953,0.6046 m 42.1,-11.7776 0.1906,-0.002 m -63.8168,-0.0775 0.1904,0.0122 m 63.0548,0.0738 0.1906,-0.004 m -42.4812,7.7846 0.0953,0.72095 0.0953,0.72095 m 41.719,-9.2136 0.1906,-0.005 m -73.72274,0.002 0.19046,-10e-5 m 72.96068,0.0152 0.1906,-0.007 m -42.1002,4.6857 0.0953,0.7817 0.0953,0.7817 m 41.338,-6.2274 0.1906,-0.008 m -62.6738,-0.1301 0.1904,0.006 m 61.9118,0.1493 0.1906,-0.009 m -41.719,1.5011 0.0952,0.7863 0.0952,0.7863 m 40.9572,-3.0464 0.1904,-0.009 m -77.53274,-0.0538 0.19048,0 m 76.77066,0.0812 0.1906,-0.009 m -41.338,-1.5493 0.0952,0.7384 0.0952,0.7384 m 40.576,0.0974 0.1906,-0.008 m -61.5308,-0.2041 0.1904,7e-4 m 60.769,0.2227 0.1904,-0.005 m -40.957,-4.2649 0.0952,0.6452 0.0952,0.6452 m 40.1952,2.9848 0.1904,-0.001 m -71.05576,-0.115 0.19046,-2e-4 m 70.2939,0.1129 0.1904,0.003 m -40.576,-6.4765 0.0952,0.51645 0.0952,0.51645 m 39.8142,5.4254 0.1904,0.009 m -60.3878,-0.2135 0.1904,-0.004 m 59.626,0.1803 0.1904,0.0156 m -40.195,-8.0588 c 0.0635,0.24263 0.12693,0.48527 0.1904,0.7279 m 39.4332,7.2737 0.1904,0.0225 m -76.77074,-0.0485 0.19054,0 m 76.0088,-0.0293 0.1904,0.0293 m -39.814,-8.9412 0.0991,0.20842 0.0913,0.19188 m 39.0522,8.444 0.1904,0.0352 m -59.2448,-0.0357 0.1904,-0.006 m 58.483,-0.07 0.1904,0.0395 m -39.433,-9.1173 0.1904,0.0747 m 38.6712,8.9213 0.1904,0.0412 m -68.38878,0.2127 0.19048,-3e-4 m 67.6269,-0.3343 0.1904,0.0397 m -39.052,-8.6484 0.14851,-0.17666 0.0419,-0.0498 m 38.2902,8.7631 0.1904,0.0344 m -58.1018,0.2927 0.1904,-0.008 m 57.34,-0.3737 0.1904,0.0248 m -38.671,-7.66 c 0.0635,-0.1615 0.12693,-0.323 0.1904,-0.4845 m 37.9092,8.0907 0.1904,0.0107 m -71.81774,0.482 0.19046,0 m 71.05588,-0.4869 0.1904,-0.008 m -38.29,-6.3257 c 0.0635,-0.22857 0.12693,-0.45713 0.1904,-0.6857 m 37.5282,7.0673 0.1904,-0.0298 m -56.9588,0.405 0.1904,-0.009 m 56.197,-0.27 0.1904,-0.0542 m -37.909,-4.84 c 0.0635,-0.27377 0.12693,-0.54753 0.1904,-0.8213 m 37.1472,5.8622 0.1904,-0.0797 m -65.7218,0.2741 0.19056,-2e-4 m 64.95984,0.002 0.1904,-0.1038 m -37.528,-3.3808 c 0.0635,-0.2962 0.12693,-0.5924 0.1904,-0.8886 m 36.7662,4.6124 0.1904,-0.1245 m -55.8158,-0.1596 0.1904,-0.009 m 55.054,0.5649 0.18636,-0.13615 0,0 0.004,-0.003 m -37.147,-2.0699 c 0.0635,-0.2965 0.12693,-0.593 0.1904,-0.8895 m 36.3852,3.3867 0.18361,-0.13983 0,0 0.007,-0.005 m -70.4842,-0.6541 0.19046,0 m 69.72234,1.0831 0.18594,-0.13672 0,0 0.004,-0.003 m -36.766,-0.9431 c 0.0635,-0.277 0.12693,-0.554 0.1904,-0.831 m 36.0042,2.1697 0.1904,-0.1226 m -54.6728,-1.2437 0.1904,-0.008 m 53.911,1.575 0.1904,-0.0915 m -36.385,0.0586 c 0.0635,-0.24117 0.12693,-0.48233 0.1904,-0.7235 m 35.6232,0.8741 0.1904,-0.0469 m -63.0548,-1.6107 0.19054,-2e-4 m 62.29286,1.6675 0.1906,0.0101 m -36.0042,1.0646 c 0.0635,-0.19323 0.12693,-0.38647 0.1904,-0.5797 m 35.2422,-0.6143 0.1906,0.0769 m -53.53,-1.6364 0.1904,-0.007 m 52.768,1.3043 0.1815,0.14255 0.009,0.007 m -35.6232,2.2192 0.0965,-0.20965 0,0 0.0939,-0.20415 m 34.8612,-2.3653 0.1498,0.17557 0,0 0.0408,0.0478 m -66.10296,-1.0977 0.19054,0 m 65.34082,0.3229 0.12603,0.19334 0.0646,0.0991 m -35.2422,3.6047 0.14355,-0.18072 0,0 0.0469,-0.059 m 34.4802,-4.3303 0.1104,0.20267 0.0802,0.14723 m -52.387,0 0.1904,-0.006 m 51.625,-1.1057 0.10148,0.20728 0.0891,0.18202 m -34.8612,5.1668 0.1904,-0.0706 m 34.0992,-6.2905 0.0984,0.20876 0.0922,0.19584 m -60.38794,1.5113 0.19046,-1e-4 m 59.62588,-2.7078 0.10123,0.2074 0.0894,0.1831 m -34.4802,6.672 0.1904,0.0822 m 33.7182,-7.8597 0.11193,0.20183 0.0787,0.14187 m -51.244,3.0892 0.1904,-0.004 m 50.482,-3.9992 0.13543,0.18688 0,0 0.0552,0.0761 m -34.0992,7.7252 0.15494,0.17105 0.0355,0.0392 m 33.3372,-8.5584 0.18146,0.14261 0,0 0.009,0.007 m -66.10294,4.2043 0.19056,0 m 65.34078,-4.4446 0.1906,0.008 m -33.7182,7.8598 0.12147,0.19624 0,0 0.0689,0.11136 m 32.9562,-7.9512 0.17956,-0.14499 0.011,-0.009 m -50.10108,4.3897 0.19054,-0.003 m 49.33894,-3.6664 0.11625,-0.19938 0,0 0.0744,-0.12752 m -33.3372,6.6889 0.10531,0.20536 0.0851,0.16594 m 32.5752,-5.8209 c 0.0635,-0.1662 0.12707,-0.3324 0.1906,-0.4986 m -57.72096,3.2395 0.19046,-2e-4 m 56.9589,-1.5057 c 0.0635,-0.21843 0.12707,-0.43687 0.1906,-0.6553 m -32.9562,4.0779 0.0989,0.20852 0.0915,0.19288 m 32.1942,-2.3179 c 0.0635,-0.26087 0.12707,-0.52173 0.1906,-0.7826 m -48.95802,0.802 0.19046,-10e-4 m 48.19596,1.6802 c 0.0635,-0.28903 0.12707,-0.57807 0.1906,-0.8671 m -32.5752,0.2805 0.0991,0.20843 0.0913,0.19197 m 31.8132,1.9727 c 0.0635,-0.299 0.12707,-0.598 0.1906,-0.897 m -60.3879,-2.5875 0.19046,0 m 59.62584,5.2366 c 0.0635,-0.28783 0.12707,-0.57567 0.1906,-0.8635 m -32.1942,-4.0233 0.10509,0.20548 0,0 0.0853,0.16682 m 31.4322,6.0978 c 0.0635,-0.254 0.12707,-0.508 0.1906,-0.762 m -47.81504,-6.0374 0.19046,-3e-4 m 47.05298,8.0784 c 0.0635,-0.19767 0.12707,-0.39533 0.1906,-0.593 m -31.8132,-7.8287 0.1172,0.19882 0,0 0.0732,0.12418 m 31.0512,8.9451 0.10755,-0.2042 0,0 0.0831,-0.1577 m -55.05398,-8.5832 0.19048,-10e-5 m 54.2919,9.2518 0.1906,-0.0802 m -31.4322,-10.0459 0.13679,0.18588 0.0538,0.0731 m 30.67,9.5566 0.14508,0.17949 0,0 0.0455,0.0563 m -46.67206,-9.1569 0.19056,5e-4 m 45.9099,7.955 c 0.0635,0.18843 0.12707,0.37687 0.1906,0.5653 m -31.0512,-9.8256 0.16483,0.16154 0.0258,0.0253 m 30.289,7.4608 c 0.0635,0.29493 0.12707,0.58987 0.1906,0.8848 m -59.43536,-7.2477 0.19046,0 m 58.6735,4.161 0.0952,0.5845 0.0952,0.5845 m -30.6702,-6.8771 0.1906,0.1128 m 29.9082,2.9111 0.0952,0.6969 0.0952,0.6969 m -45.52908,-2.8525 0.19056,0.001 m 44.76712,-1.5563 0.0952,0.76855 0.0952,0.76855 m -30.2892,-1.6664 0.1906,0.0424 m 29.5272,-3.0675 0.0952,0.7909 0.0952,0.7909 m -52.387,3.1099 0.19056,-1e-4 m 51.62504,-7.7718 0.0952,0.7584 0.0952,0.7584 m -29.9082,4.5982 0.1906,-0.0198 m 29.1462,-8.8762 0.0952,0.66955 0.0952,0.66955 m -44.386,9.229 0.19046,0.001 m 43.62444,-12.83253 0.0952,0.52688 0.0952,0.52687 m -29.5272,10.22294 0.1906,-0.0708 m 28.7652,-12.75542 c 0.0635,0.22492 0.12693,0.44985 0.1904,0.67477 m -54.67292,13.69045 0.19048,0 m 53.91104,-15.04592 0.14946,0.17586 0,0 0.0409,0.0482 m -29.1462,13.4832 0.1906,-0.1088 m 28.3842,-13.30924 0.13311,-0.18854 0,0 0.0573,-0.0811 m -43.24302,15.03863 0.19046,0.002 M 275.524,196.82281 c 0.0635,-0.25753 0.12693,-0.51505 0.1904,-0.77258 m -28.7652,13.15142 0.18927,-0.13207 0,0 10e-4,-9.3e-4 m 28.0032,-9.98135 0.0952,-0.62418 0.0952,-0.62417 m -49.71994,12.4461 0.19048,-1e-4 m 48.95806,-8.0719 0.0952,-0.8305 0.0952,-0.8305 m -28.3842,8.9336 0.18414,-0.13912 0.006,-0.005 m 27.6222,-3.318 c 0.0635,-0.65916 0.12693,-1.31833 0.1904,-1.9775 m -42.10004,6.2475 0.19054,0.002 M 274,210.28515 c 0.0635,-0.72346 0.12693,-1.44693 0.1904,-2.1704 m -28.0032,1.6595 0.18452,-0.13863 0,0 0.006,-0.005 m 27.2412,5.0891 c 0.0635,-0.74026 0.12693,-1.48053 0.1904,-2.2208 m -56.9589,-2.2142 0.19055,0 m 56.19695,8.7439 c 0.0635,-0.70653 0.12693,-1.41307 0.1904,-2.1196 m -27.6222,-6.8635 0.18941,-0.13187 0,0 0.001,-8.3e-4 m 26.8602,12.997 c 0.0635,-0.62293 0.12693,-1.24587 0.1904,-1.8688 m -40.95706,-10.7505 0.19056,0.001 m 40.1951,15.7904 0.0952,-0.7408 0.0952,-0.7408 m -27.2412,-14.3161 0.1906,-0.1147 m 26.4792,18.1386 0.0952,-0.49105 0.0952,-0.49105 m -47.05294,-17.0415 0.19046,0 m 46.29108,19.1268 0.0986,-0.20867 0,0 0.0918,-0.19433 m -26.8602,-18.5283 0.1906,-0.092 m 26.0982,18.9032 0.15261,0.17313 0.0378,0.0429 m -39.814,-19.2199 0.19048,0.001 m -12.38234,-0.004 0.19046,0 m -0.38102,0 0.19056,0 m 103.05946,0 0.1904,0 m -97.7255,3e-4 0.19056,0 m 96.58254,-3e-4 0.1904,0 m -105.91685,0 0.19047,0 m 104.77398,0 0.1904,0 m -77.1516,0.4683 0.1904,-0.0298 m 76.0088,-0.4385 0.1906,0 m -105.0486,0 0.0841,0 m 104.01194,0 0.1904,0 m -88.58148,0 0.19048,9e-4 m 87.4386,-9e-4 0.1904,0 m -50.4818,-9.5197 c 0.0635,0.74506 0.12693,1.49013 0.1904,2.2352 m 49.339,7.2845 0.1904,0 m -74.8656,0.4818 0.1904,0.0107 m 73.7228,-0.4925 0.1906,0 m -49.72,-16.52487 0.0952,0.69967 0.0952,0.69967 m 48.577,15.12553 0.1906,0 m -95.82064,0 0.19056,0 m 94.67748,-1e-4 0.1906,0 m -48.958,-19.22289 0.15264,0.17311 0,0 0.0378,0.0428 m 47.815,19.00685 0.1906,0 m -72.5798,0.3743 0.1904,0.0344 m 71.4368,-0.4088 0.1906,0 m -48.196,-17.04152 0.0952,-0.49105 0.0952,-0.49106 m 47.053,18.02363 0.1906,0 m -83.2477,-0.002 0.19054,4e-4 m 82.10456,0.002 0.1906,-1e-4 m -47.434,-10.756 c 0.0635,-0.62292 0.12693,-1.24584 0.1904,-1.86876 m 46.291,12.62516 0.1906,-1e-4 m -70.2938,0.2145 0.1904,0.0412 m 69.1508,-0.255 0.1906,-2e-4 m -46.672,-2.2147 c 0.0635,-0.74026 0.12693,-1.48053 0.1904,-2.2208 m 45.529,4.4366 0.1906,-2e-4 m -86.29564,-0.001 0.19046,0 m 85.15278,0.002 0.1904,-2e-4 m -45.91,6.2362 c 0.0635,-0.65913 0.12693,-1.31827 0.1904,-1.9774 m 44.7672,-4.2582 0.1904,0 m -68.0078,0.0588 0.1904,0.0352 m 66.865,-0.0946 0.1904,3e-4 m -45.148,12.4432 0.0952,-0.6242 0.0952,-0.6242 m 44.0052,-11.1974 0.1904,8e-4 m -77.91366,-0.004 0.19046,0 m 76.7708,-0.001 0.1904,0.001 m -44.386,15.0295 0.1331,-0.18854 0.0573,-0.0812 m 43.2432,-14.7672 0.1904,0.002 m -65.7218,-0.0396 0.1904,0.0225 m 64.579,0.009 0.1904,0.001 m -43.624,13.7059 c 0.0635,0.2249 0.12693,0.4498 0.1904,0.6747 m 42.4812,-14.3858 0.1904,5e-4 m -82.67614,0.0201 0.19056,0 m 81.53318,-0.0179 0.1904,-0.001 m -42.862,9.233 0.0952,0.66955 0.0952,0.66955 m 41.7192,-10.5578 0.1904,-0.004 m -63.4358,-0.095 0.1906,0.009 m 62.2928,0.1151 0.1904,-0.007 m -42.1,3.0973 0.0952,0.7909 0.0952,0.7909 m 40.9572,-4.6375 0.1904,-0.009 m -72.5797,-0.0474 0.19056,-2e-4 m 71.43674,0.0925 0.1904,-0.008 m -41.338,-2.952 0.0953,0.6969 0.0953,0.6969 m 40.195,1.5895 0.1906,-0.004 m -61.15,-0.2218 0.1906,-0.002 m 60.0068,0.2187 0.1906,0.006 m -40.5762,-7.3581 c 0.0635,0.29493 0.12707,0.58987 0.1906,0.8848 m 39.433,6.4114 0.1906,0.0191 m -74.86588,-0.0674 0.19054,0 m 73.72274,-0.0619 0.1906,0.0324 m -39.8142,-9.1477 0.14508,0.17949 0,0 0.0455,0.0563 m 38.671,8.7267 0.1906,0.0406 m -58.864,0.0841 0.1906,-0.008 m 57.7208,-0.2767 0.1906,0.0377 m -39.0522,-8.2468 0.10755,-0.2042 0,0 0.0831,-0.1577 m 37.909,8.4633 0.1906,0.0183 m -67.24584,0.4619 0.19046,-2e-4 m 66.10278,-0.4665 0.1906,-0.0184 m -38.2902,-5.5713 c 0.0635,-0.25403 0.12707,-0.50807 0.1906,-0.7621 m 37.147,6.5446 0.1906,-0.067 m -56.578,0.2885 0.1906,-0.009 m 55.4348,0.178 0.1906,-0.1147 m -37.5282,-2.5876 c 0.0635,-0.299 0.12707,-0.598 0.1906,-0.897 m 36.385,4.1387 0.18452,-0.13863 0,0 0.006,-0.005 m -72.5798,-0.5109 0.19046,0 m 71.43674,1.2161 0.18927,-0.13207 0,0 10e-4,-9.3e-4 m -36.7662,-0.3005 c 0.0635,-0.26087 0.12707,-0.52173 0.1906,-0.7826 m 35.623,1.6098 0.1906,-0.0708 m -54.292,-1.5587 0.1906,-0.008 m 53.149,1.6516 0.1904,0.0424 m -36.0042,1.5733 c 0.0635,-0.1662 0.12707,-0.3324 0.1906,-0.4986 m 34.8612,-1.6433 0.16474,0.16163 0.0257,0.0252 m -61.91188,-1.2853 0.19048,-2e-4 m 60.769,9e-4 0.1172,0.19882 0,0 0.0732,0.12418 m -35.2422,4.051 0.17956,-0.14499 0.011,-0.009 m 34.0992,-5.732 0.0991,0.20843 0.0913,0.19197 m -52.006,1.1166 0.1906,-0.005 m 50.863,-3.0798 0.10531,0.20536 0.0851,0.16594 m -34.4802,6.9128 0.1815,0.14255 0.009,0.007 m 33.3372,-8.5583 0.15494,0.17105 0.0355,0.0391 m -63.43584,3.9942 0.19048,0 m 62.29296,-4.3741 0.1904,-0.0706 m -33.7182,7.5244 0.11193,0.20183 0.0787,0.14187 m 32.5752,-6.6632 0.0965,-0.20965 0,0 0.0939,-0.20415 m -49.71996,3.6714 0.19048,-0.002 m 48.57708,-0.7983 c 0.0635,-0.24117 0.12693,-0.48233 0.1904,-0.7235 m -32.9562,3.018 0.0984,0.20876 0.0923,0.19584 m 31.8132,0.6711 c 0.0635,-0.2965 0.12693,-0.593 0.1904,-0.8895 m -56.5779,-1.6982 0.19054,-1e-4 m 55.43496,6.0582 c 0.0635,-0.27377 0.12693,-0.54753 0.1904,-0.8213 m -32.1942,-5.2367 0.1104,0.20267 0.0802,0.14723 m 31.0512,8.2333 c 0.0635,-0.1615 0.12693,-0.323 0.1904,-0.4845 m -47.4339,-8.0781 0.19046,0 m 46.29104,9.1564 0.1904,0.0747 m -31.432,-10.3496 0.14967,0.17568 0.0407,0.0478 m 30.2892,8.1221 c 0.0635,0.24263 0.12693,0.48527 0.1904,0.7279 m -60.95928,-7.9756 0.19046,0 m 59.81642,2.8706 0.0953,0.6452 0.0953,0.6452 m -30.6702,-5.785 0.1904,0.0769 m 29.5272,-1.5626 0.0953,0.7863 0.0953,0.7863 m -45.14814,1.5539 0.19046,10e-4 m 44.00508,-9.2317 0.0953,0.72095 0.0953,0.72095 m -29.9082,6.1619 0.1904,-0.0469 m 28.7652,-12.03375 c 0.0635,0.29159 0.12707,0.58317 0.1906,0.87476 m -51.24406,12.81589 0.19046,0 m 50.101,-15.02663 0.1906,-0.0195 m -29.1462,13.82982 0.1904,-0.1226 m 28.0032,-11.1071 0.0953,-0.50807 0.0953,-0.50807 m -42.8621,13.47244 0.19048,0.002 m 41.71902,-6.2508 0.0953,-0.91655 0.0953,-0.91655 m -28.3842,7.4176 0.18361,-0.13983 0,0 0.007,-0.005 m 27.2412,3.0133 c 0.0635,-0.73807 0.12707,-1.47613 0.1906,-2.2142 m -52.00598,0 0.19046,0 m 50.86292,10.7563 c 0.0635,-0.6708 0.12707,-1.3416 0.1906,-2.0124 m -27.6222,-8.8586 0.1904,-0.1245 m 26.4792,17.281 0.0953,-0.62205 0.0953,-0.62205 m -40.57612,-15.7933 0.19046,0.001 m 39.43306,19.2172 0.1906,-0.0959 m -26.8602,-18.8516 0.1904,-0.0797 m 77.9138,-0.1958 0.1904,0 m -91.62954,0.002 0.19054,10e-4 m 89.7246,-0.003 0.1904,0 m -105.91687,0 0.19055,0 m 104.01192,0 0.1904,0 m -76.3896,0.4944 0.1904,-0.008 m 74.4848,-0.4867 0.1906,0 m -50.482,-13.47295 c 0.0635,0.62631 0.12693,1.25263 0.1904,1.87894 m 48.577,11.59401 0.1906,0 m -95.82062,0 0.19048,0 m 93.91554,-1e-4 0.1906,0 m -48.958,-18.72399 0.0986,-0.20867 0,0 0.0918,-0.19433 m 47.053,19.12679 0.1906,0 m -71.8178,0.297 0.1904,0.0397 m 69.9128,-0.3365 0.1906,-10e-5 m -47.434,-6.6241 c 0.0635,-0.70653 0.12693,-1.41307 0.1904,-2.1196 m 45.529,8.745 0.1906,-2e-4 m -80.96172,-0.004 0.19054,2e-4 m 79.05678,0.005 0.1904,-2e-4 m -45.91,9.7301 0.0952,-0.8305 0.0952,-0.8305 m 44.0052,-8.0703 0.1904,5e-4 m -67.2458,-0.002 0.1904,0.0293 m 65.341,-0.0366 0.1904,0.001 m -44.386,14.8277 0.14947,0.17585 0.0409,0.0481 m 42.4812,-15.0652 0.1904,0.001 m -80.96166,0.0184 0.19054,1e-4 m 79.05672,-0.0132 0.1904,-0.003 m -42.862,6.2706 0.0952,0.7584 0.0952,0.7584 m 40.9572,-7.7357 0.1904,-0.009 m -62.6738,-0.1411 0.1906,0.003 m 60.7688,0.2143 0.1904,-0.006 m -41.338,-5.4274 0.0953,0.5845 0.0953,0.5845 m 39.433,4.2442 0.1906,0.0122 m -70.2939,-0.0975 0.19054,-2e-4 m 68.38876,-0.1321 0.1906,0.0375 m -39.8142,-9.0747 0.1906,-0.0801 m 37.909,8.813 0.1906,0.0302 m -58.102,0.336 0.1906,-0.009 m 56.1968,-0.3153 0.1906,-0.0418 m -38.2902,-3.9347 c 0.0635,-0.28783 0.12707,-0.57567 0.1906,-0.8635 m 36.385,5.6085 0.18945,-0.1318 10e-4,-8e-4 m -72.0083,-0.2392 0.19046,0 m 70.10324,1.4475 0.1906,-0.1088 m -36.7662,0.8227 c 0.0635,-0.21843 0.12707,-0.43687 0.1906,-0.6553 m 34.8612,-0.0718 0.1904,0.1128 m -53.53,-1.5529 0.1906,-0.007 m 51.625,-0.7098 0.10509,0.20548 0,0 0.0853,0.16682 m -35.2422,4.7861 0.1906,0.008 m 33.3372,-8.1757 0.12147,0.19624 0,0 0.0689,0.11136 m -59.6259,3.4231 0.19056,-2e-4 m 57.72094,-3.9798 0.14355,-0.18072 0,0 0.0469,-0.059 m -33.7182,6.538 0.10121,0.20741 0.0894,0.18319 m 31.8132,-1.8775 c 0.0635,-0.277 0.12693,-0.554 0.1904,-0.831 m -48.95798,0.0203 0.19056,-9e-4 m 47.05302,7.4863 c 0.0635,-0.22857 0.12693,-0.45713 0.1904,-0.6857 m -32.194,-7.4354 0.12594,0.1934 0.0645,0.099 m 30.2892,8.8639 0.0991,0.20842 0.0913,0.19188 m -58.10184,-8.9412 0.19054,1e-4 m 56.1969,-1e-4 0.0953,0.7384 0.0953,0.7384 m -30.6702,-3.1533 0.1904,0.0101 m 28.7652,-10.09554 0.0953,0.60462 0.0953,0.60462 m -44.38616,10.5665 0.19056,0.002 m 42.481,-14.24992 c 0.0635,-0.17407 0.12707,-0.34815 0.1906,-0.52222 m -29.1462,13.81364 0.18594,-0.13672 0,0 0.004,-0.003 m 27.2412,-1.0873 c 0.0635,-0.6969 0.12707,-1.3938 0.1906,-2.0907 m -48.95808,4.2614 0.19054,0 m 47.05294,14.3158 0.0953,-0.8455 0.0953,-0.8455 m -27.6222,-12.5213 0.1904,-0.1038 m 25.7172,18.4802 c 0.0635,0.1756 0.12707,0.3512 0.1906,0.5268 m -26.8602,-18.6103 0.1904,-0.0543 m 76.0088,-0.3424 0.1904,0 m -52.0058,-4.926 c 0.0635,0.81396 0.12693,1.62793 0.1904,2.4419 m 48.577,2.4841 0.1906,0 m -101.15457,0 0.19047,0 m 97.7255,-2e-4 0.1906,0 m -48.958,-14.31588 0.0952,-0.74084 0.0952,-0.74084 m 45.529,15.79816 0.1906,-2e-4 m -70.2938,0.1342 0.1904,0.0394 m 66.865,-0.171 0.1904,1e-4 m -45.91,14.2316 c 0.0635,-0.25753 0.12693,-0.51507 0.1904,-0.7726 m 42.4812,-13.4757 0.1904,0.002 m -76.38968,0.009 0.19048,-1e-4 m 72.9608,0.009 0.1904,-0.006 m -42.862,0 0.0953,0.76855 0.0953,0.76855 m 39.433,-1.4235 0.1906,6e-4 m -61.15,-0.2181 0.1906,-0.005 m 57.7208,-0.1876 0.1906,0.041 m -39.8142,-7.2501 c 0.0635,-0.19763 0.12707,-0.39527 0.1906,-0.5929 m 36.385,7.9949 0.1906,-0.092 m -70.29382,0.1959 0.19048,1e-4 m 66.86494,1.6763 0.1904,-0.0198 m -36.7662,2.3237 0.11625,-0.19938 0,0 0.0744,-0.12752 m 33.3372,-5.9715 0.0989,0.20853 0,0 0.0915,0.19297 m -52.00594,1.9294 0.19054,-0.003 m 48.577,-2.1708 c 0.0635,-0.19323 0.12693,-0.38647 0.1904,-0.5797 m -33.7182,3.4633 0.10148,0.20728 0.0891,0.18202 m 30.2892,8.06 0.14855,-0.17663 0,0 0.0418,-0.0498 m -55.05384,-8.945 0.19046,-1e-4 m 51.62498,-6.2549 0.0953,0.7817 0.0953,0.7817 m -30.6702,3.244 0.1904,-0.0915 m 27.2412,-8.1937 0.0953,-0.73237 0.0953,-0.73238 m -42.8621,11.20475 0.19046,0.002 m 39.43304,18.7152 c 0.0635,-0.2334 0.12707,-0.4668 0.1906,-0.7002 m -55.62544,-18.0239 0.19047,0 m 102.48797,0 0.1904,0 m -99.05892,0 0.19056,0 m 92.58196,-3e-4 0.1906,0 m -48.958,2.1707 c 0.0635,-0.72346 0.12693,-1.44693 0.1904,-2.1704 m 42.4812,-0.002 0.1904,0.001 m -67.2458,-0.0823 0.1906,0.0156 m 60.7688,0.1401 0.1906,-0.009 m -42.8622,-8.6042 c 0.0635,0.18843 0.12707,0.37687 0.1906,0.5653 m 36.385,7.4812 0.1906,0.002 m -67.24586,0.4914 0.19046,-3e-4 m 60.769,0.6168 0.1367,0.18595 0.0537,0.0731 m -36.7662,2.8567 0.13543,0.18688 0,0 0.0552,0.0761 m 30.2892,0.3791 c 0.0635,-0.2962 0.12693,-0.5924 0.1904,-0.8886 m -48.95792,-3.4654 0.19046,9e-4 m 42.48106,-14.842 c 0.0635,0.15223 0.12707,0.30445 0.1906,0.45668 m -30.6702,13.99332 0.1864,-0.13608 0.004,-0.003 m 76.0088,0.5109 0.1904,0 m -97.72544,3e-4 0.19048,0 m 85.15256,0.002 0.1906,-2e-4 m -48.958,11.7601 0.0952,0.5269 0.0952,0.5269 m 36.3852,-12.8157 0.1906,0.026 m -61.15,-0.062 0.1906,-0.009 m 48.577,-4.3914 0.1904,0.0822 m -36.766,2.9198 0.18148,0.14259 0,0 0.009,0.007 m 24.1932,7.909 c 0.0635,-0.72977 0.12707,-1.45953 0.1906,-2.1893 m -42.8621,-4.4364 0.19048,6e-4 m 72.96082,-0.0195 0.1904,-4e-4 m -48.958,-0.8103 c 0.0635,-0.28903 0.12707,-0.57807 0.1906,-0.8671 m 24.1932,7.0281 0.0952,0.51645 0.0952,0.51645 m -36.766,-5.9242 0.1904,0.0248 m 48.577,0.4796 0.18414,-0.13912 0.006,-0.005 m -24.5742,-19.27932 c 0.0635,0.27712 0.12693,0.55425 0.1904,0.83137 m -48.7675,17.64885 0.19046,0 m 51.81544,16.5249 0.0953,0.56195 0.0953,0.56195 m -53.91095,-17.6488 0.19047,0 m 53.33948,15.1255 0.0952,0.6997 0.0952,0.6997 m -53.52988,-16.5249 0.19054,0 m 52.95834,13.4729 0.0953,0.8263 0.0953,0.8263 m -53.14894,-15.1255 0.19048,0 m 52.57746,11.594 c 0.0635,0.6263 0.12693,1.2526 0.1904,1.8789 m -52.76786,-13.4729 0.19046,0 m 52.1964,9.5197 c 0.0635,0.69144 0.12707,1.38287 0.1906,2.0743 m -52.387,-11.594 0.19054,0 m 51.81546,7.2845 c 0.0635,0.74506 0.12693,1.49013 0.1904,2.2352 m -52.00586,-9.5197 0.19048,0 m 51.43458,4.926 c 0.0635,0.78616 0.12693,1.57233 0.1904,2.3585 m -51.62498,-7.2845 0.19046,0 m 51.05352,2.4841 c 0.0635,0.81397 0.12707,1.62793 0.1906,2.4419 m -0.381,-4.926 c 0.0635,0.82803 0.12693,1.65607 0.1904,2.4841 m -51.05352,-2.4841 0.19056,0"
         style="fill:none;stroke:#000000;stroke-width:0.80000001;stroke-linecap:butt;stroke-linejoin:round;stroke-miterlimit:10;stroke-opacity:1;stroke-dasharray:none"
         id="path1156"
         inkscape:connector-curvature="0" />
    </g>
    <text
       xml:space="preserve"
       style="font-size:12px;font-style:normal;font-variant:normal;font-weight:normal;font-stretch:normal;text-indent:0;text-align:start;text-decoration:none;line-height:125%;letter-spacing:0px;word-spacing:0px;text-transform:none;direction:ltr;block-progression:tb;writing-mode:lr-tb;text-anchor:start;color:#000000;fill:#000000;fill-opacity:1;fill-rule:nonzero;stroke:none;stroke-width:1px;marker:none;visibility:visible;display:inline;overflow:visible;enable-background:accumulate;font-family:Arial;-inkscape-font-specification:Arial"
       x="246.66316"
       y="473.0397"
       id="text3157"
       sodipodi:linespacing="125%"><tspan
         sodipodi:role="line"
         id="tspan3159"
         x="246.66316"
         y="473.0397"
         style="fill:#ff0000">t+50ns</tspan></text>
    <path
       inkscape:connector-curvature="0"
       id="path3161"
       d="m 75.423081,318.37233 0,61.72263"
       style="fill:#000000;fill-opacity:1;fill-rule:nonzero;stroke:#000000;stroke-width:1;stroke-linejoin:round;stroke-miterlimit:10;stroke-opacity:1;stroke-dasharray:none;stroke-dashoffset:0;marker-end:url(#Arrow1Mend)"
       sodipodi:nodetypes="cc" />
    <path
       transform="matrix(0.5625,0,0,0.5625,33.125001,219.4218)"
       d="m 79.285715,299.50504 a 3.5714285,3.5714285 0 1 1 -7.142857,0 3.5714285,3.5714285 0 1 1 7.142857,0 z"
       sodipodi:ry="3.5714285"
       sodipodi:rx="3.5714285"
       sodipodi:cy="299.50504"
       sodipodi:cx="75.714287"
       id="path3163"
       style="fill:#000000;fill-opacity:1;fill-rule:nonzero;stroke:#000000;stroke-width:4;stroke-linejoin:round;stroke-miterlimit:10;stroke-opacity:1;stroke-dasharray:none;stroke-dashoffset:0"
       sodipodi:type="arc" />
    <path
       sodipodi:type="arc"
       style="fill:#000000;fill-opacity:1;fill-rule:nonzero;stroke:#000000;stroke-width:4;stroke-linejoin:round;stroke-miterlimit:10;stroke-opacity:1;stroke-dasharray:none;stroke-dashoffset:0"
       id="path3165"
       sodipodi:cx="75.714287"
       sodipodi:cy="299.50504"
       sodipodi:rx="3.5714285"
       sodipodi:ry="3.5714285"
       d="m 79.285715,299.50504 a 3.5714285,3.5714285 0 1 1 -7.142857,0 3.5714285,3.5714285 0 1 1 7.142857,0 z"
       transform="matrix(0.5625,0,0,0.5625,204.85094,219.4218)" />
    <path
       inkscape:connector-curvature="0"
       id="path3167"
       d="m 247.44023,383.37035 0,-31.41806"
       style="fill:#000000;fill-opacity:1;fill-rule:nonzero;stroke:#000000;stroke-width:1;stroke-linejoin:round;stroke-miterlimit:10;stroke-opacity:1;stroke-dasharray:none;stroke-dashoffset:0;marker-end:url(#Arrow1Mend)"
       sodipodi:nodetypes="cc" />
    <path
       transform="matrix(0.5625,0,0,0.5625,224.19643,176.3906)"
       sodipodi:type="arc"
       style="fill:#000000;fill-opacity:1;fill-rule:nonzero;stroke:#000000;stroke-width:4;stroke-linejoin:round;stroke-miterlimit:10;stroke-opacity:1;stroke-dasharray:none;stroke-dashoffset:0"
       id="path3169"
       sodipodi:cx="75.714287"
       sodipodi:cy="299.50504"
       sodipodi:rx="3.5714285"
       sodipodi:ry="3.5714285"
       d="m 79.285715,299.50504 a 3.5714285,3.5714285 0 1 1 -7.142857,0 3.5714285,3.5714285 0 1 1 7.142857,0 z" />
    <path
       transform="matrix(0.5625,0,0,0.5625,204.85094,176.3906)"
       d="m 79.285715,299.50504 a 3.5714285,3.5714285 0 1 1 -7.142857,0 3.5714285,3.5714285 0 1 1 7.142857,0 z"
       sodipodi:ry="3.5714285"
       sodipodi:rx="3.5714285"
       sodipodi:cy="299.50504"
       sodipodi:cx="75.714287"
       id="path3171"
       style="fill:#000000;fill-opacity:1;fill-rule:nonzero;stroke:#000000;stroke-width:4;stroke-linejoin:round;stroke-miterlimit:10;stroke-opacity:1;stroke-dasharray:none;stroke-dashoffset:0"
       sodipodi:type="arc" />
    <text
       xml:space="preserve"
       style="font-size:12px;font-style:normal;font-variant:normal;font-weight:normal;font-stretch:normal;text-indent:0;text-align:start;text-decoration:none;line-height:125%;letter-spacing:0px;word-spacing:0px;text-transform:none;direction:ltr;block-progression:tb;writing-mode:lr-tb;text-anchor:start;color:#000000;fill:#000000;fill-opacity:1;fill-rule:nonzero;stroke:none;stroke-width:1px;marker:none;visibility:visible;display:inline;overflow:visible;enable-background:accumulate;font-family:Arial;-inkscape-font-specification:Arial"
       x="110.26813"
       y="356.38794"
       id="text3173"
       sodipodi:linespacing="125%"><tspan
         sodipodi:role="line"
         id="tspan3175"
         x="110.26813"
         y="356.38794"
         style="fill:#ff0000">30m</tspan></text>
    <text
       xml:space="preserve"
       style="font-size:12px;font-style:normal;font-variant:normal;font-weight:normal;font-stretch:normal;text-indent:0;text-align:start;text-decoration:none;line-height:125%;letter-spacing:0px;word-spacing:0px;text-transform:none;direction:ltr;block-progression:tb;writing-mode:lr-tb;text-anchor:start;color:#000000;fill:#000000;fill-opacity:1;fill-rule:nonzero;stroke:none;stroke-width:1px;marker:none;visibility:visible;display:inline;overflow:visible;enable-background:accumulate;font-family:Arial;-inkscape-font-specification:Arial"
       x="109.86676"
       y="340.89917"
       id="text3177"
       sodipodi:linespacing="125%"><tspan
         sodipodi:role="line"
         id="tspan3179"
         x="109.86676"
         y="340.89917">15m</tspan></text>
    <g
       id="g3181"
       inkscape:label="fig_wave_packet_raw"
       transform="matrix(0.625,0,0,-1.25,223.48724,670.55306)">
      <rect
         style="fill:#ffffff;fill-opacity:1;fill-rule:nonzero;stroke:#ffffff;stroke-width:0.69552761;stroke-linejoin:round;stroke-miterlimit:10;stroke-opacity:1;stroke-dasharray:none;stroke-dashoffset:0"
         id="rect3183"
         width="112.27905"
         height="43.83075"
         x="213.38358"
         y="-232.22287"
         transform="scale(1,-1)" />
      <path
         inkscape:connector-curvature="0"
         id="path3185"
         style="fill:none;stroke:#000000;stroke-width:0.80000001;stroke-linecap:butt;stroke-linejoin:round;stroke-miterlimit:10;stroke-opacity:1;stroke-dasharray:none"
         d="m 316.1002,210.28495 0.1906,1e-4 m 6.8578,0 0.001,0 m -78.4864,0.3424 0.1906,-0.0669 m 77.9136,-0.2755 0.1906,0 m -104.39296,0 0.19046,0 m 103.6309,0 0.1906,0 m -51.625,17.6488 c 0.0635,0.27713 0.12693,0.55427 0.1904,0.8314 m 50.863,-18.4802 0.1906,0 m -105.91698,0 0.19054,0 m 105.15484,0 0.1906,0 m -77.5328,0.4385 0.1906,-0.0418 m 76.7706,-0.3967 0.1906,0 m -105.53592,0 0.19047,0 m 104.77385,0 0.1906,0 m -89.7246,9e-4 0.19046,10e-4 m 88.96274,-0.002 0.1904,0 m -105.15494,0 0.19047,0 m 104.39287,0 0.1906,0 m -76.3898,0.4867 0.1906,-0.0184 m 75.6276,-0.4683 0.1906,0 m -50.863,-2.4841 c 0.0635,0.82804 0.12707,1.65607 0.1906,2.4841 m 50.1008,0 0.1906,0 m -94.67756,3e-4 0.19046,0 m 93.9155,-3e-4 0.1906,0 m -50.482,-7.2845 c 0.0635,0.78617 0.12707,1.57233 0.1906,2.3585 m 49.72,4.926 0.1904,0 m -75.2468,0.4925 0.1906,0.002 m 74.4846,-0.4944 0.1906,0 m -50.101,-11.59401 c 0.0635,0.69144 0.12707,1.38287 0.1906,2.07431 m 49.339,9.5197 0.1904,0 m -87.05762,-8e-4 0.19054,8e-4 m 86.29568,0 0.1904,0 m -49.72,-15.12553 0.0953,0.82629 0.0953,0.82629 m 48.958,13.47295 0.1904,0 m -74.1038,0.4635 0.1906,0.0183 m 73.3418,-0.4818 0.1904,0 m -49.339,-17.64885 0.0953,0.56199 0.0953,0.56199 m 48.577,16.52487 0.1904,0 m -96.39198,0 0.19046,0 m 95.63012,-1e-4 0.1904,0 M 267.142,191.278 c 0.0635,0.17561 0.12707,0.35122 0.1906,0.52683 m 48.196,18.48012 0.1904,0 m -72.9608,0.4086 0.1906,0.0302 m 72.1988,-0.4389 0.1904,1e-4 m -48.577,-19.12699 0.1906,-0.0959 m 47.815,19.22279 0.1904,0 m -84.39056,-0.002 0.19046,5e-4 m 83.6287,10e-4 0.1904,1e-4 M 266.38,192.26072 c 0.0635,-0.23339 0.12707,-0.46677 0.1906,-0.70016 m 47.434,18.72379 0.1904,0 m -71.8178,0.3367 0.1906,0.0377 m 71.0558,-0.3744 0.1904,0 m -47.815,-15.79746 0.0953,-0.62203 0.0953,-0.62203 m 47.053,17.04152 0.1904,0 m -88.96258,6e-4 0.19054,0 m 88.20064,-6e-4 0.1904,0 m -47.434,-12.62476 0.0953,-0.84551 0.0953,-0.84551 m 46.672,14.31588 0.1904,0 m -70.6748,0.2559 0.1906,0.041 m 69.9128,-0.2967 0.1904,-1e-4 m -47.053,-8.7438 c 0.0635,-0.6708 0.12707,-1.3416 0.1906,-2.0124 m 46.291,10.7565 0.1904,-1e-4 m -81.72358,-0.003 0.19048,3e-4 m 80.9617,0.003 0.1904,-1e-4 m -46.672,-4.4354 c 0.0635,-0.72977 0.12707,-1.45953 0.1906,-2.1893 m 45.91,6.6252 0.1904,-2e-4 m -69.5318,0.1731 0.1906,0.0407 m 68.7698,-0.2131 0.1904,-3e-4 m -46.291,-0.001 c 0.0635,-0.73807 0.12707,-1.47613 0.1906,-2.2142 m 45.529,2.216 0.1904,-2e-4 m -89.34348,-0.002 0.19046,0 m 88.58162,0.002 0.1904,-3e-4 m -45.91,4.2591 c 0.0635,-0.6969 0.12707,-1.3938 0.1906,-2.0907 m 45.148,-2.1678 0.1906,-1e-4 m -68.389,0.0944 0.1906,0.0375 m 67.6268,-0.1315 0.1906,-10e-5 m -45.5292,8.0689 0.0953,-0.9166 0.0953,-0.9166 m 44.767,-6.2356 0.1906,0 m -79.0568,-0.006 0.19048,1e-4 m 78.29472,0.005 0.1906,2e-4 m -45.1482,11.1946 0.0953,-0.73235 0.0953,-0.73235 m 44.386,-9.7308 0.1906,4e-4 m -67.246,0.027 0.1906,0.0324 m 66.4838,-0.0609 0.1906,6e-4 m -44.7672,13.4605 0.0953,-0.50805 0.0953,-0.50805 m 44.005,-12.4467 0.1906,9e-4 m -83.24772,3e-4 0.19048,0 m 82.48564,-0.003 0.1906,0.001 m -44.3862,14.7586 c 0.0635,-0.17407 0.12707,-0.34813 0.1906,-0.5222 m 43.624,-14.2403 0.1906,0.001 m -66.103,-0.0216 0.1906,0.026 m 65.3408,-0.009 0.1906,0.002 m -44.0052,15.0532 0.1906,-0.0195 m 43.243,-15.0386 0.1906,0.002 m -76.3898,0.008 0.19054,0 m 75.62766,-0.0125 0.1906,0.002 m -43.6242,14.379 c 0.0635,0.15223 0.12707,0.30447 0.1906,0.4567 m 42.862,-14.8401 0.1906,0.001 m -64.9598,-0.0508 0.1904,0.0191 m 64.1978,0.0284 0.1906,8e-4 m -43.2432,12.835 c 0.0635,0.2916 0.12707,0.5832 0.1906,0.8748 m 42.481,-13.7112 0.1906,1e-4 m -85.34324,0.0206 0.19056,0 m 84.58108,-0.0194 0.1906,-9e-4 m -42.8622,10.573 0.0953,0.6046 0.0953,0.6046 m 42.1,-11.7776 0.1906,-0.002 m -63.8168,-0.0775 0.1904,0.0122 m 63.0548,0.0738 0.1906,-0.004 m -42.4812,7.7846 0.0953,0.72095 0.0953,0.72095 m 41.719,-9.2136 0.1906,-0.005 m -73.72274,0.002 0.19046,-10e-5 m 72.96068,0.0152 0.1906,-0.007 m -42.1002,4.6857 0.0953,0.7817 0.0953,0.7817 m 41.338,-6.2274 0.1906,-0.008 m -62.6738,-0.1301 0.1904,0.006 m 61.9118,0.1493 0.1906,-0.009 m -41.719,1.5011 0.0952,0.7863 0.0952,0.7863 m 40.9572,-3.0464 0.1904,-0.009 m -77.53274,-0.0538 0.19048,0 m 76.77066,0.0812 0.1906,-0.009 m -41.338,-1.5493 0.0952,0.7384 0.0952,0.7384 m 40.576,0.0974 0.1906,-0.008 m -61.5308,-0.2041 0.1904,7e-4 m 60.769,0.2227 0.1904,-0.005 m -40.957,-4.2649 0.0952,0.6452 0.0952,0.6452 m 40.1952,2.9848 0.1904,-0.001 m -71.05576,-0.115 0.19046,-2e-4 m 70.2939,0.1129 0.1904,0.003 m -40.576,-6.4765 0.0952,0.51645 0.0952,0.51645 m 39.8142,5.4254 0.1904,0.009 m -60.3878,-0.2135 0.1904,-0.004 m 59.626,0.1803 0.1904,0.0156 m -40.195,-8.0588 c 0.0635,0.24263 0.12693,0.48527 0.1904,0.7279 m 39.4332,7.2737 0.1904,0.0225 m -76.77074,-0.0485 0.19054,0 m 76.0088,-0.0293 0.1904,0.0293 m -39.814,-8.9412 0.0991,0.20842 0.0913,0.19188 m 39.0522,8.444 0.1904,0.0352 m -59.2448,-0.0357 0.1904,-0.006 m 58.483,-0.07 0.1904,0.0395 m -39.433,-9.1173 0.1904,0.0747 m 38.6712,8.9213 0.1904,0.0412 m -68.38878,0.2127 0.19048,-3e-4 m 67.6269,-0.3343 0.1904,0.0397 m -39.052,-8.6484 0.14851,-0.17666 0.0419,-0.0498 m 38.2902,8.7631 0.1904,0.0344 m -58.1018,0.2927 0.1904,-0.008 m 57.34,-0.3737 0.1904,0.0248 m -38.671,-7.66 c 0.0635,-0.1615 0.12693,-0.323 0.1904,-0.4845 m 37.9092,8.0907 0.1904,0.0107 m -71.81774,0.482 0.19046,0 m 71.05588,-0.4869 0.1904,-0.008 m -38.29,-6.3257 c 0.0635,-0.22857 0.12693,-0.45713 0.1904,-0.6857 m 37.5282,7.0673 0.1904,-0.0298 m -56.9588,0.405 0.1904,-0.009 m 56.197,-0.27 0.1904,-0.0542 m -37.909,-4.84 c 0.0635,-0.27377 0.12693,-0.54753 0.1904,-0.8213 m 37.1472,5.8622 0.1904,-0.0797 m -65.7218,0.2741 0.19056,-2e-4 m 64.95984,0.002 0.1904,-0.1038 m -37.528,-3.3808 c 0.0635,-0.2962 0.12693,-0.5924 0.1904,-0.8886 m 36.7662,4.6124 0.1904,-0.1245 m -55.8158,-0.1596 0.1904,-0.009 m 55.054,0.5649 0.18636,-0.13615 0,0 0.004,-0.003 m -37.147,-2.0699 c 0.0635,-0.2965 0.12693,-0.593 0.1904,-0.8895 m 36.3852,3.3867 0.18361,-0.13983 0,0 0.007,-0.005 m -70.4842,-0.6541 0.19046,0 m 69.72234,1.0831 0.18594,-0.13672 0,0 0.004,-0.003 m -36.766,-0.9431 c 0.0635,-0.277 0.12693,-0.554 0.1904,-0.831 m 36.0042,2.1697 0.1904,-0.1226 m -54.6728,-1.2437 0.1904,-0.008 m 53.911,1.575 0.1904,-0.0915 m -36.385,0.0586 c 0.0635,-0.24117 0.12693,-0.48233 0.1904,-0.7235 m 35.6232,0.8741 0.1904,-0.0469 m -63.0548,-1.6107 0.19054,-2e-4 m 62.29286,1.6675 0.1906,0.0101 m -36.0042,1.0646 c 0.0635,-0.19323 0.12693,-0.38647 0.1904,-0.5797 m 35.2422,-0.6143 0.1906,0.0769 m -53.53,-1.6364 0.1904,-0.007 m 52.768,1.3043 0.1815,0.14255 0.009,0.007 m -35.6232,2.2192 0.0965,-0.20965 0,0 0.0939,-0.20415 m 34.8612,-2.3653 0.1498,0.17557 0,0 0.0408,0.0478 m -66.10296,-1.0977 0.19054,0 m 65.34082,0.3229 0.12603,0.19334 0.0646,0.0991 m -35.2422,3.6047 0.14355,-0.18072 0,0 0.0469,-0.059 m 34.4802,-4.3303 0.1104,0.20267 0.0802,0.14723 m -52.387,0 0.1904,-0.006 m 51.625,-1.1057 0.10148,0.20728 0.0891,0.18202 m -34.8612,5.1668 0.1904,-0.0706 m 34.0992,-6.2905 0.0984,0.20876 0.0922,0.19584 m -60.38794,1.5113 0.19046,-1e-4 m 59.62588,-2.7078 0.10123,0.2074 0.0894,0.1831 m -34.4802,6.672 0.1904,0.0822 m 33.7182,-7.8597 0.11193,0.20183 0.0787,0.14187 m -51.244,3.0892 0.1904,-0.004 m 50.482,-3.9992 0.13543,0.18688 0,0 0.0552,0.0761 m -34.0992,7.7252 0.15494,0.17105 0.0355,0.0392 m 33.3372,-8.5584 0.18146,0.14261 0,0 0.009,0.007 m -66.10294,4.2043 0.19056,0 m 65.34078,-4.4446 0.1906,0.008 m -33.7182,7.8598 0.12147,0.19624 0,0 0.0689,0.11136 m 32.9562,-7.9512 0.17956,-0.14499 0.011,-0.009 m -50.10108,4.3897 0.19054,-0.003 m 49.33894,-3.6664 0.11625,-0.19938 0,0 0.0744,-0.12752 m -33.3372,6.6889 0.10531,0.20536 0.0851,0.16594 m 32.5752,-5.8209 c 0.0635,-0.1662 0.12707,-0.3324 0.1906,-0.4986 m -57.72096,3.2395 0.19046,-2e-4 m 56.9589,-1.5057 c 0.0635,-0.21843 0.12707,-0.43687 0.1906,-0.6553 m -32.9562,4.0779 0.0989,0.20852 0.0915,0.19288 m 32.1942,-2.3179 c 0.0635,-0.26087 0.12707,-0.52173 0.1906,-0.7826 m -48.95802,0.802 0.19046,-10e-4 m 48.19596,1.6802 c 0.0635,-0.28903 0.12707,-0.57807 0.1906,-0.8671 m -32.5752,0.2805 0.0991,0.20843 0.0913,0.19197 m 31.8132,1.9727 c 0.0635,-0.299 0.12707,-0.598 0.1906,-0.897 m -60.3879,-2.5875 0.19046,0 m 59.62584,5.2366 c 0.0635,-0.28783 0.12707,-0.57567 0.1906,-0.8635 m -32.1942,-4.0233 0.10509,0.20548 0,0 0.0853,0.16682 m 31.4322,6.0978 c 0.0635,-0.254 0.12707,-0.508 0.1906,-0.762 m -47.81504,-6.0374 0.19046,-3e-4 m 47.05298,8.0784 c 0.0635,-0.19767 0.12707,-0.39533 0.1906,-0.593 m -31.8132,-7.8287 0.1172,0.19882 0,0 0.0732,0.12418 m 31.0512,8.9451 0.10755,-0.2042 0,0 0.0831,-0.1577 m -55.05398,-8.5832 0.19048,-10e-5 m 54.2919,9.2518 0.1906,-0.0802 m -31.4322,-10.0459 0.13679,0.18588 0.0538,0.0731 m 30.67,9.5566 0.14508,0.17949 0,0 0.0455,0.0563 m -46.67206,-9.1569 0.19056,5e-4 m 45.9099,7.955 c 0.0635,0.18843 0.12707,0.37687 0.1906,0.5653 m -31.0512,-9.8256 0.16483,0.16154 0.0258,0.0253 m 30.289,7.4608 c 0.0635,0.29493 0.12707,0.58987 0.1906,0.8848 m -59.43536,-7.2477 0.19046,0 m 58.6735,4.161 0.0952,0.5845 0.0952,0.5845 m -30.6702,-6.8771 0.1906,0.1128 m 29.9082,2.9111 0.0952,0.6969 0.0952,0.6969 m -45.52908,-2.8525 0.19056,0.001 m 44.76712,-1.5563 0.0952,0.76855 0.0952,0.76855 m -30.2892,-1.6664 0.1906,0.0424 m 29.5272,-3.0675 0.0952,0.7909 0.0952,0.7909 m -52.387,3.1099 0.19056,-1e-4 m 51.62504,-7.7718 0.0952,0.7584 0.0952,0.7584 m -29.9082,4.5982 0.1906,-0.0198 m 29.1462,-8.8762 0.0952,0.66955 0.0952,0.66955 m -44.386,9.229 0.19046,0.001 m 43.62444,-12.83253 0.0952,0.52688 0.0952,0.52687 m -29.5272,10.22294 0.1906,-0.0708 m 28.7652,-12.75542 c 0.0635,0.22492 0.12693,0.44985 0.1904,0.67477 m -54.67292,13.69045 0.19048,0 m 53.91104,-15.04592 0.14946,0.17586 0,0 0.0409,0.0482 m -29.1462,13.4832 0.1906,-0.1088 m 28.3842,-13.30924 0.13311,-0.18854 0,0 0.0573,-0.0811 m -43.24302,15.03863 0.19046,0.002 M 275.524,196.82281 c 0.0635,-0.25753 0.12693,-0.51505 0.1904,-0.77258 m -28.7652,13.15142 0.18927,-0.13207 0,0 10e-4,-9.3e-4 m 28.0032,-9.98135 0.0952,-0.62418 0.0952,-0.62417 m -49.71994,12.4461 0.19048,-1e-4 m 48.95806,-8.0719 0.0952,-0.8305 0.0952,-0.8305 m -28.3842,8.9336 0.18414,-0.13912 0.006,-0.005 m 27.6222,-3.318 c 0.0635,-0.65916 0.12693,-1.31833 0.1904,-1.9775 m -42.10004,6.2475 0.19054,0.002 M 274,210.28515 c 0.0635,-0.72346 0.12693,-1.44693 0.1904,-2.1704 m -28.0032,1.6595 0.18452,-0.13863 0,0 0.006,-0.005 m 27.2412,5.0891 c 0.0635,-0.74026 0.12693,-1.48053 0.1904,-2.2208 m -56.9589,-2.2142 0.19055,0 m 56.19695,8.7439 c 0.0635,-0.70653 0.12693,-1.41307 0.1904,-2.1196 m -27.6222,-6.8635 0.18941,-0.13187 0,0 0.001,-8.3e-4 m 26.8602,12.997 c 0.0635,-0.62293 0.12693,-1.24587 0.1904,-1.8688 m -40.95706,-10.7505 0.19056,0.001 m 40.1951,15.7904 0.0952,-0.7408 0.0952,-0.7408 m -27.2412,-14.3161 0.1906,-0.1147 m 26.4792,18.1386 0.0952,-0.49105 0.0952,-0.49105 m -47.05294,-17.0415 0.19046,0 m 46.29108,19.1268 0.0986,-0.20867 0,0 0.0918,-0.19433 m -26.8602,-18.5283 0.1906,-0.092 m 26.0982,18.9032 0.15261,0.17313 0.0378,0.0429 m -39.814,-19.2199 0.19048,0.001 m -12.38234,-0.004 0.19046,0 m -0.38102,0 0.19056,0 m 103.05946,0 0.1904,0 m -97.7255,3e-4 0.19056,0 m 96.58254,-3e-4 0.1904,0 m -105.91685,0 0.19047,0 m 104.77398,0 0.1904,0 m -77.1516,0.4683 0.1904,-0.0298 m 76.0088,-0.4385 0.1906,0 m -105.0486,0 0.0841,0 m 104.01194,0 0.1904,0 m -88.58148,0 0.19048,9e-4 m 87.4386,-9e-4 0.1904,0 m -50.4818,-9.5197 c 0.0635,0.74506 0.12693,1.49013 0.1904,2.2352 m 49.339,7.2845 0.1904,0 m -74.8656,0.4818 0.1904,0.0107 m 73.7228,-0.4925 0.1906,0 m -49.72,-16.52487 0.0952,0.69967 0.0952,0.69967 m 48.577,15.12553 0.1906,0 m -95.82064,0 0.19056,0 m 94.67748,-1e-4 0.1906,0 m -48.958,-19.22289 0.15264,0.17311 0,0 0.0378,0.0428 m 47.815,19.00685 0.1906,0 m -72.5798,0.3743 0.1904,0.0344 m 71.4368,-0.4088 0.1906,0 m -48.196,-17.04152 0.0952,-0.49105 0.0952,-0.49106 m 47.053,18.02363 0.1906,0 m -83.2477,-0.002 0.19054,4e-4 m 82.10456,0.002 0.1906,-1e-4 m -47.434,-10.756 c 0.0635,-0.62292 0.12693,-1.24584 0.1904,-1.86876 m 46.291,12.62516 0.1906,-1e-4 m -70.2938,0.2145 0.1904,0.0412 m 69.1508,-0.255 0.1906,-2e-4 m -46.672,-2.2147 c 0.0635,-0.74026 0.12693,-1.48053 0.1904,-2.2208 m 45.529,4.4366 0.1906,-2e-4 m -86.29564,-0.001 0.19046,0 m 85.15278,0.002 0.1904,-2e-4 m -45.91,6.2362 c 0.0635,-0.65913 0.12693,-1.31827 0.1904,-1.9774 m 44.7672,-4.2582 0.1904,0 m -68.0078,0.0588 0.1904,0.0352 m 66.865,-0.0946 0.1904,3e-4 m -45.148,12.4432 0.0952,-0.6242 0.0952,-0.6242 m 44.0052,-11.1974 0.1904,8e-4 m -77.91366,-0.004 0.19046,0 m 76.7708,-0.001 0.1904,0.001 m -44.386,15.0295 0.1331,-0.18854 0.0573,-0.0812 m 43.2432,-14.7672 0.1904,0.002 m -65.7218,-0.0396 0.1904,0.0225 m 64.579,0.009 0.1904,0.001 m -43.624,13.7059 c 0.0635,0.2249 0.12693,0.4498 0.1904,0.6747 m 42.4812,-14.3858 0.1904,5e-4 m -82.67614,0.0201 0.19056,0 m 81.53318,-0.0179 0.1904,-0.001 m -42.862,9.233 0.0952,0.66955 0.0952,0.66955 m 41.7192,-10.5578 0.1904,-0.004 m -63.4358,-0.095 0.1906,0.009 m 62.2928,0.1151 0.1904,-0.007 m -42.1,3.0973 0.0952,0.7909 0.0952,0.7909 m 40.9572,-4.6375 0.1904,-0.009 m -72.5797,-0.0474 0.19056,-2e-4 m 71.43674,0.0925 0.1904,-0.008 m -41.338,-2.952 0.0953,0.6969 0.0953,0.6969 m 40.195,1.5895 0.1906,-0.004 m -61.15,-0.2218 0.1906,-0.002 m 60.0068,0.2187 0.1906,0.006 m -40.5762,-7.3581 c 0.0635,0.29493 0.12707,0.58987 0.1906,0.8848 m 39.433,6.4114 0.1906,0.0191 m -74.86588,-0.0674 0.19054,0 m 73.72274,-0.0619 0.1906,0.0324 m -39.8142,-9.1477 0.14508,0.17949 0,0 0.0455,0.0563 m 38.671,8.7267 0.1906,0.0406 m -58.864,0.0841 0.1906,-0.008 m 57.7208,-0.2767 0.1906,0.0377 m -39.0522,-8.2468 0.10755,-0.2042 0,0 0.0831,-0.1577 m 37.909,8.4633 0.1906,0.0183 m -67.24584,0.4619 0.19046,-2e-4 m 66.10278,-0.4665 0.1906,-0.0184 m -38.2902,-5.5713 c 0.0635,-0.25403 0.12707,-0.50807 0.1906,-0.7621 m 37.147,6.5446 0.1906,-0.067 m -56.578,0.2885 0.1906,-0.009 m 55.4348,0.178 0.1906,-0.1147 m -37.5282,-2.5876 c 0.0635,-0.299 0.12707,-0.598 0.1906,-0.897 m 36.385,4.1387 0.18452,-0.13863 0,0 0.006,-0.005 m -72.5798,-0.5109 0.19046,0 m 71.43674,1.2161 0.18927,-0.13207 0,0 10e-4,-9.3e-4 m -36.7662,-0.3005 c 0.0635,-0.26087 0.12707,-0.52173 0.1906,-0.7826 m 35.623,1.6098 0.1906,-0.0708 m -54.292,-1.5587 0.1906,-0.008 m 53.149,1.6516 0.1904,0.0424 m -36.0042,1.5733 c 0.0635,-0.1662 0.12707,-0.3324 0.1906,-0.4986 m 34.8612,-1.6433 0.16474,0.16163 0.0257,0.0252 m -61.91188,-1.2853 0.19048,-2e-4 m 60.769,9e-4 0.1172,0.19882 0,0 0.0732,0.12418 m -35.2422,4.051 0.17956,-0.14499 0.011,-0.009 m 34.0992,-5.732 0.0991,0.20843 0.0913,0.19197 m -52.006,1.1166 0.1906,-0.005 m 50.863,-3.0798 0.10531,0.20536 0.0851,0.16594 m -34.4802,6.9128 0.1815,0.14255 0.009,0.007 m 33.3372,-8.5583 0.15494,0.17105 0.0355,0.0391 m -63.43584,3.9942 0.19048,0 m 62.29296,-4.3741 0.1904,-0.0706 m -33.7182,7.5244 0.11193,0.20183 0.0787,0.14187 m 32.5752,-6.6632 0.0965,-0.20965 0,0 0.0939,-0.20415 m -49.71996,3.6714 0.19048,-0.002 m 48.57708,-0.7983 c 0.0635,-0.24117 0.12693,-0.48233 0.1904,-0.7235 m -32.9562,3.018 0.0984,0.20876 0.0923,0.19584 m 31.8132,0.6711 c 0.0635,-0.2965 0.12693,-0.593 0.1904,-0.8895 m -56.5779,-1.6982 0.19054,-1e-4 m 55.43496,6.0582 c 0.0635,-0.27377 0.12693,-0.54753 0.1904,-0.8213 m -32.1942,-5.2367 0.1104,0.20267 0.0802,0.14723 m 31.0512,8.2333 c 0.0635,-0.1615 0.12693,-0.323 0.1904,-0.4845 m -47.4339,-8.0781 0.19046,0 m 46.29104,9.1564 0.1904,0.0747 m -31.432,-10.3496 0.14967,0.17568 0.0407,0.0478 m 30.2892,8.1221 c 0.0635,0.24263 0.12693,0.48527 0.1904,0.7279 m -60.95928,-7.9756 0.19046,0 m 59.81642,2.8706 0.0953,0.6452 0.0953,0.6452 m -30.6702,-5.785 0.1904,0.0769 m 29.5272,-1.5626 0.0953,0.7863 0.0953,0.7863 m -45.14814,1.5539 0.19046,10e-4 m 44.00508,-9.2317 0.0953,0.72095 0.0953,0.72095 m -29.9082,6.1619 0.1904,-0.0469 m 28.7652,-12.03375 c 0.0635,0.29159 0.12707,0.58317 0.1906,0.87476 m -51.24406,12.81589 0.19046,0 m 50.101,-15.02663 0.1906,-0.0195 m -29.1462,13.82982 0.1904,-0.1226 m 28.0032,-11.1071 0.0953,-0.50807 0.0953,-0.50807 m -42.8621,13.47244 0.19048,0.002 m 41.71902,-6.2508 0.0953,-0.91655 0.0953,-0.91655 m -28.3842,7.4176 0.18361,-0.13983 0,0 0.007,-0.005 m 27.2412,3.0133 c 0.0635,-0.73807 0.12707,-1.47613 0.1906,-2.2142 m -52.00598,0 0.19046,0 m 50.86292,10.7563 c 0.0635,-0.6708 0.12707,-1.3416 0.1906,-2.0124 m -27.6222,-8.8586 0.1904,-0.1245 m 26.4792,17.281 0.0953,-0.62205 0.0953,-0.62205 m -40.57612,-15.7933 0.19046,0.001 m 39.43306,19.2172 0.1906,-0.0959 m -26.8602,-18.8516 0.1904,-0.0797 m 77.9138,-0.1958 0.1904,0 m -91.62954,0.002 0.19054,10e-4 m 89.7246,-0.003 0.1904,0 m -105.91687,0 0.19055,0 m 104.01192,0 0.1904,0 m -76.3896,0.4944 0.1904,-0.008 m 74.4848,-0.4867 0.1906,0 m -50.482,-13.47295 c 0.0635,0.62631 0.12693,1.25263 0.1904,1.87894 m 48.577,11.59401 0.1906,0 m -95.82062,0 0.19048,0 m 93.91554,-1e-4 0.1906,0 m -48.958,-18.72399 0.0986,-0.20867 0,0 0.0918,-0.19433 m 47.053,19.12679 0.1906,0 m -71.8178,0.297 0.1904,0.0397 m 69.9128,-0.3365 0.1906,-10e-5 m -47.434,-6.6241 c 0.0635,-0.70653 0.12693,-1.41307 0.1904,-2.1196 m 45.529,8.745 0.1906,-2e-4 m -80.96172,-0.004 0.19054,2e-4 m 79.05678,0.005 0.1904,-2e-4 m -45.91,9.7301 0.0952,-0.8305 0.0952,-0.8305 m 44.0052,-8.0703 0.1904,5e-4 m -67.2458,-0.002 0.1904,0.0293 m 65.341,-0.0366 0.1904,0.001 m -44.386,14.8277 0.14947,0.17585 0.0409,0.0481 m 42.4812,-15.0652 0.1904,0.001 m -80.96166,0.0184 0.19054,1e-4 m 79.05672,-0.0132 0.1904,-0.003 m -42.862,6.2706 0.0952,0.7584 0.0952,0.7584 m 40.9572,-7.7357 0.1904,-0.009 m -62.6738,-0.1411 0.1906,0.003 m 60.7688,0.2143 0.1904,-0.006 m -41.338,-5.4274 0.0953,0.5845 0.0953,0.5845 m 39.433,4.2442 0.1906,0.0122 m -70.2939,-0.0975 0.19054,-2e-4 m 68.38876,-0.1321 0.1906,0.0375 m -39.8142,-9.0747 0.1906,-0.0801 m 37.909,8.813 0.1906,0.0302 m -58.102,0.336 0.1906,-0.009 m 56.1968,-0.3153 0.1906,-0.0418 m -38.2902,-3.9347 c 0.0635,-0.28783 0.12707,-0.57567 0.1906,-0.8635 m 36.385,5.6085 0.18945,-0.1318 10e-4,-8e-4 m -72.0083,-0.2392 0.19046,0 m 70.10324,1.4475 0.1906,-0.1088 m -36.7662,0.8227 c 0.0635,-0.21843 0.12707,-0.43687 0.1906,-0.6553 m 34.8612,-0.0718 0.1904,0.1128 m -53.53,-1.5529 0.1906,-0.007 m 51.625,-0.7098 0.10509,0.20548 0,0 0.0853,0.16682 m -35.2422,4.7861 0.1906,0.008 m 33.3372,-8.1757 0.12147,0.19624 0,0 0.0689,0.11136 m -59.6259,3.4231 0.19056,-2e-4 m 57.72094,-3.9798 0.14355,-0.18072 0,0 0.0469,-0.059 m -33.7182,6.538 0.10121,0.20741 0.0894,0.18319 m 31.8132,-1.8775 c 0.0635,-0.277 0.12693,-0.554 0.1904,-0.831 m -48.95798,0.0203 0.19056,-9e-4 m 47.05302,7.4863 c 0.0635,-0.22857 0.12693,-0.45713 0.1904,-0.6857 m -32.194,-7.4354 0.12594,0.1934 0.0645,0.099 m 30.2892,8.8639 0.0991,0.20842 0.0913,0.19188 m -58.10184,-8.9412 0.19054,1e-4 m 56.1969,-1e-4 0.0953,0.7384 0.0953,0.7384 m -30.6702,-3.1533 0.1904,0.0101 m 28.7652,-10.09554 0.0953,0.60462 0.0953,0.60462 m -44.38616,10.5665 0.19056,0.002 m 42.481,-14.24992 c 0.0635,-0.17407 0.12707,-0.34815 0.1906,-0.52222 m -29.1462,13.81364 0.18594,-0.13672 0,0 0.004,-0.003 m 27.2412,-1.0873 c 0.0635,-0.6969 0.12707,-1.3938 0.1906,-2.0907 m -48.95808,4.2614 0.19054,0 m 47.05294,14.3158 0.0953,-0.8455 0.0953,-0.8455 m -27.6222,-12.5213 0.1904,-0.1038 m 25.7172,18.4802 c 0.0635,0.1756 0.12707,0.3512 0.1906,0.5268 m -26.8602,-18.6103 0.1904,-0.0543 m 76.0088,-0.3424 0.1904,0 m -52.0058,-4.926 c 0.0635,0.81396 0.12693,1.62793 0.1904,2.4419 m 48.577,2.4841 0.1906,0 m -101.15457,0 0.19047,0 m 97.7255,-2e-4 0.1906,0 m -48.958,-14.31588 0.0952,-0.74084 0.0952,-0.74084 m 45.529,15.79816 0.1906,-2e-4 m -70.2938,0.1342 0.1904,0.0394 m 66.865,-0.171 0.1904,1e-4 m -45.91,14.2316 c 0.0635,-0.25753 0.12693,-0.51507 0.1904,-0.7726 m 42.4812,-13.4757 0.1904,0.002 m -76.38968,0.009 0.19048,-1e-4 m 72.9608,0.009 0.1904,-0.006 m -42.862,0 0.0953,0.76855 0.0953,0.76855 m 39.433,-1.4235 0.1906,6e-4 m -61.15,-0.2181 0.1906,-0.005 m 57.7208,-0.1876 0.1906,0.041 m -39.8142,-7.2501 c 0.0635,-0.19763 0.12707,-0.39527 0.1906,-0.5929 m 36.385,7.9949 0.1906,-0.092 m -70.29382,0.1959 0.19048,1e-4 m 66.86494,1.6763 0.1904,-0.0198 m -36.7662,2.3237 0.11625,-0.19938 0,0 0.0744,-0.12752 m 33.3372,-5.9715 0.0989,0.20853 0,0 0.0915,0.19297 m -52.00594,1.9294 0.19054,-0.003 m 48.577,-2.1708 c 0.0635,-0.19323 0.12693,-0.38647 0.1904,-0.5797 m -33.7182,3.4633 0.10148,0.20728 0.0891,0.18202 m 30.2892,8.06 0.14855,-0.17663 0,0 0.0418,-0.0498 m -55.05384,-8.945 0.19046,-1e-4 m 51.62498,-6.2549 0.0953,0.7817 0.0953,0.7817 m -30.6702,3.244 0.1904,-0.0915 m 27.2412,-8.1937 0.0953,-0.73237 0.0953,-0.73238 m -42.8621,11.20475 0.19046,0.002 m 39.43304,18.7152 c 0.0635,-0.2334 0.12707,-0.4668 0.1906,-0.7002 m -55.62544,-18.0239 0.19047,0 m 102.48797,0 0.1904,0 m -99.05892,0 0.19056,0 m 92.58196,-3e-4 0.1906,0 m -48.958,2.1707 c 0.0635,-0.72346 0.12693,-1.44693 0.1904,-2.1704 m 42.4812,-0.002 0.1904,0.001 m -67.2458,-0.0823 0.1906,0.0156 m 60.7688,0.1401 0.1906,-0.009 m -42.8622,-8.6042 c 0.0635,0.18843 0.12707,0.37687 0.1906,0.5653 m 36.385,7.4812 0.1906,0.002 m -67.24586,0.4914 0.19046,-3e-4 m 60.769,0.6168 0.1367,0.18595 0.0537,0.0731 m -36.7662,2.8567 0.13543,0.18688 0,0 0.0552,0.0761 m 30.2892,0.3791 c 0.0635,-0.2962 0.12693,-0.5924 0.1904,-0.8886 m -48.95792,-3.4654 0.19046,9e-4 m 42.48106,-14.842 c 0.0635,0.15223 0.12707,0.30445 0.1906,0.45668 m -30.6702,13.99332 0.1864,-0.13608 0.004,-0.003 m 76.0088,0.5109 0.1904,0 m -97.72544,3e-4 0.19048,0 m 85.15256,0.002 0.1906,-2e-4 m -48.958,11.7601 0.0952,0.5269 0.0952,0.5269 m 36.3852,-12.8157 0.1906,0.026 m -61.15,-0.062 0.1906,-0.009 m 48.577,-4.3914 0.1904,0.0822 m -36.766,2.9198 0.18148,0.14259 0,0 0.009,0.007 m 24.1932,7.909 c 0.0635,-0.72977 0.12707,-1.45953 0.1906,-2.1893 m -42.8621,-4.4364 0.19048,6e-4 m 72.96082,-0.0195 0.1904,-4e-4 m -48.958,-0.8103 c 0.0635,-0.28903 0.12707,-0.57807 0.1906,-0.8671 m 24.1932,7.0281 0.0952,0.51645 0.0952,0.51645 m -36.766,-5.9242 0.1904,0.0248 m 48.577,0.4796 0.18414,-0.13912 0.006,-0.005 m -24.5742,-19.27932 c 0.0635,0.27712 0.12693,0.55425 0.1904,0.83137 m -48.7675,17.64885 0.19046,0 m 51.81544,16.5249 0.0953,0.56195 0.0953,0.56195 m -53.91095,-17.6488 0.19047,0 m 53.33948,15.1255 0.0952,0.6997 0.0952,0.6997 m -53.52988,-16.5249 0.19054,0 m 52.95834,13.4729 0.0953,0.8263 0.0953,0.8263 m -53.14894,-15.1255 0.19048,0 m 52.57746,11.594 c 0.0635,0.6263 0.12693,1.2526 0.1904,1.8789 m -52.76786,-13.4729 0.19046,0 m 52.1964,9.5197 c 0.0635,0.69144 0.12707,1.38287 0.1906,2.0743 m -52.387,-11.594 0.19054,0 m 51.81546,7.2845 c 0.0635,0.74506 0.12693,1.49013 0.1904,2.2352 m -52.00586,-9.5197 0.19048,0 m 51.43458,4.926 c 0.0635,0.78616 0.12693,1.57233 0.1904,2.3585 m -51.62498,-7.2845 0.19046,0 m 51.05352,2.4841 c 0.0635,0.81397 0.12707,1.62793 0.1906,2.4419 m -0.381,-4.926 c 0.0635,0.82803 0.12693,1.65607 0.1904,2.4841 m -51.05352,-2.4841 0.19056,0" />
    </g>
    <text
       xml:space="preserve"
       style="font-size:12px;font-style:normal;font-variant:normal;font-weight:normal;font-stretch:normal;text-indent:0;text-align:start;text-decoration:none;line-height:125%;letter-spacing:0px;word-spacing:0px;text-transform:none;direction:ltr;block-progression:tb;writing-mode:lr-tb;text-anchor:start;color:#000000;fill:#000000;fill-opacity:1;fill-rule:nonzero;stroke:none;stroke-width:1px;marker:none;visibility:visible;display:inline;overflow:visible;enable-background:accumulate;font-family:Arial;-inkscape-font-specification:Arial"
       x="356.0798"
       y="554.86206"
       id="text3227"
       sodipodi:linespacing="125%"><tspan
         sodipodi:role="line"
         id="tspan3229"
         x="356.0798"
         y="554.86206">matter waves</tspan></text>
  </g>
</svg>
