<?xml version="1.0" encoding="UTF-8" standalone="no"?>
<!-- Created with Inkscape (http://www.inkscape.org/) -->

<svg
   xmlns:dc="http://purl.org/dc/elements/1.1/"
   xmlns:cc="http://creativecommons.org/ns#"
   xmlns:rdf="http://www.w3.org/1999/02/22-rdf-syntax-ns#"
   xmlns:svg="http://www.w3.org/2000/svg"
   xmlns="http://www.w3.org/2000/svg"
   xmlns:sodipodi="http://sodipodi.sourceforge.net/DTD/sodipodi-0.dtd"
   xmlns:inkscape="http://www.inkscape.org/namespaces/inkscape"
   id="svg2"
   version="1.1"
   inkscape:version="0.48.1 r9760"
   width="623.75"
   height="181.25"
   xml:space="preserve"
   sodipodi:docname="fig_wave_contract.svg"
   inkscape:export-filename="/Users/oreilly/svn_docs/physics/fig_wave_contract.png"
   inkscape:export-xdpi="150"
   inkscape:export-ydpi="150"><metadata
     id="metadata8"><rdf:RDF><cc:Work
         rdf:about=""><dc:format>image/svg+xml</dc:format><dc:type
           rdf:resource="http://purl.org/dc/dcmitype/StillImage" /><dc:title></dc:title></cc:Work></rdf:RDF></metadata><defs
     id="defs6" /><sodipodi:namedview
     pagecolor="#ffffff"
     bordercolor="#666666"
     borderopacity="1"
     objecttolerance="10"
     gridtolerance="10"
     guidetolerance="10"
     inkscape:pageopacity="0"
     inkscape:pageshadow="2"
     inkscape:window-width="1064"
     inkscape:window-height="896"
     id="namedview4"
     showgrid="false"
     inkscape:zoom="0.81603206"
     inkscape:cx="311.875"
     inkscape:cy="90.625"
     inkscape:window-x="169"
     inkscape:window-y="98"
     inkscape:window-maximized="0"
     inkscape:current-layer="g10" /><g
     id="g10"
     inkscape:groupmode="layer"
     inkscape:label="fig.wave_contract"
     transform="matrix(1.25,0,0,-1.25,0,181.25)"><g
       id="g12"
       transform="scale(0.1,0.1)"><path
         d="m 3238.11,632.078 16.26,9.707 8.13,4.852 13.55,9.703 13.55,9.703 10.85,4.852 35.23,0 13.55,-14.555 13.55,-9.703 8.13,-14.559 13.55,-14.555 13.56,-9.703 10.84,0 13.55,9.703 13.55,14.555 8.13,24.262 13.55,24.262 13.56,24.257 8.12,14.555 13.56,9.707 13.55,-9.707 10.84,-24.258 13.55,-38.816 13.56,-38.817 8.12,-48.519 13.55,-33.965 13.56,-19.406 10.84,9.703 13.55,33.965 13.55,48.519 8.13,72.782 13.55,72.777 13.56,58.226 8.13,38.817 13.55,0 13.55,-33.965 10.84,-63.078 13.55,-97.039 13.55,-97.039 8.14,-97.043 13.55,-72.778 13.55,-24.261 10.84,14.558 13.55,72.778 13.55,106.746 8.13,135.855 13.56,131.004 13.55,111.598 8.13,77.632 13.55,4.85 13.55,-48.521 10.84,-106.742 13.55,-150.415 13.56,-164.968 8.13,-160.114 13.55,-121.3 13.55,-58.223 8.13,9.703 13.55,72.778 13.56,135.859 10.84,179.523 13.55,184.375 13.55,174.672 8.13,121.303 13.55,48.52 13.55,-24.26 10.85,-92.19 13.55,-155.263 13.55,-184.375 8.13,-189.231 13.55,-160.117 13.55,-111.594 8.14,-48.519 13.55,24.257 13.55,97.04 10.84,135.859 13.55,179.523 13.55,169.821 8.13,155.261 13.56,106.748 13.55,38.81 8.13,-14.55 16.26,-82.484 13.55,-116.449 8.13,-145.563 13.55,-145.559 13.56,-131.003 8.13,-87.336 13.55,-48.52 13.55,9.703 10.84,48.52 13.55,87.336 13.55,106.746 8.14,106.742 13.55,101.895 13.55,72.777 8.13,48.519 13.55,9.707 13.55,-24.261 10.84,-58.223 13.56,-63.078 13.55,-72.777 8.13,-72.782 13.55,-58.226 13.55,-38.813 13.55,-19.41 10.85,0 13.55,24.262 13.55,43.668 8.13,38.816 13.55,48.52 13.55,43.668 8.13,24.257 13.55,24.262 24.4,0 13.55,-19.41 13.55,-24.258 8.13,-24.261 13.55,-24.258 13.56,-14.559 8.12,-14.555 16.27,-9.703 21.68,0 13.55,9.703 13.55,14.555 8.13,9.707 13.55,4.852 13.56,9.703 10.84,9.703 13.55,4.852 13.55,0 8.13,-4.852 27.11,0 8.13,-9.703 13.55,-9.703 24.39,0 27.1,-14.559 0,0"
         style="fill:none;stroke:#000000;stroke-opacity:1;stroke-width:19.1212;stroke-linecap:butt;stroke-linejoin:miter;stroke-miterlimit:10;stroke-dasharray:none"
         id="path14" /><path
         d="m 25.7461,632.402 28.6836,9.559 14.3398,4.781 23.9024,9.563 23.8981,9.558 19.121,4.782 62.145,0 23.902,-14.34 23.903,-9.563 14.339,-14.34 23.903,-14.343 23.902,-9.559 19.121,0 23.903,9.559 23.898,14.343 14.344,23.903 23.898,23.898 23.903,23.902 14.339,14.34 23.903,9.563 23.902,-9.563 19.121,-23.898 23.903,-38.242 23.902,-38.246 14.34,-47.801 23.902,-33.461 23.898,-19.121 19.122,9.558 23.902,33.461 23.902,47.805 14.34,71.703 23.902,71.707 23.903,57.363 14.34,38.243 23.902,0 23.902,-33.461 19.121,-62.145 23.899,-95.605 23.902,-95.61 14.344,-95.605 23.898,-71.703 23.903,-23.903 19.121,14.34 23.902,71.707 23.903,105.164 14.34,133.852 23.9,129.066 23.9,109.946 14.34,76.491 23.91,4.77 23.89,-47.797 19.13,-105.168 23.9,-148.187 23.9,-162.531 14.34,-157.75 23.9,-119.508 23.9,-57.363 14.34,9.558 23.91,71.707 23.9,133.848 19.12,176.871 23.9,181.652 23.9,172.09 14.35,119.508 23.89,47.8 23.91,-23.9 19.12,-90.83 23.9,-152.965 23.9,-181.652 14.34,-186.43 23.9,-157.75 23.91,-109.949 14.34,-47.801 23.9,23.903 23.9,95.605 19.12,133.848 23.9,176.871 23.9,167.309 14.34,152.972 23.9,105.169 23.91,38.24 14.34,-14.34 28.68,-81.268 23.9,-114.727 14.34,-143.41 23.9,-143.406 23.9,-129.07 14.35,-86.043 23.9,-47.805 23.9,9.563 19.12,47.8 23.9,86.047 23.9,105.164 14.34,105.168 23.91,100.387 23.9,71.703 14.34,47.805 23.9,9.558 23.9,-23.898 19.12,-57.363 23.9,-62.145 23.9,-71.707 14.34,-71.703 23.91,-57.363 23.9,-38.242 23.9,-19.122 19.12,0 23.9,23.903 23.9,43.019 14.35,38.243 23.9,47.804 23.9,43.024 14.34,23.902 23.9,23.898 43.02,0 23.91,-19.121 23.9,-23.898 14.34,-23.902 23.9,-23.903 23.9,-14.34 14.34,-14.343 28.68,-9.559 38.24,0 23.91,9.559 23.9,14.343 14.34,9.559 23.9,4.781 23.9,9.563 19.12,9.558 23.9,4.782 23.91,0 14.34,-4.782 47.8,0 14.34,-9.558 23.9,-9.563 43.03,0 47.8,-14.34 0,0"
         style="fill:none;stroke:#000000;stroke-opacity:1;stroke-width:19.1212;stroke-linecap:butt;stroke-linejoin:miter;stroke-miterlimit:10;stroke-dasharray:none"
         id="path16" /><g
         id="g18"
         transform="scale(10,10)"><text
           transform="matrix(1,0,0,-1,87.1859,130.766)"
           id="text20"><tspan
             style="fill:#000000;fill-opacity:1;fill-rule:nonzero;stroke:none;font-family:Helvetica;font-variant:normal;font-weight:normal;font-size:17.2091;writing-mode:lr;-inkscape-font-specification:Helvetica"
             x="0 11.4784697 15.2988899 24.8671495 37.2921197 46.8603793 52.5910096 57.3751394 67.4252538 72.2093836 81.7776432 91.3459028 100.9141624 110.482422 120.0506816 255.95300939 266.46776949 276.03602909 284.64057909 289.42470889 298.99296849 304.72359879 309.50772859 319.55784299 324.34197279 335.82044249 345.38870209 354.95696169 360.68759199 365.47172179 375.03998139"
             y="0"
             sodipodi:role="line"
             id="tspan22">Slower = LongerFaster = Shorter</tspan></text>
</g><path
         d="m 1280.57,101.785 0,-76.4842"
         style="fill:none;stroke:#000000;stroke-opacity:1;stroke-width:19.1212;stroke-linecap:butt;stroke-linejoin:miter;stroke-miterlimit:10;stroke-dasharray:none"
         id="path24" /><path
         d="m 1605.64,101.785 0,-76.4842"
         style="fill:none;stroke:#000000;stroke-opacity:1;stroke-width:19.1212;stroke-linecap:butt;stroke-linejoin:miter;stroke-miterlimit:10;stroke-dasharray:none"
         id="path26" /><path
         d="m 1280.57,63.543 325.07,0"
         style="fill:none;stroke:#000000;stroke-opacity:1;stroke-width:19.1212;stroke-linecap:butt;stroke-linejoin:miter;stroke-miterlimit:10;stroke-dasharray:none"
         id="path28" /><path
         d="m 3948.64,105.613 0,-80.3083"
         style="fill:none;stroke:#000000;stroke-opacity:1;stroke-width:19.1212;stroke-linecap:butt;stroke-linejoin:miter;stroke-miterlimit:10;stroke-dasharray:none"
         id="path30" /><path
         d="m 4133.75,105.613 0,-80.3083"
         style="fill:none;stroke:#000000;stroke-opacity:1;stroke-width:19.1212;stroke-linecap:butt;stroke-linejoin:miter;stroke-miterlimit:10;stroke-dasharray:none"
         id="path32" /><path
         d="m 3948.64,65.457 185.11,0"
         style="fill:none;stroke:#000000;stroke-opacity:1;stroke-width:19.1212;stroke-linecap:butt;stroke-linejoin:miter;stroke-miterlimit:10;stroke-dasharray:none"
         id="path34" /></g></g></svg>