<?xml version="1.0" encoding="UTF-8" standalone="no"?>
<!-- Created with Inkscape (http://www.inkscape.org/) -->

<svg
   xmlns:dc="http://purl.org/dc/elements/1.1/"
   xmlns:cc="http://creativecommons.org/ns#"
   xmlns:rdf="http://www.w3.org/1999/02/22-rdf-syntax-ns#"
   xmlns:svg="http://www.w3.org/2000/svg"
   xmlns="http://www.w3.org/2000/svg"
   xmlns:sodipodi="http://sodipodi.sourceforge.net/DTD/sodipodi-0.dtd"
   xmlns:inkscape="http://www.inkscape.org/namespaces/inkscape"
   width="744.09448819"
   height="1052.3622047"
   id="svg3171"
   version="1.1"
   inkscape:version="0.48.1 r9760"
   sodipodi:docname="fig_wave_packet_wave_radiation.svg"
   inkscape:export-filename="/Users/oreilly/svn_docs/physics/fig_wave_packet_wave_radiation.png"
   inkscape:export-xdpi="150"
   inkscape:export-ydpi="150">
  <defs
     id="defs3173">
    <clipPath
       id="clipPath18"
       clipPathUnits="userSpaceOnUse">
      <path
         id="path20"
         d="m 0,0 0,4215.21 5385.83,0 L 5385.83,0 0,0 z" />
    </clipPath>
  </defs>
  <sodipodi:namedview
     id="base"
     pagecolor="#ffffff"
     bordercolor="#666666"
     borderopacity="1.0"
     inkscape:pageopacity="0.0"
     inkscape:pageshadow="2"
     inkscape:zoom="1.979899"
     inkscape:cx="367.19092"
     inkscape:cy="386.07236"
     inkscape:document-units="px"
     inkscape:current-layer="layer1"
     showgrid="false" />
  <metadata
     id="metadata3176">
    <rdf:RDF>
      <cc:Work
         rdf:about="">
        <dc:format>image/svg+xml</dc:format>
        <dc:type
           rdf:resource="http://purl.org/dc/dcmitype/StillImage" />
        <dc:title></dc:title>
      </cc:Work>
    </rdf:RDF>
  </metadata>
  <g
     inkscape:label="Layer 1"
     inkscape:groupmode="layer"
     id="layer1">
    <rect
       style="fill:#ffffff;stroke:#ffffff;stroke-width:1.00595117;stroke-linejoin:round;stroke-miterlimit:10;stroke-opacity:1;stroke-dasharray:none;stroke-dashoffset:0"
       id="rect4053"
       width="214.15234"
       height="213.6422"
       x="260.11429"
       y="508.90521" />
    <g
       transform="matrix(0,1.25,1.25,0,104.30608,279.07242)"
       inkscape:label="fig_wave_packet_raw"
       id="g10">
      <rect
         transform="scale(1,-1)"
         y="-232.22287"
         x="213.38358"
         height="43.83075"
         width="112.27905"
         id="rect7830"
         style="fill:#ffffff;fill-opacity:1;fill-rule:nonzero;stroke:#ffffff;stroke-width:0.69552761;stroke-linejoin:round;stroke-miterlimit:10;stroke-opacity:1;stroke-dasharray:none;stroke-dashoffset:0" />
      <path
         d="m 244.6632,210.62745 0.1906,-0.0669 m 26.0982,17.3733 c 0.0635,0.27713 0.12693,0.55427 0.1904,0.8314 m -26.8602,-18.0417 0.1906,-0.0418 m -0.5716,0.0899 0.1906,-0.0184 m 24.9552,-2.9524 c 0.0635,0.82804 0.12707,1.65607 0.1906,2.4841 m -0.5716,-7.2845 c 0.0635,0.78617 0.12707,1.57233 0.1906,2.3585 m -25.3364,5.4185 0.1906,0.002 m 24.5742,-12.08841 c 0.0635,0.69144 0.12707,1.38287 0.1906,2.07431 m -0.5716,-5.60583 0.0953,0.82629 0.0953,0.82629 m -24.9554,13.93645 0.1906,0.0183 m 24.1932,-18.13065 0.0953,0.56199 0.0953,0.56199 M 267.142,191.278 c 0.0635,0.17561 0.12707,0.35122 0.1906,0.52683 m -24.5744,18.88872 0.1906,0.0302 m 23.8122,-19.56579 0.1906,-0.0959 m -0.5716,1.19866 c 0.0635,-0.23339 0.12707,-0.46677 0.1906,-0.70016 m -24.1934,19.06049 0.1906,0.0377 m 23.4312,-16.17186 0.0953,-0.62203 0.0953,-0.62203 m -0.5716,4.41676 0.0953,-0.84551 0.0953,-0.84551 m -23.8124,14.57178 0.1906,0.041 m 23.0502,-9.0406 c 0.0635,-0.6708 0.12707,-1.3416 0.1906,-2.0124 m -0.5716,6.3212 c 0.0635,-0.72977 0.12707,-1.45953 0.1906,-2.1893 m -23.4314,6.7981 0.1906,0.0407 m 22.6692,-0.2144 c 0.0635,-0.73807 0.12707,-1.47613 0.1906,-2.2142 m -0.5716,6.4746 c 0.0635,-0.6969 0.12707,-1.3938 0.1906,-2.0907 m -23.0504,-2.0735 0.1906,0.0375 m 22.2882,7.9373 0.0953,-0.9166 0.0953,-0.9166 m -0.5716,4.9583 0.0953,-0.73235 0.0953,-0.73235 m -22.6694,-9.7034 0.1906,0.0324 m 21.9072,13.4002 0.0953,-0.50805 0.0953,-0.50805 m -0.5716,2.3111 c 0.0635,-0.17407 0.12707,-0.34813 0.1906,-0.5222 m -22.2884,-14.2609 0.1906,0.026 m 21.5262,15.0462 0.1906,-0.0195 m -0.5716,-0.6601 c 0.0635,0.15223 0.12707,0.30447 0.1906,0.4567 m -21.9072,-14.8899 0.1904,0.0191 m 21.1452,12.8642 c 0.0635,0.2916 0.12707,0.5832 0.1906,0.8748 m -0.5716,-3.1378 0.0953,0.6046 0.0953,0.6046 m -0.5716,-3.9905 0.0953,0.72095 0.0953,0.72095 m -0.5716,-4.5228 0.0953,0.7817 0.0953,0.7817 m -0.5714,-4.7181 0.0952,0.7863 0.0952,0.7863 m -0.5714,-4.5863 0.0952,0.7384 0.0952,0.7384 m -0.5714,-4.1612 0.0952,0.6452 0.0952,0.6452 m -0.5714,-3.492 0.0952,0.51645 0.0952,0.51645 m -0.5714,-2.646 c 0.0635,0.24263 0.12693,0.48527 0.1904,0.7279 m -0.5714,-1.6935 0.0991,0.20842 0.0913,0.19188 m -0.5714,-0.7103 0.1904,0.0747 m -0.5714,0.2319 0.14851,-0.17666 0.0419,-0.0498 m 38.2902,8.7631 0.1904,0.0344 m -0.5714,-0.089 0.1904,0.0248 m -38.671,-7.66 c 0.0635,-0.1615 0.12693,-0.323 0.1904,-0.4845 m 37.9092,8.0907 0.1904,0.0107 m -0.5714,-0.005 0.1904,-0.008 m -38.29,-6.3257 c 0.0635,-0.22857 0.12693,-0.45713 0.1904,-0.6857 m 37.5282,7.0673 0.1904,-0.0298 m -0.5714,0.126 0.1904,-0.0542 m -37.909,-4.84 c 0.0635,-0.27377 0.12693,-0.54753 0.1904,-0.8213 m 37.1472,5.8622 0.1904,-0.0797 m -0.5714,0.2759 0.1904,-0.1038 m -37.528,-3.3808 c 0.0635,-0.2962 0.12693,-0.5924 0.1904,-0.8886 m 36.7662,4.6124 0.1904,-0.1245 m -0.5714,0.3963 0.18636,-0.13615 0,0 0.004,-0.003 m -37.147,-2.0699 c 0.0635,-0.2965 0.12693,-0.593 0.1904,-0.8895 m 36.3852,3.3867 0.18361,-0.13983 0,0 0.007,-0.005 m -0.5714,0.429 0.18594,-0.13672 0,0 0.004,-0.003 m -36.766,-0.9431 c 0.0635,-0.277 0.12693,-0.554 0.1904,-0.831 m 36.0042,2.1697 0.1904,-0.1226 m -0.5714,0.3233 0.1904,-0.0915 m -36.385,0.0586 c 0.0635,-0.24117 0.12693,-0.48233 0.1904,-0.7235 m 35.6232,0.8741 0.1904,-0.0469 m -0.5714,0.0566 0.1906,0.0101 m -36.0042,1.0646 c 0.0635,-0.19323 0.12693,-0.38647 0.1904,-0.5797 m 35.2422,-0.6143 0.1906,0.0769 m -0.5716,-0.3391 0.1815,0.14255 0.009,0.007 m -35.6232,2.2192 0.0965,-0.20965 0,0 0.0939,-0.20415 m 34.8612,-2.3653 0.1498,0.17557 0,0 0.0408,0.0478 m -0.5716,-0.7748 0.12603,0.19334 0.0646,0.0991 m -35.2422,3.6047 0.14355,-0.18072 0,0 0.0469,-0.059 m 34.4802,-4.3303 0.1104,0.20267 0.0802,0.14723 m -0.5716,-1.1117 0.10148,0.20728 0.0891,0.18202 m -34.8612,5.1668 0.1904,-0.0706 m 34.0992,-6.2905 0.0984,0.20876 0.0922,0.19584 m -0.5716,-1.1966 0.10123,0.2074 0.0894,0.1831 m -34.4802,6.672 0.1904,0.0822 m 33.7182,-7.8597 0.11193,0.20183 0.0787,0.14187 m -0.5716,-0.914 0.13543,0.18688 0,0 0.0552,0.0761 m -34.0992,7.7252 0.15494,0.17105 0.0355,0.0392 m 33.3372,-8.5584 0.18146,0.14261 0,0 0.009,0.007 m -0.5716,-0.2403 0.1906,0.008 m -33.7182,7.8598 0.12147,0.19624 0,0 0.0689,0.11136 m 32.9562,-7.9512 0.17956,-0.14499 0.011,-0.009 m -0.5716,0.7203 0.11625,-0.19938 0,0 0.0744,-0.12752 m -33.3372,6.6889 0.10531,0.20536 0.0851,0.16594 m 32.5752,-5.8209 c 0.0635,-0.1662 0.12707,-0.3324 0.1906,-0.4986 m -0.5716,1.7336 c 0.0635,-0.21843 0.12707,-0.43687 0.1906,-0.6553 m -32.9562,4.0779 0.0989,0.20852 0.0915,0.19288 m 32.1942,-2.3179 c 0.0635,-0.26087 0.12707,-0.52173 0.1906,-0.7826 m -0.5716,2.4812 c 0.0635,-0.28903 0.12707,-0.57807 0.1906,-0.8671 m -32.5752,0.2805 0.0991,0.20843 0.0913,0.19197 m 31.8132,1.9727 c 0.0635,-0.299 0.12707,-0.598 0.1906,-0.897 m -0.5716,2.6491 c 0.0635,-0.28783 0.12707,-0.57567 0.1906,-0.8635 m -32.1942,-4.0233 0.10509,0.20548 0,0 0.0853,0.16682 m 31.4322,6.0978 c 0.0635,-0.254 0.12707,-0.508 0.1906,-0.762 m -0.5716,2.0407 c 0.0635,-0.19767 0.12707,-0.39533 0.1906,-0.593 m -31.8132,-7.8287 0.1172,0.19882 0,0 0.0732,0.12418 m 31.0512,8.9451 0.10755,-0.2042 0,0 0.0831,-0.1577 m -0.5716,0.6685 0.1906,-0.0802 m -31.4322,-10.0459 0.13679,0.18588 0.0538,0.0731 m 30.67,9.5566 0.14508,0.17949 0,0 0.0455,0.0563 m -0.5716,-1.2014 c 0.0635,0.18843 0.12707,0.37687 0.1906,0.5653 m -31.0512,-9.8256 0.16483,0.16154 0.0258,0.0253 m 30.289,7.4608 c 0.0635,0.29493 0.12707,0.58987 0.1906,0.8848 m -0.5714,-3.0867 0.0952,0.5845 0.0952,0.5845 m -30.6702,-6.8771 0.1906,0.1128 m 29.9082,2.9111 0.0952,0.6969 0.0952,0.6969 m -0.5714,-4.4078 0.0952,0.76855 0.0952,0.76855 m -30.2892,-1.6664 0.1906,0.0424 m 29.5272,-3.0675 0.0952,0.7909 0.0952,0.7909 m -0.5714,-4.662 0.0952,0.7584 0.0952,0.7584 m -29.9082,4.5982 0.1906,-0.0198 m 29.1462,-8.8762 0.0952,0.66955 0.0952,0.66955 m -0.5711,-3.60253 0.0952,0.52688 0.0952,0.52687 m -29.5272,10.22294 0.1906,-0.0708 m 28.7652,-12.75542 c 0.0635,0.22492 0.12693,0.44985 0.1904,0.67477 m -0.5714,-1.35547 0.14946,0.17586 0,0 0.0409,0.0482 m -29.1462,13.4832 0.1906,-0.1088 m 28.3842,-13.30924 0.13311,-0.18854 0,0 0.0573,-0.0811 m -0.57137,1.5648 c 0.0635,-0.25753 0.12693,-0.51505 0.1904,-0.77258 m -28.7652,13.15142 0.18927,-0.13207 0,0 10e-4,-9.3e-4 m 28.0032,-9.98135 0.0952,-0.62418 0.0952,-0.62417 m -0.5714,4.3741 0.0952,-0.8305 0.0952,-0.8305 m -28.3842,8.9336 0.18414,-0.13912 0.006,-0.005 m 27.6222,-3.318 c 0.0635,-0.65916 0.12693,-1.31833 0.1904,-1.9775 M 274,210.28515 c 0.0635,-0.72346 0.12693,-1.44693 0.1904,-2.1704 m -28.0032,1.6595 0.18452,-0.13863 0,0 0.006,-0.005 m 27.2412,5.0891 c 0.0635,-0.74026 0.12693,-1.48053 0.1904,-2.2208 m -0.5714,6.5297 c 0.0635,-0.70653 0.12693,-1.41307 0.1904,-2.1196 m -27.6222,-6.8635 0.18941,-0.13187 0,0 0.001,-8.3e-4 m 26.8602,12.997 c 0.0635,-0.62293 0.12693,-1.24587 0.1904,-1.8688 m -0.5714,5.0409 0.0952,-0.7408 0.0952,-0.7408 m -27.2412,-14.3161 0.1906,-0.1147 m 26.4792,18.1386 0.0952,-0.49105 0.0952,-0.49105 m -0.5714,2.0853 0.0986,-0.20867 0,0 0.0918,-0.19433 m -26.8602,-18.5283 0.1906,-0.092 m 26.0982,18.9032 0.15261,0.17313 0.0378,0.0429 m -27.4316,-18.7546 0.1904,-0.0298 m 24.19344,-9.9582 c 0.0635,0.74506 0.12693,1.49013 0.1904,2.2352 m -25.3362,7.7663 0.1904,0.0107 m 24.1934,-17.01737 0.0952,0.69967 0.0952,0.69967 m -0.9524,-4.09746 0.15264,0.17311 0,0 0.0378,0.0428 m -24.5742,19.38115 0.1904,0.0344 m 23.4314,-17.45032 0.0952,-0.49105 0.0952,-0.49106 m -0.9524,7.26793 c 0.0635,-0.62292 0.12693,-1.24584 0.1904,-1.86876 m -23.8122,12.83956 0.1904,0.0412 m 22.6694,-2.4699 c 0.0635,-0.74026 0.12693,-1.48053 0.1904,-2.2208 m -0.9524,10.6734 c 0.0635,-0.65913 0.12693,-1.31827 0.1904,-1.9774 m -23.0502,-4.1994 0.1904,0.0352 m 21.9074,12.3489 0.0952,-0.6242 0.0952,-0.6242 m -0.9524,3.8289 0.1331,-0.18854 0.0573,-0.0812 m -22.2882,-14.8048 0.1904,0.0225 m 21.1454,13.7159 c 0.0635,0.2249 0.12693,0.4498 0.1904,0.6747 m -0.9524,-5.1511 0.0952,0.66955 0.0952,0.66955 m -0.9524,-7.4424 0.0952,0.7909 0.0952,0.7909 m -0.9524,-7.5616 0.0953,0.6969 0.0953,0.6969 m -0.9526,-5.7717 c 0.0635,0.29493 0.12707,0.58987 0.1906,0.8848 m -0.9526,-2.8141 0.14508,0.17949 0,0 0.0455,0.0563 m 37.909,8.5667 0.1906,0.0377 m -39.0522,-8.2468 0.10755,-0.2042 0,0 0.0831,-0.1577 m 37.909,8.4633 0.1906,0.0183 m -0.9526,-0.005 0.1906,-0.0184 m -38.2902,-5.5713 c 0.0635,-0.25403 0.12707,-0.50807 0.1906,-0.7621 m 37.147,6.5446 0.1906,-0.067 m -0.9526,0.4575 0.1906,-0.1147 m -37.5282,-2.5876 c 0.0635,-0.299 0.12707,-0.598 0.1906,-0.897 m 36.385,4.1387 0.18452,-0.13863 0,0 0.006,-0.005 m -0.9526,0.7052 0.18927,-0.13207 0,0 10e-4,-9.3e-4 m -36.7662,-0.3005 c 0.0635,-0.26087 0.12707,-0.52173 0.1906,-0.7826 m 35.623,1.6098 0.1906,-0.0708 m -0.9524,0.0849 0.1904,0.0424 m -36.0042,1.5733 c 0.0635,-0.1662 0.12707,-0.3324 0.1906,-0.4986 m 34.8612,-1.6433 0.16474,0.16163 0.0257,0.0252 m -0.9524,-1.2846 0.1172,0.19882 0,0 0.0732,0.12418 m -35.2422,4.051 0.17956,-0.14499 0.011,-0.009 m 34.0992,-5.732 0.0991,0.20843 0.0913,0.19197 m -0.9524,-1.9682 0.10531,0.20536 0.0851,0.16594 m -34.4802,6.9128 0.1815,0.14255 0.009,0.007 m 33.3372,-8.5583 0.15494,0.17105 0.0355,0.0391 m -0.9524,-0.3799 0.1904,-0.0706 m -33.7182,7.5244 0.11193,0.20183 0.0787,0.14187 m 32.5752,-6.6632 0.0965,-0.20965 0,0 0.0939,-0.20415 m -0.9524,2.8711 c 0.0635,-0.24117 0.12693,-0.48233 0.1904,-0.7235 m -32.9562,3.018 0.0984,0.20876 0.0923,0.19584 m 31.8132,0.6711 c 0.0635,-0.2965 0.12693,-0.593 0.1904,-0.8895 m -0.9524,4.3599 c 0.0635,-0.27377 0.12693,-0.54753 0.1904,-0.8213 m -32.1942,-5.2367 0.1104,0.20267 0.0802,0.14723 m 31.0512,8.2333 c 0.0635,-0.1615 0.12693,-0.323 0.1904,-0.4845 m -0.9524,1.0783 0.1904,0.0747 m -31.432,-10.3496 0.14967,0.17568 0.0407,0.0478 m 30.2892,8.1221 c 0.0635,0.24263 0.12693,0.48527 0.1904,0.7279 m -0.9524,-5.105 0.0953,0.6452 0.0953,0.6452 m -30.6702,-5.785 0.1904,0.0769 m 29.5272,-1.5626 0.0953,0.7863 0.0953,0.7863 m -0.9526,-7.6768 0.0953,0.72095 0.0953,0.72095 m -29.9082,6.1619 0.1904,-0.0469 m 28.7652,-12.03375 c 0.0635,0.29159 0.12707,0.58317 0.1906,0.87476 m -0.9526,-2.21074 0.1906,-0.0195 m -29.1462,13.82982 0.1904,-0.1226 m 28.0032,-11.1071 0.0953,-0.50807 0.0953,-0.50807 m -0.9526,7.22364 0.0953,-0.91655 0.0953,-0.91655 m -28.3842,7.4176 0.18361,-0.13983 0,0 0.007,-0.005 m 27.2412,3.0133 c 0.0635,-0.73807 0.12707,-1.47613 0.1906,-2.2142 m -0.9526,10.7563 c 0.0635,-0.6708 0.12707,-1.3416 0.1906,-2.0124 m -27.6222,-8.8586 0.1904,-0.1245 m 26.4792,17.281 0.0953,-0.62205 0.0953,-0.62205 m -0.9526,3.4249 0.1906,-0.0959 m -26.8602,-18.8516 0.1904,-0.0797 m -1.3334,0.2986 0.1904,-0.008 m 24.1934,-13.95965 c 0.0635,0.62631 0.12693,1.25263 0.1904,1.87894 m -1.7144,-7.13008 0.0986,-0.20867 0,0 0.0918,-0.19433 m -24.5742,19.42379 0.1904,0.0397 m 22.6694,-6.9607 c 0.0635,-0.70653 0.12693,-1.41307 0.1904,-2.1196 m -1.7144,18.4759 0.0952,-0.8305 0.0952,-0.8305 m -23.0502,-8.0718 0.1904,0.0293 m 21.1454,14.7921 0.14947,0.17585 0.0409,0.0481 m -1.7144,-8.7913 0.0952,0.7584 0.0952,0.7584 m -1.7144,-13.1019 0.0953,0.5845 0.0953,0.5845 m -1.7146,-5.0106 0.1906,-0.0801 m 37.909,8.813 0.1906,0.0302 m -1.7146,0.0117 0.1906,-0.0418 m -38.2902,-3.9347 c 0.0635,-0.28783 0.12707,-0.57567 0.1906,-0.8635 m 36.385,5.6085 0.18945,-0.1318 10e-4,-8e-4 m -1.7146,1.2083 0.1906,-0.1088 m -36.7662,0.8227 c 0.0635,-0.21843 0.12707,-0.43687 0.1906,-0.6553 m 34.8612,-0.0718 0.1904,0.1128 m -1.7144,-2.2697 0.10509,0.20548 0,0 0.0853,0.16682 m -35.2422,4.7861 0.1906,0.008 m 33.3372,-8.1757 0.12147,0.19624 0,0 0.0689,0.11136 m -1.7144,-0.5569 0.14355,-0.18072 0,0 0.0469,-0.059 m -33.7182,6.538 0.10121,0.20741 0.0894,0.18319 m 31.8132,-1.8775 c 0.0635,-0.277 0.12693,-0.554 0.1904,-0.831 m -1.7144,7.5057 c 0.0635,-0.22857 0.12693,-0.45713 0.1904,-0.6857 m -32.194,-7.4354 0.12594,0.1934 0.0645,0.099 m 30.2892,8.8639 0.0991,0.20842 0.0913,0.19188 m -1.7144,-8.9412 0.0953,0.7384 0.0953,0.7384 m -30.6702,-3.1533 0.1904,0.0101 m 28.7652,-10.09554 0.0953,0.60462 0.0953,0.60462 m -1.7146,-3.68142 c 0.0635,-0.17407 0.12707,-0.34815 0.1906,-0.52222 m -29.1462,13.81364 0.18594,-0.13672 0,0 0.004,-0.003 m 27.2412,-1.0873 c 0.0635,-0.6969 0.12707,-1.3938 0.1906,-2.0907 m -1.7146,18.5772 0.0953,-0.8455 0.0953,-0.8455 m -27.6222,-12.5213 0.1904,-0.1038 m 25.7172,18.4802 c 0.0635,0.1756 0.12707,0.3512 0.1906,0.5268 m -26.8602,-18.6103 0.1904,-0.0543 m 24.1934,-5.2684 c 0.0635,0.81396 0.12693,1.62793 0.1904,2.4419 m -3.2384,-11.83198 0.0952,-0.74084 0.0952,-0.74084 m -24.5742,15.93216 0.1904,0.0394 m 21.1454,14.0607 c 0.0635,-0.25753 0.12693,-0.51507 0.1904,-0.7726 m -3.2384,-13.4618 0.0953,0.76855 0.0953,0.76855 m -3.2386,-9.0427 c 0.0635,-0.19763 0.12707,-0.39527 0.1906,-0.5929 m 36.385,7.9949 0.1906,-0.092 m -3.2384,1.8723 0.1904,-0.0198 m -36.7662,2.3237 0.11625,-0.19938 0,0 0.0744,-0.12752 m 33.3372,-5.9715 0.0989,0.20853 0,0 0.0915,0.19297 m -3.2384,-0.2444 c 0.0635,-0.19323 0.12693,-0.38647 0.1904,-0.5797 m -33.7182,3.4633 0.10148,0.20728 0.0891,0.18202 m 30.2892,8.06 0.14855,-0.17663 0,0 0.0418,-0.0498 m -3.2384,-15.2 0.0953,0.7817 0.0953,0.7817 m -30.6702,3.244 0.1904,-0.0915 m 27.2412,-8.1937 0.0953,-0.73237 0.0953,-0.73238 m -3.2386,29.92195 c 0.0635,-0.2334 0.12707,-0.4668 0.1906,-0.7002 m -7.8104,-15.8535 c 0.0635,-0.72346 0.12693,-1.44693 0.1904,-2.1704 m -6.2864,-8.5408 c 0.0635,0.18843 0.12707,0.37687 0.1906,0.5653 m 36.385,7.4812 0.1906,0.002 m -6.2864,1.1079 0.1367,0.18595 0.0537,0.0731 m -36.7662,2.8567 0.13543,0.18688 0,0 0.0552,0.0761 m 30.2892,0.3791 c 0.0635,-0.2962 0.12693,-0.5924 0.1904,-0.8886 m -6.2864,-18.3065 c 0.0635,0.15223 0.12707,0.30445 0.1906,0.45668 m -30.6702,13.99332 0.1864,-0.13608 0.004,-0.003 m 15.0494,12.2731 0.0952,0.5269 0.0952,0.5269 m 24.1934,-17.2521 0.1904,0.0822 m -36.766,2.9198 0.18148,0.14259 0,0 0.009,0.007 m 24.1932,7.909 c 0.0635,-0.72977 0.12707,-1.45953 0.1906,-2.1893 m -18.4784,-5.266 c 0.0635,-0.28903 0.12707,-0.57807 0.1906,-0.8671 m 24.1932,7.0281 0.0952,0.51645 0.0952,0.51645 m -36.766,-5.9242 0.1904,0.0248 m 48.577,0.4796 0.18414,-0.13912 0.006,-0.005 m -24.5742,-19.27932 c 0.0635,0.27712 0.12693,0.55425 0.1904,0.83137 m 3.2384,34.17375 0.0953,0.56195 0.0953,0.56195 m -0.381,-2.5233 0.0952,0.6997 0.0952,0.6997 m -0.381,-3.052 0.0953,0.8263 0.0953,0.8263 m -0.381,-3.5315 c 0.0635,0.6263 0.12693,1.2526 0.1904,1.8789 m -0.381,-3.9532 c 0.0635,0.69144 0.12707,1.38287 0.1906,2.0743 m -0.381,-4.3095 c 0.0635,0.74506 0.12693,1.49013 0.1904,2.2352 m -0.3808,-4.5937 c 0.0635,0.78616 0.12693,1.57233 0.1904,2.3585 m -0.381,-4.8004 c 0.0635,0.81397 0.12707,1.62793 0.1906,2.4419 m -0.381,-4.926 c 0.0635,0.82803 0.12693,1.65607 0.1904,2.4841"
         style="fill:none;stroke:#000000;stroke-width:0.80000001;stroke-linecap:butt;stroke-linejoin:round;stroke-miterlimit:10;stroke-opacity:1;stroke-dasharray:none"
         id="path1156"
         inkscape:connector-curvature="0"
         sodipodi:nodetypes="cccccccccccccccccccccccccccccccccccccccccccccccccccccccccccccccccccccccccccccccccccccccccccccccccccccccccccccccccccccccccccccccccccccccccccccccccccccccccccccccccccccccccccccccccccccccccccccccccccccccccccccccccccccccccccccccccccccccccccccccccccccccccccccccccccccccccccccccccccccccccccccccccccccccccccccccccccccccccccccccccccccccccccccccccccccccccccccccccccccccccccccccccccccccccccccccccccccccccccccccccccccccccccccccccccccccccccccccccccccccccccccccccccccccccccccccccccccccccccccccccccccccccccccccccccccccccccccccccccccccccccccccccccccccccccccccccccccccccccccccccccccccccccccccccccccccccccccccccccccccccccccccccccccccccccccccccccccccccccccccccccccccccccccccccccccccccccccccccccccccccccccccccccccccccccccccccccccccccccccccccccccccccccccccccccccccccccccccccc" />
    </g>
    <path
       sodipodi:type="arc"
       style="fill:none;stroke:#000000;stroke-width:1;stroke-linejoin:round;stroke-miterlimit:10;stroke-opacity:1;stroke-dasharray:none;stroke-dashoffset:0"
       id="path4010"
       sodipodi:cx="360.11938"
       sodipodi:cy="609.41028"
       sodipodi:rx="57.07362"
       sodipodi:ry="57.07362"
       d="m 417.193,609.41028 a 57.07362,57.07362 0 1 1 -114.14724,0 57.07362,57.07362 0 1 1 114.14724,0 z"
       transform="translate(7.0710641,6.5660189)" />
    <path
       transform="matrix(1.2544084,0,0,1.2544084,-84.546332,-148.47307)"
       d="m 417.193,609.41028 a 57.07362,57.07362 0 1 1 -114.14724,0 57.07362,57.07362 0 1 1 114.14724,0 z"
       sodipodi:ry="57.07362"
       sodipodi:rx="57.07362"
       sodipodi:cy="609.41028"
       sodipodi:cx="360.11938"
       id="path4012"
       style="fill:none;stroke:#000000;stroke-width:0.79718854;stroke-linejoin:round;stroke-miterlimit:10;stroke-opacity:1;stroke-dasharray:none;stroke-dashoffset:0"
       sodipodi:type="arc" />
    <path
       transform="matrix(0.74997796,0,0,0.74997796,97.108847,158.93202)"
       d="m 417.193,609.41028 a 57.07362,57.07362 0 1 1 -114.14724,0 57.07362,57.07362 0 1 1 114.14724,0 z"
       sodipodi:ry="57.07362"
       sodipodi:rx="57.07362"
       sodipodi:cy="609.41028"
       sodipodi:cx="360.11938"
       id="path4014"
       style="fill:none;stroke:#000000;stroke-width:1.33337252;stroke-linejoin:round;stroke-miterlimit:10;stroke-opacity:1;stroke-dasharray:none;stroke-dashoffset:0"
       sodipodi:type="arc" />
    <path
       sodipodi:type="arc"
       style="fill:none;stroke:#000000;stroke-width:0.68261562;stroke-linejoin:round;stroke-miterlimit:10;stroke-opacity:1;stroke-dasharray:none;stroke-dashoffset:0"
       id="path4016"
       sodipodi:cx="360.11938"
       sodipodi:cy="609.41028"
       sodipodi:rx="57.07362"
       sodipodi:ry="57.07362"
       d="m 417.193,609.41028 a 57.07362,57.07362 0 1 1 -114.14724,0 57.07362,57.07362 0 1 1 114.14724,0 z"
       transform="matrix(1.4649533,0,0,1.4649533,-160.36763,-276.7813)" />
    <text
       xml:space="preserve"
       style="font-size:12px;font-style:normal;font-variant:normal;font-weight:normal;font-stretch:normal;text-indent:0;text-align:start;text-decoration:none;line-height:125%;letter-spacing:0px;word-spacing:0px;text-transform:none;direction:ltr;block-progression:tb;writing-mode:lr-tb;text-anchor:start;color:#000000;fill:#000000;fill-opacity:1;fill-rule:nonzero;stroke:none;stroke-width:1px;marker:none;visibility:visible;display:inline;overflow:visible;enable-background:accumulate;font-family:Arial;-inkscape-font-specification:Arial"
       x="265.16504"
       y="617.49152"
       id="text4018"
       sodipodi:linespacing="125%"><tspan
         sodipodi:role="line"
         id="tspan4020"
         x="265.16504"
         y="617.49152">...</tspan></text>
    <text
       sodipodi:linespacing="125%"
       id="text4022"
       y="617.49152"
       x="456.58896"
       style="font-size:12px;font-style:normal;font-variant:normal;font-weight:normal;font-stretch:normal;text-indent:0;text-align:start;text-decoration:none;line-height:125%;letter-spacing:0px;word-spacing:0px;text-transform:none;direction:ltr;block-progression:tb;writing-mode:lr-tb;text-anchor:start;color:#000000;fill:#000000;fill-opacity:1;fill-rule:nonzero;stroke:none;stroke-width:1px;marker:none;visibility:visible;display:inline;overflow:visible;enable-background:accumulate;font-family:Arial;-inkscape-font-specification:Arial"
       xml:space="preserve"><tspan
         y="617.49152"
         x="456.58896"
         id="tspan4024"
         sodipodi:role="line">...</tspan></text>
    <text
       xml:space="preserve"
       style="font-size:12px;font-style:normal;font-variant:normal;font-weight:normal;font-stretch:normal;text-indent:0;text-align:start;text-decoration:none;line-height:125%;letter-spacing:0px;word-spacing:0px;text-transform:none;direction:ltr;block-progression:tb;writing-mode:lr-tb;text-anchor:start;color:#000000;fill:#000000;fill-opacity:1;fill-rule:nonzero;stroke:none;stroke-width:1px;marker:none;visibility:visible;display:inline;overflow:visible;enable-background:accumulate;font-family:Arial;-inkscape-font-specification:Arial"
       x="-714.33844"
       y="368.76898"
       id="text4026"
       sodipodi:linespacing="125%"
       transform="matrix(0,-1,1,0,0,0)"><tspan
         sodipodi:role="line"
         id="tspan4028"
         x="-714.33844"
         y="368.76898">...</tspan></text>
    <text
       transform="matrix(0,-1,1,0,0,0)"
       sodipodi:linespacing="125%"
       id="text4030"
       y="368.76898"
       x="-526.45007"
       style="font-size:12px;font-style:normal;font-variant:normal;font-weight:normal;font-stretch:normal;text-indent:0;text-align:start;text-decoration:none;line-height:125%;letter-spacing:0px;word-spacing:0px;text-transform:none;direction:ltr;block-progression:tb;writing-mode:lr-tb;text-anchor:start;color:#000000;fill:#000000;fill-opacity:1;fill-rule:nonzero;stroke:none;stroke-width:1px;marker:none;visibility:visible;display:inline;overflow:visible;enable-background:accumulate;font-family:Arial;-inkscape-font-specification:Arial"
       xml:space="preserve"><tspan
         y="368.76898"
         x="-526.45007"
         id="tspan4032"
         sodipodi:role="line">...</tspan></text>
  </g>
</svg>
